<?xml version="1.0" standalone="no"?>
<!DOCTYPE svg PUBLIC "-//W3C//DTD SVG 1.1//EN" "http://www.w3.org/Graphics/SVG/1.1/DTD/svg11.dtd" >
<svg>
<metadata>
Created by FontForge 20090914 at Sat Oct 14 16:57:04 2017
 By www-data
(c) Copyright 2001 by Tom Truong. All Rights Reserved
</metadata>
<defs>
<font id="UVNBaiSauNang" horiz-adv-x="1309" >
  <font-face 
    font-family="UVN Bai Sau Nang"
    font-weight="400"
    font-stretch="normal"
    units-per-em="2048"
    panose-1="4 3 9 5 2 8 2 2 12 3"
    ascent="1638"
    descent="-410"
    x-height="1042"
    cap-height="1432"
    bbox="-342 -600.001 2605 2298"
    underline-thickness="289"
    underline-position="-98"
    unicode-range="U+0020-U+F002"
  />
<missing-glyph horiz-adv-x="1024" 
d="M128 0v2298h768v-2298h-768zM256 128h512v2042h-512v-2042z" />
    <glyph glyph-name=".notdef" horiz-adv-x="1024" 
d="M128 0v2298h768v-2298h-768zM256 128h512v2042h-512v-2042z" />
    <glyph glyph-name="space" unicode=" " horiz-adv-x="600" 
 />
    <glyph glyph-name="exclam" unicode="!" horiz-adv-x="702" 
d="M160 520l-43 912h467l-47 -912h-377zM117 215c0 67.333 22.167 123.5 66.5 168.5s99.833 67.5 166.5 67.5c67.333 0 123.5 -22.5 168.5 -67.5s67.5 -101.167 67.5 -168.5c0 -64.667 -23.167 -119.667 -69.5 -165s-101.833 -68 -166.5 -68
c-65.333 0 -120.5 22.5 -165.5 67.5s-67.5 100.167 -67.5 165.5z" />
    <glyph glyph-name="quotedbl" unicode="&#x22;" horiz-adv-x="758" 
d="M690 1440v-563h-260v563h260zM326 1440v-563h-258v563h258z" />
    <glyph glyph-name="numbersign" unicode="#" horiz-adv-x="1575" 
d="M946 834h-239l-78 -213h239zM938 1470l-129 -366h227l129 366h289l-129 -366h256l-100 -270h-252l-76 -213h258l-100 -271h-254l-131 -366h-289l131 366h-227l-131 -366h-289l131 366h-258l100 271h254l74 213h-258l98 270h258l129 366h289z" />
    <glyph glyph-name="dollar" unicode="$" horiz-adv-x="1200" 
d="M510 -113v265h-311v342h333c45.333 0 68 17 68 51c0 18.667 -12.333 37.667 -37 57l-160 127c-133.333 106 -200 216.667 -200 332c0 89.333 29.333 161 88 215c54.667 50 127.667 78.667 219 86v225h211v-225h268v-342h-250c-46 0 -69 -11.667 -69 -35
c0 -21.333 33.333 -55 100 -101c90 -62.667 152.333 -112 187 -148c66.667 -70.667 100 -146 100 -226c0 -102 -31 -184.333 -93 -247c-58.667 -60.667 -139.667 -97.667 -243 -111v-265h-211z" />
    <glyph glyph-name="percent" unicode="%" horiz-adv-x="1802" 
d="M1266 354c0 -30 10.833 -55.498 32.5 -76.498s47.5 -31.5 77.5 -31.5s55.667 10.5 77 31.5s32 46.5 32 76.5c0 31.333 -10.333 57.666 -31 78.999s-46.667 32 -78 32c-30.667 0 -56.667 -10.833 -78 -32.5s-32 -47.834 -32 -78.501zM991 354.002
c0 107.333 37.333 198 112 272s165.667 111 273 111c108 0 198.833 -36.833 272.5 -110.5s110.5 -164.5 110.5 -272.5c0 -108.667 -36.833 -199.667 -110.5 -273s-164.5 -110 -272.5 -110c-107.333 0 -198.333 37 -273 111s-112 164.667 -112 272zM43 1071
c0 107.333 37 198 111 272s164.667 111 272 111c108 0 198.833 -36.833 272.5 -110.5s110.5 -164.5 110.5 -272.5s-36.833 -198.833 -110.5 -272.5s-164.5 -110.5 -272.5 -110.5c-107.333 0 -198 37 -272 111s-111 164.667 -111 272zM315 1071
c0 -30 11.001 -55.8311 33.001 -77.498s48 -32.5 78 -32.5c30.667 0 56.5 10.667 77.5 32s31.5 47.333 31.5 78c0 31.333 -10.333 57.666 -31 78.999s-46.667 32 -78 32c-30.667 0 -56.834 -10.833 -78.501 -32.5s-32.5 -47.834 -32.5 -78.501zM295.001 0.00390625l997 1432
h209l-991 -1432h-215z" />
    <glyph glyph-name="ampersand" unicode="&#x26;" horiz-adv-x="1651" 
d="M791 1061l318.999 -389.003c27.333 39.333 41 79 41 119c0 44.667 -10.333 88.334 -31 131.001l310 165c72 -114 108 -221 108 -321c0 -134 -56 -271.333 -168 -412l295 -354h-524l-60 78c-105.333 -68.667 -228.666 -103 -369.999 -103c-172 0 -313.333 51.667 -424 155
c-113.333 106 -170 244.333 -170 415c0 192.667 81 346.334 243 461.001l-66 96c-22.667 38.667 -34 75.334 -34 110.001c0 72 29.333 128 88 168c50.667 34.667 113.667 52 189 52h628v-371h-374zM822.999 423.997l-202 257.999c-46.667 -37.333 -70 -83.666 -70 -138.999
c0 -46 15.167 -85.167 45.5 -117.5s68.5 -48.5 114.5 -48.5c42 0 79.333 15.667 112 47z" />
    <glyph glyph-name="quotesingle" unicode="'" horiz-adv-x="393" 
d="M326 1440v-563h-258v563h258z" />
    <glyph glyph-name="parenleft" unicode="(" horiz-adv-x="854" 
d="M805 -354l-211 -246.001c-316.667 327.333 -475 684.333 -475 1071c0 390.667 158.333 748.334 475 1073l211 -241c-213.333 -246.667 -320 -524 -320 -832c0 -310.667 106.667 -585.667 320 -825z" />
    <glyph glyph-name="parenright" unicode=")" horiz-adv-x="854" 
d="M47 1298l213 246.001c316.667 -327.333 475 -684.333 475 -1071c0 -390.667 -158.333 -748.334 -475 -1073l-211 242c212 245.333 318 522.333 318 831c0 312 -106.667 587 -320 825z" />
    <glyph glyph-name="asterisk" unicode="*" horiz-adv-x="1010" 
d="M653 631h-291l66 268l-199 -192l-145 254l264 75l-264 76l145 252l199 -190l-66 266h291l-65 -266l198 190l146 -252l-266 -76l266 -75l-146 -254l-198 190z" />
    <glyph glyph-name="plus" unicode="+" horiz-adv-x="1706" 
d="M993 1221v-473h459v-273h-459v-475h-280v475h-459v273h459v473h280z" />
    <glyph glyph-name="comma" unicode="," horiz-adv-x="600" 
d="M20 -270l103 602h405l-194 -602h-314z" />
    <glyph glyph-name="hyphen" unicode="-" horiz-adv-x="825" 
d="M117 344v354h592v-354h-592z" />
    <glyph glyph-name="hyphen" unicode="&#x2010;" horiz-adv-x="825" 
d="M117 344v354h592v-354h-592z" />
    <glyph glyph-name="period" unicode="." horiz-adv-x="600" 
d="M66 215c0 67.333 22.167 123.5 66.5 168.5s99.833 67.5 166.5 67.5c67.333 0 123.5 -22.5 168.5 -67.5s67.5 -101.167 67.5 -168.5c0 -64.667 -23.167 -119.667 -69.5 -165s-101.833 -68 -166.5 -68c-65.333 0 -120.5 22.5 -165.5 67.5s-67.5 100.167 -67.5 165.5z" />
    <glyph glyph-name="slash" unicode="/" horiz-adv-x="891" 
d="M209 -190h-268l757 1646h269z" />
    <glyph glyph-name="zero" unicode="0" horiz-adv-x="1200" 
d="M692 496v460.001c0 29.333 -8.16699 54.166 -24.5 74.499s-38.833 30.5 -67.5 30.5c-28 0 -50.667 -10.5 -68 -31.5s-26 -45.5 -26 -73.5v-460c0 -28.667 8.5 -53.334 25.5 -74.001s39.833 -31 68.5 -31c28 0 50.333 10.333 67 31s25 45.334 25 74.001zM66 981.001
c0 142.667 54.333 259 163 349c102 84 225.667 126 371 126c144.667 0 268 -42.333 370 -127c108.667 -90.667 163 -206.667 163 -348v-530c0 -142.667 -54 -259 -162 -349c-101.333 -84.667 -225 -127 -371 -127s-270 42 -372 126c-108 90 -162 206.667 -162 350v530z" />
    <glyph glyph-name="one" unicode="1" horiz-adv-x="1200" 
d="M440 0v1071h-186v361h627v-1432h-441z" />
    <glyph glyph-name="two" unicode="2" horiz-adv-x="1200" 
d="M283 588c-140.667 112.667 -211.001 248.334 -211.001 407.001c0 139.333 49.667 252 149 338c94 82 212 123 354 123c145.333 0 265.333 -36.667 360 -110c104.667 -80.667 157 -191.334 157 -332.001c0 -118.667 -38.667 -232 -116 -340
c-33.333 -47.333 -115.666 -137.666 -246.999 -270.999h389v-403h-911c-47.333 0 -84.833 14.5 -112.5 43.5s-41.5 67.167 -41.5 114.5c0 57.333 31.333 120.666 94 189.999l478 529c32.667 36 49 68.667 49 98c0 61.333 -32 92 -96 92c-27.333 0 -50.333 -9.5 -69 -28.5
s-28 -42.167 -28 -69.5c0 -37.333 19.333 -70.333 58 -99z" />
    <glyph glyph-name="three" unicode="3" horiz-adv-x="1200" 
d="M131 1432h594c98.667 0 179.334 -18.333 242.001 -55c77.333 -45.333 116 -114 116 -206c0 -75.333 -32 -139.333 -96 -192l-184 -152c196.667 -44 295 -172.333 295 -385c0 -138 -44 -246.667 -132 -326c-84.667 -77.333 -196.334 -116 -335.001 -116h-535v403h410
c99.333 0 149 30.333 149 91c0 57.333 -44.333 86 -133 86h-278v219l331 239h-444v394z" />
    <glyph glyph-name="four" unicode="4" horiz-adv-x="1200" 
d="M580 0v289h-271c-194 0 -291 75.667 -291 227c0 55.333 17.333 112 52 170l448 746h406l-482 -795h187v168l387 651v-782h166v-385h-166v-289h-436z" />
    <glyph glyph-name="five" unicode="5" horiz-adv-x="1200" 
d="M563 956l77.999 0.000976562c140.667 0 252 -42.5 334 -127.5s123 -198.167 123 -339.5c0 -164.667 -55 -289.334 -165 -374.001c-99.333 -76.667 -233.666 -115 -402.999 -115h-405v403h377c80.667 0 121 31.667 121 95c0 62.667 -40.333 94 -121 94h-332v840h831v-379
h-438v-97z" />
    <glyph glyph-name="six" unicode="6" horiz-adv-x="1200" 
d="M485 1432l480 0.00195312l-428 -821c-27.333 -52.667 -41 -89.667 -41 -111c0 -75.333 37.333 -113 112 -113c30 0 55 10.333 75 31s30 46 30 76c0 65.333 -41 98 -123 98l192 366c239.333 -58.667 359 -203.334 359 -434.001c0 -162.667 -52.333 -294.834 -157 -396.501
s-238.667 -152.5 -402 -152.5c-142 0 -262.667 47.333 -362 142c-101.333 96 -152 214.667 -152 356c0 110.667 36.667 235.667 110 375z" />
    <glyph glyph-name="seven" unicode="7" horiz-adv-x="1200" 
d="M182 523v260.999h344l88 244h-505v404h684c212.667 0 319 -75.333 319 -226c0 -31.333 -4 -58.666 -12 -81.999l-115 -340h67v-261h-156l-177 -523h-477l189 523h-249z" />
    <glyph glyph-name="eight" unicode="8" horiz-adv-x="1200" 
d="M240 803c-89.333 68 -133.999 154.001 -133.999 258.001c0 127.333 52 227 156 299c91.333 64 203.333 96 336 96s245 -32 337 -96c104.667 -72 157 -171.667 157 -299c0 -102.667 -45.333 -188.667 -136 -258c130 -70.667 195 -185.334 195 -344.001
s-53.667 -280.667 -161 -366c-98.667 -78.667 -229.334 -118 -392.001 -118s-293 39.333 -391 118c-106.667 85.333 -160 207.333 -160 366c0 160 64.333 274.667 193 344zM504.001 1014c0 -25.333 9.16699 -46.333 27.5 -63s40.5 -25 66.5 -25s48.167 8.33301 66.5 25
s27.5 37.667 27.5 63c0 58.667 -31.333 88 -94 88s-94 -29.333 -94 -88zM492.001 496.001c0 -30 10.499 -55.001 31.499 -75.001s46.5 -30 76.5 -30c30.667 0 56.167 9.83301 76.5 29.5s30.5 44.834 30.5 75.501c0 30 -10.333 54.833 -31 74.5s-46 29.5 -76 29.5
c-29.333 0 -54.666 -10 -75.999 -30s-32 -44.667 -32 -74z" />
    <glyph glyph-name="nine" unicode="9" horiz-adv-x="1200" 
d="M412 473c-238 58.667 -357 203.335 -357 434.002c0 163.333 52 295.666 156 396.999s237.667 152 401 152c142.667 0 263.667 -47 363 -141c100.667 -96 151 -215 151 -357c0 -108.667 -36.667 -233.334 -110 -374.001l-305 -584h-482l431 822
c25.333 48 38 84.667 38 110c0 74.667 -36.667 112 -110 112c-30 0 -55.333 -10.167 -76 -30.5s-31 -45.5 -31 -75.5c0 -65.333 41 -98 123 -98z" />
    <glyph glyph-name="colon" unicode=":" horiz-adv-x="653" 
d="M92 805c0 67.333 22.5 123.333 67.5 168s101.167 67 168.5 67c66.667 0 122.167 -22.5 166.5 -67.5s66.5 -100.833 66.5 -167.5c0 -64.667 -22.667 -120.167 -68 -166.5s-100.333 -69.5 -165 -69.5c-65.333 0 -121 23 -167 69s-69 101.667 -69 167zM92 215
c0 67.333 22.5 123.5 67.5 168.5s101.167 67.5 168.5 67.5c66.667 0 122.167 -22.667 166.5 -68s66.5 -101.333 66.5 -168c0 -64.667 -22.667 -119.667 -68 -165s-100.333 -68 -165 -68c-65.333 0 -121 22.5 -167 67.5s-69 100.167 -69 165.5z" />
    <glyph glyph-name="semicolon" unicode=";" horiz-adv-x="653" 
d="M86 805c0 66.667 22.167 122.5 66.5 167.5s99.833 67.5 166.5 67.5c67.333 0 123.5 -22.333 168.5 -67s67.5 -100.667 67.5 -168c0 -65.333 -23 -121 -69 -167s-101.667 -69 -167 -69s-120.5 23 -165.5 69s-67.5 101.667 -67.5 167zM41 -270l102 602h406l-195 -602h-313z
" />
    <glyph glyph-name="less" unicode="&#x3c;" horiz-adv-x="1706" 
d="M1442 938l-801 -328l801 -327v-299l-1178 487v281l1178 487v-301z" />
    <glyph glyph-name="equal" unicode="=" horiz-adv-x="1706" 
d="M1452 512v-272h-1198v272h1198zM1452 983v-272h-1198v272h1198z" />
    <glyph glyph-name="greater" unicode="&#x3e;" horiz-adv-x="1706" 
d="M1442 752v-281l-1178 -487v299l801 327l-801 328v301z" />
    <glyph glyph-name="question" unicode="?" horiz-adv-x="1053" 
d="M692 498l-385.001 -0.000976562v385h131c93.333 0 140 29.333 140 88c0 54.667 -28.667 82 -86 82c-53.333 0 -91 -29.333 -113 -88l-385 151c78.667 229.333 251.334 344 518.001 344c152.667 0 275.667 -41.333 369 -124c98 -86.667 147 -205 147 -355
c0 -229.333 -112 -366.666 -336 -411.999v-71zM267.999 210.999c0 66.667 22.667 122.5 68 167.5s101.333 67.5 168 67.5s122.5 -22.5 167.5 -67.5s67.5 -100.833 67.5 -167.5c0 -65.333 -22.833 -121 -68.5 -167s-101.167 -69 -166.5 -69s-121 23 -167 69
s-69 101.667 -69 167z" />
    <glyph glyph-name="at" unicode="@" horiz-adv-x="2048" 
d="M1241 911l49 82h242l-156 -627c-2.66699 -10.667 -4 -20.667 -4 -30c0 -32.667 15.667 -49 47 -49c84.667 0 161.5 47.167 230.5 141.5s103.5 204.833 103.5 331.5c0 170.667 -65.667 303.667 -197 399c-116 84.667 -262.667 127 -440 127
c-94.667 0 -183.334 -11.667 -266.001 -35c-164 -47.333 -296.167 -137.333 -396.5 -270s-150.5 -284.334 -150.5 -455.001c0 -207.333 72.333 -368.666 217 -483.999c132.667 -106 305.334 -159 518.001 -159c215.333 0 410.666 62.333 585.999 187l115 -160
c-215.333 -160 -456.333 -240 -723 -240c-266 0 -487.333 74 -664 222c-188 158 -282 367.333 -282 628c0 287.333 102.667 524.333 308 711c199.333 181.333 444 272 734 272c257.333 0 466 -68.667 626 -206s240 -315 240 -533c0 -114 -22.667 -218.667 -68 -314
c-50 -106 -120.667 -191 -212 -255c-95.333 -67.333 -199.333 -101 -312 -101c-144 0 -221.667 51 -233 153c-75.333 -100.667 -171.666 -151 -288.999 -151c-229.333 0 -344 116.667 -344 350c0 155.333 43.667 288 131 398c94.667 118.667 217.667 178 369 178
c102 0 175.667 -37 221 -111zM1173 689c2.66699 11.333 -1.33301 29.665 -12 54.998c-10 22.667 -20 39.334 -30 50.001c-23.333 24.667 -53.666 37 -90.999 37c-62.667 0 -118.167 -38.667 -166.5 -116s-72.5 -169 -72.5 -275c0 -100.667 39 -151 117 -151
c53.333 0 99.333 21.667 138 65c33.333 36.667 56.666 83.334 69.999 140.001z" />
    <glyph glyph-name="A" unicode="A" 
d="M86 0v819c0 184.667 47.333 334.667 142 450c102 123.333 243.667 185 425 185c182 0 324 -61.667 426 -185c96 -114.667 144 -264.667 144 -450v-819h-449v451h-186v374h186v43c0 100 -40.333 150 -121 150c-77.333 0 -116 -50 -116 -150v-868h-451z" />
    <glyph glyph-name="B" unicode="B" horiz-adv-x="1266" 
d="M86 0v902.999c0 166 45.333 299 136 399c94.667 104 224 156 388 156c137.333 0 257 -38 359 -114c112 -83.333 168 -191.333 168 -324c0 -102.667 -41 -186.667 -123 -252c144.667 -88 217 -204.667 217 -350c0 -109.333 -35.667 -201.666 -107 -276.999
c-64 -67.333 -148.333 -110 -253 -128c-50 -8.66699 -147 -13 -291 -13v379c60.667 0 102.334 3.66699 125.001 11c44.667 14 67 45 67 93s-22.333 79.333 -67 94c-22.667 7.33301 -64.334 11 -125.001 11v305c88.667 0 133 31.333 133 94c0 26.667 -8.66699 48.667 -26 66
s-39.333 26 -66 26c-63.333 0 -95 -48.333 -95 -145v-934h-440z" />
    <glyph glyph-name="C" unicode="C" horiz-adv-x="1053" 
d="M999 1008c-154 0 -263.333 -12.332 -328 -36.999c-111.333 -42 -167 -126.667 -167 -254c0 -128 55.333 -213 166 -255c66 -25.333 175.667 -38 329 -38v-424h-38c-128 0 -239.667 10 -335 30s-175 50.333 -239 91c-106 66.667 -188.5 151.834 -247.5 255.501
s-88.5 217.167 -88.5 340.5s29.5 236.666 88.5 339.999s141.5 188 247.5 254c63.333 39.333 143.333 69.666 240 90.999c94.667 20 218.667 30 372 30v-424z" />
    <glyph glyph-name="D" unicode="D" horiz-adv-x="1331" 
d="M94 0l-0.000976562 1432h410c96.667 0 184 -11.333 262 -34c150.667 -44 274 -129.833 370 -257.5s144 -270.167 144 -427.5c0 -125.333 -30.667 -242.833 -92 -352.5s-145.333 -197.167 -252 -262.5c-94 -57.333 -208.667 -90 -344 -98v436
c152.667 36 229 129.667 229 281c0 85.333 -24.667 153.666 -74 204.999s-116.666 79.333 -201.999 84v-1006h-451z" />
    <glyph glyph-name="E" unicode="E" horiz-adv-x="1075" 
d="M999 1034c-129.333 0 -213.667 -3.66602 -253 -10.999c-92.667 -18 -161 -61.333 -205 -130h458v-350h-460c42.667 -71.333 111 -116 205 -134c39.333 -8 124.333 -12 255 -12v-397h-38c-128.667 0 -240 10 -334 30c-96 20 -176 50.333 -240 91
c-106 66.667 -188.5 151.834 -247.5 255.501s-88.5 217.167 -88.5 340.5s29.5 236.666 88.5 339.999s141.5 188 247.5 254c63.333 39.333 143.333 69.666 240 90.999c94.667 20 218.667 30 372 30v-398z" />
    <glyph glyph-name="F" unicode="F" horiz-adv-x="981" 
d="M86 0v924c0 338.667 176 508 528 508h304v-400h-240c-56 0 -94.333 -15 -115 -45c-17.333 -24.667 -26 -65.667 -26 -123h381v-383h-381v-481h-451z" />
    <glyph glyph-name="G" unicode="G" horiz-adv-x="1583" 
d="M1536 895c1.33301 -16 2.00098 -40.667 2.00098 -74c0 -336 -112.667 -578.333 -338 -727c-120.667 -79.333 -256.334 -119 -407.001 -119c-204.667 0 -379.5 72.5 -524.5 217.5s-217.5 319.833 -217.5 524.5c0 210 74.667 386.667 224 530
c147.333 140.667 326.666 211 537.999 211c208 0 393.667 -77 557 -231l-305 -287c-86.667 64 -170 96 -250 96c-91.333 0 -167 -30 -227 -90s-90 -135.667 -90 -227c0 -85.333 27.333 -158 82 -218c56 -62 126.333 -93 211 -93c104.667 0 186.334 43.667 245.001 131h-315
v356h815z" />
    <glyph glyph-name="H" unicode="H" horiz-adv-x="1327" 
d="M94 0v1432h451v-482h237v482h451v-1432h-451v549h-237v-549h-451z" />
    <glyph glyph-name="I" unicode="I" horiz-adv-x="645" 
d="M96 0v1432h451v-1432h-451z" />
    <glyph glyph-name="J" unicode="J" horiz-adv-x="883" 
d="M797 1432v-924c0 -338.667 -177 -508 -531 -508h-248v399h187c94 0 141 46.667 141 140v893h451z" />
    <glyph glyph-name="K" unicode="K" horiz-adv-x="1255" 
d="M94 0v1432h451v-481c47.333 2.66699 83.333 42.667 108 120l115 361h467l-154 -414c-36 -97.333 -77 -159.666 -123 -186.999c98.667 -20 164.667 -69 198 -147c22.667 -53.333 34 -139.333 34 -258v-426h-451v453c0 70.667 -15.333 115 -46 133
c-20 10.667 -69.333 16 -148 16v-602h-451z" />
    <glyph glyph-name="L" unicode="L" horiz-adv-x="905" 
d="M86 1432h451v-893c0 -93.333 47 -140 141 -140h213v-399h-277c-352 -0 -528 169.333 -528 508v924z" />
    <glyph glyph-name="M" unicode="M" horiz-adv-x="1741" 
d="M31 0l110.003 1161c18.667 196.667 125.334 295 320.001 295c163.333 0 262.333 -72.333 297 -217c28 -112.667 65.333 -283.334 112 -512.001c15.333 98.667 52.333 269.334 111 512.001c34.667 144.667 133.667 217 297 217c193.333 0 299.666 -98.333 318.999 -295
l113 -1161h-442l-60 928c-8.66699 -82.667 -19.334 -150.334 -32.001 -203.001l-136 -575c-26.667 -113.333 -83.334 -170 -170.001 -170s-143.334 56.667 -170.001 170l-135 575c-11.333 49.333 -23 117 -35 203l-59 -928h-440z" />
    <glyph glyph-name="N" unicode="N" horiz-adv-x="1397" 
d="M92 0l0.00195312 1145c0 207.333 84 311 252 311c121.333 0 219.666 -69.667 294.999 -209l162 -299c12 -27.333 31 -68 57 -122v606h447v-1162c0 -198 -84 -297 -252 -297c-114 0 -206.333 63.667 -277 191l-180 323c-2.66699 4.66699 -22.334 47.667 -59.001 129v-616
h-445z" />
    <glyph glyph-name="O" unicode="O" horiz-adv-x="1583" 
d="M512 719c0 -80.667 26.834 -149.667 80.501 -207s120.5 -86 200.5 -86c79.333 0 145.666 29.333 198.999 88c52.667 56.667 79 125 79 205s-26 148.333 -78 205c-54 57.333 -120.667 86 -200 86s-146 -28.5 -200 -85.5s-81 -125.5 -81 -205.5zM51.001 717
c0 204.667 72.5 379 217.5 523s319.833 216 524.5 216c204 0 378.167 -72.167 522.5 -216.5s216.5 -318.5 216.5 -522.5s-72.167 -378.667 -216.5 -524s-318.5 -218 -522.5 -218s-378.667 72.667 -524 218s-218 320 -218 524z" />
    <glyph glyph-name="P" unicode="P" horiz-adv-x="1208" 
d="M86 0l-0.000976562 884.999c0 171.333 48 309 144 413c98.667 106.667 233 160 403 160c150.667 0 277.334 -48.333 380.001 -145c105.333 -99.333 158 -223.666 158 -372.999c0 -157.333 -54.667 -283.333 -164 -378c-104 -90.667 -235.667 -136 -395 -136h-26v403
c113.333 0 170 37 170 111c0 30.667 -10.5 56.5 -31.5 77.5s-46.833 31.5 -77.5 31.5c-73.333 0 -110 -56.667 -110 -170v-879h-451z" />
    <glyph glyph-name="Q" unicode="Q" horiz-adv-x="1583" 
d="M635 604l335.999 0.00195312v-117c70.667 61.333 106 138.666 106 231.999c0 81.333 -26.667 151 -80 209c-55.333 58.667 -123.333 88 -204 88c-81.333 0 -149.166 -28.667 -203.499 -86s-81.5 -127 -81.5 -209s25.333 -151 76 -207v-506
c-166.667 53.333 -296.667 139.666 -390 258.999c-95.333 123.333 -143 271.333 -143 444c0 205.333 72.333 380.833 217 526.5s319.667 218.5 525 218.5s379.833 -72.5 523.5 -217.5s215.5 -320.167 215.5 -525.5c0 -173.333 -49.167 -323.5 -147.5 -450.5
s-231.5 -213.833 -399.5 -260.5v-209h-350v811z" />
    <glyph glyph-name="R" unicode="R" horiz-adv-x="1249" 
d="M86 2v883c0 171.333 48 309 144 413c98.667 106.667 233 160 403 160c142.667 0 266.667 -39 372 -117c116.667 -86 175 -197.667 175 -335c0 -120.667 -54.667 -212.334 -164 -275.001c120 -41.333 180 -139 180 -293v-438h-446v377c0 54 -14.667 89 -44 105
c-20 10.667 -60 16 -120 16v352c113.333 0 170 37 170 111c0 30.667 -10.5 56.334 -31.5 77.001s-46.833 31 -77.5 31c-73.333 0 -110 -56.667 -110 -170v-897h-451z" />
    <glyph glyph-name="S" unicode="S" horiz-adv-x="1116" 
d="M61 0v419.999h388c50 0 75 17 75 51c0 24 -8 42.333 -24 55l-291 230c-94 74 -141 174.333 -141 301c0 130.667 53.667 228.667 161 294c88.667 54 202.667 81 342 81h428v-408h-350c-47.333 0 -71 -12.333 -71 -37c0 -18 14.333 -38.333 43 -61l196 -154
c82.667 -65.333 138.667 -117.666 168 -156.999c45.333 -61.333 68 -133.333 68 -216c0 -137.333 -55.667 -241 -167 -311c-92.667 -58.667 -212 -88 -358 -88h-467z" />
    <glyph glyph-name="T" unicode="T" horiz-adv-x="1034" 
d="M741 1032v-1032h-450v1032h-273v400h996v-400h-273z" />
    <glyph glyph-name="U" unicode="U" 
d="M1223 1432v-820.001c0 -184.667 -48 -334.667 -144 -450c-102.667 -123.333 -244.667 -185 -426 -185c-180.667 0 -322 62 -424 186c-95.333 114.667 -143 264.334 -143 449.001v820h449v-869c0 -99.333 39.333 -149 118 -149c79.333 0 119 49.667 119 149v869h451z" />
    <glyph glyph-name="V" unicode="V" horiz-adv-x="1147" 
d="M1188 1432l-260.001 -1129c-25.333 -109.333 -62.666 -189.333 -111.999 -240c-57.333 -58.667 -139 -88 -245 -88c-104.667 0 -185.667 29.667 -243 89c-49.333 51.333 -86.333 131 -111 239l-258 1129h461c38 -206 88.333 -516.667 151 -932
c26.667 176.667 78 487.334 154 932.001h463z" />
    <glyph glyph-name="W" unicode="W" horiz-adv-x="1888" 
d="M88 1432h438.001v-914c0 -83.333 33.667 -125 101 -125c65.333 0 98 41.667 98 125v914h440v-914c0 -83.333 33 -125 99 -125c65.333 0 98 41.667 98 125v914h440v-854c0 -172.667 -45 -314 -135 -424c-96.667 -119.333 -229 -179 -397 -179
c-120.667 0 -229.334 41 -326.001 123c-98 -82 -203.667 -123 -317 -123c-172 0 -306.667 58.333 -404 175c-90 109.333 -135 252 -135 428v854z" />
    <glyph glyph-name="X" unicode="X" 
d="M10 1431c284 -1.33301 498.333 -82.999 643 -244.999c144.667 162 359.667 243.667 645 245v-423c-4.66699 0 -12 0.333008 -22 1s-17.667 1 -23 1c-107.333 0 -193.333 -21.333 -258 -64c-76 -50.667 -114 -127 -114 -229c0 -102.667 38 -179.334 114 -230.001
c64 -43.333 150 -65 258 -65c5.33301 0 13 0.333008 23 1s17.333 1 22 1v-424c-282 2.66699 -497 83.334 -645 242.001c-148 -158.667 -362 -239.334 -642 -242.001l-1 424c4.66699 0 12 -0.333008 22 -1s17.667 -1 23 -1c108 0 194.333 21.333 259 64
c76 50.667 114 127.667 114 231c0 102 -38.333 178.333 -115 229c-64.667 42.667 -150.667 64 -258 64c-5.33301 0 -13 -0.333008 -23 -1s-17.333 -1 -22 -1v423z" />
    <glyph glyph-name="Y" unicode="Y" horiz-adv-x="1194" 
d="M522 1432v-459.001c0 -62.667 25.333 -94 76 -94c49.333 0 74 31.333 74 94v459h446v-449c0 -233.333 -98.333 -393.666 -295 -480.999v-502h-450v502c-198 90 -297 250.333 -297 481v449h446z" />
    <glyph glyph-name="Z" unicode="Z" horiz-adv-x="1139" 
d="M106 1432h629c247.333 0 371 -94.333 371 -283c0 -84 -37 -169.333 -111 -256l-407 -475h520v-418h-754c-97.333 0 -175.333 20.667 -234 62c-68 48 -102 118.667 -102 212c0 82.667 38.333 168 115 256l436 500h-463v402z" />
    <glyph glyph-name="bracketleft" unicode="[" horiz-adv-x="834" 
d="M545 -229h182v-252h-528v1913h528v-246h-182v-1415z" />
    <glyph glyph-name="backslash" unicode="\" horiz-adv-x="891" 
d="M-59 1456h266l760 -1646h-269z" />
    <glyph glyph-name="bracketright" unicode="]" horiz-adv-x="834" 
d="M291 1180h-182v252h528v-1913h-528v245h182v1416z" />
    <glyph glyph-name="asciicircum" unicode="^" horiz-adv-x="2048" 
d="M1192 1462l442 -565h-303l-307 309l-309 -309h-303l442 565h338z" />
    <glyph glyph-name="underscore" unicode="_" horiz-adv-x="1024" 
d="M1024 -201v-282h-1024v282h1024z" />
    <glyph glyph-name="grave" unicode="`" horiz-adv-x="1024" 
d="M207 1526h287l192 -369h-154z" />
    <glyph glyph-name="a" unicode="a" horiz-adv-x="1171" 
d="M578 647c-32.667 0 -59.667 -11.833 -81 -35.5s-32 -52.167 -32 -85.5s10.5 -61.333 31.5 -84s48.167 -34 81.5 -34c26 0 48.333 7.33301 67 22v-432c-28 -2.66699 -51.333 -4 -70 -4c-154.667 0 -280.667 48.667 -378 146s-146 223.333 -146 378
c0 150 50.5 278.333 151.5 385s226.167 160 375.5 160c118 0 221.5 -32.667 310.5 -98s150.5 -154.333 184.5 -267c20.667 -68 31 -166 31 -294v-404h-412v473c0 116 -38 174 -114 174z" />
    <glyph glyph-name="b" unicode="b" horiz-adv-x="1171" 
d="M598 397c32.667 0 59.668 11.667 81.001 35s32 51.333 32 84c0 34 -10.5 62.667 -31.5 86s-48.167 35 -81.5 35c-24.667 0 -47.334 -8.33301 -68.001 -25l1 437c13.333 1.33301 31 2 53 2c162.667 0 293 -48.667 391 -146s147 -227 147 -389
c0 -148 -50.833 -274 -152.5 -378s-226.167 -156 -373.5 -156c-118 0 -221.333 32.5 -310 97.5s-150 153.833 -184 266.5c-20 66 -30 163.333 -30 292v794h411v-863c0 -114.667 38.333 -172 115 -172z" />
    <glyph glyph-name="c" unicode="c" horiz-adv-x="823" 
d="M782 655l-147 -0.000976562c-109.333 0 -164 -44.333 -164 -133c0 -43.333 17 -76.666 51 -99.999c30 -20.667 67.667 -31 113 -31h147v-391h-129c-170.667 -0 -311.667 43.333 -423 130c-122 95.333 -183 226 -183 392c0 165.333 61.333 295.333 184 390
c111.333 86.667 252 130 422 130h129v-387z" />
    <glyph glyph-name="d" unicode="d" horiz-adv-x="1171" 
d="M688 1432l412 0.000976562v-794c0 -126.667 -10.333 -224 -31 -292c-34 -112.667 -95.5 -201.5 -184.5 -266.5s-192.833 -97.5 -311.5 -97.5c-146.667 0 -271 52.167 -373 156.5s-153 230.166 -153 377.499c0 162.667 49.167 292.5 147.5 389.5
s228.833 145.5 391.5 145.5c25.333 0 43 -1 53 -3v-436c-20.667 16.667 -42.667 25 -66 25c-33.333 0 -60.333 -11.667 -81 -35s-31 -52 -31 -86c0 -32 10.667 -59.833 32 -83.5s48 -35.5 80 -35.5c76.667 0 115 57.333 115 172v863z" />
    <glyph glyph-name="e" unicode="e" horiz-adv-x="1149" 
d="M1116 233c-166 -167.333 -340.667 -251.001 -524 -251.001c-154.667 0 -284.167 51.333 -388.5 154s-156.5 231.334 -156.5 386.001c0 152 52.167 280.167 156.5 384.5s232.5 156.5 384.5 156.5c126.667 0 237.334 -37 332.001 -111
c88.667 -69.333 156 -165.333 202 -288l-516 -281l-112 209l190 106c-27.333 30 -62 45 -104 45c-48 0 -86 -22.667 -114 -68c-24 -38 -36 -82.667 -36 -134c0 -61.333 17.333 -111 52 -149c36 -40 84.333 -60 145 -60c93.333 0 176.666 43.667 249.999 131z" />
    <glyph glyph-name="f" unicode="f" horiz-adv-x="758" 
d="M494 1042h251v-313h-251v-729h-412v1012c0 148 38.667 256 116 324c72.667 64 184 96 334 96h213v-293h-143c-38.667 0 -65.667 -6.33301 -81 -19c-18 -14 -27 -40 -27 -78z" />
    <glyph glyph-name="g" unicode="g" horiz-adv-x="1176" 
d="M692 471c0 114.667 -38.002 172 -114.002 172c-32 0 -58.833 -12 -80.5 -36s-32.5 -52.333 -32.5 -85c0 -30.667 10 -57.667 30 -81c20.667 -25.333 46 -38 76 -38c20.667 0 45.334 4.33301 74.001 13v-391c-47.333 -14 -91 -21 -131 -21c-144.667 0 -259 51 -343 153
c-78.667 95.333 -118 217 -118 365s51 274.5 153 379.5s226.667 157.5 374 157.5c118 0 221.5 -32.667 310.5 -98s150.5 -154.333 184.5 -267c19.333 -64 29 -154.667 29 -272v-311c0 -197.333 -47.167 -341.333 -141.5 -432s-240.5 -136 -438.5 -136
c-127.333 0 -263 20 -407 60v358c130 -44.667 242.667 -67 338 -67c82.667 0 141.334 12.333 176.001 37c40.667 30 61 84.333 61 163v377z" />
    <glyph glyph-name="h" unicode="h" horiz-adv-x="1133" 
d="M82 0v1432h412v-461c72 61.333 148.333 92 229 92c116.667 0 204 -45.667 262 -137c48 -76 72 -176.333 72 -301v-625h-412v596c0 54.667 -25.333 82 -76 82c-50 0 -75 -27.333 -75 -82v-596h-412z" />
    <glyph glyph-name="i" unicode="i" horiz-adv-x="575" 
d="M45 1360c0 68 23.667 125.333 71 172s105 70 173 70s125.167 -23.333 171.5 -70s69.5 -104 69.5 -172s-23.167 -125.333 -69.5 -172s-103.5 -70 -171.5 -70s-125.667 23.333 -173 70s-71 104 -71 172zM82 0v1042h412v-1042h-412z" />
    <glyph glyph-name="j" unicode="j" horiz-adv-x="578" 
d="M49 1360c0 68 23.333 125.333 70 172s104 70 172 70s125.167 -23.333 171.5 -70s69.5 -104 69.5 -172s-23.167 -125.333 -69.5 -172s-103.5 -70 -171.5 -70c-68.667 0 -126.167 23.167 -172.5 69.5s-69.5 103.833 -69.5 172.5zM496 1042l0.000976562 -1058
c0 -148 -38.667 -256 -116 -324c-72.667 -64 -184.334 -96 -335.001 -96h-166v362h98c71.333 0 107 30 107 90v1026h412z" />
    <glyph glyph-name="k" unicode="k" horiz-adv-x="1114" 
d="M82 0l-0.00292969 1432h412v-705h14c34.667 0 67.334 43 98.001 129l66 186h426l-121 -307c-25.333 -63.333 -69.666 -111 -132.999 -143c80.667 -25.333 138 -64.333 172 -117c32.667 -50 49 -118.333 49 -205v-270h-399v231c0 60.667 -14 103.334 -42 128.001
c-25.333 22.667 -68.666 34 -129.999 34v-393h-412z" />
    <glyph glyph-name="l" unicode="l" horiz-adv-x="575" 
d="M82 0v1432h412v-1432h-412z" />
    <glyph glyph-name="m" unicode="m" horiz-adv-x="1647" 
d="M74 0v527.999c0 79.333 6.66699 144.333 20 195c26.667 100 83 181.333 169 244s181.333 94 286 94c100.667 0 192 -37 274 -111c82 74 174.333 111 277 111c96.667 0 186.5 -28.167 269.5 -84.5s140.833 -129.166 173.5 -218.499c21.333 -61.333 32 -138 32 -230v-528
h-408v602c0 52 -23.667 78 -71 78c-48 0 -72 -26 -72 -78v-602h-401v602c0 52 -24 78 -72 78s-72 -26 -72 -78v-602h-405z" />
    <glyph glyph-name="n" unicode="n" horiz-adv-x="1118" 
d="M635 0v596.001c0 54.667 -25.333 82 -76 82s-76 -27.333 -76 -82v-596h-411v516c0 81.333 7 148 21 200c27.333 102 85 185.333 173 250s185.667 97 293 97s205 -32.333 293 -97s146 -148.334 174 -251.001c14 -52.667 21 -119 21 -199v-516h-412z" />
    <glyph glyph-name="o" unicode="o" horiz-adv-x="1147" 
d="M47 522c0 147.333 51 274.334 153 381.001s226.333 160 373 160s271.667 -53.667 375 -161c101.333 -106 152 -232.667 152 -380c0 -148.667 -50.333 -275.667 -151 -381c-102.667 -106 -228 -159 -376 -159c-146.667 0 -271 53.167 -373 159.5
s-153 233.166 -153 380.499zM469 524.001c0 -30.667 9.83105 -57.667 29.498 -81s44.5 -35 74.5 -35c30.667 0 55.834 11.5 75.501 34.5s29.5 50.167 29.5 81.5c0 32 -9.66699 59.167 -29 81.5s-44.666 33.5 -75.999 33.5c-30.667 0 -55.667 -11.333 -75 -34
s-29 -49.667 -29 -81z" />
    <glyph glyph-name="p" unicode="p" horiz-adv-x="1171" 
d="M72 -436l-0.000976562 835.999c0 130 10 228 30 294c34 113.333 95.167 202.5 183.5 267.5s191.833 97.5 310.5 97.5c146.667 0 271 -52.667 373 -158s153 -231.666 153 -378.999c0 -162 -49.167 -291.5 -147.5 -388.5s-228.5 -145.5 -390.5 -145.5
c-23.333 0 -41 0.666992 -53 2l-1 435c20.667 -14.667 43.334 -22 68.001 -22c33.333 0 60.5 11.5 81.5 34.5s31.5 51.167 31.5 84.5c0 32.667 -10.833 61 -32.5 85s-48.5 36 -80.5 36c-76.667 0 -115 -57.333 -115 -172v-907h-411z" />
    <glyph glyph-name="q" unicode="q" horiz-adv-x="1171" 
d="M573 643c-32 0 -58.667 -12.001 -80 -36.001s-32 -52.333 -32 -85c0 -33.333 10.333 -61.5 31 -84.5s47.667 -34.5 81 -34.5c23.333 0 45.333 7.33301 66 22v-435c-12 -1.33301 -29.667 -2 -53 -2c-162.667 0 -293.167 48.5 -391.5 145.5s-147.5 226.5 -147.5 388.5
c0 146.667 51.167 272.834 153.5 378.501s226.5 158.5 372.5 158.5c118.667 0 222.5 -32.667 311.5 -98s150.5 -154.333 184.5 -267c20.667 -68 31 -166 31 -294v-836h-412v907c0 114.667 -38.333 172 -115 172z" />
    <glyph glyph-name="r" unicode="r" horiz-adv-x="858" 
d="M82 0l0.000976562 1042h422v-151c36.667 61.333 86 103 148 125c46 17.333 110 26 192 26v-368c-114.667 0 -197.334 -26 -248.001 -78s-76 -135.333 -76 -250v-346h-438z" />
    <glyph glyph-name="s" unicode="s" horiz-adv-x="895" 
d="M55 0v358h260c33.333 0 50 12.333 50 37c0 16.667 -27 40 -81 70c-70.667 40 -120.667 74.667 -150 104c-54 54.667 -81 119.667 -81 195c0 96 37 168.333 111 217c62.667 40.667 144.667 61 246 61h393v-331h-230c-28.667 0 -43 -13 -43 -39
c0 -6 1.83301 -11.333 5.5 -16s24.5 -18.667 62.5 -42c170.667 -104 256 -209.667 256 -317c0 -49.333 -11.333 -95 -34 -137c-36 -66.667 -91 -112 -165 -136c-50.667 -16 -123 -24 -217 -24h-383z" />
    <glyph glyph-name="t" unicode="t" horiz-adv-x="748" 
d="M74 1327h411.001v-285h205v-354h-205v-235c0 -60.667 36.333 -91 109 -91h96v-362h-166c-150.667 0 -262.334 32 -335.001 96c-76.667 68 -115 176 -115 324v907z" />
    <glyph glyph-name="u" unicode="u" horiz-adv-x="1118" 
d="M483 1042l-0.000976562 -596c0 -54 25.333 -81 76 -81s76 27 76 81v596h412v-516c0 -80 -7 -146 -21 -198c-28.667 -104 -86.667 -187.667 -174 -251s-185 -95 -293 -95s-205.667 31.667 -293 95c-89.333 65.333 -147.666 149.333 -174.999 252
c-14 52 -21 117.667 -21 197v516h413z" />
    <glyph glyph-name="v" unicode="v" horiz-adv-x="1010" 
d="M1038 1042l-200 -778.001c-25.333 -100 -61.333 -171 -108 -213c-51.333 -46 -126.666 -69 -225.999 -69c-98 0 -172.667 23.333 -224 70c-46.667 42.667 -82.667 113.334 -108 212.001l-201 778h408c59.333 -302.667 101.666 -532 126.999 -688
c18 118.667 59.667 348 125 688h407z" />
    <glyph glyph-name="w" unicode="w" horiz-adv-x="1647" 
d="M1575 1042l-0.000976562 -526c0 -76.667 -7 -141 -21 -193c-27.333 -101.333 -83.5 -183.5 -168.5 -246.5s-180.167 -94.5 -285.5 -94.5c-102 0 -194.333 36.667 -277 110c-81.333 -73.333 -172.666 -110 -273.999 -110c-97.333 0 -187 27.667 -269 83
c-84 56 -142 129.333 -174 220c-21.333 60.667 -32 137.667 -32 231v526h405v-600c0 -51.333 24 -77 72 -77s72 25.667 72 77v600h401v-600c0 -51.333 24 -77 72 -77c47.333 0 71 25.667 71 77v600h408z" />
    <glyph glyph-name="x" unicode="x" horiz-adv-x="985" 
d="M889 0c-167.333 0 -299 52.667 -395 158c-58 -62.667 -127 -106 -207 -130c-62.667 -18.667 -144 -28 -244 -28v391c64.667 0 100 0.333008 106 1c40.667 3.33301 73.334 15 98.001 35c29.333 24 44 55.667 44 95c0 44 -17 78 -51 102c-29.333 20.667 -67 31 -113 31h-84
v387h55c164.667 0 296.667 -52.333 396 -157c60 64 129 107.333 207 130c59.333 18 139.666 27 240.999 27v-387h-82c-46 0 -84 -10.333 -114 -31c-34.667 -23.333 -52 -57.333 -52 -102c0 -39.333 15.333 -71 46 -95c24 -19.333 56.333 -31 97 -35
c6.66699 -0.666992 41.667 -1 105 -1v-391h-53z" />
    <glyph glyph-name="y" unicode="y" horiz-adv-x="1118" 
d="M483 1042v-636c0 -54.667 25.333 -82 76 -82s76 27.333 76 82v636h412v-557c0 -244 -94.333 -410.333 -283 -499v-422h-412v422c-102 51.333 -175.667 119 -221 203c-40.667 77.333 -61 176 -61 296v557h413z" />
    <glyph glyph-name="z" unicode="z" horiz-adv-x="958" 
d="M618 1042c209.333 0 314 -72.333 314 -217c0 -71.333 -32 -140.333 -96 -207l-256 -266h338v-352h-631c-179.333 0 -269 69 -269 207c0 69.333 35.667 139 107 209l287 282h-330v344h536z" />
    <glyph glyph-name="braceleft" unicode="{" horiz-adv-x="1024" 
d="M905 1192c-4.66699 0 -11.8311 0.333008 -21.498 1s-16.834 1 -21.501 1c-60.667 0 -100.334 -11 -119.001 -33s-28 -63.667 -28 -125v-239c0 -86 -15.167 -148.333 -45.5 -187s-87.5 -65.334 -171.5 -80.001c84 -15.333 141.167 -41.833 171.5 -79.5
s45.5 -99.167 45.5 -184.5v-241c0 -73.333 14.333 -118.666 43 -135.999c19.333 -12.667 68.333 -18.667 147 -18v-285h-91c-102 0 -177.333 5 -226 15c-92.667 18 -152 56 -178 114c-16.667 36 -25 98.333 -25 187v258c0 80 -13.667 137.333 -41 172
c-31.333 39.333 -86 59 -164 59c-4 0 -9.83301 -0.333008 -17.5 -1s-13.5 -1 -17.5 -1v283c4 0 9.83301 -0.333008 17.5 -1s13.5 -1 17.5 -1c78 0 132.667 19.667 164 59c27.333 34.667 41 92 41 172v258c0 89.333 8.33301 152 25 188c26 58 85.333 96.333 178 115
c48.667 10 124 15 226 15h91v-285z" />
    <glyph glyph-name="bar" unicode="|" horiz-adv-x="1024" 
d="M653 1565v-2048h-280v2048h280z" />
    <glyph glyph-name="braceright" unicode="}" horiz-adv-x="1024" 
d="M881 672l-0.00195312 -283c-4 0 -9.83301 0.333008 -17.5 1s-13.5 1 -17.5 1c-78 0 -132.667 -19.667 -164 -59c-27.333 -34.667 -41 -92 -41 -172v-258c0 -87.333 -8.33301 -149.333 -25 -186c-26.667 -58 -83.667 -96.333 -171 -115c-46.667 -10 -119.667 -15 -219 -15
h-105v283c4.66699 0 11.834 -0.333008 21.501 -1s16.834 -1 21.501 -1c60 0 100 11.333 120 34c18 20.667 27 62 27 124v241c0 85.333 15.167 146.833 45.5 184.5s87.5 64.167 171.5 79.5c-83.333 14.667 -140.333 41 -171 79s-46 100 -46 186v241c0 74 -14.333 120 -43 138
c-18.667 12 -67.667 18 -147 18v285h91c102.667 0 178 -5 226 -15c92 -18.667 151.333 -57.667 178 -117c16.667 -36.667 25 -98.667 25 -186v-258c0 -80 13.667 -137.333 41 -172c31.333 -39.333 86 -59 164 -59c4 0 9.83301 0.333008 17.5 1s13.5 1 17.5 1z" />
    <glyph glyph-name="asciitilde" unicode="~" horiz-adv-x="1706" 
d="M1530 543c-131.333 -88.667 -255.001 -133 -371.001 -133c-66 0 -163.167 21.167 -291.5 63.5s-230.5 63.5 -306.5 63.5c-107.333 0 -235 -52.667 -383 -158v299c151.333 95.333 287.333 143 408 143c75.333 0 168 -17.667 278 -53l147 -49
c58.667 -18 109.334 -27 152.001 -27c110.667 0 233 50 367 150v-299z" />
    <glyph glyph-name="euro" horiz-adv-x="1200" 
d="M1116 0l-79.999 -0.00195312c-489.333 0 -768.333 173.333 -837 520h-199l41 139h141c0 6 -0.333008 15.5 -1 28.5s-1 22.833 -1 29.5c0 14 1.33301 39.667 4 77l-184 1l41 139h166c87.333 332 370.666 498 849.999 498h59v-359c-112 0 -192.333 -5 -241 -15
c-90 -19.333 -156.333 -60.666 -199 -123.999h379l-41 -139h-387c-4 -24 -6 -50 -6 -78c0 -25.333 0.666992 -44.666 2 -57.999h364l-41 -139h-284c38 -73.333 104.333 -121 199 -143c52 -12.667 137 -19 255 -19v-358z" />
    <glyph glyph-name="nonbreakingspace" unicode="&#xa0;" horiz-adv-x="1200" 
 />
    <glyph glyph-name="exclamdown" unicode="&#xa1;" horiz-adv-x="702" 
d="M541 911l43 -911h-467l49 911h375zM586 1217c0 -67.333 -22.5 -123.5 -67.5 -168.5s-101.167 -67.5 -168.5 -67.5s-123 22.5 -167 67.5s-66 101.167 -66 168.5c0 64.667 22.667 119.667 68 165s100.333 68 165 68c65.333 0 121 -22.5 167 -67.5s69 -100.167 69 -165.5z
" />
    <glyph glyph-name="cent" unicode="&#xa2;" horiz-adv-x="1200" 
d="M588 -68l-0.000976562 301c-118 13.333 -208.667 62 -272 146c-59.333 78.667 -89 179 -89 301c0 124 28.667 227.667 86 311c64.667 94 156.334 144 275.001 150v268h200v-268h138v-307h-135c-142 0 -213 -46.667 -213 -140c0 -98 71 -147 213 -147h135v-314h-138v-301
h-200z" />
    <glyph glyph-name="sterling" unicode="&#xa3;" horiz-adv-x="1200" 
d="M182 575l-157.001 -0.000976562v297h157v111c0 152 48.333 270.333 145 355c91.333 80 214.333 120 369 120c92 0 180.333 -13 265 -39v-377c-72 10 -122.667 15 -152 15c-125.333 0 -188 -49.333 -188 -148v-37h147v-297h-162c0 -2.66699 0.333008 -7.16699 1 -13.5
s1 -11.166 1 -14.499c0 -62 -19.667 -118 -59 -168h98c56.667 0 95.334 12.333 116.001 37c18.667 22 28 61.667 28 119h399v-64c0 -152 -44.667 -269 -134 -351c-86.667 -80 -206.667 -120 -360 -120h-671v379h65c44 0 72.333 24 85 72c4.66699 20 7 61.333 7 124z" />
    <glyph glyph-name="currency" unicode="&#xa4;" horiz-adv-x="1200" 
d="M1116 0l-79.999 -0.00195312c-489.333 0 -768.333 173.333 -837 520h-199l41 139h141c0 6 -0.333008 15.5 -1 28.5s-1 22.833 -1 29.5c0 14 1.33301 39.667 4 77l-184 1l41 139h166c87.333 332 370.666 498 849.999 498h59v-359c-112 0 -192.333 -5 -241 -15
c-90 -19.333 -156.333 -60.666 -199 -123.999h379l-41 -139h-387c-4 -24 -6 -50 -6 -78c0 -25.333 0.666992 -44.666 2 -57.999h364l-41 -139h-284c38 -73.333 104.333 -121 199 -143c52 -12.667 137 -19 255 -19v-358z" />
    <glyph glyph-name="yen" unicode="&#xa5;" horiz-adv-x="1262" 
d="M836 0h-408v453l-51 118h-361v211h271l-56 125h-215v211h127l-127 299h406l209 -551l211 551h403l-125 -299h125v-211h-215l-55 -125h270v-211h-358l-51 -118v-453z" />
    <glyph glyph-name="brokenbar" unicode="&#xa6;" horiz-adv-x="1024" 
d="M653 408v-758h-280v758h280zM653 1432v-758h-280v758h280z" />
    <glyph glyph-name="section" unicode="&#xa7;" horiz-adv-x="1165" 
d="M463 682c0 -27.333 24.333 -54.334 73 -81.001c44.667 -24 82.334 -36 113.001 -36c35.333 0 53 20 53 60c0 14 -4 26 -12 36c-10.667 12.667 -37.334 28.834 -80.001 48.501s-72.667 29.5 -90 29.5c-38 0 -57 -19 -57 -57zM956 1087l-297 -0.00195312
c-80 0 -120 -17 -120 -51c0 -21.333 17 -39.666 51 -54.999l280 -129c120.667 -55.333 181 -138 181 -248c0 -77.333 -34.333 -149 -103 -215c72.667 -55.333 109 -131.666 109 -228.999c0 -112 -38.667 -195.667 -116 -251c-68 -48.667 -160.333 -73 -277 -73h-500v373h366
c84.667 0 127 18.333 127 55c0 24 -14.667 42.333 -44 55l-318 134c-114.667 48 -172 129.667 -172 245c0 94.667 34.667 168 104 220c-54.667 58.667 -82 128 -82 208c0 204 148.333 306 445 306h366v-345z" />
    <glyph glyph-name="dieresis" unicode="&#xa8;" horiz-adv-x="1024" 
d="M549 1341c0 38.667 14.166 72.333 42.499 101s61.833 43 100.5 43c40 0 74 -14 102 -42s42 -62 42 -102c0 -41.333 -13.667 -75.5 -41 -102.5s-61.666 -40.5 -102.999 -40.5c-40 0 -73.833 13.833 -101.5 41.5s-41.5 61.5 -41.5 101.5zM185.999 1341
c0 38.667 14.333 72.332 43 100.999s62.334 43 101.001 43c39.333 0 73 -14.167 101 -42.5s42 -62.166 42 -101.499c0 -41.333 -13.5 -75.5 -40.5 -102.5s-61.167 -40.5 -102.5 -40.5c-40.667 0 -74.834 13.667 -102.501 41s-41.5 61.333 -41.5 102z" />
    <glyph glyph-name="copyright" unicode="&#xa9;" horiz-adv-x="1706" 
d="M987 883c-4 90 -47.667 135.002 -131 135.002c-104 0 -156 -91 -156 -273c0 -174.667 54.667 -262 164 -262c80.667 0 123 47.667 127 143l248 1c-4 -104.667 -43 -186.334 -117 -245.001c-68.667 -54 -156.667 -81 -264 -81c-132.667 0 -236 39.667 -310 119
c-72 77.333 -108 183 -108 317c0 127.333 34.333 232.333 103 315c73.333 88 172.333 132 297 132c108 0 196 -22.667 264 -68c77.333 -52.667 119 -130.334 125 -233.001h-242zM1452 743.002c0 166 -58.167 307.167 -174.5 423.5s-257.5 174.5 -423.5 174.5
s-307.167 -58.167 -423.5 -174.5s-174.5 -257.5 -174.5 -423.5c0 -164 58.667 -304.667 176 -422s258 -176 422 -176c165.333 0 306.333 58.333 423 175s175 257.667 175 423zM852 1493c211.333 0 389.832 -72.5 535.499 -217.5s218.5 -323.167 218.5 -534.5
c0 -102.667 -18.333 -198.667 -55 -288c-56.667 -137.333 -150.167 -248.833 -280.5 -334.5s-269.833 -128.5 -418.5 -128.5c-204 0 -380 74 -528 222s-222 324.333 -222 529c0 208.667 72.833 386.167 218.5 532.5s322.834 219.5 531.501 219.5z" />
    <glyph glyph-name="ordfeminine" unicode="&#xaa;" horiz-adv-x="879" 
d="M434 1155c-24 0 -44.333 -7.99902 -61 -23.999s-25 -36 -25 -60s8.33301 -44 25 -60s37 -24 61 -24c21.333 0 37.666 5.66699 48.999 17v-304c-5.33301 0 -13.666 -0.333008 -24.999 -1s-20 -1 -26 -1c-112.667 0 -205.667 32.667 -279 98c-76 68 -114 157.667 -114 269
c0 108.667 39 199.667 117 273c76 72 168.667 108 278 108c86 0 162.833 -22.333 230.5 -67s114.5 -107 140.5 -187c14.667 -44.667 22 -113.334 22 -206.001v-284h-307v332c0 80.667 -28.667 121 -86 121z" />
    <glyph glyph-name="guillemotleft" unicode="&#xab;" horiz-adv-x="1200" 
d="M1145 829l-256 -321l256 -324h-305l-256 324l256 321h305zM670 829l-256 -321l256 -324h-303l-256 324l256 321h303z" />
    <glyph glyph-name="logicalnot" unicode="&#xac;" horiz-adv-x="1706" 
d="M1452 868v-501h-272v235h-926v266h1198z" />
    <glyph glyph-name="sfthyphen" unicode="&#xad;" horiz-adv-x="825" 
d="M117 344v354h592v-354h-592z" />
    <glyph glyph-name="registered" unicode="&#xae;" horiz-adv-x="1706" 
d="M823 1006h-39v-193h54c78.667 0 118 32.667 118 98c0 63.333 -44.333 95 -133 95zM862 1165c238 0 357 -79.667 357 -239c0 -108 -54.667 -181 -164 -219l178 -355h-279l-145 312h-25v-312h-256v813h334zM1452 743c0 166 -58.167 307.167 -174.5 423.5
s-257.5 174.5 -423.5 174.5s-307.167 -58.167 -423.5 -174.5s-174.5 -257.5 -174.5 -423.5c0 -164 58.667 -304.667 176 -422s258 -176 422 -176c165.333 0 306.333 58.333 423 175s175 257.667 175 423zM852 1493c211.333 0 389.832 -72.5 535.499 -217.5
s218.5 -323.167 218.5 -534.5c0 -102.667 -18.333 -198.667 -55 -288c-56.667 -137.333 -150.167 -248.833 -280.5 -334.5s-269.833 -128.5 -418.5 -128.5c-204 0 -380 74 -528 222s-222 324.333 -222 529c0 208.667 72.833 386.167 218.5 532.5
s322.834 219.5 531.501 219.5z" />
    <glyph glyph-name="macron" unicode="&#xaf;" horiz-adv-x="1024" 
d="M205 1257v168h614v-168h-614z" />
    <glyph glyph-name="macron" unicode="&#x2c9;" horiz-adv-x="1024" 
d="M205 1257v168h614v-168h-614z" />
    <glyph glyph-name="degree" unicode="&#xb0;" horiz-adv-x="674" 
d="M489 1151c0 42 -15 77.833 -45 107.5s-66 44.5 -108 44.5s-77.5 -14.833 -106.5 -44.5s-43.5 -65.5 -43.5 -107.5c0 -42.667 14.667 -79 44 -109s65.333 -45 108 -45c41.333 0 76.833 15.167 106.5 45.5s44.5 66.5 44.5 108.5zM338 1473
c90 0 166.001 -31.499 228.001 -94.499s93 -139.5 93 -229.5c0 -89.333 -31.5 -165.333 -94.5 -228s-139.167 -94 -228.5 -94c-90 0 -166.167 31.167 -228.5 93.5s-93.5 138.5 -93.5 228.5c0 89.333 31.667 165.666 95 228.999s139.666 95 228.999 95z" />
    <glyph glyph-name="plusminus" unicode="&#xb1;" horiz-adv-x="1706" 
d="M1452 231v-272h-1198v272h1198zM993 1262v-310h459v-272h-459v-309h-280v309h-459v272h459v310h280z" />
    <glyph glyph-name="twosuperior" unicode="&#xb2;" horiz-adv-x="793" 
d="M186 926c-92.667 68 -139.001 149.666 -139.001 244.999c0 86.667 34.667 155.667 104 207c62.667 46.667 138.667 70 228 70c92.667 0 170.334 -20.667 233.001 -62c72.667 -48 109 -116 109 -204c0 -71.333 -26.333 -140.333 -79 -207
c-21.333 -27.333 -75 -80.666 -161 -159.999h256v-242h-600c-68 0 -102 31.667 -102 95c0 33.333 21 71.333 63 114l314 318c21.333 21.333 32 41 32 59c0 36.667 -21 55 -63 55c-42.667 0 -64 -19.667 -64 -59c0 -23.333 13 -43 39 -59z" />
    <glyph glyph-name="threesuperior" unicode="&#xb3;" horiz-adv-x="793" 
d="M86 1432h393c157.333 0 236 -52 236 -156c0 -44 -21.333 -82.333 -64 -115l-121 -92c130 -26.667 195 -103 195 -229c0 -86 -30.667 -153 -92 -201c-56 -44 -128.333 -66 -217 -66h-353v242h271c65.333 0 98 18.333 98 55c0 34.667 -29.333 52 -88 52h-182v131l217 143
h-293v236z" />
    <glyph glyph-name="acute" unicode="&#xb4;" horiz-adv-x="1024" 
d="M817 1526l-325 -369h-154l192 369h287z" />
    <glyph glyph-name="mu" unicode="&#xb5;" horiz-adv-x="1372" 
d="M602 1087l-83.999 -614c-2.66699 -19.333 -4 -37 -4 -53c0 -88.667 42.333 -133 127 -133c102.667 0 164 71 184 213l84 587h418l-158 -1087h-368l18 131c-47.333 -90 -110 -135 -188 -135c-82.667 0 -141.334 41.667 -176.001 125l-72 -543h-412l209 1509h422z" />
    <glyph glyph-name="mu" unicode="&#x3bc;" horiz-adv-x="1372" 
d="M602 1087l-83.999 -614c-2.66699 -19.333 -4 -37 -4 -53c0 -88.667 42.333 -133 127 -133c102.667 0 164 71 184 213l84 587h418l-158 -1087h-368l18 131c-47.333 -90 -110 -135 -188 -135c-82.667 0 -141.334 41.667 -176.001 125l-72 -543h-412l209 1509h422z" />
    <glyph glyph-name="paragraph" unicode="&#xb6;" horiz-adv-x="1024" 
d="M1014 1337l-101 0.000976562v-1337h-202v1337h-140v-1337h-202v784c-104.667 5.33301 -189.667 37.666 -255 96.999c-69.333 63.333 -104 146.333 -104 249c0 110 38 196.667 114 260c71.333 59.333 163 89 275 89h615v-142z" />
    <glyph glyph-name="ch270" unicode="&#xb7;" horiz-adv-x="600" 
d="M66 735c0 67.333 22.167 123.833 66.5 169.5s99.833 68.5 166.5 68.5s122.667 -23 168 -69s68 -102.333 68 -169c0 -64.667 -23.167 -119.667 -69.5 -165s-101.833 -68 -166.5 -68c-65.333 0 -120.5 22.5 -165.5 67.5s-67.5 100.167 -67.5 165.5z" />
    <glyph glyph-name="ch270" unicode="&#x2219;" horiz-adv-x="600" 
d="M66 735c0 67.333 22.167 123.833 66.5 169.5s99.833 68.5 166.5 68.5s122.667 -23 168 -69s68 -102.333 68 -169c0 -64.667 -23.167 -119.667 -69.5 -165s-101.833 -68 -166.5 -68c-65.333 0 -120.5 22.5 -165.5 67.5s-67.5 100.167 -67.5 165.5z" />
    <glyph glyph-name="cedilla" unicode="&#xb8;" horiz-adv-x="1024" 
d="M272 -440l0.000976562 139c109.333 -30 199.666 -45 270.999 -45c57.333 0 86 24 86 72c0 42.667 -41.667 64 -125 64c-16 0 -37.667 -1 -65 -3l77 369h111l-54 -240c162.667 0 244 -64 244 -192c0 -139.333 -84.667 -209 -254 -209c-84.667 0 -181.667 15 -291 45z" />
    <glyph glyph-name="onesuperior" unicode="&#xb9;" horiz-adv-x="793" 
d="M291 573v644h-123v215h414v-859h-291z" />
    <glyph glyph-name="ordmasculine" unicode="&#xba;" horiz-adv-x="860" 
d="M35 1069c0 105.333 39.667 195 119 269c77.333 72 169.333 108 276 108s199.167 -36.333 277.5 -109s117.5 -162 117.5 -268c0 -107.333 -38.833 -197.333 -116.5 -270s-170.5 -109 -278.5 -109c-106.667 0 -198.667 36.333 -276 109c-79.333 74 -119 164 -119 270z
M352 1069c0 -22 7.50098 -41.167 22.501 -57.5s33.5 -24.5 55.5 -24.5c22.667 0 41.334 8 56.001 24s22 35.333 22 58s-7.33301 41.667 -22 57s-33.334 23 -56.001 23s-41.334 -7.66699 -56.001 -23s-22 -34.333 -22 -57z" />
    <glyph glyph-name="guillemotright" unicode="&#xbb;" horiz-adv-x="1200" 
d="M530 829h304l256 -321l-256 -324h-304l256 324zM55 829h303l256 -321l-256 -324h-303l256 324z" />
    <glyph glyph-name="onequarter" unicode="&#xbc;" horiz-adv-x="1853" 
d="M1462 0v162h-170c-121.333 0 -182 42.333 -182 127c0 33.333 10.333 65.333 31 96l282 416h256l-303 -445h117v95l244 364v-438h106v-215h-106v-162h-275zM414 0l784 1432h242l-789 -1432h-237zM276 629v600h-116v201h395v-801h-279z" />
    <glyph glyph-name="onehalf" unicode="&#xbd;" horiz-adv-x="1853" 
d="M1276 330c-88.667 63.333 -133 139.002 -133 227.002c0 81.333 33.667 146 101 194c59.333 42.667 131.333 64 216 64c87.333 0 161 -19 221 -57c70 -44.667 105 -108.334 105 -191.001c0 -67.333 -25.333 -132 -76 -194c-20 -24 -71.333 -73.333 -154 -148h246v-225
h-573c-66 0 -99 29.333 -99 88c0 32 20 67.667 60 107l301 297c20.667 20.667 31 39 31 55c0 34 -20 51 -60 51c-40.667 0 -61 -18.333 -61 -55c0 -20.667 12.333 -39.334 37 -56.001zM414 0.00195312l784 1432h242l-789 -1432h-237zM276 629.002v600h-116v201h395v-801
h-279z" />
    <glyph glyph-name="threequarters" unicode="&#xbe;" horiz-adv-x="1853" 
d="M1462 0v162h-170c-121.333 0 -182 42.333 -182 127c0 33.333 10.333 65.333 31 96l282 416h256l-303 -445h117v95l244 364v-438h106v-215h-106v-162h-275zM414 0l784 1432h242l-789 -1432h-237zM82 1430h375c150 0 225 -48.667 225 -146c0 -42 -19.667 -77.333 -59 -106
l-117 -86c124 -25.333 186 -97 186 -215c0 -81.333 -29.667 -144 -89 -188c-53.333 -40 -122 -60 -206 -60h-336v225h258c63.333 0 95 17 95 51c0 31.333 -28 47 -84 47h-176v123l208 135h-280v220z" />
    <glyph glyph-name="questiondown" unicode="&#xbf;" horiz-adv-x="1053" 
d="M784 1227c0 -66.667 -22.5 -122.667 -67.5 -168s-100.833 -68 -167.5 -68s-122.667 22.667 -168 68s-68 101.333 -68 168c0 64.667 23.167 119.667 69.5 165s101.833 68 166.5 68s120 -22.667 166 -68s69 -100.333 69 -165zM360 938l384.999 -0.000976562v-385h-131
c-92.667 0 -139 -29.333 -139 -88c0 -54.667 28.667 -82 86 -82c51.333 0 88.333 29.333 111 88l387 -152c-39.333 -114 -105.666 -200.667 -198.999 -260c-88.667 -56 -195 -84 -319 -84c-152.667 0 -275.667 41.333 -369 124c-98 86.667 -147 205.334 -147 356.001
c0 230 111.667 367 335 411v72z" />
    <glyph glyph-name="Agrave" unicode="&#xc0;" 
d="M86 0v819c0 184.667 47.333 334.667 142 450c102 123.333 243.667 185 425 185c182 0 324 -61.667 426 -185c96 -114.667 144 -264.667 144 -450v-819h-449v451h-186v374h186v43c0 100 -40.333 150 -121 150c-77.333 0 -116 -50 -116 -150v-868h-451zM350 1936h287
l192 -369h-154z" />
    <glyph glyph-name="Aacute" unicode="&#xc1;" 
d="M86 0v819c0 184.667 47.333 334.667 142 450c102 123.333 243.667 185 425 185c182 0 324 -61.667 426 -185c96 -114.667 144 -264.667 144 -450v-819h-449v451h-186v374h186v43c0 100 -40.333 150 -121 150c-77.333 0 -116 -50 -116 -150v-868h-451zM960 1936l-325 -369
h-154l192 369h287z" />
    <glyph glyph-name="Acircumflex" unicode="&#xc2;" 
d="M86 0v819c0 184.667 47.333 334.667 142 450c102 123.333 243.667 185 425 185c182 0 324 -61.667 426 -185c96 -114.667 144 -264.667 144 -450v-819h-449v451h-186v374h186v43c0 100 -40.333 150 -121 150c-77.333 0 -116 -50 -116 -150v-868h-451zM336 1517l190 369
h258l190 -369h-151l-168 199l-168 -199h-151z" />
    <glyph glyph-name="Atilde" unicode="&#xc3;" 
d="M86 0v819c0 184.667 47.333 334.667 142 450c102 123.333 243.667 185 425 185c182 0 324 -61.667 426 -185c96 -114.667 144 -264.667 144 -450v-819h-449v451h-186v374h186v43c0 100 -40.333 150 -121 150c-77.333 0 -116 -50 -116 -150v-868h-451zM987 1893
c-38.667 -170.667 -111.667 -256 -219 -256c-27.333 0 -66.833 8.5 -118.5 25.5s-90.834 25.5 -117.501 25.5c-42 0 -72 -26 -90 -78h-119c36.667 164 108.334 246 215.001 246c28 0 68.5 -8.16699 121.5 -24.5s93.167 -24.5 120.5 -24.5c44 0 73.333 28.667 88 86h119z" />
    <glyph glyph-name="Adieresis" unicode="&#xc4;" 
d="M86 0v819c0 184.667 47.333 334.667 142 450c102 123.333 243.667 185 425 185c182 0 324 -61.667 426 -185c96 -114.667 144 -264.667 144 -450v-819h-449v451h-186v374h186v43c0 100 -40.333 150 -121 150c-77.333 0 -116 -50 -116 -150v-868h-451zM692 1751
c0 38.667 14.166 72.333 42.499 101s61.833 43 100.5 43c40 0 74 -14 102 -42s42 -62 42 -102c0 -41.333 -13.667 -75.5 -41 -102.5s-61.666 -40.5 -102.999 -40.5c-40 0 -73.833 13.833 -101.5 41.5s-41.5 61.5 -41.5 101.5zM328.999 1751
c0 38.667 14.333 72.332 43 100.999s62.334 43 101.001 43c39.333 0 73 -14.167 101 -42.5s42 -62.166 42 -101.499c0 -41.333 -13.5 -75.5 -40.5 -102.5s-61.167 -40.5 -102.5 -40.5c-40.667 0 -74.834 13.667 -102.501 41s-41.5 61.333 -41.5 102z" />
    <glyph glyph-name="Aring" unicode="&#xc5;" 
d="M547 1712c0 -30.667 9.99902 -56 29.999 -76s45.333 -30 76 -30s56.834 10 78.501 30s32.5 45.333 32.5 76c0 30 -11 55.667 -33 77s-48 32 -78 32s-55.167 -10.667 -75.5 -32s-30.5 -47 -30.5 -77zM396.999 1714c0 72 24.666 132.665 73.999 181.998s110 74 182 74
s133 -24.667 183 -74s75 -110 75 -182c0 -73.333 -24.667 -134.666 -74 -183.999s-110.666 -74 -183.999 -74c-72.667 0 -133.5 24.833 -182.5 74.5s-73.5 110.834 -73.5 183.501zM85.998 -0.00195312v819c0 184.667 47.333 334.667 142 450
c102 123.333 243.667 185 425 185c182 0 324 -61.667 426 -185c96 -114.667 144 -264.667 144 -450v-819h-449v451h-186v374h186v43c0 100 -40.333 150 -121 150c-77.333 0 -116 -50 -116 -150v-868h-451z" />
    <glyph glyph-name="AE" unicode="&#xc6;" horiz-adv-x="1731" 
d="M1651 397l0.000976562 -397.001h-52c-150 0 -286.333 24 -409 72v-72h-414v543h-188v350h188v6c0 96.667 -40.333 145 -121 145c-78.667 0 -118 -51 -118 -153v-891h-451v819c0 187.333 48 338 144 452c102.667 122 245.667 183 429 183c152.667 0 279 -54.667 379 -164
c109.333 94.667 313.666 142 612.999 142v-398c-132 0 -217 -3.66699 -255 -11c-94.667 -17.333 -164 -60.666 -208 -129.999h463v-350h-465c43.333 -72 112.333 -117 207 -135c38.667 -7.33301 124.667 -11 258 -11z" />
    <glyph glyph-name="Ccedilla" unicode="&#xc7;" horiz-adv-x="1053" 
d="M999 1008c-154 0 -263.333 -12.332 -328 -36.999c-111.333 -42 -167 -126.667 -167 -254c0 -128 55.333 -213 166 -255c66 -25.333 175.667 -38 329 -38v-424h-38c-128 0 -239.667 10 -335 30s-175 50.333 -239 91c-106 66.667 -188.5 151.834 -247.5 255.501
s-88.5 217.167 -88.5 340.5s29.5 236.666 88.5 339.999s141.5 188 247.5 254c63.333 39.333 143.333 69.666 240 90.999c94.667 20 218.667 30 372 30v-424zM454 -439.999l0.000976562 139c109.333 -30 199.666 -45 270.999 -45c57.333 0 86 24 86 72
c0 42.667 -41.667 64 -125 64c-16 0 -37.667 -1 -65 -3l77 369h111l-54 -240c162.667 0 244 -64 244 -192c0 -139.333 -84.667 -209 -254 -209c-84.667 0 -181.667 15 -291 45z" />
    <glyph glyph-name="Egrave" unicode="&#xc8;" horiz-adv-x="1075" 
d="M999 1034c-129.333 0 -213.667 -3.66602 -253 -10.999c-92.667 -18 -161 -61.333 -205 -130h458v-350h-460c42.667 -71.333 111 -116 205 -134c39.333 -8 124.333 -12 255 -12v-397h-38c-128.667 0 -240 10 -334 30c-96 20 -176 50.333 -240 91
c-106 66.667 -188.5 151.834 -247.5 255.501s-88.5 217.167 -88.5 340.5s29.5 236.666 88.5 339.999s141.5 188 247.5 254c63.333 39.333 143.333 69.666 240 90.999c94.667 20 218.667 30 372 30v-398zM374.999 1936h287l192 -369h-154z" />
    <glyph glyph-name="Eacute" unicode="&#xc9;" horiz-adv-x="1075" 
d="M999 1034c-129.333 0 -213.667 -3.66602 -253 -10.999c-92.667 -18 -161 -61.333 -205 -130h458v-350h-460c42.667 -71.333 111 -116 205 -134c39.333 -8 124.333 -12 255 -12v-397h-38c-128.667 0 -240 10 -334 30c-96 20 -176 50.333 -240 91
c-106 66.667 -188.5 151.834 -247.5 255.501s-88.5 217.167 -88.5 340.5s29.5 236.666 88.5 339.999s141.5 188 247.5 254c63.333 39.333 143.333 69.666 240 90.999c94.667 20 218.667 30 372 30v-398zM984.999 1936l-325 -369h-154l192 369h287z" />
    <glyph glyph-name="Ecircumflex" unicode="&#xca;" horiz-adv-x="1075" 
d="M999 1034c-129.333 0 -213.667 -3.66602 -253 -10.999c-92.667 -18 -161 -61.333 -205 -130h458v-350h-460c42.667 -71.333 111 -116 205 -134c39.333 -8 124.333 -12 255 -12v-397h-38c-128.667 0 -240 10 -334 30c-96 20 -176 50.333 -240 91
c-106 66.667 -188.5 151.834 -247.5 255.501s-88.5 217.167 -88.5 340.5s29.5 236.666 88.5 339.999s141.5 188 247.5 254c63.333 39.333 143.333 69.666 240 90.999c94.667 20 218.667 30 372 30v-398zM365.999 1517l190 369h258l190 -369h-151l-168 199l-168 -199h-151z
" />
    <glyph glyph-name="Edieresis" unicode="&#xcb;" horiz-adv-x="1075" 
d="M999 1034c-129.333 0 -213.667 -3.66602 -253 -10.999c-92.667 -18 -161 -61.333 -205 -130h458v-350h-460c42.667 -71.333 111 -116 205 -134c39.333 -8 124.333 -12 255 -12v-397h-38c-128.667 0 -240 10 -334 30c-96 20 -176 50.333 -240 91
c-106 66.667 -188.5 151.834 -247.5 255.501s-88.5 217.167 -88.5 340.5s29.5 236.666 88.5 339.999s141.5 188 247.5 254c63.333 39.333 143.333 69.666 240 90.999c94.667 20 218.667 30 372 30v-398zM716.999 1751c0 38.667 14.166 72.333 42.499 101s61.833 43 100.5 43
c40 0 74 -14 102 -42s42 -62 42 -102c0 -41.333 -13.667 -75.5 -41 -102.5s-61.666 -40.5 -102.999 -40.5c-40 0 -73.833 13.833 -101.5 41.5s-41.5 61.5 -41.5 101.5zM353.998 1751c0 38.667 14.333 72.332 43 100.999s62.334 43 101.001 43c39.333 0 73 -14.167 101 -42.5
s42 -62.166 42 -101.499c0 -41.333 -13.5 -75.5 -40.5 -102.5s-61.167 -40.5 -102.5 -40.5c-40.667 0 -74.834 13.667 -102.501 41s-41.5 61.333 -41.5 102z" />
    <glyph glyph-name="Igrave" unicode="&#xcc;" horiz-adv-x="645" 
d="M96 0v1432h451v-1432h-451zM19 1936h287l192 -369h-154z" />
    <glyph glyph-name="Iacute" unicode="&#xcd;" horiz-adv-x="645" 
d="M96 0v1432h451v-1432h-451zM629 1936l-325 -369h-154l192 369h287z" />
    <glyph glyph-name="Icircumflex" unicode="&#xce;" horiz-adv-x="645" 
d="M96 0v1432h451v-1432h-451zM5 1567l190 369h258l190 -369h-151l-168 199l-168 -199h-151z" />
    <glyph glyph-name="Idieresis" unicode="&#xcf;" horiz-adv-x="645" 
d="M96 0v1432h451v-1432h-451zM361 1751c0 38.667 14.166 72.333 42.499 101s61.833 43 100.5 43c40 0 74 -14 102 -42s42 -62 42 -102c0 -41.333 -13.667 -75.5 -41 -102.5s-61.666 -40.5 -102.999 -40.5c-40 0 -73.833 13.833 -101.5 41.5s-41.5 61.5 -41.5 101.5z
M-2.00098 1751c0 38.667 14.333 72.332 43 100.999s62.334 43 101.001 43c39.333 0 73 -14.167 101 -42.5s42 -62.166 42 -101.499c0 -41.333 -13.5 -75.5 -40.5 -102.5s-61.167 -40.5 -102.5 -40.5c-40.667 0 -74.834 13.667 -102.501 41s-41.5 61.333 -41.5 102z" />
    <glyph glyph-name="Eth" unicode="&#xd0;" horiz-adv-x="1346" 
d="M109 0v584h-105v260h105v588h409c96.667 0 184 -11.333 262 -34c150.667 -44 274 -129.833 370 -257.5s144 -270.167 144 -427.5c0 -126 -30.5 -243.5 -91.5 -352.5s-145.167 -196.5 -252.5 -262.5c-94 -57.333 -208.667 -90 -344 -98v436
c153.333 36 230 129.667 230 281c0 86 -24.667 154.5 -74 205.5s-117 78.833 -203 83.5v-162h109v-260h-109v-584h-450z" />
    <glyph glyph-name="Ntilde" unicode="&#xd1;" horiz-adv-x="1397" 
d="M92 0l0.00195312 1145c0 207.333 84 311 252 311c121.333 0 219.666 -69.667 294.999 -209l162 -299c12 -27.333 31 -68 57 -122v606h447v-1162c0 -198 -84 -297 -252 -297c-114 0 -206.333 63.667 -277 191l-180 323c-2.66699 4.66699 -22.334 47.667 -59.001 129v-616
h-445zM1030 1893c-38.667 -170.667 -111.667 -256 -219 -256c-27.333 0 -66.833 8.5 -118.5 25.5s-90.834 25.5 -117.501 25.5c-42 0 -72 -26 -90 -78h-119c36.667 164 108.334 246 215.001 246c28 0 68.5 -8.16699 121.5 -24.5s93.167 -24.5 120.5 -24.5
c44 0 73.333 28.667 88 86h119z" />
    <glyph glyph-name="Ograve" unicode="&#xd2;" horiz-adv-x="1583" 
d="M512 719c0 -80.667 26.834 -149.667 80.501 -207s120.5 -86 200.5 -86c79.333 0 145.666 29.333 198.999 88c52.667 56.667 79 125 79 205s-26 148.333 -78 205c-54 57.333 -120.667 86 -200 86s-146 -28.5 -200 -85.5s-81 -125.5 -81 -205.5zM51.001 717
c0 204.667 72.5 379 217.5 523s319.833 216 524.5 216c204 0 378.167 -72.167 522.5 -216.5s216.5 -318.5 216.5 -522.5s-72.167 -378.667 -216.5 -524s-318.5 -218 -522.5 -218s-378.667 72.667 -524 218s-218 320 -218 524zM488.001 1936h287l192 -369h-154z" />
    <glyph glyph-name="Oacute" unicode="&#xd3;" horiz-adv-x="1583" 
d="M512 719c0 -80.667 26.834 -149.667 80.501 -207s120.5 -86 200.5 -86c79.333 0 145.666 29.333 198.999 88c52.667 56.667 79 125 79 205s-26 148.333 -78 205c-54 57.333 -120.667 86 -200 86s-146 -28.5 -200 -85.5s-81 -125.5 -81 -205.5zM51.001 717
c0 204.667 72.5 379 217.5 523s319.833 216 524.5 216c204 0 378.167 -72.167 522.5 -216.5s216.5 -318.5 216.5 -522.5s-72.167 -378.667 -216.5 -524s-318.5 -218 -522.5 -218s-378.667 72.667 -524 218s-218 320 -218 524zM1098 1936l-325 -369h-154l192 369h287z" />
    <glyph glyph-name="Ocircumflex" unicode="&#xd4;" horiz-adv-x="1583" 
d="M512 719c0 -80.667 26.834 -149.667 80.501 -207s120.5 -86 200.5 -86c79.333 0 145.666 29.333 198.999 88c52.667 56.667 79 125 79 205s-26 148.333 -78 205c-54 57.333 -120.667 86 -200 86s-146 -28.5 -200 -85.5s-81 -125.5 -81 -205.5zM51.001 717
c0 204.667 72.5 379 217.5 523s319.833 216 524.5 216c204 0 378.167 -72.167 522.5 -216.5s216.5 -318.5 216.5 -522.5s-72.167 -378.667 -216.5 -524s-318.5 -218 -522.5 -218s-378.667 72.667 -524 218s-218 320 -218 524zM473.001 1517l190 369h258l190 -369h-151
l-168 199l-168 -199h-151z" />
    <glyph glyph-name="Otilde" unicode="&#xd5;" horiz-adv-x="1583" 
d="M512 719c0 -80.667 26.834 -149.667 80.501 -207s120.5 -86 200.5 -86c79.333 0 145.666 29.333 198.999 88c52.667 56.667 79 125 79 205s-26 148.333 -78 205c-54 57.333 -120.667 86 -200 86s-146 -28.5 -200 -85.5s-81 -125.5 -81 -205.5zM51.001 717
c0 204.667 72.5 379 217.5 523s319.833 216 524.5 216c204 0 378.167 -72.167 522.5 -216.5s216.5 -318.5 216.5 -522.5s-72.167 -378.667 -216.5 -524s-318.5 -218 -522.5 -218s-378.667 72.667 -524 218s-218 320 -218 524zM1125 1893
c-38.667 -170.667 -111.667 -256 -219 -256c-27.333 0 -66.833 8.5 -118.5 25.5s-90.834 25.5 -117.501 25.5c-42 0 -72 -26 -90 -78h-119c36.667 164 108.334 246 215.001 246c28 0 68.5 -8.16699 121.5 -24.5s93.167 -24.5 120.5 -24.5c44 0 73.333 28.667 88 86h119z" />
    <glyph glyph-name="Odieresis" unicode="&#xd6;" horiz-adv-x="1583" 
d="M512 719c0 -80.667 26.834 -149.667 80.501 -207s120.5 -86 200.5 -86c79.333 0 145.666 29.333 198.999 88c52.667 56.667 79 125 79 205s-26 148.333 -78 205c-54 57.333 -120.667 86 -200 86s-146 -28.5 -200 -85.5s-81 -125.5 -81 -205.5zM51.001 717
c0 204.667 72.5 379 217.5 523s319.833 216 524.5 216c204 0 378.167 -72.167 522.5 -216.5s216.5 -318.5 216.5 -522.5s-72.167 -378.667 -216.5 -524s-318.5 -218 -522.5 -218s-378.667 72.667 -524 218s-218 320 -218 524zM830.001 1751
c0 38.667 14.166 72.333 42.499 101s61.833 43 100.5 43c40 0 74 -14 102 -42s42 -62 42 -102c0 -41.333 -13.667 -75.5 -41 -102.5s-61.666 -40.5 -102.999 -40.5c-40 0 -73.833 13.833 -101.5 41.5s-41.5 61.5 -41.5 101.5zM467 1751c0 38.667 14.333 72.332 43 100.999
s62.334 43 101.001 43c39.333 0 73 -14.167 101 -42.5s42 -62.166 42 -101.499c0 -41.333 -13.5 -75.5 -40.5 -102.5s-61.167 -40.5 -102.5 -40.5c-40.667 0 -74.834 13.667 -102.501 41s-41.5 61.333 -41.5 102z" />
    <glyph glyph-name="multiply" unicode="&#xd7;" horiz-adv-x="1706" 
d="M874 805l426 426l195 -195l-426 -426l426 -426l-195 -194l-426 426l-425 -426l-195 194l426 426l-426 426l195 195z" />
    <glyph glyph-name="Oslash" unicode="&#xd8;" horiz-adv-x="1583" 
d="M520 563l387.001 457c-37.333 14.667 -76 22 -116 22c-86.667 0 -160.334 -32.167 -221.001 -96.5s-91 -139.833 -91 -226.5c0 -46.667 13.667 -98.667 41 -156zM1061 883l-389 -463.001c48.667 -18 89.667 -27 123 -27c88 0 161.667 32.667 221 98
c57.333 63.333 86 139.333 86 228c0 54.667 -13.667 109.334 -41 164.001zM244.001 -100.001l-171.999 143.001l161 190c-120 134.667 -180 297.334 -180 488.001c0 205.333 72.667 379.166 218 521.499s320.666 213.5 525.999 213.5
c120.667 0 246.334 -35.333 377.001 -106l151 180l174 -144l-153 -182c124 -142 186 -304.333 186 -487c0 -146 -40.333 -281.333 -121 -406s-187.334 -215.334 -320.001 -272.001c-96 -41.333 -201 -62 -315 -62c-130 0 -254.333 37 -373 111z" />
    <glyph glyph-name="Ugrave" unicode="&#xd9;" 
d="M1223 1432v-820.001c0 -184.667 -48 -334.667 -144 -450c-102.667 -123.333 -244.667 -185 -426 -185c-180.667 0 -322 62 -424 186c-95.333 114.667 -143 264.334 -143 449.001v820h449v-869c0 -99.333 39.333 -149 118 -149c79.333 0 119 49.667 119 149v869h451z
M350 1936h287l192 -369h-154z" />
    <glyph glyph-name="Uacute" unicode="&#xda;" 
d="M1223 1432v-820.001c0 -184.667 -48 -334.667 -144 -450c-102.667 -123.333 -244.667 -185 -426 -185c-180.667 0 -322 62 -424 186c-95.333 114.667 -143 264.334 -143 449.001v820h449v-869c0 -99.333 39.333 -149 118 -149c79.333 0 119 49.667 119 149v869h451z
M960 1936l-325 -369h-154l192 369h287z" />
    <glyph glyph-name="Ucircumflex" unicode="&#xdb;" 
d="M1223 1432v-820.001c0 -184.667 -48 -334.667 -144 -450c-102.667 -123.333 -244.667 -185 -426 -185c-180.667 0 -322 62 -424 186c-95.333 114.667 -143 264.334 -143 449.001v820h449v-869c0 -99.333 39.333 -149 118 -149c79.333 0 119 49.667 119 149v869h451z
M336 1567l190 369h258l190 -369h-151l-168 199l-168 -199h-151z" />
    <glyph glyph-name="Udieresis" unicode="&#xdc;" 
d="M1223 1432v-820.001c0 -184.667 -48 -334.667 -144 -450c-102.667 -123.333 -244.667 -185 -426 -185c-180.667 0 -322 62 -424 186c-95.333 114.667 -143 264.334 -143 449.001v820h449v-869c0 -99.333 39.333 -149 118 -149c79.333 0 119 49.667 119 149v869h451z
M692 1751c0 38.667 14.166 72.333 42.499 101s61.833 43 100.5 43c40 0 74 -14 102 -42s42 -62 42 -102c0 -41.333 -13.667 -75.5 -41 -102.5s-61.666 -40.5 -102.999 -40.5c-40 0 -73.833 13.833 -101.5 41.5s-41.5 61.5 -41.5 101.5zM328.999 1751
c0 38.667 14.333 72.332 43 100.999s62.334 43 101.001 43c39.333 0 73 -14.167 101 -42.5s42 -62.166 42 -101.499c0 -41.333 -13.5 -75.5 -40.5 -102.5s-61.167 -40.5 -102.5 -40.5c-40.667 0 -74.834 13.667 -102.501 41s-41.5 61.333 -41.5 102z" />
    <glyph glyph-name="Yacute" unicode="&#xdd;" horiz-adv-x="1194" 
d="M522 1432v-459.001c0 -62.667 25.333 -94 76 -94c49.333 0 74 31.333 74 94v459h446v-449c0 -233.333 -98.333 -393.666 -295 -480.999v-502h-450v502c-198 90 -297 250.333 -297 481v449h446zM903 1936l-325 -369h-154l192 369h287z" />
    <glyph glyph-name="Thorn" unicode="&#xde;" horiz-adv-x="1208" 
d="M537 0l-451 -0.00195312v1458h451v-188c44 4 77.333 6 100 6c150 0 276.5 -49 379.5 -147s154.5 -221.667 154.5 -371c0 -157.333 -54.333 -283.666 -163 -378.999c-104 -90 -236 -135 -396 -135h-26v403c113.333 0 170 37.667 170 113
c0 30.667 -10.5 56.334 -31.5 77.001s-46.833 31 -77.5 31c-73.333 0 -110 -57.333 -110 -172v-696z" />
    <glyph glyph-name="germandbls" unicode="&#xdf;" horiz-adv-x="1323" 
d="M94 0l0.000976562 700.002h-108v342h108c0 141.333 48.667 247.333 146 318c85.333 62.667 201.333 94 348 94c143.333 0 261.666 -33.5 354.999 -100.5s140 -150.167 140 -249.5c0 -84.667 -36.667 -156.334 -110 -215.001c202 -126.667 303 -277.667 303 -453
c0 -149.333 -50.667 -261.333 -152 -336c-90 -66.667 -212.667 -100 -368 -100h-191v365h158c90 0 135 33.333 135 100c0 48.667 -46 109 -138 181s-138 124.333 -138 157c0 22 17.333 58.167 52 108.5s52 93.166 52 128.499c0 64.667 -28 97 -84 97
c-66.667 0 -100 -58.667 -100 -176v-961h-408z" />
    <glyph glyph-name="agrave" unicode="&#xe0;" horiz-adv-x="1171" 
d="M578 647c-32.667 0 -59.667 -11.833 -81 -35.5s-32 -52.167 -32 -85.5s10.5 -61.333 31.5 -84s48.167 -34 81.5 -34c26 0 48.333 7.33301 67 22v-432c-28 -2.66699 -51.333 -4 -70 -4c-154.667 0 -280.667 48.667 -378 146s-146 223.333 -146 378
c0 150 50.5 278.333 151.5 385s226.167 160 375.5 160c118 0 221.5 -32.667 310.5 -98s150.5 -154.333 184.5 -267c20.667 -68 31 -166 31 -294v-404h-412v473c0 116 -38 174 -114 174zM281 1526h287l192 -369h-154z" />
    <glyph glyph-name="aacute" unicode="&#xe1;" horiz-adv-x="1171" 
d="M578 647c-32.667 0 -59.667 -11.833 -81 -35.5s-32 -52.167 -32 -85.5s10.5 -61.333 31.5 -84s48.167 -34 81.5 -34c26 0 48.333 7.33301 67 22v-432c-28 -2.66699 -51.333 -4 -70 -4c-154.667 0 -280.667 48.667 -378 146s-146 223.333 -146 378
c0 150 50.5 278.333 151.5 385s226.167 160 375.5 160c118 0 221.5 -32.667 310.5 -98s150.5 -154.333 184.5 -267c20.667 -68 31 -166 31 -294v-404h-412v473c0 116 -38 174 -114 174zM891 1526l-325 -369h-154l192 369h287z" />
    <glyph glyph-name="acircumflex" unicode="&#xe2;" horiz-adv-x="1171" 
d="M578 647c-32.667 0 -59.667 -11.833 -81 -35.5s-32 -52.167 -32 -85.5s10.5 -61.333 31.5 -84s48.167 -34 81.5 -34c26 0 48.333 7.33301 67 22v-432c-28 -2.66699 -51.333 -4 -70 -4c-154.667 0 -280.667 48.667 -378 146s-146 223.333 -146 378
c0 150 50.5 278.333 151.5 385s226.167 160 375.5 160c118 0 221.5 -32.667 310.5 -98s150.5 -154.333 184.5 -267c20.667 -68 31 -166 31 -294v-404h-412v473c0 116 -38 174 -114 174zM267 1157l190 369h258l190 -369h-151l-168 199l-168 -199h-151z" />
    <glyph glyph-name="atilde" unicode="&#xe3;" horiz-adv-x="1171" 
d="M578 647c-32.667 0 -59.667 -11.833 -81 -35.5s-32 -52.167 -32 -85.5s10.5 -61.333 31.5 -84s48.167 -34 81.5 -34c26 0 48.333 7.33301 67 22v-432c-28 -2.66699 -51.333 -4 -70 -4c-154.667 0 -280.667 48.667 -378 146s-146 223.333 -146 378
c0 150 50.5 278.333 151.5 385s226.167 160 375.5 160c118 0 221.5 -32.667 310.5 -98s150.5 -154.333 184.5 -267c20.667 -68 31 -166 31 -294v-404h-412v473c0 116 -38 174 -114 174zM918 1483c-38.667 -170.667 -111.667 -256 -219 -256
c-27.333 0 -66.833 8.5 -118.5 25.5s-90.834 25.5 -117.501 25.5c-42 0 -72 -26 -90 -78h-119c36.667 164 108.334 246 215.001 246c28 0 68.5 -8.16699 121.5 -24.5s93.167 -24.5 120.5 -24.5c44 0 73.333 28.667 88 86h119z" />
    <glyph glyph-name="adieresis" unicode="&#xe4;" horiz-adv-x="1171" 
d="M578 647c-32.667 0 -59.667 -11.833 -81 -35.5s-32 -52.167 -32 -85.5s10.5 -61.333 31.5 -84s48.167 -34 81.5 -34c26 0 48.333 7.33301 67 22v-432c-28 -2.66699 -51.333 -4 -70 -4c-154.667 0 -280.667 48.667 -378 146s-146 223.333 -146 378
c0 150 50.5 278.333 151.5 385s226.167 160 375.5 160c118 0 221.5 -32.667 310.5 -98s150.5 -154.333 184.5 -267c20.667 -68 31 -166 31 -294v-404h-412v473c0 116 -38 174 -114 174zM623 1341c0 38.667 14.166 72.333 42.499 101s61.833 43 100.5 43c40 0 74 -14 102 -42
s42 -62 42 -102c0 -41.333 -13.667 -75.5 -41 -102.5s-61.666 -40.5 -102.999 -40.5c-40 0 -73.833 13.833 -101.5 41.5s-41.5 61.5 -41.5 101.5zM259.999 1341c0 38.667 14.333 72.332 43 100.999s62.334 43 101.001 43c39.333 0 73 -14.167 101 -42.5
s42 -62.166 42 -101.499c0 -41.333 -13.5 -75.5 -40.5 -102.5s-61.167 -40.5 -102.5 -40.5c-40.667 0 -74.834 13.667 -102.501 41s-41.5 61.333 -41.5 102z" />
    <glyph glyph-name="aring" unicode="&#xe5;" horiz-adv-x="1171" 
d="M492 1399c0 -32.667 10.8311 -59.668 32.498 -81.001s48.834 -32 81.501 -32c32 0 59.167 10.833 81.5 32.5s33.5 48.5 33.5 80.5s-11.167 59 -33.5 81s-49.5 33 -81.5 33c-31.333 0 -58.166 -11.167 -80.499 -33.5s-33.5 -49.166 -33.5 -80.499zM333.998 1401
c0 76 26.002 140 78.002 192s116 78 192 78s140.5 -26 193.5 -78s79.5 -116 79.5 -192c0 -76.667 -26.333 -141.334 -79 -194.001s-117.334 -79 -194.001 -79s-140.834 26.333 -192.501 79s-77.5 117.334 -77.5 194.001zM573 646.999c-32 0 -58.667 -12.001 -80 -36.001
s-32 -52.333 -32 -85c0 -33.333 10.5 -61.333 31.5 -84s47.833 -34 80.5 -34c25.333 0 47.333 7.33301 66 22v-436c-12 -1.33301 -29.667 -2 -53 -2c-162.667 0 -293.167 48.5 -391.5 145.5s-147.5 226.5 -147.5 388.5c0 146.667 51.167 272.834 153.5 378.501
s226.5 158.5 372.5 158.5c118.667 0 222.5 -32.667 311.5 -98s150.5 -154.333 184.5 -267c20.667 -68 31 -166 31 -294v-404h-412v473c0 116 -38.333 174 -115 174z" />
    <glyph glyph-name="ae" unicode="&#xe6;" horiz-adv-x="1737" 
d="M669 483l-11 -1.99902c-145.333 -26 -218 -66.333 -218 -121c0 -40.667 27.333 -61 82 -61c46 0 82.5 14.5 109.5 43.5s40.5 66.5 40.5 112.5c0 13.333 -1 22.666 -3 27.999zM1698 242.001c-142.667 -173.333 -314.666 -260.001 -515.999 -260.001
c-154.667 0 -281.667 49.667 -381 149c-81.333 -99.333 -209.666 -149 -384.999 -149c-108 0 -196.667 23.333 -266 70c-80.667 54 -121 132.333 -121 235c0 197.333 190.333 334.333 571 411c-26.667 33.333 -66.334 50 -119.001 50c-68.667 0 -141 -25.333 -217 -76
l-209 246c134.667 96.667 285.667 145 453 145c146 0 256.667 -42.333 332 -127c90 84.667 200.333 127 331 127c252.667 0 433.667 -132.333 543 -397l-518 -283l-113 209l193 108c-30.667 32 -67 48 -109 48c-52 0 -92.333 -23 -121 -69
c-24 -39.333 -36 -86.666 -36 -141.999c0 -62.667 19 -115 57 -157s88 -63 150 -63c79.333 0 163.666 48 252.999 144z" />
    <glyph glyph-name="ccedilla" unicode="&#xe7;" horiz-adv-x="823" 
d="M782 655l-147 -0.000976562c-109.333 0 -164 -44.333 -164 -133c0 -43.333 17 -76.666 51 -99.999c30 -20.667 67.667 -31 113 -31h147v-391h-129c-170.667 -0 -311.667 43.333 -423 130c-122 95.333 -183 226 -183 392c0 165.333 61.333 295.333 184 390
c111.333 86.667 252 130 422 130h129v-387zM235 -440.001l0.000976562 139c109.333 -30 199.666 -45 270.999 -45c57.333 0 86 24 86 72c0 42.667 -41.667 64 -125 64c-16 0 -37.667 -1 -65 -3l77 369h111l-54 -240c162.667 0 244 -64 244 -192
c0 -139.333 -84.667 -209 -254 -209c-84.667 0 -181.667 15 -291 45z" />
    <glyph glyph-name="egrave" unicode="&#xe8;" horiz-adv-x="1149" 
d="M1116 233c-166 -167.333 -340.667 -251.001 -524 -251.001c-154.667 0 -284.167 51.333 -388.5 154s-156.5 231.334 -156.5 386.001c0 152 52.167 280.167 156.5 384.5s232.5 156.5 384.5 156.5c126.667 0 237.334 -37 332.001 -111
c88.667 -69.333 156 -165.333 202 -288l-516 -281l-112 209l190 106c-27.333 30 -62 45 -104 45c-48 0 -86 -22.667 -114 -68c-24 -38 -36 -82.667 -36 -134c0 -61.333 17.333 -111 52 -149c36 -40 84.333 -60 145 -60c93.333 0 176.666 43.667 249.999 131zM270 1526h287
l192 -369h-154z" />
    <glyph glyph-name="eacute" unicode="&#xe9;" horiz-adv-x="1149" 
d="M1116 233c-166 -167.333 -340.667 -251.001 -524 -251.001c-154.667 0 -284.167 51.333 -388.5 154s-156.5 231.334 -156.5 386.001c0 152 52.167 280.167 156.5 384.5s232.5 156.5 384.5 156.5c126.667 0 237.334 -37 332.001 -111
c88.667 -69.333 156 -165.333 202 -288l-516 -281l-112 209l190 106c-27.333 30 -62 45 -104 45c-48 0 -86 -22.667 -114 -68c-24 -38 -36 -82.667 -36 -134c0 -61.333 17.333 -111 52 -149c36 -40 84.333 -60 145 -60c93.333 0 176.666 43.667 249.999 131zM880 1526
l-325 -369h-154l192 369h287z" />
    <glyph glyph-name="ecircumflex" unicode="&#xea;" horiz-adv-x="1149" 
d="M1116 233c-166 -167.333 -340.667 -251.001 -524 -251.001c-154.667 0 -284.167 51.333 -388.5 154s-156.5 231.334 -156.5 386.001c0 152 52.167 280.167 156.5 384.5s232.5 156.5 384.5 156.5c126.667 0 237.334 -37 332.001 -111
c88.667 -69.333 156 -165.333 202 -288l-516 -281l-112 209l190 106c-27.333 30 -62 45 -104 45c-48 0 -86 -22.667 -114 -68c-24 -38 -36 -82.667 -36 -134c0 -61.333 17.333 -111 52 -149c36 -40 84.333 -60 145 -60c93.333 0 176.666 43.667 249.999 131zM256 1157
l190 369h258l190 -369h-151l-168 199l-168 -199h-151z" />
    <glyph glyph-name="edieresis" unicode="&#xeb;" horiz-adv-x="1149" 
d="M1116 233c-166 -167.333 -340.667 -251.001 -524 -251.001c-154.667 0 -284.167 51.333 -388.5 154s-156.5 231.334 -156.5 386.001c0 152 52.167 280.167 156.5 384.5s232.5 156.5 384.5 156.5c126.667 0 237.334 -37 332.001 -111
c88.667 -69.333 156 -165.333 202 -288l-516 -281l-112 209l190 106c-27.333 30 -62 45 -104 45c-48 0 -86 -22.667 -114 -68c-24 -38 -36 -82.667 -36 -134c0 -61.333 17.333 -111 52 -149c36 -40 84.333 -60 145 -60c93.333 0 176.666 43.667 249.999 131zM612 1341
c0 38.667 14.166 72.333 42.499 101s61.833 43 100.5 43c40 0 74 -14 102 -42s42 -62 42 -102c0 -41.333 -13.667 -75.5 -41 -102.5s-61.666 -40.5 -102.999 -40.5c-40 0 -73.833 13.833 -101.5 41.5s-41.5 61.5 -41.5 101.5zM248.999 1341
c0 38.667 14.333 72.332 43 100.999s62.334 43 101.001 43c39.333 0 73 -14.167 101 -42.5s42 -62.166 42 -101.499c0 -41.333 -13.5 -75.5 -40.5 -102.5s-61.167 -40.5 -102.5 -40.5c-40.667 0 -74.834 13.667 -102.501 41s-41.5 61.333 -41.5 102z" />
    <glyph glyph-name="igrave" unicode="&#xec;" horiz-adv-x="575" 
d="M82 0v1042h412v-1042h-412zM-16 1526h287l192 -369h-154z" />
    <glyph glyph-name="iacute" unicode="&#xed;" horiz-adv-x="575" 
d="M82 0v1042h412v-1042h-412zM594 1526l-325 -369h-154l192 369h287z" />
    <glyph glyph-name="icircumflex" unicode="&#xee;" horiz-adv-x="575" 
d="M82 0v1042h412v-1042h-412zM-30 1157l190 369h258l190 -369h-151l-168 199l-168 -199h-151z" />
    <glyph glyph-name="idieresis" unicode="&#xef;" horiz-adv-x="575" 
d="M82 0v1042h412v-1042h-412zM326 1341c0 38.667 14.166 72.333 42.499 101s61.833 43 100.5 43c40 0 74 -14 102 -42s42 -62 42 -102c0 -41.333 -13.667 -75.5 -41 -102.5s-61.666 -40.5 -102.999 -40.5c-40 0 -73.833 13.833 -101.5 41.5s-41.5 61.5 -41.5 101.5z
M-37.001 1341c0 38.667 14.333 72.332 43 100.999s62.334 43 101.001 43c39.333 0 73 -14.167 101 -42.5s42 -62.166 42 -101.499c0 -41.333 -13.5 -75.5 -40.5 -102.5s-61.167 -40.5 -102.5 -40.5c-40.667 0 -74.834 13.667 -102.501 41s-41.5 61.333 -41.5 102z" />
    <glyph glyph-name="eth" unicode="&#xf0;" horiz-adv-x="1063" 
d="M614 1348l229.998 74.999l63 -186l-190 -66l147 -243c100 -165.333 150 -315 150 -449c0 -135.333 -47 -251.666 -141 -348.999s-208.333 -146 -343 -146c-137.333 0 -252.166 48.333 -344.499 145s-138.5 214 -138.5 352c0 114.667 31.667 213 95 295
c67.333 87.333 156.666 136 267.999 146l168 -322c-3.33301 0 -8.16602 0.333008 -14.499 1s-11.166 1 -14.499 1c-79.333 0 -119 -39 -119 -117c0 -73.333 37.667 -110 113 -110c80.667 0 121 43.667 121 131c0 38.667 -13 83 -39 133l-222 428l-235 -84l-64 186l207 72
l-94 191h346z" />
    <glyph glyph-name="ntilde" unicode="&#xf1;" horiz-adv-x="1118" 
d="M635 0v596.001c0 54.667 -25.333 82 -76 82s-76 -27.333 -76 -82v-596h-411v516c0 81.333 7 148 21 200c27.333 102 85 185.333 173 250s185.667 97 293 97s205 -32.333 293 -97s146 -148.334 174 -251.001c14 -52.667 21 -119 21 -199v-516h-412zM891 1483
c-38.667 -170.667 -111.667 -256 -219 -256c-27.333 0 -66.833 8.5 -118.5 25.5s-90.834 25.5 -117.501 25.5c-42 0 -72 -26 -90 -78h-119c36.667 164 108.334 246 215.001 246c28 0 68.5 -8.16699 121.5 -24.5s93.167 -24.5 120.5 -24.5c44 0 73.333 28.667 88 86h119z" />
    <glyph glyph-name="ograve" unicode="&#xf2;" horiz-adv-x="1147" 
d="M47 522c0 147.333 51 274.334 153 381.001s226.333 160 373 160s271.667 -53.667 375 -161c101.333 -106 152 -232.667 152 -380c0 -148.667 -50.333 -275.667 -151 -381c-102.667 -106 -228 -159 -376 -159c-146.667 0 -271 53.167 -373 159.5
s-153 233.166 -153 380.499zM469 524.001c0 -30.667 9.83105 -57.667 29.498 -81s44.5 -35 74.5 -35c30.667 0 55.834 11.5 75.501 34.5s29.5 50.167 29.5 81.5c0 32 -9.66699 59.167 -29 81.5s-44.666 33.5 -75.999 33.5c-30.667 0 -55.667 -11.333 -75 -34
s-29 -49.667 -29 -81zM267.998 1526h287l192 -369h-154z" />
    <glyph glyph-name="oacute" unicode="&#xf3;" horiz-adv-x="1147" 
d="M47 522c0 147.333 51 274.334 153 381.001s226.333 160 373 160s271.667 -53.667 375 -161c101.333 -106 152 -232.667 152 -380c0 -148.667 -50.333 -275.667 -151 -381c-102.667 -106 -228 -159 -376 -159c-146.667 0 -271 53.167 -373 159.5
s-153 233.166 -153 380.499zM469 524.001c0 -30.667 9.83105 -57.667 29.498 -81s44.5 -35 74.5 -35c30.667 0 55.834 11.5 75.501 34.5s29.5 50.167 29.5 81.5c0 32 -9.66699 59.167 -29 81.5s-44.666 33.5 -75.999 33.5c-30.667 0 -55.667 -11.333 -75 -34
s-29 -49.667 -29 -81zM877.998 1526l-325 -369h-154l192 369h287z" />
    <glyph glyph-name="ocircumflex" unicode="&#xf4;" horiz-adv-x="1147" 
d="M47 522c0 147.333 51 274.334 153 381.001s226.333 160 373 160s271.667 -53.667 375 -161c101.333 -106 152 -232.667 152 -380c0 -148.667 -50.333 -275.667 -151 -381c-102.667 -106 -228 -159 -376 -159c-146.667 0 -271 53.167 -373 159.5
s-153 233.166 -153 380.499zM469 524.001c0 -30.667 9.83105 -57.667 29.498 -81s44.5 -35 74.5 -35c30.667 0 55.834 11.5 75.501 34.5s29.5 50.167 29.5 81.5c0 32 -9.66699 59.167 -29 81.5s-44.666 33.5 -75.999 33.5c-30.667 0 -55.667 -11.333 -75 -34
s-29 -49.667 -29 -81zM253.998 1157l190 369h258l190 -369h-151l-168 199l-168 -199h-151z" />
    <glyph glyph-name="otilde" unicode="&#xf5;" horiz-adv-x="1147" 
d="M47 522c0 147.333 51 274.334 153 381.001s226.333 160 373 160s271.667 -53.667 375 -161c101.333 -106 152 -232.667 152 -380c0 -148.667 -50.333 -275.667 -151 -381c-102.667 -106 -228 -159 -376 -159c-146.667 0 -271 53.167 -373 159.5
s-153 233.166 -153 380.499zM469 524.001c0 -30.667 9.83105 -57.667 29.498 -81s44.5 -35 74.5 -35c30.667 0 55.834 11.5 75.501 34.5s29.5 50.167 29.5 81.5c0 32 -9.66699 59.167 -29 81.5s-44.666 33.5 -75.999 33.5c-30.667 0 -55.667 -11.333 -75 -34
s-29 -49.667 -29 -81zM904.998 1483c-38.667 -170.667 -111.667 -256 -219 -256c-27.333 0 -66.833 8.5 -118.5 25.5s-90.834 25.5 -117.501 25.5c-42 0 -72 -26 -90 -78h-119c36.667 164 108.334 246 215.001 246c28 0 68.5 -8.16699 121.5 -24.5s93.167 -24.5 120.5 -24.5
c44 0 73.333 28.667 88 86h119z" />
    <glyph glyph-name="odieresis" unicode="&#xf6;" horiz-adv-x="1147" 
d="M47 522c0 147.333 51 274.334 153 381.001s226.333 160 373 160s271.667 -53.667 375 -161c101.333 -106 152 -232.667 152 -380c0 -148.667 -50.333 -275.667 -151 -381c-102.667 -106 -228 -159 -376 -159c-146.667 0 -271 53.167 -373 159.5
s-153 233.166 -153 380.499zM469 524.001c0 -30.667 9.83105 -57.667 29.498 -81s44.5 -35 74.5 -35c30.667 0 55.834 11.5 75.501 34.5s29.5 50.167 29.5 81.5c0 32 -9.66699 59.167 -29 81.5s-44.666 33.5 -75.999 33.5c-30.667 0 -55.667 -11.333 -75 -34
s-29 -49.667 -29 -81zM609.998 1341c0 38.667 14.166 72.333 42.499 101s61.833 43 100.5 43c40 0 74 -14 102 -42s42 -62 42 -102c0 -41.333 -13.667 -75.5 -41 -102.5s-61.666 -40.5 -102.999 -40.5c-40 0 -73.833 13.833 -101.5 41.5s-41.5 61.5 -41.5 101.5z
M246.997 1341c0 38.667 14.333 72.332 43 100.999s62.334 43 101.001 43c39.333 0 73 -14.167 101 -42.5s42 -62.166 42 -101.499c0 -41.333 -13.5 -75.5 -40.5 -102.5s-61.167 -40.5 -102.5 -40.5c-40.667 0 -74.834 13.667 -102.501 41s-41.5 61.333 -41.5 102z" />
    <glyph glyph-name="divide" unicode="&#xf7;" horiz-adv-x="1706" 
d="M854 371c50 0 92.833 -17.999 128.5 -53.999s53.5 -79 53.5 -129s-18 -92.833 -54 -128.5s-79.333 -53.5 -130 -53.5c-51.333 0 -94.5 17.667 -129.5 53s-52.5 78.333 -52.5 129c0 51.333 17.667 94.666 53 129.999s79 53 131 53zM1452 748.001v-273h-1198v273h1198z
M854 1217c50 0 92.833 -18.333 128.5 -55s53.5 -80 53.5 -130s-18 -92.833 -54 -128.5s-79.333 -53.5 -130 -53.5c-51.333 0 -94.5 17.667 -129.5 53s-52.5 78.333 -52.5 129c0 51.333 17.833 95 53.5 131s79.167 54 130.5 54z" />
    <glyph glyph-name="oslash" unicode="&#xf8;" horiz-adv-x="1147" 
d="M225 -147l-180 133.002l131 182c-86 104.667 -129 224 -129 358c0 145.333 51.5 271.166 154.5 377.499s226.833 159.5 371.5 159.5c70.667 0 144 -16.333 220 -49l120 166l181 -131l-125 -170c86 -99.333 129 -218.333 129 -357
c0 -150.667 -49.667 -278.334 -149 -383.001s-224 -157 -374 -157c-75.333 0 -149 15.667 -221 47zM465 524.002c0 -32 9.99902 -59.667 29.999 -83c20.667 -25.333 46.667 -38 78 -38s57.333 12.167 78 36.5s31 52.5 31 84.5c0 32.667 -10.167 61 -30.5 85
s-46.5 36 -78.5 36c-31.333 0 -57.166 -12.167 -77.499 -36.5s-30.5 -52.5 -30.5 -84.5z" />
    <glyph glyph-name="ugrave" unicode="&#xf9;" horiz-adv-x="1118" 
d="M483 1042l-0.000976562 -596c0 -54 25.333 -81 76 -81s76 27 76 81v596h412v-516c0 -80 -7 -146 -21 -198c-28.667 -104 -86.667 -187.667 -174 -251s-185 -95 -293 -95s-205.667 31.667 -293 95c-89.333 65.333 -147.666 149.333 -174.999 252
c-14 52 -21 117.667 -21 197v516h413zM253.999 1526h287l192 -369h-154z" />
    <glyph glyph-name="uacute" unicode="&#xfa;" horiz-adv-x="1118" 
d="M483 1042l-0.000976562 -596c0 -54 25.333 -81 76 -81s76 27 76 81v596h412v-516c0 -80 -7 -146 -21 -198c-28.667 -104 -86.667 -187.667 -174 -251s-185 -95 -293 -95s-205.667 31.667 -293 95c-89.333 65.333 -147.666 149.333 -174.999 252
c-14 52 -21 117.667 -21 197v516h413zM863.999 1526l-325 -369h-154l192 369h287z" />
    <glyph glyph-name="ucircumflex" unicode="&#xfb;" horiz-adv-x="1118" 
d="M483 1042l-0.000976562 -596c0 -54 25.333 -81 76 -81s76 27 76 81v596h412v-516c0 -80 -7 -146 -21 -198c-28.667 -104 -86.667 -187.667 -174 -251s-185 -95 -293 -95s-205.667 31.667 -293 95c-89.333 65.333 -147.666 149.333 -174.999 252
c-14 52 -21 117.667 -21 197v516h413zM239.999 1157l190 369h258l190 -369h-151l-168 199l-168 -199h-151z" />
    <glyph glyph-name="udieresis" unicode="&#xfc;" horiz-adv-x="1118" 
d="M483 1042l-0.000976562 -596c0 -54 25.333 -81 76 -81s76 27 76 81v596h412v-516c0 -80 -7 -146 -21 -198c-28.667 -104 -86.667 -187.667 -174 -251s-185 -95 -293 -95s-205.667 31.667 -293 95c-89.333 65.333 -147.666 149.333 -174.999 252
c-14 52 -21 117.667 -21 197v516h413zM595.999 1341c0 38.667 14.166 72.333 42.499 101s61.833 43 100.5 43c40 0 74 -14 102 -42s42 -62 42 -102c0 -41.333 -13.667 -75.5 -41 -102.5s-61.666 -40.5 -102.999 -40.5c-40 0 -73.833 13.833 -101.5 41.5
s-41.5 61.5 -41.5 101.5zM232.998 1341c0 38.667 14.333 72.332 43 100.999s62.334 43 101.001 43c39.333 0 73 -14.167 101 -42.5s42 -62.166 42 -101.499c0 -41.333 -13.5 -75.5 -40.5 -102.5s-61.167 -40.5 -102.5 -40.5c-40.667 0 -74.834 13.667 -102.501 41
s-41.5 61.333 -41.5 102z" />
    <glyph glyph-name="yacute" unicode="&#xfd;" horiz-adv-x="1118" 
d="M483 1042v-636c0 -54.667 25.333 -82 76 -82s76 27.333 76 82v636h412v-557c0 -244 -94.333 -410.333 -283 -499v-422h-412v422c-102 51.333 -175.667 119 -221 203c-40.667 77.333 -61 176 -61 296v557h413zM864 1526l-325 -369h-154l192 369h287z" />
    <glyph glyph-name="thorn" unicode="&#xfe;" horiz-adv-x="1171" 
d="M72 1432h411v-385c45.333 6.66699 81.666 10 108.999 10c149.333 0 275 -51.667 377 -155s153 -230 153 -380c0 -162 -49.167 -291.5 -147.5 -388.5s-228.5 -145.5 -390.5 -145.5c-23.333 0 -41 0.666992 -53 2l-1 436c20.667 -15.333 43.334 -23 68.001 -23
c33.333 0 60.5 11.5 81.5 34.5s31.5 51.167 31.5 84.5c0 32.667 -10.833 61 -32.5 85s-48.5 36 -80.5 36c-76.667 0 -115 -57.333 -115 -172v-907h-411v1868z" />
    <glyph glyph-name="ydieresis" unicode="&#xff;" horiz-adv-x="1118" 
d="M483 1042v-636c0 -54.667 25.333 -82 76 -82s76 27.333 76 82v636h412v-557c0 -244 -94.333 -410.333 -283 -499v-422h-412v422c-102 51.333 -175.667 119 -221 203c-40.667 77.333 -61 176 -61 296v557h413zM596 1341c0 38.667 14.166 72.333 42.499 101
s61.833 43 100.5 43c40 0 74 -14 102 -42s42 -62 42 -102c0 -41.333 -13.667 -75.5 -41 -102.5s-61.666 -40.5 -102.999 -40.5c-40 0 -73.833 13.833 -101.5 41.5s-41.5 61.5 -41.5 101.5zM232.999 1341c0 38.667 14.333 72.332 43 100.999s62.334 43 101.001 43
c39.333 0 73 -14.167 101 -42.5s42 -62.166 42 -101.499c0 -41.333 -13.5 -75.5 -40.5 -102.5s-61.167 -40.5 -102.5 -40.5c-40.667 0 -74.834 13.667 -102.501 41s-41.5 61.333 -41.5 102z" />
    <glyph glyph-name="glyph271" unicode="&#x102;" 
d="M86 0v819c0 184.667 47.333 334.667 142 450c102 123.333 243.667 185 425 185c182 0 324 -61.667 426 -185c96 -114.667 144 -264.667 144 -450v-819h-449v451h-186v374h186v43c0 100 -40.333 150 -121 150c-77.333 0 -116 -50 -116 -150v-868h-451zM341 1853h131
c7.33301 -91.333 68.666 -137 183.999 -137c116.667 0 177.667 45.667 183 137h130c-15.333 -204.667 -119.666 -307 -312.999 -307c-196.667 0 -301.667 102.333 -315 307z" />
    <glyph glyph-name="glyph272" unicode="&#x103;" horiz-adv-x="1171" 
d="M578 647c-32.667 0 -59.667 -11.833 -81 -35.5s-32 -52.167 -32 -85.5s10.5 -61.333 31.5 -84s48.167 -34 81.5 -34c26 0 48.333 7.33301 67 22v-432c-28 -2.66699 -51.333 -4 -70 -4c-154.667 0 -280.667 48.667 -378 146s-146 223.333 -146 378
c0 150 50.5 278.333 151.5 385s226.167 160 375.5 160c118 0 221.5 -32.667 310.5 -98s150.5 -154.333 184.5 -267c20.667 -68 31 -166 31 -294v-404h-412v473c0 116 -38 174 -114 174zM272 1493h131c7.33301 -91.333 68.666 -137 183.999 -137
c116.667 0 177.667 45.667 183 137h130c-15.333 -204.667 -119.666 -307 -312.999 -307c-196.667 0 -301.667 102.333 -315 307z" />
    <glyph glyph-name="Cacute" unicode="&#x106;" horiz-adv-x="1053" 
d="M999 1008c-154 0 -263.333 -12.332 -328 -36.999c-111.333 -42 -167 -126.667 -167 -254c0 -128 55.333 -213 166 -255c66 -25.333 175.667 -38 329 -38v-424h-38c-128 0 -239.667 10 -335 30s-175 50.333 -239 91c-106 66.667 -188.5 151.834 -247.5 255.501
s-88.5 217.167 -88.5 340.5s29.5 236.666 88.5 339.999s141.5 188 247.5 254c63.333 39.333 143.333 69.666 240 90.999c94.667 20 218.667 30 372 30v-424zM985 1936l-325 -369h-154l192 369h287z" />
    <glyph glyph-name="cacute" unicode="&#x107;" horiz-adv-x="823" 
d="M782 655l-147 -0.000976562c-109.333 0 -164 -44.333 -164 -133c0 -43.333 17 -76.666 51 -99.999c30 -20.667 67.667 -31 113 -31h147v-391h-129c-170.667 -0 -311.667 43.333 -423 130c-122 95.333 -183 226 -183 392c0 165.333 61.333 295.333 184 390
c111.333 86.667 252 130 422 130h129v-387zM821 1526l-325 -369h-154l192 369h287z" />
    <glyph glyph-name="Ccaron" unicode="&#x10c;" horiz-adv-x="1053" 
d="M999 1008c-154 0 -263.333 -12.332 -328 -36.999c-111.333 -42 -167 -126.667 -167 -254c0 -128 55.333 -213 166 -255c66 -25.333 175.667 -38 329 -38v-424h-38c-128 0 -239.667 10 -335 30s-175 50.333 -239 91c-106 66.667 -188.5 151.834 -247.5 255.501
s-88.5 217.167 -88.5 340.5s29.5 236.666 88.5 339.999s141.5 188 247.5 254c63.333 39.333 143.333 69.666 240 90.999c94.667 20 218.667 30 372 30v-424zM358 1936h154l168 -199l166 199h153l-192 -369h-256z" />
    <glyph glyph-name="ccaron" unicode="&#x10d;" horiz-adv-x="823" 
d="M782 655l-147 -0.000976562c-109.333 0 -164 -44.333 -164 -133c0 -43.333 17 -76.666 51 -99.999c30 -20.667 67.667 -31 113 -31h147v-391h-129c-170.667 -0 -311.667 43.333 -423 130c-122 95.333 -183 226 -183 392c0 165.333 61.333 295.333 184 390
c111.333 86.667 252 130 422 130h129v-387zM194 1526h154l168 -199l166 199h153l-192 -369h-256z" />
    <glyph glyph-name="Dslash" unicode="&#x110;" horiz-adv-x="1346" 
d="M109 0v584h-105v260h105v588h409c96.667 0 184 -11.333 262 -34c150.667 -44 274 -129.833 370 -257.5s144 -270.167 144 -427.5c0 -126 -30.5 -243.5 -91.5 -352.5s-145.167 -196.5 -252.5 -262.5c-94 -57.333 -208.667 -90 -344 -98v436
c153.333 36 230 129.667 230 281c0 86 -24.667 154.5 -74 205.5s-117 78.833 -203 83.5v-162h109v-260h-109v-584h-450z" />
    <glyph glyph-name="dcroat" unicode="&#x111;" horiz-adv-x="1190" 
d="M688 569l0.000976562 556.999h-186v213h186v93h412v-93h90v-213h-90v-481c0 -132 -12 -236 -36 -312c-32 -104 -92 -188 -180 -252c-89.333 -66 -193 -99 -311 -99c-148 0 -272.667 51.833 -374 155.5s-152 229.834 -152 378.501c0 160.667 49.167 290 147.5 388
s228.166 147 389.499 147c26.667 0 45 -1 55 -3v-436c-20.667 16.667 -42.667 25 -66 25c-32.667 0 -59.5 -11.833 -80.5 -35.5s-31.5 -52.167 -31.5 -85.5c0 -32 10.667 -59.833 32 -83.5s48 -35.5 80 -35.5c76.667 0 115 57.333 115 172z" />
    <glyph glyph-name="Gbreve" unicode="&#x11e;" horiz-adv-x="1583" 
d="M1536 895c1.33301 -16 2.00098 -40.667 2.00098 -74c0 -336 -112.667 -578.333 -338 -727c-120.667 -79.333 -256.334 -119 -407.001 -119c-204.667 0 -379.5 72.5 -524.5 217.5s-217.5 319.833 -217.5 524.5c0 210 74.667 386.667 224 530
c147.333 140.667 326.666 211 537.999 211c208 0 393.667 -77 557 -231l-305 -287c-86.667 64 -170 96 -250 96c-91.333 0 -167 -30 -227 -90s-90 -135.667 -90 -227c0 -85.333 27.333 -158 82 -218c56 -62 126.333 -93 211 -93c104.667 0 186.334 43.667 245.001 131h-315
v356h815zM478.001 1903h131c7.33301 -91.333 68.666 -137 183.999 -137c116.667 0 177.667 45.667 183 137h130c-15.333 -204.667 -119.666 -307 -312.999 -307c-196.667 0 -301.667 102.333 -315 307z" />
    <glyph glyph-name="gbreve" unicode="&#x11f;" horiz-adv-x="1176" 
d="M692 471c0 114.667 -38.002 172 -114.002 172c-32 0 -58.833 -12 -80.5 -36s-32.5 -52.333 -32.5 -85c0 -30.667 10 -57.667 30 -81c20.667 -25.333 46 -38 76 -38c20.667 0 45.334 4.33301 74.001 13v-391c-47.333 -14 -91 -21 -131 -21c-144.667 0 -259 51 -343 153
c-78.667 95.333 -118 217 -118 365s51 274.5 153 379.5s226.667 157.5 374 157.5c118 0 221.5 -32.667 310.5 -98s150.5 -154.333 184.5 -267c19.333 -64 29 -154.667 29 -272v-311c0 -197.333 -47.167 -341.333 -141.5 -432s-240.5 -136 -438.5 -136
c-127.333 0 -263 20 -407 60v358c130 -44.667 242.667 -67 338 -67c82.667 0 141.334 12.333 176.001 37c40.667 30 61 84.333 61 163v377zM272.998 1493h131c7.33301 -91.333 68.666 -137 183.999 -137c116.667 0 177.667 45.667 183 137h130
c-15.333 -204.667 -119.666 -307 -312.999 -307c-196.667 0 -301.667 102.333 -315 307z" />
    <glyph glyph-name="glyph273" unicode="&#x128;" horiz-adv-x="645" 
d="M96 0v1432h451v-1432h-451zM655 1893c-38.667 -170.667 -111.667 -256 -219 -256c-27.333 0 -66.833 8.5 -118.5 25.5s-90.834 25.5 -117.501 25.5c-42 0 -72 -26 -90 -78h-119c36.667 164 108.334 246 215.001 246c28 0 68.5 -8.16699 121.5 -24.5
s93.167 -24.5 120.5 -24.5c44 0 73.333 28.667 88 86h119z" />
    <glyph glyph-name="glyph274" unicode="&#x129;" horiz-adv-x="575" 
d="M82 0v1042h412v-1042h-412zM625 1483c-38.667 -170.667 -111.667 -256 -219 -256c-27.333 0 -66.833 8.5 -118.5 25.5s-90.834 25.5 -117.501 25.5c-42 0 -72 -26 -90 -78h-119c36.667 164 108.334 246 215.001 246c28 0 68.5 -8.16699 121.5 -24.5
s93.167 -24.5 120.5 -24.5c44 0 73.333 28.667 88 86h119z" />
    <glyph glyph-name="Idotaccent" unicode="&#x130;" horiz-adv-x="645" 
d="M96 0v1432h451v-1432h-451zM181 1768c0 38.667 14.167 72.166 42.5 100.499s61.833 42.5 100.5 42.5c39.333 0 73 -14 101 -42s42 -61.667 42 -101c0 -42 -13.333 -76.5 -40 -103.5s-61 -40.5 -103 -40.5c-40.667 0 -74.667 13.833 -102 41.5s-41 61.834 -41 102.501z
" />
    <glyph glyph-name="dotlessi" unicode="&#x131;" horiz-adv-x="575" 
d="M82 0v1042h412v-1042h-412z" />
    <glyph glyph-name="Lslash" unicode="&#x141;" horiz-adv-x="905" 
d="M86 487l-104 -69v315l104 72v627h451v-383l174 122v-317l-174 -123v-192c0 -93.333 47 -140 141 -140h213v-399h-277c-345.333 -0 -521.333 162.333 -528 487z" />
    <glyph glyph-name="lslash" unicode="&#x142;" horiz-adv-x="643" 
d="M115 0v506l-105 -78v258l105 76v670h413v-443l105 76v-256l-105 -76v-733h-413z" />
    <glyph glyph-name="OE" unicode="&#x152;" horiz-adv-x="2019" 
d="M1278 184c-140.667 -138 -306 -207 -496 -207c-200.667 0 -372.667 73 -516 219s-215 319.667 -215 521c0 203.333 72.167 377.333 216.5 522s317.833 217 520.5 217c180.667 0 344 -69 490 -207c136.667 122 358.667 183 666 183v-398
c-130 0 -214.333 -3.66699 -253 -11c-93.333 -18 -162 -61.333 -206 -130h459v-350h-461c42.667 -71.333 111 -116 205 -134c39.333 -8 124.666 -12 255.999 -12v-397h-29c-287.333 -0 -499.666 61.333 -636.999 184zM512 719c0 -80.667 26.834 -149.667 80.501 -207
s120.5 -86 200.5 -86c79.333 0 145.666 29.333 198.999 88c52.667 56.667 79 125 79 205s-26 148.333 -78 205c-54 57.333 -120.667 86 -200 86s-146 -28.5 -200 -85.5s-81 -125.5 -81 -205.5z" />
    <glyph glyph-name="oe" unicode="&#x153;" horiz-adv-x="1788" 
d="M1753 233c-167.333 -168.667 -342.666 -253 -525.999 -253c-132.667 0 -244.667 44.333 -336 133c-92.667 -88.667 -199.334 -133 -320.001 -133c-146.667 0 -270.667 53.667 -372 161s-152 234.333 -152 381c0 146 50.333 272 151 378
c102.667 108.667 226.334 163 371.001 163c119.333 0 226.666 -44.333 321.999 -133c95.333 88.667 206 133 332 133c255.333 0 434 -133 536 -399l-516 -281l-113 209l191 106c-27.333 30 -62 45 -104 45c-48 0 -86 -22.667 -114 -68c-24 -38 -36 -82.667 -36 -134
c0 -60.667 17.833 -110.667 53.5 -150s83.5 -59 143.5 -59c94 0 177 43.667 249 131zM463 524c0 -32.667 10.333 -61 31 -85s47 -36 79 -36s58.833 12 80.5 36s32.5 52.333 32.5 85s-10.667 60.667 -32 84s-48.333 35 -81 35s-59.167 -11.5 -79.5 -34.5
s-30.5 -51.167 -30.5 -84.5z" />
    <glyph glyph-name="Scedilla" unicode="&#x15e;" horiz-adv-x="1116" 
d="M61 0v419.999h388c50 0 75 17 75 51c0 24 -8 42.333 -24 55l-291 230c-94 74 -141 174.333 -141 301c0 130.667 53.667 228.667 161 294c88.667 54 202.667 81 342 81h428v-408h-350c-47.333 0 -71 -12.333 -71 -37c0 -18 14.333 -38.333 43 -61l196 -154
c82.667 -65.333 138.667 -117.666 168 -156.999c45.333 -61.333 68 -133.333 68 -216c0 -137.333 -55.667 -241 -167 -311c-92.667 -58.667 -212 -88 -358 -88h-467zM319 -440.001l0.000976562 139c109.333 -30 199.666 -45 270.999 -45c57.333 0 86 24 86 72
c0 42.667 -41.667 64 -125 64c-16 0 -37.667 -1 -65 -3l77 369h111l-54 -240c162.667 0 244 -64 244 -192c0 -139.333 -84.667 -209 -254 -209c-84.667 0 -181.667 15 -291 45z" />
    <glyph glyph-name="scedilla" unicode="&#x15f;" horiz-adv-x="895" 
d="M55 0v358h260c33.333 0 50 12.333 50 37c0 16.667 -27 40 -81 70c-70.667 40 -120.667 74.667 -150 104c-54 54.667 -81 119.667 -81 195c0 96 37 168.333 111 217c62.667 40.667 144.667 61 246 61h393v-331h-230c-28.667 0 -43 -13 -43 -39
c0 -6 1.83301 -11.333 5.5 -16s24.5 -18.667 62.5 -42c170.667 -104 256 -209.667 256 -317c0 -49.333 -11.333 -95 -34 -137c-36 -66.667 -91 -112 -165 -136c-50.667 -16 -123 -24 -217 -24h-383zM209 -440l0.000976562 139c109.333 -30 199.666 -45 270.999 -45
c57.333 0 86 24 86 72c0 42.667 -41.667 64 -125 64c-16 0 -37.667 -1 -65 -3l77 369h111l-54 -240c162.667 0 244 -64 244 -192c0 -139.333 -84.667 -209 -254 -209c-84.667 0 -181.667 15 -291 45z" />
    <glyph glyph-name="Scaron" unicode="&#x160;" horiz-adv-x="1116" 
d="M61 0v419.999h388c50 0 75 17 75 51c0 24 -8 42.333 -24 55l-291 230c-94 74 -141 174.333 -141 301c0 130.667 53.667 228.667 161 294c88.667 54 202.667 81 342 81h428v-408h-350c-47.333 0 -71 -12.333 -71 -37c0 -18 14.333 -38.333 43 -61l196 -154
c82.667 -65.333 138.667 -117.666 168 -156.999c45.333 -61.333 68 -133.333 68 -216c0 -137.333 -55.667 -241 -167 -311c-92.667 -58.667 -212 -88 -358 -88h-467zM237 1936h154l168 -199l166 199h153l-192 -369h-256z" />
    <glyph glyph-name="scaron" unicode="&#x161;" horiz-adv-x="895" 
d="M55 0v358h260c33.333 0 50 12.333 50 37c0 16.667 -27 40 -81 70c-70.667 40 -120.667 74.667 -150 104c-54 54.667 -81 119.667 -81 195c0 96 37 168.333 111 217c62.667 40.667 144.667 61 246 61h393v-331h-230c-28.667 0 -43 -13 -43 -39
c0 -6 1.83301 -11.333 5.5 -16s24.5 -18.667 62.5 -42c170.667 -104 256 -209.667 256 -317c0 -49.333 -11.333 -95 -34 -137c-36 -66.667 -91 -112 -165 -136c-50.667 -16 -123 -24 -217 -24h-383zM127 1526h154l168 -199l166 199h153l-192 -369h-256z" />
    <glyph glyph-name="glyph275" unicode="&#x168;" 
d="M1223 1432v-820.001c0 -184.667 -48 -334.667 -144 -450c-102.667 -123.333 -244.667 -185 -426 -185c-180.667 0 -322 62 -424 186c-95.333 114.667 -143 264.334 -143 449.001v820h449v-869c0 -99.333 39.333 -149 118 -149c79.333 0 119 49.667 119 149v869h451z
M987 1893c-38.667 -170.667 -111.667 -256 -219 -256c-27.333 0 -66.833 8.5 -118.5 25.5s-90.834 25.5 -117.501 25.5c-42 0 -72 -26 -90 -78h-119c36.667 164 108.334 246 215.001 246c28 0 68.5 -8.16699 121.5 -24.5s93.167 -24.5 120.5 -24.5c44 0 73.333 28.667 88 86
h119z" />
    <glyph glyph-name="glyph276" unicode="&#x169;" horiz-adv-x="1118" 
d="M483 1042l-0.000976562 -596c0 -54 25.333 -81 76 -81s76 27 76 81v596h412v-516c0 -80 -7 -146 -21 -198c-28.667 -104 -86.667 -187.667 -174 -251s-185 -95 -293 -95s-205.667 31.667 -293 95c-89.333 65.333 -147.666 149.333 -174.999 252
c-14 52 -21 117.667 -21 197v516h413zM904.999 1483c-38.667 -170.667 -111.667 -256 -219 -256c-27.333 0 -66.833 8.5 -118.5 25.5s-90.834 25.5 -117.501 25.5c-42 0 -72 -26 -90 -78h-119c36.667 164 108.334 246 215.001 246c28 0 68.5 -8.16699 121.5 -24.5
s93.167 -24.5 120.5 -24.5c44 0 73.333 28.667 88 86h119z" />
    <glyph glyph-name="Ydieresis" unicode="&#x178;" horiz-adv-x="1194" 
d="M522 1432v-459.001c0 -62.667 25.333 -94 76 -94c49.333 0 74 31.333 74 94v459h446v-449c0 -233.333 -98.333 -393.666 -295 -480.999v-502h-450v502c-198 90 -297 250.333 -297 481v449h446zM635 1751c0 38.667 14.166 72.333 42.499 101s61.833 43 100.5 43
c40 0 74 -14 102 -42s42 -62 42 -102c0 -41.333 -13.667 -75.5 -41 -102.5s-61.666 -40.5 -102.999 -40.5c-40 0 -73.833 13.833 -101.5 41.5s-41.5 61.5 -41.5 101.5zM271.999 1751c0 38.667 14.333 72.332 43 100.999s62.334 43 101.001 43c39.333 0 73 -14.167 101 -42.5
s42 -62.166 42 -101.499c0 -41.333 -13.5 -75.5 -40.5 -102.5s-61.167 -40.5 -102.5 -40.5c-40.667 0 -74.834 13.667 -102.501 41s-41.5 61.333 -41.5 102z" />
    <glyph glyph-name="Zcaron" unicode="&#x17d;" horiz-adv-x="1139" 
d="M106 1432h629c247.333 0 371 -94.333 371 -283c0 -84 -37 -169.333 -111 -256l-407 -475h520v-418h-754c-97.333 0 -175.333 20.667 -234 62c-68 48 -102 118.667 -102 212c0 82.667 38.333 168 115 256l436 500h-463v402zM247 1936h154l168 -199l166 199h153l-192 -369
h-256z" />
    <glyph glyph-name="zcaron" unicode="&#x17e;" horiz-adv-x="958" 
d="M618 1042c209.333 0 314 -72.333 314 -217c0 -71.333 -32 -140.333 -96 -207l-256 -266h338v-352h-631c-179.333 0 -269 69 -269 207c0 69.333 35.667 139 107 209l287 282h-330v344h536zM157 1526h154l168 -199l166 199h153l-192 -369h-256z" />
    <glyph glyph-name="florin" unicode="&#x192;" horiz-adv-x="1200" 
d="M346 -428l-330.001 -0.000976562v317h142c74.667 0 116.334 32.333 125.001 97l86 620h-232v301h254c28 154.667 43.667 238 47 250c22.667 88 56 153.333 100 196c55.333 52.667 133.333 79 234 79h320v-320h-144c-72 0 -113.667 -31 -125 -93l-20 -112h235v-301h-262
l-96 -715c-12 -91.333 -47.333 -166.666 -106 -225.999c-62 -62 -138 -93 -228 -93z" />
    <glyph glyph-name="glyph277" unicode="&#x1a0;" horiz-adv-x="1583" 
d="M512 719c0 -80.667 26.834 -149.667 80.501 -207s120.5 -86 200.5 -86c79.333 0 145.666 29.333 198.999 88c52.667 56.667 79 125 79 205s-26 148.333 -78 205c-54 57.333 -120.667 86 -200 86s-146 -28.5 -200 -85.5s-81 -125.5 -81 -205.5zM51.001 717
c0 204.667 72.5 379 217.5 523s319.833 216 524.5 216c204 0 378.167 -72.167 522.5 -216.5s216.5 -318.5 216.5 -522.5s-72.167 -378.667 -216.5 -524s-318.5 -218 -522.5 -218s-378.667 72.667 -524 218s-218 320 -218 524zM1035 1072l182 457l327 -1l-262 -456h-247z" />
    <glyph glyph-name="glyph278" unicode="&#x1a1;" horiz-adv-x="1147" 
d="M47 522c0 147.333 51 274.334 153 381.001s226.333 160 373 160s271.667 -53.667 375 -161c101.333 -106 152 -232.667 152 -380c0 -148.667 -50.333 -275.667 -151 -381c-102.667 -106 -228 -159 -376 -159c-146.667 0 -271 53.167 -373 159.5
s-153 233.166 -153 380.499zM469 524.001c0 -30.667 9.83105 -57.667 29.498 -81s44.5 -35 74.5 -35c30.667 0 55.834 11.5 75.501 34.5s29.5 50.167 29.5 81.5c0 32 -9.66699 59.167 -29 81.5s-44.666 33.5 -75.999 33.5c-30.667 0 -55.667 -11.333 -75 -34
s-29 -49.667 -29 -81zM783.998 711.001l182 457l327 -1l-262 -456h-247z" />
    <glyph glyph-name="glyph279" unicode="&#x1af;" horiz-adv-x="1419" 
d="M1223 1432v-820.001c0 -184.667 -48 -334.667 -144 -450c-102.667 -123.333 -244.667 -185 -426 -185c-180.667 0 -322 62 -424 186c-95.333 114.667 -143 264.334 -143 449.001v820h449v-869c0 -99.333 39.333 -149 118 -149c79.333 0 119 49.667 119 149v869h451z
M1005 1072l182 457l327 -1l-262 -456h-247z" />
    <glyph glyph-name="glyph280" unicode="&#x1b0;" horiz-adv-x="1214" 
d="M483 1042l-0.000976562 -596c0 -54 25.333 -81 76 -81s76 27 76 81v596h412v-516c0 -80 -7 -146 -21 -198c-28.667 -104 -86.667 -187.667 -174 -251s-185 -95 -293 -95s-205.667 31.667 -293 95c-89.333 65.333 -147.666 149.333 -174.999 252
c-14 52 -21 117.667 -21 197v516h413zM813.999 711l182 457l327 -1l-262 -456h-247z" />
    <glyph glyph-name="circumflex" unicode="&#x2c6;" horiz-adv-x="1024" 
d="M193 1157l190 369h258l190 -369h-151l-168 199l-168 -199h-151z" />
    <glyph glyph-name="caron" unicode="&#x2c7;" horiz-adv-x="1024" 
d="M190 1526h154l168 -199l166 199h153l-192 -369h-256z" />
    <glyph glyph-name="breve" unicode="&#x2d8;" horiz-adv-x="1024" 
d="M197 1493h131c7.33301 -91.333 68.666 -137 183.999 -137c116.667 0 177.667 45.667 183 137h130c-15.333 -204.667 -119.666 -307 -312.999 -307c-196.667 0 -301.667 102.333 -315 307z" />
    <glyph glyph-name="dotaccent" unicode="&#x2d9;" horiz-adv-x="1024" 
d="M369 1358c0 38.667 14.167 72.166 42.5 100.499s61.833 42.5 100.5 42.5c39.333 0 73 -14 101 -42s42 -61.667 42 -101c0 -42 -13.333 -76.5 -40 -103.5s-61 -40.5 -103 -40.5c-40.667 0 -74.667 13.833 -102 41.5s-41 61.834 -41 102.501z" />
    <glyph glyph-name="ring" unicode="&#x2da;" horiz-adv-x="1024" 
d="M397 1425c0 -32.667 11 -59.833 33 -81.5s49.333 -32.5 82 -32.5c32 0 59.167 11 81.5 33s33.5 49 33.5 81s-11.167 59.167 -33.5 81.5s-49.5 33.5 -81.5 33.5s-59.167 -11.167 -81.5 -33.5s-33.5 -49.5 -33.5 -81.5zM242 1425c0 76.667 25.833 141 77.5 193
s115.834 78 192.501 78s141.167 -26 193.5 -78s78.5 -116.333 78.5 -193c0 -76 -26.333 -140.333 -79 -193s-117 -79 -193 -79c-76.667 0 -140.834 26.167 -192.501 78.5s-77.5 116.833 -77.5 193.5z" />
    <glyph glyph-name="ogonek" unicode="&#x2db;" horiz-adv-x="1024" 
d="M633 0c-79.333 -73.333 -119 -139 -119 -197c0 -52.667 25.333 -79 76 -79h102v-191h-74c-88.667 0 -153.667 10.333 -195 31c-60.667 30 -91 85.333 -91 166c0 97.333 64 187.333 192 270h109z" />
    <glyph glyph-name="tilde" unicode="&#x2dc;" horiz-adv-x="1024" 
d="M844 1483c-38.667 -170.667 -111.667 -256 -219 -256c-27.333 0 -66.833 8.5 -118.5 25.5s-90.834 25.5 -117.501 25.5c-42 0 -72 -26 -90 -78h-119c36.667 164 108.334 246 215.001 246c28 0 68.5 -8.16699 121.5 -24.5s93.167 -24.5 120.5 -24.5
c44 0 73.333 28.667 88 86h119z" />
    <glyph glyph-name="hungarumlaut" unicode="&#x2dd;" horiz-adv-x="1024" 
d="M569 1157l156 369h254l-291 -369h-119zM397 1526h246l-252 -369h-110z" />
    <glyph glyph-name="Delta" unicode="&#x394;" horiz-adv-x="1505" 
d="M958 309l-206 705l-207 -705h413zM991 1473l518 -1473h-1515l518 1473h479z" />
    <glyph glyph-name="Delta" unicode="&#x2206;" horiz-adv-x="1505" 
d="M958 309l-206 705l-207 -705h413zM991 1473l518 -1473h-1515l518 1473h479z" />
    <glyph glyph-name="Omega" unicode="&#x3a9;" horiz-adv-x="1706" 
d="M1671 350l0.000976562 -350h-661v403c90 108.667 135 235 135 379c0 100.667 -23 183.667 -69 249c-52.667 74.667 -127.334 112 -224.001 112s-171 -37.333 -223 -112c-45.333 -65.333 -68 -148.333 -68 -249c0 -144 45 -270.333 135 -379v-403h-661v350h371
c-191.333 108.667 -287 278.667 -287 510c0 204.667 72.333 366.334 217 485.001c134.667 110.667 306.667 166 516 166c208.667 0 380.667 -55.333 516 -166c146 -118.667 219 -280.334 219 -485.001c0 -231.333 -95.667 -401.333 -287 -510h371z" />
    <glyph glyph-name="Omega" unicode="&#x2126;" horiz-adv-x="1706" 
d="M1671 350l0.000976562 -350h-661v403c90 108.667 135 235 135 379c0 100.667 -23 183.667 -69 249c-52.667 74.667 -127.334 112 -224.001 112s-171 -37.333 -223 -112c-45.333 -65.333 -68 -148.333 -68 -249c0 -144 45 -270.333 135 -379v-403h-661v350h371
c-191.333 108.667 -287 278.667 -287 510c0 204.667 72.333 366.334 217 485.001c134.667 110.667 306.667 166 516 166c208.667 0 380.667 -55.333 516 -166c146 -118.667 219 -280.334 219 -485.001c0 -231.333 -95.667 -401.333 -287 -510h371z" />
    <glyph glyph-name="pi" unicode="&#x3c0;" horiz-adv-x="1716" 
d="M1661 846h-180l-119 -846h-418l119 846h-227l-119 -846h-418l119 846h-29c-49.333 0 -79.333 -44.333 -90 -133h-258c24 143.333 67 241.5 129 294.5s165.667 79.5 311 79.5h1221z" />
    <glyph glyph-name="glyph281" unicode="&#x1ea0;" 
d="M86 0v819c0 184.667 47.333 334.667 142 450c102 123.333 243.667 185 425 185c182 0 324 -61.667 426 -185c96 -114.667 144 -264.667 144 -450v-819h-449v451h-186v374h186v43c0 100 -40.333 150 -121 150c-77.333 0 -116 -50 -116 -150v-868h-451zM422 -366
c0 67.333 22.167 123.5 66.5 168.5s99.833 67.5 166.5 67.5c67.333 0 123.5 -22.5 168.5 -67.5s67.5 -101.167 67.5 -168.5c0 -64.667 -23.167 -119.667 -69.5 -165s-101.833 -68 -166.5 -68c-65.333 0 -120.5 22.5 -165.5 67.5s-67.5 100.167 -67.5 165.5z" />
    <glyph glyph-name="glyph282" unicode="&#x1ea1;" horiz-adv-x="1171" 
d="M578 647c-32.667 0 -59.667 -11.833 -81 -35.5s-32 -52.167 -32 -85.5s10.5 -61.333 31.5 -84s48.167 -34 81.5 -34c26 0 48.333 7.33301 67 22v-432c-28 -2.66699 -51.333 -4 -70 -4c-154.667 0 -280.667 48.667 -378 146s-146 223.333 -146 378
c0 150 50.5 278.333 151.5 385s226.167 160 375.5 160c118 0 221.5 -32.667 310.5 -98s150.5 -154.333 184.5 -267c20.667 -68 31 -166 31 -294v-404h-412v473c0 116 -38 174 -114 174zM353 -366c0 67.333 22.167 123.5 66.5 168.5s99.833 67.5 166.5 67.5
c67.333 0 123.5 -22.5 168.5 -67.5s67.5 -101.167 67.5 -168.5c0 -64.667 -23.167 -119.667 -69.5 -165s-101.833 -68 -166.5 -68c-65.333 0 -120.5 22.5 -165.5 67.5s-67.5 100.167 -67.5 165.5z" />
    <glyph glyph-name="glyph283" unicode="&#x1ea2;" 
d="M86 0v819c0 184.667 47.333 334.667 142 450c102 123.333 243.667 185 425 185c182 0 324 -61.667 426 -185c96 -114.667 144 -264.667 144 -450v-819h-449v451h-186v374h186v43c0 100 -40.333 150 -121 150c-77.333 0 -116 -50 -116 -150v-868h-451zM464 1755
c0 51.333 20 97.333 60 138c42 43.333 91.667 65 149 65c60.667 0 112 -23 154 -69c38.667 -42.667 58 -91 58 -145c0 -48.667 -17.5 -92.167 -52.5 -130.5s-76.833 -62.5 -125.5 -72.5v-27h-94v157c39.333 0 70 8.66699 92 26c18.667 14 28 30.333 28 49
c0 42 -20.333 63 -61 63c-40 0 -64 -26 -72 -78z" />
    <glyph glyph-name="glyph284" unicode="&#x1ea3;" horiz-adv-x="1171" 
d="M578 647c-32.667 0 -59.667 -11.833 -81 -35.5s-32 -52.167 -32 -85.5s10.5 -61.333 31.5 -84s48.167 -34 81.5 -34c26 0 48.333 7.33301 67 22v-432c-28 -2.66699 -51.333 -4 -70 -4c-154.667 0 -280.667 48.667 -378 146s-146 223.333 -146 378
c0 150 50.5 278.333 151.5 385s226.167 160 375.5 160c118 0 221.5 -32.667 310.5 -98s150.5 -154.333 184.5 -267c20.667 -68 31 -166 31 -294v-404h-412v473c0 116 -38 174 -114 174zM393 1372c0 51.333 20 97.333 60 138c42 43.333 91.667 65 149 65
c60.667 0 112 -23 154 -69c38.667 -42.667 58 -91 58 -145c0 -48.667 -17.5 -92.167 -52.5 -130.5s-76.833 -62.5 -125.5 -72.5v-27h-94v157c39.333 0 70 8.66699 92 26c18.667 14 28 30.333 28 49c0 42 -20.333 63 -61 63c-40 0 -64 -26 -72 -78z" />
    <glyph glyph-name="glyph285" unicode="&#x1ea4;" 
d="M86 0v819c0 184.667 47.333 334.667 142 450c102 123.333 243.667 185 425 185c182 0 324 -61.667 426 -185c96 -114.667 144 -264.667 144 -450v-819h-449v451h-186v374h186v43c0 100 -40.333 150 -121 150c-77.333 0 -116 -50 -116 -150v-868h-451zM336 1517l190 369
h258l190 -369h-151l-168 199l-168 -199h-151zM887 2297l-325 -369h-154l192 369h287z" />
    <glyph glyph-name="glyph286" unicode="&#x1ea5;" horiz-adv-x="1171" 
d="M578 647c-32.667 0 -59.667 -11.833 -81 -35.5s-32 -52.167 -32 -85.5s10.5 -61.333 31.5 -84s48.167 -34 81.5 -34c26 0 48.333 7.33301 67 22v-432c-28 -2.66699 -51.333 -4 -70 -4c-154.667 0 -280.667 48.667 -378 146s-146 223.333 -146 378
c0 150 50.5 278.333 151.5 385s226.167 160 375.5 160c118 0 221.5 -32.667 310.5 -98s150.5 -154.333 184.5 -267c20.667 -68 31 -166 31 -294v-404h-412v473c0 116 -38 174 -114 174zM267 1157l190 369h258l190 -369h-151l-168 199l-168 -199h-151zM818 1936l-325 -369
h-154l192 369h287z" />
    <glyph glyph-name="glyph287" unicode="&#x1ea6;" 
d="M86 0v819c0 184.667 47.333 334.667 142 450c102 123.333 243.667 185 425 185c182 0 324 -61.667 426 -185c96 -114.667 144 -264.667 144 -450v-819h-449v451h-186v374h186v43c0 100 -40.333 150 -121 150c-77.333 0 -116 -50 -116 -150v-868h-451zM336 1517l190 369
h258l190 -369h-151l-168 199l-168 -199h-151zM423 2298h287l192 -369h-154z" />
    <glyph glyph-name="glyph288" unicode="&#x1ea7;" horiz-adv-x="1171" 
d="M578 647c-32.667 0 -59.667 -11.833 -81 -35.5s-32 -52.167 -32 -85.5s10.5 -61.333 31.5 -84s48.167 -34 81.5 -34c26 0 48.333 7.33301 67 22v-432c-28 -2.66699 -51.333 -4 -70 -4c-154.667 0 -280.667 48.667 -378 146s-146 223.333 -146 378
c0 150 50.5 278.333 151.5 385s226.167 160 375.5 160c118 0 221.5 -32.667 310.5 -98s150.5 -154.333 184.5 -267c20.667 -68 31 -166 31 -294v-404h-412v473c0 116 -38 174 -114 174zM267 1157l190 369h258l190 -369h-151l-168 199l-168 -199h-151zM353 1937h287l192 -369
h-154z" />
    <glyph glyph-name="glyph289" unicode="&#x1ea8;" 
d="M86 0v819c0 184.667 47.333 334.667 142 450c102 123.333 243.667 185 425 185c182 0 324 -61.667 426 -185c96 -114.667 144 -264.667 144 -450v-819h-449v451h-186v374h186v43c0 100 -40.333 150 -121 150c-77.333 0 -116 -50 -116 -150v-868h-451zM336 1517l190 369
h258l190 -369h-151l-168 199l-168 -199h-151zM734 2084c0 51.333 20 97.333 60 138c42 43.333 91.667 65 149 65c60.667 0 112 -23 154 -69c38.667 -42.667 58 -91 58 -145c0 -48.667 -17.5 -92.167 -52.5 -130.5s-76.833 -62.5 -125.5 -72.5v-27h-94v157
c39.333 0 70 8.66699 92 26c18.667 14 28 30.333 28 49c0 42 -20.333 63 -61 63c-40 0 -64 -26 -72 -78z" />
    <glyph glyph-name="glyph290" unicode="&#x1ea9;" horiz-adv-x="1171" 
d="M578 647c-32.667 0 -59.667 -11.833 -81 -35.5s-32 -52.167 -32 -85.5s10.5 -61.333 31.5 -84s48.167 -34 81.5 -34c26 0 48.333 7.33301 67 22v-432c-28 -2.66699 -51.333 -4 -70 -4c-154.667 0 -280.667 48.667 -378 146s-146 223.333 -146 378
c0 150 50.5 278.333 151.5 385s226.167 160 375.5 160c118 0 221.5 -32.667 310.5 -98s150.5 -154.333 184.5 -267c20.667 -68 31 -166 31 -294v-404h-412v473c0 116 -38 174 -114 174zM267 1157l190 369h258l190 -369h-151l-168 199l-168 -199h-151zM665 1724
c0 51.333 20 97.333 60 138c42 43.333 91.667 65 149 65c60.667 0 112 -23 154 -69c38.667 -42.667 58 -91 58 -145c0 -48.667 -17.5 -92.167 -52.5 -130.5s-76.833 -62.5 -125.5 -72.5v-27h-94v157c39.333 0 70 8.66699 92 26c18.667 14 28 30.333 28 49
c0 42 -20.333 63 -61 63c-40 0 -64 -26 -72 -78z" />
    <glyph glyph-name="glyph291" unicode="&#x1eaa;" 
d="M86 0v819c0 184.667 47.333 334.667 142 450c102 123.333 243.667 185 425 185c182 0 324 -61.667 426 -185c96 -114.667 144 -264.667 144 -450v-819h-449v451h-186v374h186v43c0 100 -40.333 150 -121 150c-77.333 0 -116 -50 -116 -150v-868h-451zM336 1517l190 369
h258l190 -369h-151l-168 199l-168 -199h-151zM1041 2237c-38.667 -170.667 -111.667 -256 -219 -256c-27.333 0 -66.833 8.5 -118.5 25.5s-90.834 25.5 -117.501 25.5c-42 0 -72 -26 -90 -78h-119c36.667 164 108.334 246 215.001 246c28 0 68.5 -8.16699 121.5 -24.5
s93.167 -24.5 120.5 -24.5c44 0 73.333 28.667 88 86h119z" />
    <glyph glyph-name="glyph292" unicode="&#x1eab;" horiz-adv-x="1171" 
d="M578 647c-32.667 0 -59.667 -11.833 -81 -35.5s-32 -52.167 -32 -85.5s10.5 -61.333 31.5 -84s48.167 -34 81.5 -34c26 0 48.333 7.33301 67 22v-432c-28 -2.66699 -51.333 -4 -70 -4c-154.667 0 -280.667 48.667 -378 146s-146 223.333 -146 378
c0 150 50.5 278.333 151.5 385s226.167 160 375.5 160c118 0 221.5 -32.667 310.5 -98s150.5 -154.333 184.5 -267c20.667 -68 31 -166 31 -294v-404h-412v473c0 116 -38 174 -114 174zM267 1157l190 369h258l190 -369h-151l-168 199l-168 -199h-151zM972 1877
c-38.667 -170.667 -111.667 -256 -219 -256c-27.333 0 -66.833 8.5 -118.5 25.5s-90.834 25.5 -117.501 25.5c-42 0 -72 -26 -90 -78h-119c36.667 164 108.334 246 215.001 246c28 0 68.5 -8.16699 121.5 -24.5s93.167 -24.5 120.5 -24.5c44 0 73.333 28.667 88 86h119z" />
    <glyph glyph-name="glyph293" unicode="&#x1eac;" 
d="M86 0v819c0 184.667 47.333 334.667 142 450c102 123.333 243.667 185 425 185c182 0 324 -61.667 426 -185c96 -114.667 144 -264.667 144 -450v-819h-449v451h-186v374h186v43c0 100 -40.333 150 -121 150c-77.333 0 -116 -50 -116 -150v-868h-451zM336 1517l190 369
h258l190 -369h-151l-168 199l-168 -199h-151zM422 -366c0 67.333 22.167 123.5 66.5 168.5s99.833 67.5 166.5 67.5c67.333 0 123.5 -22.5 168.5 -67.5s67.5 -101.167 67.5 -168.5c0 -64.667 -23.167 -119.667 -69.5 -165s-101.833 -68 -166.5 -68
c-65.333 0 -120.5 22.5 -165.5 67.5s-67.5 100.167 -67.5 165.5z" />
    <glyph glyph-name="glyph294" unicode="&#x1ead;" horiz-adv-x="1171" 
d="M578 647c-32.667 0 -59.667 -11.833 -81 -35.5s-32 -52.167 -32 -85.5s10.5 -61.333 31.5 -84s48.167 -34 81.5 -34c26 0 48.333 7.33301 67 22v-432c-28 -2.66699 -51.333 -4 -70 -4c-154.667 0 -280.667 48.667 -378 146s-146 223.333 -146 378
c0 150 50.5 278.333 151.5 385s226.167 160 375.5 160c118 0 221.5 -32.667 310.5 -98s150.5 -154.333 184.5 -267c20.667 -68 31 -166 31 -294v-404h-412v473c0 116 -38 174 -114 174zM267 1157l190 369h258l190 -369h-151l-168 199l-168 -199h-151zM353 -366
c0 67.333 22.167 123.5 66.5 168.5s99.833 67.5 166.5 67.5c67.333 0 123.5 -22.5 168.5 -67.5s67.5 -101.167 67.5 -168.5c0 -64.667 -23.167 -119.667 -69.5 -165s-101.833 -68 -166.5 -68c-65.333 0 -120.5 22.5 -165.5 67.5s-67.5 100.167 -67.5 165.5z" />
    <glyph glyph-name="glyph295" unicode="&#x1eae;" 
d="M86 0v819c0 184.667 47.333 334.667 142 450c102 123.333 243.667 185 425 185c182 0 324 -61.667 426 -185c96 -114.667 144 -264.667 144 -450v-819h-449v451h-186v374h186v43c0 100 -40.333 150 -121 150c-77.333 0 -116 -50 -116 -150v-868h-451zM341 1853h131
c7.33301 -91.333 68.666 -137 183.999 -137c116.667 0 177.667 45.667 183 137h130c-15.333 -204.667 -119.666 -307 -312.999 -307c-196.667 0 -301.667 102.333 -315 307zM976 2297l-325 -369h-154l192 369h287z" />
    <glyph glyph-name="glyph296" unicode="&#x1eaf;" horiz-adv-x="1171" 
d="M578 647c-32.667 0 -59.667 -11.833 -81 -35.5s-32 -52.167 -32 -85.5s10.5 -61.333 31.5 -84s48.167 -34 81.5 -34c26 0 48.333 7.33301 67 22v-432c-28 -2.66699 -51.333 -4 -70 -4c-154.667 0 -280.667 48.667 -378 146s-146 223.333 -146 378
c0 150 50.5 278.333 151.5 385s226.167 160 375.5 160c118 0 221.5 -32.667 310.5 -98s150.5 -154.333 184.5 -267c20.667 -68 31 -166 31 -294v-404h-412v473c0 116 -38 174 -114 174zM272 1493h131c7.33301 -91.333 68.666 -137 183.999 -137
c116.667 0 177.667 45.667 183 137h130c-15.333 -204.667 -119.666 -307 -312.999 -307c-196.667 0 -301.667 102.333 -315 307zM908 1936l-325 -369h-154l192 369h287z" />
    <glyph glyph-name="glyph297" unicode="&#x1eb0;" 
d="M86 0v819c0 184.667 47.333 334.667 142 450c102 123.333 243.667 185 425 185c182 0 324 -61.667 426 -185c96 -114.667 144 -264.667 144 -450v-819h-449v451h-186v374h186v43c0 100 -40.333 150 -121 150c-77.333 0 -116 -50 -116 -150v-868h-451zM341 1853h131
c7.33301 -91.333 68.666 -137 183.999 -137c116.667 0 177.667 45.667 183 137h130c-15.333 -204.667 -119.666 -307 -312.999 -307c-196.667 0 -301.667 102.333 -315 307zM332 2297h287l192 -369h-154z" />
    <glyph glyph-name="glyph298" unicode="&#x1eb1;" horiz-adv-x="1171" 
d="M578 647c-32.667 0 -59.667 -11.833 -81 -35.5s-32 -52.167 -32 -85.5s10.5 -61.333 31.5 -84s48.167 -34 81.5 -34c26 0 48.333 7.33301 67 22v-432c-28 -2.66699 -51.333 -4 -70 -4c-154.667 0 -280.667 48.667 -378 146s-146 223.333 -146 378
c0 150 50.5 278.333 151.5 385s226.167 160 375.5 160c118 0 221.5 -32.667 310.5 -98s150.5 -154.333 184.5 -267c20.667 -68 31 -166 31 -294v-404h-412v473c0 116 -38 174 -114 174zM272 1493h131c7.33301 -91.333 68.666 -137 183.999 -137
c116.667 0 177.667 45.667 183 137h130c-15.333 -204.667 -119.666 -307 -312.999 -307c-196.667 0 -301.667 102.333 -315 307zM263 1937h287l192 -369h-154z" />
    <glyph glyph-name="glyph299" unicode="&#x1eb2;" 
d="M86 0v819c0 184.667 47.333 334.667 142 450c102 123.333 243.667 185 425 185c182 0 324 -61.667 426 -185c96 -114.667 144 -264.667 144 -450v-819h-449v451h-186v374h186v43c0 100 -40.333 150 -121 150c-77.333 0 -116 -50 -116 -150v-868h-451zM341 1853h131
c7.33301 -91.333 68.666 -137 183.999 -137c116.667 0 177.667 45.667 183 137h130c-15.333 -204.667 -119.666 -307 -312.999 -307c-196.667 0 -301.667 102.333 -315 307zM449 2084c0 51.333 20 97.333 60 138c42 43.333 91.667 65 149 65c60.667 0 112 -23 154 -69
c38.667 -42.667 58 -91 58 -145c0 -48.667 -17.5 -92.167 -52.5 -130.5s-76.833 -62.5 -125.5 -72.5v-27h-94v157c39.333 0 70 8.66699 92 26c18.667 14 28 30.333 28 49c0 42 -20.333 63 -61 63c-40 0 -64 -26 -72 -78z" />
    <glyph glyph-name="glyph300" unicode="&#x1eb3;" horiz-adv-x="1171" 
d="M578 647c-32.667 0 -59.667 -11.833 -81 -35.5s-32 -52.167 -32 -85.5s10.5 -61.333 31.5 -84s48.167 -34 81.5 -34c26 0 48.333 7.33301 67 22v-432c-28 -2.66699 -51.333 -4 -70 -4c-154.667 0 -280.667 48.667 -378 146s-146 223.333 -146 378
c0 150 50.5 278.333 151.5 385s226.167 160 375.5 160c118 0 221.5 -32.667 310.5 -98s150.5 -154.333 184.5 -267c20.667 -68 31 -166 31 -294v-404h-412v473c0 116 -38 174 -114 174zM272 1493h131c7.33301 -91.333 68.666 -137 183.999 -137
c116.667 0 177.667 45.667 183 137h130c-15.333 -204.667 -119.666 -307 -312.999 -307c-196.667 0 -301.667 102.333 -315 307zM380 1724c0 51.333 20 97.333 60 138c42 43.333 91.667 65 149 65c60.667 0 112 -23 154 -69c38.667 -42.667 58 -91 58 -145
c0 -48.667 -17.5 -92.167 -52.5 -130.5s-76.833 -62.5 -125.5 -72.5v-27h-94v157c39.333 0 70 8.66699 92 26c18.667 14 28 30.333 28 49c0 42 -20.333 63 -61 63c-40 0 -64 -26 -72 -78z" />
    <glyph glyph-name="glyph301" unicode="&#x1eb4;" 
d="M86 0v819c0 184.667 47.333 334.667 142 450c102 123.333 243.667 185 425 185c182 0 324 -61.667 426 -185c96 -114.667 144 -264.667 144 -450v-819h-449v451h-186v374h186v43c0 100 -40.333 150 -121 150c-77.333 0 -116 -50 -116 -150v-868h-451zM341 1853h131
c7.33301 -91.333 68.666 -137 183.999 -137c116.667 0 177.667 45.667 183 137h130c-15.333 -204.667 -119.666 -307 -312.999 -307c-196.667 0 -301.667 102.333 -315 307zM1008 2237c-38.667 -170.667 -111.667 -256 -219 -256c-27.333 0 -66.833 8.5 -118.5 25.5
s-90.834 25.5 -117.501 25.5c-42 0 -72 -26 -90 -78h-119c36.667 164 108.334 246 215.001 246c28 0 68.5 -8.16699 121.5 -24.5s93.167 -24.5 120.5 -24.5c44 0 73.333 28.667 88 86h119z" />
    <glyph glyph-name="glyph302" unicode="&#x1eb5;" horiz-adv-x="1171" 
d="M578 647c-32.667 0 -59.667 -11.833 -81 -35.5s-32 -52.167 -32 -85.5s10.5 -61.333 31.5 -84s48.167 -34 81.5 -34c26 0 48.333 7.33301 67 22v-432c-28 -2.66699 -51.333 -4 -70 -4c-154.667 0 -280.667 48.667 -378 146s-146 223.333 -146 378
c0 150 50.5 278.333 151.5 385s226.167 160 375.5 160c118 0 221.5 -32.667 310.5 -98s150.5 -154.333 184.5 -267c20.667 -68 31 -166 31 -294v-404h-412v473c0 116 -38 174 -114 174zM272 1493h131c7.33301 -91.333 68.666 -137 183.999 -137
c116.667 0 177.667 45.667 183 137h130c-15.333 -204.667 -119.666 -307 -312.999 -307c-196.667 0 -301.667 102.333 -315 307zM940 1877c-38.667 -170.667 -111.667 -256 -219 -256c-27.333 0 -66.833 8.5 -118.5 25.5s-90.834 25.5 -117.501 25.5c-42 0 -72 -26 -90 -78
h-119c36.667 164 108.334 246 215.001 246c28 0 68.5 -8.16699 121.5 -24.5s93.167 -24.5 120.5 -24.5c44 0 73.333 28.667 88 86h119z" />
    <glyph glyph-name="glyph303" unicode="&#x1eb6;" 
d="M86 0v819c0 184.667 47.333 334.667 142 450c102 123.333 243.667 185 425 185c182 0 324 -61.667 426 -185c96 -114.667 144 -264.667 144 -450v-819h-449v451h-186v374h186v43c0 100 -40.333 150 -121 150c-77.333 0 -116 -50 -116 -150v-868h-451zM341 1853h131
c7.33301 -91.333 68.666 -137 183.999 -137c116.667 0 177.667 45.667 183 137h130c-15.333 -204.667 -119.666 -307 -312.999 -307c-196.667 0 -301.667 102.333 -315 307zM422 -366c0 67.333 22.167 123.5 66.5 168.5s99.833 67.5 166.5 67.5
c67.333 0 123.5 -22.5 168.5 -67.5s67.5 -101.167 67.5 -168.5c0 -64.667 -23.167 -119.667 -69.5 -165s-101.833 -68 -166.5 -68c-65.333 0 -120.5 22.5 -165.5 67.5s-67.5 100.167 -67.5 165.5z" />
    <glyph glyph-name="glyph304" unicode="&#x1eb7;" horiz-adv-x="1171" 
d="M578 647c-32.667 0 -59.667 -11.833 -81 -35.5s-32 -52.167 -32 -85.5s10.5 -61.333 31.5 -84s48.167 -34 81.5 -34c26 0 48.333 7.33301 67 22v-432c-28 -2.66699 -51.333 -4 -70 -4c-154.667 0 -280.667 48.667 -378 146s-146 223.333 -146 378
c0 150 50.5 278.333 151.5 385s226.167 160 375.5 160c118 0 221.5 -32.667 310.5 -98s150.5 -154.333 184.5 -267c20.667 -68 31 -166 31 -294v-404h-412v473c0 116 -38 174 -114 174zM272 1493h131c7.33301 -91.333 68.666 -137 183.999 -137
c116.667 0 177.667 45.667 183 137h130c-15.333 -204.667 -119.666 -307 -312.999 -307c-196.667 0 -301.667 102.333 -315 307zM353 -366c0 67.333 22.167 123.5 66.5 168.5s99.833 67.5 166.5 67.5c67.333 0 123.5 -22.5 168.5 -67.5s67.5 -101.167 67.5 -168.5
c0 -64.667 -23.167 -119.667 -69.5 -165s-101.833 -68 -166.5 -68c-65.333 0 -120.5 22.5 -165.5 67.5s-67.5 100.167 -67.5 165.5z" />
    <glyph glyph-name="glyph305" unicode="&#x1eb8;" horiz-adv-x="1075" 
d="M999 1034c-129.333 0 -213.667 -3.66602 -253 -10.999c-92.667 -18 -161 -61.333 -205 -130h458v-350h-460c42.667 -71.333 111 -116 205 -134c39.333 -8 124.333 -12 255 -12v-397h-38c-128.667 0 -240 10 -334 30c-96 20 -176 50.333 -240 91
c-106 66.667 -188.5 151.834 -247.5 255.501s-88.5 217.167 -88.5 340.5s29.5 236.666 88.5 339.999s141.5 188 247.5 254c63.333 39.333 143.333 69.666 240 90.999c94.667 20 218.667 30 372 30v-398zM455.999 -365.999c0 67.333 22.167 123.5 66.5 168.5
s99.833 67.5 166.5 67.5c67.333 0 123.5 -22.5 168.5 -67.5s67.5 -101.167 67.5 -168.5c0 -64.667 -23.167 -119.667 -69.5 -165s-101.833 -68 -166.5 -68c-65.333 0 -120.5 22.5 -165.5 67.5s-67.5 100.167 -67.5 165.5z" />
    <glyph glyph-name="glyph306" unicode="&#x1eb9;" horiz-adv-x="1149" 
d="M1116 233c-166 -167.333 -340.667 -251.001 -524 -251.001c-154.667 0 -284.167 51.333 -388.5 154s-156.5 231.334 -156.5 386.001c0 152 52.167 280.167 156.5 384.5s232.5 156.5 384.5 156.5c126.667 0 237.334 -37 332.001 -111
c88.667 -69.333 156 -165.333 202 -288l-516 -281l-112 209l190 106c-27.333 30 -62 45 -104 45c-48 0 -86 -22.667 -114 -68c-24 -38 -36 -82.667 -36 -134c0 -61.333 17.333 -111 52 -149c36 -40 84.333 -60 145 -60c93.333 0 176.666 43.667 249.999 131zM343 -366.001
c0 67.333 22.167 123.5 66.5 168.5s99.833 67.5 166.5 67.5c67.333 0 123.5 -22.5 168.5 -67.5s67.5 -101.167 67.5 -168.5c0 -64.667 -23.167 -119.667 -69.5 -165s-101.833 -68 -166.5 -68c-65.333 0 -120.5 22.5 -165.5 67.5s-67.5 100.167 -67.5 165.5z" />
    <glyph glyph-name="glyph307" unicode="&#x1eba;" horiz-adv-x="1075" 
d="M999 1034c-129.333 0 -213.667 -3.66602 -253 -10.999c-92.667 -18 -161 -61.333 -205 -130h458v-350h-460c42.667 -71.333 111 -116 205 -134c39.333 -8 124.333 -12 255 -12v-397h-38c-128.667 0 -240 10 -334 30c-96 20 -176 50.333 -240 91
c-106 66.667 -188.5 151.834 -247.5 255.501s-88.5 217.167 -88.5 340.5s29.5 236.666 88.5 339.999s141.5 188 247.5 254c63.333 39.333 143.333 69.666 240 90.999c94.667 20 218.667 30 372 30v-398zM585.999 1755c0 51.333 20 97.333 60 138c42 43.333 91.667 65 149 65
c60.667 0 112 -23 154 -69c38.667 -42.667 58 -91 58 -145c0 -48.667 -17.5 -92.167 -52.5 -130.5s-76.833 -62.5 -125.5 -72.5v-27h-94v157c39.333 0 70 8.66699 92 26c18.667 14 28 30.333 28 49c0 42 -20.333 63 -61 63c-40 0 -64 -26 -72 -78z" />
    <glyph glyph-name="glyph308" unicode="&#x1ebb;" horiz-adv-x="1149" 
d="M1116 233c-166 -167.333 -340.667 -251.001 -524 -251.001c-154.667 0 -284.167 51.333 -388.5 154s-156.5 231.334 -156.5 386.001c0 152 52.167 280.167 156.5 384.5s232.5 156.5 384.5 156.5c126.667 0 237.334 -37 332.001 -111
c88.667 -69.333 156 -165.333 202 -288l-516 -281l-112 209l190 106c-27.333 30 -62 45 -104 45c-48 0 -86 -22.667 -114 -68c-24 -38 -36 -82.667 -36 -134c0 -61.333 17.333 -111 52 -149c36 -40 84.333 -60 145 -60c93.333 0 176.666 43.667 249.999 131zM383 1372
c0 51.333 20 97.333 60 138c42 43.333 91.667 65 149 65c60.667 0 112 -23 154 -69c38.667 -42.667 58 -91 58 -145c0 -48.667 -17.5 -92.167 -52.5 -130.5s-76.833 -62.5 -125.5 -72.5v-27h-94v157c39.333 0 70 8.66699 92 26c18.667 14 28 30.333 28 49
c0 42 -20.333 63 -61 63c-40 0 -64 -26 -72 -78z" />
    <glyph glyph-name="glyph309" unicode="&#x1ebc;" horiz-adv-x="1075" 
d="M999 1034c-129.333 0 -213.667 -3.66602 -253 -10.999c-92.667 -18 -161 -61.333 -205 -130h458v-350h-460c42.667 -71.333 111 -116 205 -134c39.333 -8 124.333 -12 255 -12v-397h-38c-128.667 0 -240 10 -334 30c-96 20 -176 50.333 -240 91
c-106 66.667 -188.5 151.834 -247.5 255.501s-88.5 217.167 -88.5 340.5s29.5 236.666 88.5 339.999s141.5 188 247.5 254c63.333 39.333 143.333 69.666 240 90.999c94.667 20 218.667 30 372 30v-398zM1011 1893c-38.667 -170.667 -111.667 -256 -219 -256
c-27.333 0 -66.833 8.5 -118.5 25.5s-90.834 25.5 -117.501 25.5c-42 0 -72 -26 -90 -78h-119c36.667 164 108.334 246 215.001 246c28 0 68.5 -8.16699 121.5 -24.5s93.167 -24.5 120.5 -24.5c44 0 73.333 28.667 88 86h119z" />
    <glyph glyph-name="glyph310" unicode="&#x1ebd;" horiz-adv-x="1149" 
d="M1116 233c-166 -167.333 -340.667 -251.001 -524 -251.001c-154.667 0 -284.167 51.333 -388.5 154s-156.5 231.334 -156.5 386.001c0 152 52.167 280.167 156.5 384.5s232.5 156.5 384.5 156.5c126.667 0 237.334 -37 332.001 -111
c88.667 -69.333 156 -165.333 202 -288l-516 -281l-112 209l190 106c-27.333 30 -62 45 -104 45c-48 0 -86 -22.667 -114 -68c-24 -38 -36 -82.667 -36 -134c0 -61.333 17.333 -111 52 -149c36 -40 84.333 -60 145 -60c93.333 0 176.666 43.667 249.999 131zM905 1483
c-38.667 -170.667 -111.667 -256 -219 -256c-27.333 0 -66.833 8.5 -118.5 25.5s-90.834 25.5 -117.501 25.5c-42 0 -72 -26 -90 -78h-119c36.667 164 108.334 246 215.001 246c28 0 68.5 -8.16699 121.5 -24.5s93.167 -24.5 120.5 -24.5c44 0 73.333 28.667 88 86h119z" />
    <glyph glyph-name="glyph311" unicode="&#x1ebe;" horiz-adv-x="1075" 
d="M999 1034c-129.333 0 -213.667 -3.66602 -253 -10.999c-92.667 -18 -161 -61.333 -205 -130h458v-350h-460c42.667 -71.333 111 -116 205 -134c39.333 -8 124.333 -12 255 -12v-397h-38c-128.667 0 -240 10 -334 30c-96 20 -176 50.333 -240 91
c-106 66.667 -188.5 151.834 -247.5 255.501s-88.5 217.167 -88.5 340.5s29.5 236.666 88.5 339.999s141.5 188 247.5 254c63.333 39.333 143.333 69.666 240 90.999c94.667 20 218.667 30 372 30v-398zM365.999 1517l190 369h258l190 -369h-151l-168 199l-168 -199h-151z
M916.999 2297l-325 -369h-154l192 369h287z" />
    <glyph glyph-name="glyph312" unicode="&#x1ebf;" horiz-adv-x="1149" 
d="M1116 233c-166 -167.333 -340.667 -251.001 -524 -251.001c-154.667 0 -284.167 51.333 -388.5 154s-156.5 231.334 -156.5 386.001c0 152 52.167 280.167 156.5 384.5s232.5 156.5 384.5 156.5c126.667 0 237.334 -37 332.001 -111
c88.667 -69.333 156 -165.333 202 -288l-516 -281l-112 209l190 106c-27.333 30 -62 45 -104 45c-48 0 -86 -22.667 -114 -68c-24 -38 -36 -82.667 -36 -134c0 -61.333 17.333 -111 52 -149c36 -40 84.333 -60 145 -60c93.333 0 176.666 43.667 249.999 131zM256 1157
l190 369h258l190 -369h-151l-168 199l-168 -199h-151zM807 1936l-325 -369h-154l192 369h287z" />
    <glyph glyph-name="glyph313" unicode="&#x1ec0;" horiz-adv-x="1075" 
d="M999 1034c-129.333 0 -213.667 -3.66602 -253 -10.999c-92.667 -18 -161 -61.333 -205 -130h458v-350h-460c42.667 -71.333 111 -116 205 -134c39.333 -8 124.333 -12 255 -12v-397h-38c-128.667 0 -240 10 -334 30c-96 20 -176 50.333 -240 91
c-106 66.667 -188.5 151.834 -247.5 255.501s-88.5 217.167 -88.5 340.5s29.5 236.666 88.5 339.999s141.5 188 247.5 254c63.333 39.333 143.333 69.666 240 90.999c94.667 20 218.667 30 372 30v-398zM365.999 1517l190 369h258l190 -369h-151l-168 199l-168 -199h-151z
M452.999 2298h287l192 -369h-154z" />
    <glyph glyph-name="glyph314" unicode="&#x1ec1;" horiz-adv-x="1149" 
d="M1116 233c-166 -167.333 -340.667 -251.001 -524 -251.001c-154.667 0 -284.167 51.333 -388.5 154s-156.5 231.334 -156.5 386.001c0 152 52.167 280.167 156.5 384.5s232.5 156.5 384.5 156.5c126.667 0 237.334 -37 332.001 -111
c88.667 -69.333 156 -165.333 202 -288l-516 -281l-112 209l190 106c-27.333 30 -62 45 -104 45c-48 0 -86 -22.667 -114 -68c-24 -38 -36 -82.667 -36 -134c0 -61.333 17.333 -111 52 -149c36 -40 84.333 -60 145 -60c93.333 0 176.666 43.667 249.999 131zM256 1157
l190 369h258l190 -369h-151l-168 199l-168 -199h-151zM342 1937h287l192 -369h-154z" />
    <glyph glyph-name="glyph315" unicode="&#x1ec2;" horiz-adv-x="1075" 
d="M999 1034c-129.333 0 -213.667 -3.66602 -253 -10.999c-92.667 -18 -161 -61.333 -205 -130h458v-350h-460c42.667 -71.333 111 -116 205 -134c39.333 -8 124.333 -12 255 -12v-397h-38c-128.667 0 -240 10 -334 30c-96 20 -176 50.333 -240 91
c-106 66.667 -188.5 151.834 -247.5 255.501s-88.5 217.167 -88.5 340.5s29.5 236.666 88.5 339.999s141.5 188 247.5 254c63.333 39.333 143.333 69.666 240 90.999c94.667 20 218.667 30 372 30v-398zM365.999 1517l190 369h258l190 -369h-151l-168 199l-168 -199h-151z
M763.999 2084c0 51.333 20 97.333 60 138c42 43.333 91.667 65 149 65c60.667 0 112 -23 154 -69c38.667 -42.667 58 -91 58 -145c0 -48.667 -17.5 -92.167 -52.5 -130.5s-76.833 -62.5 -125.5 -72.5v-27h-94v157c39.333 0 70 8.66699 92 26c18.667 14 28 30.333 28 49
c0 42 -20.333 63 -61 63c-40 0 -64 -26 -72 -78z" />
    <glyph glyph-name="glyph316" unicode="&#x1ec3;" horiz-adv-x="1149" 
d="M1116 233c-166 -167.333 -340.667 -251.001 -524 -251.001c-154.667 0 -284.167 51.333 -388.5 154s-156.5 231.334 -156.5 386.001c0 152 52.167 280.167 156.5 384.5s232.5 156.5 384.5 156.5c126.667 0 237.334 -37 332.001 -111
c88.667 -69.333 156 -165.333 202 -288l-516 -281l-112 209l190 106c-27.333 30 -62 45 -104 45c-48 0 -86 -22.667 -114 -68c-24 -38 -36 -82.667 -36 -134c0 -61.333 17.333 -111 52 -149c36 -40 84.333 -60 145 -60c93.333 0 176.666 43.667 249.999 131zM256 1157
l190 369h258l190 -369h-151l-168 199l-168 -199h-151zM654 1724c0 51.333 20 97.333 60 138c42 43.333 91.667 65 149 65c60.667 0 112 -23 154 -69c38.667 -42.667 58 -91 58 -145c0 -48.667 -17.5 -92.167 -52.5 -130.5s-76.833 -62.5 -125.5 -72.5v-27h-94v157
c39.333 0 70 8.66699 92 26c18.667 14 28 30.333 28 49c0 42 -20.333 63 -61 63c-40 0 -64 -26 -72 -78z" />
    <glyph glyph-name="glyph317" unicode="&#x1ec4;" horiz-adv-x="1075" 
d="M999 1034c-129.333 0 -213.667 -3.66602 -253 -10.999c-92.667 -18 -161 -61.333 -205 -130h458v-350h-460c42.667 -71.333 111 -116 205 -134c39.333 -8 124.333 -12 255 -12v-397h-38c-128.667 0 -240 10 -334 30c-96 20 -176 50.333 -240 91
c-106 66.667 -188.5 151.834 -247.5 255.501s-88.5 217.167 -88.5 340.5s29.5 236.666 88.5 339.999s141.5 188 247.5 254c63.333 39.333 143.333 69.666 240 90.999c94.667 20 218.667 30 372 30v-398zM365.999 1517l190 369h258l190 -369h-151l-168 199l-168 -199h-151z
M1071 2237c-38.667 -170.667 -111.667 -256 -219 -256c-27.333 0 -66.833 8.5 -118.5 25.5s-90.834 25.5 -117.501 25.5c-42 0 -72 -26 -90 -78h-119c36.667 164 108.334 246 215.001 246c28 0 68.5 -8.16699 121.5 -24.5s93.167 -24.5 120.5 -24.5
c44 0 73.333 28.667 88 86h119z" />
    <glyph glyph-name="glyph318" unicode="&#x1ec5;" horiz-adv-x="1149" 
d="M1116 233c-166 -167.333 -340.667 -251.001 -524 -251.001c-154.667 0 -284.167 51.333 -388.5 154s-156.5 231.334 -156.5 386.001c0 152 52.167 280.167 156.5 384.5s232.5 156.5 384.5 156.5c126.667 0 237.334 -37 332.001 -111
c88.667 -69.333 156 -165.333 202 -288l-516 -281l-112 209l190 106c-27.333 30 -62 45 -104 45c-48 0 -86 -22.667 -114 -68c-24 -38 -36 -82.667 -36 -134c0 -61.333 17.333 -111 52 -149c36 -40 84.333 -60 145 -60c93.333 0 176.666 43.667 249.999 131zM256 1157
l190 369h258l190 -369h-151l-168 199l-168 -199h-151zM961 1877c-38.667 -170.667 -111.667 -256 -219 -256c-27.333 0 -66.833 8.5 -118.5 25.5s-90.834 25.5 -117.501 25.5c-42 0 -72 -26 -90 -78h-119c36.667 164 108.334 246 215.001 246
c28 0 68.5 -8.16699 121.5 -24.5s93.167 -24.5 120.5 -24.5c44 0 73.333 28.667 88 86h119z" />
    <glyph glyph-name="glyph319" unicode="&#x1ec6;" horiz-adv-x="1075" 
d="M999 1034c-129.333 0 -213.667 -3.66602 -253 -10.999c-92.667 -18 -161 -61.333 -205 -130h458v-350h-460c42.667 -71.333 111 -116 205 -134c39.333 -8 124.333 -12 255 -12v-397h-38c-128.667 0 -240 10 -334 30c-96 20 -176 50.333 -240 91
c-106 66.667 -188.5 151.834 -247.5 255.501s-88.5 217.167 -88.5 340.5s29.5 236.666 88.5 339.999s141.5 188 247.5 254c63.333 39.333 143.333 69.666 240 90.999c94.667 20 218.667 30 372 30v-398zM365.999 1517l190 369h258l190 -369h-151l-168 199l-168 -199h-151z
M455.999 -365.999c0 67.333 22.167 123.5 66.5 168.5s99.833 67.5 166.5 67.5c67.333 0 123.5 -22.5 168.5 -67.5s67.5 -101.167 67.5 -168.5c0 -64.667 -23.167 -119.667 -69.5 -165s-101.833 -68 -166.5 -68c-65.333 0 -120.5 22.5 -165.5 67.5s-67.5 100.167 -67.5 165.5
z" />
    <glyph glyph-name="glyph320" unicode="&#x1ec7;" horiz-adv-x="1149" 
d="M1116 233c-166 -167.333 -340.667 -251.001 -524 -251.001c-154.667 0 -284.167 51.333 -388.5 154s-156.5 231.334 -156.5 386.001c0 152 52.167 280.167 156.5 384.5s232.5 156.5 384.5 156.5c126.667 0 237.334 -37 332.001 -111
c88.667 -69.333 156 -165.333 202 -288l-516 -281l-112 209l190 106c-27.333 30 -62 45 -104 45c-48 0 -86 -22.667 -114 -68c-24 -38 -36 -82.667 -36 -134c0 -61.333 17.333 -111 52 -149c36 -40 84.333 -60 145 -60c93.333 0 176.666 43.667 249.999 131zM256 1157
l190 369h258l190 -369h-151l-168 199l-168 -199h-151zM343 -366.001c0 67.333 22.167 123.5 66.5 168.5s99.833 67.5 166.5 67.5c67.333 0 123.5 -22.5 168.5 -67.5s67.5 -101.167 67.5 -168.5c0 -64.667 -23.167 -119.667 -69.5 -165s-101.833 -68 -166.5 -68
c-65.333 0 -120.5 22.5 -165.5 67.5s-67.5 100.167 -67.5 165.5z" />
    <glyph glyph-name="glyph321" unicode="&#x1ec8;" horiz-adv-x="645" 
d="M96 0v1432h451v-1432h-451zM113 1755c0 51.333 20 97.333 60 138c42 43.333 91.667 65 149 65c60.667 0 112 -23 154 -69c38.667 -42.667 58 -91 58 -145c0 -48.667 -17.5 -92.167 -52.5 -130.5s-76.833 -62.5 -125.5 -72.5v-27h-94v157c39.333 0 70 8.66699 92 26
c18.667 14 28 30.333 28 49c0 42 -20.333 63 -61 63c-40 0 -64 -26 -72 -78z" />
    <glyph glyph-name="glyph322" unicode="&#x1ec9;" horiz-adv-x="575" 
d="M82 0v1042h412v-1042h-412zM78 1372c0 51.333 20 97.333 60 138c42 43.333 91.667 65 149 65c60.667 0 112 -23 154 -69c38.667 -42.667 58 -91 58 -145c0 -48.667 -17.5 -92.167 -52.5 -130.5s-76.833 -62.5 -125.5 -72.5v-27h-94v157c39.333 0 70 8.66699 92 26
c18.667 14 28 30.333 28 49c0 42 -20.333 63 -61 63c-40 0 -64 -26 -72 -78z" />
    <glyph glyph-name="glyph323" unicode="&#x1eca;" horiz-adv-x="645" 
d="M96 0v1432h451v-1432h-451zM87 -366c0 67.333 22.167 123.5 66.5 168.5s99.833 67.5 166.5 67.5c67.333 0 123.5 -22.5 168.5 -67.5s67.5 -101.167 67.5 -168.5c0 -64.667 -23.167 -119.667 -69.5 -165s-101.833 -68 -166.5 -68c-65.333 0 -120.5 22.5 -165.5 67.5
s-67.5 100.167 -67.5 165.5z" />
    <glyph glyph-name="glyph324" unicode="&#x1ecb;" horiz-adv-x="575" 
d="M45 1360c0 68 23.667 125.333 71 172s105 70 173 70s125.167 -23.333 171.5 -70s69.5 -104 69.5 -172s-23.167 -125.333 -69.5 -172s-103.5 -70 -171.5 -70s-125.667 23.333 -173 70s-71 104 -71 172zM82 0v1042h412v-1042h-412zM54 -366
c0 67.333 22.167 123.5 66.5 168.5s99.833 67.5 166.5 67.5c67.333 0 123.5 -22.5 168.5 -67.5s67.5 -101.167 67.5 -168.5c0 -64.667 -23.167 -119.667 -69.5 -165s-101.833 -68 -166.5 -68c-65.333 0 -120.5 22.5 -165.5 67.5s-67.5 100.167 -67.5 165.5z" />
    <glyph glyph-name="glyph325" unicode="&#x1ecc;" horiz-adv-x="1583" 
d="M512 719c0 -80.667 26.834 -149.667 80.501 -207s120.5 -86 200.5 -86c79.333 0 145.666 29.333 198.999 88c52.667 56.667 79 125 79 205s-26 148.333 -78 205c-54 57.333 -120.667 86 -200 86s-146 -28.5 -200 -85.5s-81 -125.5 -81 -205.5zM51.001 717
c0 204.667 72.5 379 217.5 523s319.833 216 524.5 216c204 0 378.167 -72.167 522.5 -216.5s216.5 -318.5 216.5 -522.5s-72.167 -378.667 -216.5 -524s-318.5 -218 -522.5 -218s-378.667 72.667 -524 218s-218 320 -218 524zM557.001 -366
c0 67.333 22.167 123.5 66.5 168.5s99.833 67.5 166.5 67.5c67.333 0 123.5 -22.5 168.5 -67.5s67.5 -101.167 67.5 -168.5c0 -64.667 -23.167 -119.667 -69.5 -165s-101.833 -68 -166.5 -68c-65.333 0 -120.5 22.5 -165.5 67.5s-67.5 100.167 -67.5 165.5z" />
    <glyph glyph-name="glyph326" unicode="&#x1ecd;" horiz-adv-x="1147" 
d="M47 522c0 147.333 51 274.334 153 381.001s226.333 160 373 160s271.667 -53.667 375 -161c101.333 -106 152 -232.667 152 -380c0 -148.667 -50.333 -275.667 -151 -381c-102.667 -106 -228 -159 -376 -159c-146.667 0 -271 53.167 -373 159.5
s-153 233.166 -153 380.499zM469 524.001c0 -30.667 9.83105 -57.667 29.498 -81s44.5 -35 74.5 -35c30.667 0 55.834 11.5 75.501 34.5s29.5 50.167 29.5 81.5c0 32 -9.66699 59.167 -29 81.5s-44.666 33.5 -75.999 33.5c-30.667 0 -55.667 -11.333 -75 -34
s-29 -49.667 -29 -81zM338.998 -365.999c0 67.333 22.167 123.5 66.5 168.5s99.833 67.5 166.5 67.5c67.333 0 123.5 -22.5 168.5 -67.5s67.5 -101.167 67.5 -168.5c0 -64.667 -23.167 -119.667 -69.5 -165s-101.833 -68 -166.5 -68c-65.333 0 -120.5 22.5 -165.5 67.5
s-67.5 100.167 -67.5 165.5z" />
    <glyph glyph-name="glyph327" unicode="&#x1ece;" horiz-adv-x="1583" 
d="M512 719c0 -80.667 26.834 -149.667 80.501 -207s120.5 -86 200.5 -86c79.333 0 145.666 29.333 198.999 88c52.667 56.667 79 125 79 205s-26 148.333 -78 205c-54 57.333 -120.667 86 -200 86s-146 -28.5 -200 -85.5s-81 -125.5 -81 -205.5zM51.001 717
c0 204.667 72.5 379 217.5 523s319.833 216 524.5 216c204 0 378.167 -72.167 522.5 -216.5s216.5 -318.5 216.5 -522.5s-72.167 -378.667 -216.5 -524s-318.5 -218 -522.5 -218s-378.667 72.667 -524 218s-218 320 -218 524zM598.001 1755c0 51.333 20 97.333 60 138
c42 43.333 91.667 65 149 65c60.667 0 112 -23 154 -69c38.667 -42.667 58 -91 58 -145c0 -48.667 -17.5 -92.167 -52.5 -130.5s-76.833 -62.5 -125.5 -72.5v-27h-94v157c39.333 0 70 8.66699 92 26c18.667 14 28 30.333 28 49c0 42 -20.333 63 -61 63
c-40 0 -64 -26 -72 -78z" />
    <glyph glyph-name="glyph328" unicode="&#x1ecf;" horiz-adv-x="1147" 
d="M47 522c0 147.333 51 274.334 153 381.001s226.333 160 373 160s271.667 -53.667 375 -161c101.333 -106 152 -232.667 152 -380c0 -148.667 -50.333 -275.667 -151 -381c-102.667 -106 -228 -159 -376 -159c-146.667 0 -271 53.167 -373 159.5
s-153 233.166 -153 380.499zM469 524.001c0 -30.667 9.83105 -57.667 29.498 -81s44.5 -35 74.5 -35c30.667 0 55.834 11.5 75.501 34.5s29.5 50.167 29.5 81.5c0 32 -9.66699 59.167 -29 81.5s-44.666 33.5 -75.999 33.5c-30.667 0 -55.667 -11.333 -75 -34
s-29 -49.667 -29 -81zM384.998 1372c0 51.333 20 97.333 60 138c42 43.333 91.667 65 149 65c60.667 0 112 -23 154 -69c38.667 -42.667 58 -91 58 -145c0 -48.667 -17.5 -92.167 -52.5 -130.5s-76.833 -62.5 -125.5 -72.5v-27h-94v157c39.333 0 70 8.66699 92 26
c18.667 14 28 30.333 28 49c0 42 -20.333 63 -61 63c-40 0 -64 -26 -72 -78z" />
    <glyph glyph-name="glyph329" unicode="&#x1ed0;" horiz-adv-x="1583" 
d="M512 719c0 -80.667 26.834 -149.667 80.501 -207s120.5 -86 200.5 -86c79.333 0 145.666 29.333 198.999 88c52.667 56.667 79 125 79 205s-26 148.333 -78 205c-54 57.333 -120.667 86 -200 86s-146 -28.5 -200 -85.5s-81 -125.5 -81 -205.5zM51.001 717
c0 204.667 72.5 379 217.5 523s319.833 216 524.5 216c204 0 378.167 -72.167 522.5 -216.5s216.5 -318.5 216.5 -522.5s-72.167 -378.667 -216.5 -524s-318.5 -218 -522.5 -218s-378.667 72.667 -524 218s-218 320 -218 524zM473.001 1517l190 369h258l190 -369h-151
l-168 199l-168 -199h-151zM1024 2297l-325 -369h-154l192 369h287z" />
    <glyph glyph-name="glyph330" unicode="&#x1ed1;" horiz-adv-x="1147" 
d="M47 522c0 147.333 51 274.334 153 381.001s226.333 160 373 160s271.667 -53.667 375 -161c101.333 -106 152 -232.667 152 -380c0 -148.667 -50.333 -275.667 -151 -381c-102.667 -106 -228 -159 -376 -159c-146.667 0 -271 53.167 -373 159.5
s-153 233.166 -153 380.499zM469 524.001c0 -30.667 9.83105 -57.667 29.498 -81s44.5 -35 74.5 -35c30.667 0 55.834 11.5 75.501 34.5s29.5 50.167 29.5 81.5c0 32 -9.66699 59.167 -29 81.5s-44.666 33.5 -75.999 33.5c-30.667 0 -55.667 -11.333 -75 -34
s-29 -49.667 -29 -81zM253.998 1157l190 369h258l190 -369h-151l-168 199l-168 -199h-151zM804.998 1936l-325 -369h-154l192 369h287z" />
    <glyph glyph-name="glyph331" unicode="&#x1ed2;" horiz-adv-x="1583" 
d="M512 719c0 -80.667 26.834 -149.667 80.501 -207s120.5 -86 200.5 -86c79.333 0 145.666 29.333 198.999 88c52.667 56.667 79 125 79 205s-26 148.333 -78 205c-54 57.333 -120.667 86 -200 86s-146 -28.5 -200 -85.5s-81 -125.5 -81 -205.5zM51.001 717
c0 204.667 72.5 379 217.5 523s319.833 216 524.5 216c204 0 378.167 -72.167 522.5 -216.5s216.5 -318.5 216.5 -522.5s-72.167 -378.667 -216.5 -524s-318.5 -218 -522.5 -218s-378.667 72.667 -524 218s-218 320 -218 524zM473.001 1517l190 369h258l190 -369h-151
l-168 199l-168 -199h-151zM560.001 2298h287l192 -369h-154z" />
    <glyph glyph-name="glyph332" unicode="&#x1ed3;" horiz-adv-x="1147" 
d="M47 522c0 147.333 51 274.334 153 381.001s226.333 160 373 160s271.667 -53.667 375 -161c101.333 -106 152 -232.667 152 -380c0 -148.667 -50.333 -275.667 -151 -381c-102.667 -106 -228 -159 -376 -159c-146.667 0 -271 53.167 -373 159.5
s-153 233.166 -153 380.499zM469 524.001c0 -30.667 9.83105 -57.667 29.498 -81s44.5 -35 74.5 -35c30.667 0 55.834 11.5 75.501 34.5s29.5 50.167 29.5 81.5c0 32 -9.66699 59.167 -29 81.5s-44.666 33.5 -75.999 33.5c-30.667 0 -55.667 -11.333 -75 -34
s-29 -49.667 -29 -81zM253.998 1157l190 369h258l190 -369h-151l-168 199l-168 -199h-151zM339.998 1937h287l192 -369h-154z" />
    <glyph glyph-name="glyph333" unicode="&#x1ed4;" horiz-adv-x="1583" 
d="M512 719c0 -80.667 26.834 -149.667 80.501 -207s120.5 -86 200.5 -86c79.333 0 145.666 29.333 198.999 88c52.667 56.667 79 125 79 205s-26 148.333 -78 205c-54 57.333 -120.667 86 -200 86s-146 -28.5 -200 -85.5s-81 -125.5 -81 -205.5zM51.001 717
c0 204.667 72.5 379 217.5 523s319.833 216 524.5 216c204 0 378.167 -72.167 522.5 -216.5s216.5 -318.5 216.5 -522.5s-72.167 -378.667 -216.5 -524s-318.5 -218 -522.5 -218s-378.667 72.667 -524 218s-218 320 -218 524zM473.001 1517l190 369h258l190 -369h-151
l-168 199l-168 -199h-151zM871.001 2084c0 51.333 20 97.333 60 138c42 43.333 91.667 65 149 65c60.667 0 112 -23 154 -69c38.667 -42.667 58 -91 58 -145c0 -48.667 -17.5 -92.167 -52.5 -130.5s-76.833 -62.5 -125.5 -72.5v-27h-94v157c39.333 0 70 8.66699 92 26
c18.667 14 28 30.333 28 49c0 42 -20.333 63 -61 63c-40 0 -64 -26 -72 -78z" />
    <glyph glyph-name="glyph334" unicode="&#x1ed5;" horiz-adv-x="1147" 
d="M47 522c0 147.333 51 274.334 153 381.001s226.333 160 373 160s271.667 -53.667 375 -161c101.333 -106 152 -232.667 152 -380c0 -148.667 -50.333 -275.667 -151 -381c-102.667 -106 -228 -159 -376 -159c-146.667 0 -271 53.167 -373 159.5
s-153 233.166 -153 380.499zM469 524.001c0 -30.667 9.83105 -57.667 29.498 -81s44.5 -35 74.5 -35c30.667 0 55.834 11.5 75.501 34.5s29.5 50.167 29.5 81.5c0 32 -9.66699 59.167 -29 81.5s-44.666 33.5 -75.999 33.5c-30.667 0 -55.667 -11.333 -75 -34
s-29 -49.667 -29 -81zM253.998 1157l190 369h258l190 -369h-151l-168 199l-168 -199h-151zM651.998 1724c0 51.333 20 97.333 60 138c42 43.333 91.667 65 149 65c60.667 0 112 -23 154 -69c38.667 -42.667 58 -91 58 -145c0 -48.667 -17.5 -92.167 -52.5 -130.5
s-76.833 -62.5 -125.5 -72.5v-27h-94v157c39.333 0 70 8.66699 92 26c18.667 14 28 30.333 28 49c0 42 -20.333 63 -61 63c-40 0 -64 -26 -72 -78z" />
    <glyph glyph-name="glyph335" unicode="&#x1ed6;" horiz-adv-x="1583" 
d="M512 719c0 -80.667 26.834 -149.667 80.501 -207s120.5 -86 200.5 -86c79.333 0 145.666 29.333 198.999 88c52.667 56.667 79 125 79 205s-26 148.333 -78 205c-54 57.333 -120.667 86 -200 86s-146 -28.5 -200 -85.5s-81 -125.5 -81 -205.5zM51.001 717
c0 204.667 72.5 379 217.5 523s319.833 216 524.5 216c204 0 378.167 -72.167 522.5 -216.5s216.5 -318.5 216.5 -522.5s-72.167 -378.667 -216.5 -524s-318.5 -218 -522.5 -218s-378.667 72.667 -524 218s-218 320 -218 524zM473.001 1517l190 369h258l190 -369h-151
l-168 199l-168 -199h-151zM1178 2237c-38.667 -170.667 -111.667 -256 -219 -256c-27.333 0 -66.833 8.5 -118.5 25.5s-90.834 25.5 -117.501 25.5c-42 0 -72 -26 -90 -78h-119c36.667 164 108.334 246 215.001 246c28 0 68.5 -8.16699 121.5 -24.5
s93.167 -24.5 120.5 -24.5c44 0 73.333 28.667 88 86h119z" />
    <glyph glyph-name="glyph336" unicode="&#x1ed7;" horiz-adv-x="1147" 
d="M47 522c0 147.333 51 274.334 153 381.001s226.333 160 373 160s271.667 -53.667 375 -161c101.333 -106 152 -232.667 152 -380c0 -148.667 -50.333 -275.667 -151 -381c-102.667 -106 -228 -159 -376 -159c-146.667 0 -271 53.167 -373 159.5
s-153 233.166 -153 380.499zM469 524.001c0 -30.667 9.83105 -57.667 29.498 -81s44.5 -35 74.5 -35c30.667 0 55.834 11.5 75.501 34.5s29.5 50.167 29.5 81.5c0 32 -9.66699 59.167 -29 81.5s-44.666 33.5 -75.999 33.5c-30.667 0 -55.667 -11.333 -75 -34
s-29 -49.667 -29 -81zM253.998 1157l190 369h258l190 -369h-151l-168 199l-168 -199h-151zM958.998 1877c-38.667 -170.667 -111.667 -256 -219 -256c-27.333 0 -66.833 8.5 -118.5 25.5s-90.834 25.5 -117.501 25.5c-42 0 -72 -26 -90 -78h-119
c36.667 164 108.334 246 215.001 246c28 0 68.5 -8.16699 121.5 -24.5s93.167 -24.5 120.5 -24.5c44 0 73.333 28.667 88 86h119z" />
    <glyph glyph-name="glyph337" unicode="&#x1ed8;" horiz-adv-x="1583" 
d="M512 719c0 -80.667 26.834 -149.667 80.501 -207s120.5 -86 200.5 -86c79.333 0 145.666 29.333 198.999 88c52.667 56.667 79 125 79 205s-26 148.333 -78 205c-54 57.333 -120.667 86 -200 86s-146 -28.5 -200 -85.5s-81 -125.5 -81 -205.5zM51.001 717
c0 204.667 72.5 379 217.5 523s319.833 216 524.5 216c204 0 378.167 -72.167 522.5 -216.5s216.5 -318.5 216.5 -522.5s-72.167 -378.667 -216.5 -524s-318.5 -218 -522.5 -218s-378.667 72.667 -524 218s-218 320 -218 524zM473.001 1517l190 369h258l190 -369h-151
l-168 199l-168 -199h-151zM557.001 -366c0 67.333 22.167 123.5 66.5 168.5s99.833 67.5 166.5 67.5c67.333 0 123.5 -22.5 168.5 -67.5s67.5 -101.167 67.5 -168.5c0 -64.667 -23.167 -119.667 -69.5 -165s-101.833 -68 -166.5 -68c-65.333 0 -120.5 22.5 -165.5 67.5
s-67.5 100.167 -67.5 165.5z" />
    <glyph glyph-name="glyph338" unicode="&#x1ed9;" horiz-adv-x="1147" 
d="M47 522c0 147.333 51 274.334 153 381.001s226.333 160 373 160s271.667 -53.667 375 -161c101.333 -106 152 -232.667 152 -380c0 -148.667 -50.333 -275.667 -151 -381c-102.667 -106 -228 -159 -376 -159c-146.667 0 -271 53.167 -373 159.5
s-153 233.166 -153 380.499zM469 524.001c0 -30.667 9.83105 -57.667 29.498 -81s44.5 -35 74.5 -35c30.667 0 55.834 11.5 75.501 34.5s29.5 50.167 29.5 81.5c0 32 -9.66699 59.167 -29 81.5s-44.666 33.5 -75.999 33.5c-30.667 0 -55.667 -11.333 -75 -34
s-29 -49.667 -29 -81zM253.998 1157l190 369h258l190 -369h-151l-168 199l-168 -199h-151zM338.998 -365.999c0 67.333 22.167 123.5 66.5 168.5s99.833 67.5 166.5 67.5c67.333 0 123.5 -22.5 168.5 -67.5s67.5 -101.167 67.5 -168.5
c0 -64.667 -23.167 -119.667 -69.5 -165s-101.833 -68 -166.5 -68c-65.333 0 -120.5 22.5 -165.5 67.5s-67.5 100.167 -67.5 165.5z" />
    <glyph glyph-name="glyph339" unicode="&#x1eda;" horiz-adv-x="1583" 
d="M512 719c0 -80.667 26.834 -149.667 80.501 -207s120.5 -86 200.5 -86c79.333 0 145.666 29.333 198.999 88c52.667 56.667 79 125 79 205s-26 148.333 -78 205c-54 57.333 -120.667 86 -200 86s-146 -28.5 -200 -85.5s-81 -125.5 -81 -205.5zM51.001 717
c0 204.667 72.5 379 217.5 523s319.833 216 524.5 216c204 0 378.167 -72.167 522.5 -216.5s216.5 -318.5 216.5 -522.5s-72.167 -378.667 -216.5 -524s-318.5 -218 -522.5 -218s-378.667 72.667 -524 218s-218 320 -218 524zM1035 1072l182 457l327 -1l-262 -456h-247z
M1098 1936l-325 -369h-154l192 369h287z" />
    <glyph glyph-name="glyph340" unicode="&#x1edb;" horiz-adv-x="1147" 
d="M47 522c0 147.333 51 274.334 153 381.001s226.333 160 373 160s271.667 -53.667 375 -161c101.333 -106 152 -232.667 152 -380c0 -148.667 -50.333 -275.667 -151 -381c-102.667 -106 -228 -159 -376 -159c-146.667 0 -271 53.167 -373 159.5
s-153 233.166 -153 380.499zM469 524.001c0 -30.667 9.83105 -57.667 29.498 -81s44.5 -35 74.5 -35c30.667 0 55.834 11.5 75.501 34.5s29.5 50.167 29.5 81.5c0 32 -9.66699 59.167 -29 81.5s-44.666 33.5 -75.999 33.5c-30.667 0 -55.667 -11.333 -75 -34
s-29 -49.667 -29 -81zM783.998 711.001l182 457l327 -1l-262 -456h-247zM877.998 1526l-325 -369h-154l192 369h287z" />
    <glyph glyph-name="glyph341" unicode="&#x1edc;" horiz-adv-x="1583" 
d="M512 719c0 -80.667 26.834 -149.667 80.501 -207s120.5 -86 200.5 -86c79.333 0 145.666 29.333 198.999 88c52.667 56.667 79 125 79 205s-26 148.333 -78 205c-54 57.333 -120.667 86 -200 86s-146 -28.5 -200 -85.5s-81 -125.5 -81 -205.5zM51.001 717
c0 204.667 72.5 379 217.5 523s319.833 216 524.5 216c204 0 378.167 -72.167 522.5 -216.5s216.5 -318.5 216.5 -522.5s-72.167 -378.667 -216.5 -524s-318.5 -218 -522.5 -218s-378.667 72.667 -524 218s-218 320 -218 524zM1035 1072l182 457l327 -1l-262 -456h-247z
M488.001 1936h287l192 -369h-154z" />
    <glyph glyph-name="glyph342" unicode="&#x1edd;" horiz-adv-x="1147" 
d="M47 522c0 147.333 51 274.334 153 381.001s226.333 160 373 160s271.667 -53.667 375 -161c101.333 -106 152 -232.667 152 -380c0 -148.667 -50.333 -275.667 -151 -381c-102.667 -106 -228 -159 -376 -159c-146.667 0 -271 53.167 -373 159.5
s-153 233.166 -153 380.499zM469 524.001c0 -30.667 9.83105 -57.667 29.498 -81s44.5 -35 74.5 -35c30.667 0 55.834 11.5 75.501 34.5s29.5 50.167 29.5 81.5c0 32 -9.66699 59.167 -29 81.5s-44.666 33.5 -75.999 33.5c-30.667 0 -55.667 -11.333 -75 -34
s-29 -49.667 -29 -81zM783.998 711.001l182 457l327 -1l-262 -456h-247zM267.998 1526h287l192 -369h-154z" />
    <glyph glyph-name="glyph343" unicode="&#x1ede;" horiz-adv-x="1583" 
d="M512 719c0 -80.667 26.834 -149.667 80.501 -207s120.5 -86 200.5 -86c79.333 0 145.666 29.333 198.999 88c52.667 56.667 79 125 79 205s-26 148.333 -78 205c-54 57.333 -120.667 86 -200 86s-146 -28.5 -200 -85.5s-81 -125.5 -81 -205.5zM51.001 717
c0 204.667 72.5 379 217.5 523s319.833 216 524.5 216c204 0 378.167 -72.167 522.5 -216.5s216.5 -318.5 216.5 -522.5s-72.167 -378.667 -216.5 -524s-318.5 -218 -522.5 -218s-378.667 72.667 -524 218s-218 320 -218 524zM1035 1072l182 457l327 -1l-262 -456h-247z
M598.001 1755c0 51.333 20 97.333 60 138c42 43.333 91.667 65 149 65c60.667 0 112 -23 154 -69c38.667 -42.667 58 -91 58 -145c0 -48.667 -17.5 -92.167 -52.5 -130.5s-76.833 -62.5 -125.5 -72.5v-27h-94v157c39.333 0 70 8.66699 92 26c18.667 14 28 30.333 28 49
c0 42 -20.333 63 -61 63c-40 0 -64 -26 -72 -78z" />
    <glyph glyph-name="glyph344" unicode="&#x1edf;" horiz-adv-x="1147" 
d="M47 522c0 147.333 51 274.334 153 381.001s226.333 160 373 160s271.667 -53.667 375 -161c101.333 -106 152 -232.667 152 -380c0 -148.667 -50.333 -275.667 -151 -381c-102.667 -106 -228 -159 -376 -159c-146.667 0 -271 53.167 -373 159.5
s-153 233.166 -153 380.499zM469 524.001c0 -30.667 9.83105 -57.667 29.498 -81s44.5 -35 74.5 -35c30.667 0 55.834 11.5 75.501 34.5s29.5 50.167 29.5 81.5c0 32 -9.66699 59.167 -29 81.5s-44.666 33.5 -75.999 33.5c-30.667 0 -55.667 -11.333 -75 -34
s-29 -49.667 -29 -81zM783.998 711.001l182 457l327 -1l-262 -456h-247zM384.998 1372c0 51.333 20 97.333 60 138c42 43.333 91.667 65 149 65c60.667 0 112 -23 154 -69c38.667 -42.667 58 -91 58 -145c0 -48.667 -17.5 -92.167 -52.5 -130.5s-76.833 -62.5 -125.5 -72.5
v-27h-94v157c39.333 0 70 8.66699 92 26c18.667 14 28 30.333 28 49c0 42 -20.333 63 -61 63c-40 0 -64 -26 -72 -78z" />
    <glyph glyph-name="glyph345" unicode="&#x1ee0;" horiz-adv-x="1583" 
d="M512 719c0 -80.667 26.834 -149.667 80.501 -207s120.5 -86 200.5 -86c79.333 0 145.666 29.333 198.999 88c52.667 56.667 79 125 79 205s-26 148.333 -78 205c-54 57.333 -120.667 86 -200 86s-146 -28.5 -200 -85.5s-81 -125.5 -81 -205.5zM51.001 717
c0 204.667 72.5 379 217.5 523s319.833 216 524.5 216c204 0 378.167 -72.167 522.5 -216.5s216.5 -318.5 216.5 -522.5s-72.167 -378.667 -216.5 -524s-318.5 -218 -522.5 -218s-378.667 72.667 -524 218s-218 320 -218 524zM1035 1072l182 457l327 -1l-262 -456h-247z
M1125 1893c-38.667 -170.667 -111.667 -256 -219 -256c-27.333 0 -66.833 8.5 -118.5 25.5s-90.834 25.5 -117.501 25.5c-42 0 -72 -26 -90 -78h-119c36.667 164 108.334 246 215.001 246c28 0 68.5 -8.16699 121.5 -24.5s93.167 -24.5 120.5 -24.5
c44 0 73.333 28.667 88 86h119z" />
    <glyph glyph-name="glyph346" unicode="&#x1ee1;" horiz-adv-x="1147" 
d="M47 522c0 147.333 51 274.334 153 381.001s226.333 160 373 160s271.667 -53.667 375 -161c101.333 -106 152 -232.667 152 -380c0 -148.667 -50.333 -275.667 -151 -381c-102.667 -106 -228 -159 -376 -159c-146.667 0 -271 53.167 -373 159.5
s-153 233.166 -153 380.499zM469 524.001c0 -30.667 9.83105 -57.667 29.498 -81s44.5 -35 74.5 -35c30.667 0 55.834 11.5 75.501 34.5s29.5 50.167 29.5 81.5c0 32 -9.66699 59.167 -29 81.5s-44.666 33.5 -75.999 33.5c-30.667 0 -55.667 -11.333 -75 -34
s-29 -49.667 -29 -81zM783.998 711.001l182 457l327 -1l-262 -456h-247zM904.998 1483c-38.667 -170.667 -111.667 -256 -219 -256c-27.333 0 -66.833 8.5 -118.5 25.5s-90.834 25.5 -117.501 25.5c-42 0 -72 -26 -90 -78h-119c36.667 164 108.334 246 215.001 246
c28 0 68.5 -8.16699 121.5 -24.5s93.167 -24.5 120.5 -24.5c44 0 73.333 28.667 88 86h119z" />
    <glyph glyph-name="glyph347" unicode="&#x1ee2;" horiz-adv-x="1583" 
d="M512 719c0 -80.667 26.834 -149.667 80.501 -207s120.5 -86 200.5 -86c79.333 0 145.666 29.333 198.999 88c52.667 56.667 79 125 79 205s-26 148.333 -78 205c-54 57.333 -120.667 86 -200 86s-146 -28.5 -200 -85.5s-81 -125.5 -81 -205.5zM51.001 717
c0 204.667 72.5 379 217.5 523s319.833 216 524.5 216c204 0 378.167 -72.167 522.5 -216.5s216.5 -318.5 216.5 -522.5s-72.167 -378.667 -216.5 -524s-318.5 -218 -522.5 -218s-378.667 72.667 -524 218s-218 320 -218 524zM1035 1072l182 457l327 -1l-262 -456h-247z
M557.001 -366c0 67.333 22.167 123.5 66.5 168.5s99.833 67.5 166.5 67.5c67.333 0 123.5 -22.5 168.5 -67.5s67.5 -101.167 67.5 -168.5c0 -64.667 -23.167 -119.667 -69.5 -165s-101.833 -68 -166.5 -68c-65.333 0 -120.5 22.5 -165.5 67.5s-67.5 100.167 -67.5 165.5z
" />
    <glyph glyph-name="glyph348" unicode="&#x1ee3;" horiz-adv-x="1147" 
d="M47 522c0 147.333 51 274.334 153 381.001s226.333 160 373 160s271.667 -53.667 375 -161c101.333 -106 152 -232.667 152 -380c0 -148.667 -50.333 -275.667 -151 -381c-102.667 -106 -228 -159 -376 -159c-146.667 0 -271 53.167 -373 159.5
s-153 233.166 -153 380.499zM469 524.001c0 -30.667 9.83105 -57.667 29.498 -81s44.5 -35 74.5 -35c30.667 0 55.834 11.5 75.501 34.5s29.5 50.167 29.5 81.5c0 32 -9.66699 59.167 -29 81.5s-44.666 33.5 -75.999 33.5c-30.667 0 -55.667 -11.333 -75 -34
s-29 -49.667 -29 -81zM783.998 711.001l182 457l327 -1l-262 -456h-247zM338.998 -365.999c0 67.333 22.167 123.5 66.5 168.5s99.833 67.5 166.5 67.5c67.333 0 123.5 -22.5 168.5 -67.5s67.5 -101.167 67.5 -168.5c0 -64.667 -23.167 -119.667 -69.5 -165
s-101.833 -68 -166.5 -68c-65.333 0 -120.5 22.5 -165.5 67.5s-67.5 100.167 -67.5 165.5z" />
    <glyph glyph-name="glyph349" unicode="&#x1ee4;" 
d="M1223 1432v-820.001c0 -184.667 -48 -334.667 -144 -450c-102.667 -123.333 -244.667 -185 -426 -185c-180.667 0 -322 62 -424 186c-95.333 114.667 -143 264.334 -143 449.001v820h449v-869c0 -99.333 39.333 -149 118 -149c79.333 0 119 49.667 119 149v869h451z
M420 -366.001c0 67.333 22.167 123.5 66.5 168.5s99.833 67.5 166.5 67.5c67.333 0 123.5 -22.5 168.5 -67.5s67.5 -101.167 67.5 -168.5c0 -64.667 -23.167 -119.667 -69.5 -165s-101.833 -68 -166.5 -68c-65.333 0 -120.5 22.5 -165.5 67.5s-67.5 100.167 -67.5 165.5z
" />
    <glyph glyph-name="glyph350" unicode="&#x1ee5;" horiz-adv-x="1118" 
d="M483 1042l-0.000976562 -596c0 -54 25.333 -81 76 -81s76 27 76 81v596h412v-516c0 -80 -7 -146 -21 -198c-28.667 -104 -86.667 -187.667 -174 -251s-185 -95 -293 -95s-205.667 31.667 -293 95c-89.333 65.333 -147.666 149.333 -174.999 252
c-14 52 -21 117.667 -21 197v516h413zM324.999 -366c0 67.333 22.167 123.5 66.5 168.5s99.833 67.5 166.5 67.5c67.333 0 123.5 -22.5 168.5 -67.5s67.5 -101.167 67.5 -168.5c0 -64.667 -23.167 -119.667 -69.5 -165s-101.833 -68 -166.5 -68
c-65.333 0 -120.5 22.5 -165.5 67.5s-67.5 100.167 -67.5 165.5z" />
    <glyph glyph-name="glyph351" unicode="&#x1ee6;" 
d="M1223 1432v-820.001c0 -184.667 -48 -334.667 -144 -450c-102.667 -123.333 -244.667 -185 -426 -185c-180.667 0 -322 62 -424 186c-95.333 114.667 -143 264.334 -143 449.001v820h449v-869c0 -99.333 39.333 -149 118 -149c79.333 0 119 49.667 119 149v869h451z
M465 1755c0 51.333 20 97.333 60 138c42 43.333 91.667 65 149 65c60.667 0 112 -23 154 -69c38.667 -42.667 58 -91 58 -145c0 -48.667 -17.5 -92.167 -52.5 -130.5s-76.833 -62.5 -125.5 -72.5v-27h-94v157c39.333 0 70 8.66699 92 26c18.667 14 28 30.333 28 49
c0 42 -20.333 63 -61 63c-40 0 -64 -26 -72 -78z" />
    <glyph glyph-name="glyph352" unicode="&#x1ee7;" horiz-adv-x="1118" 
d="M483 1042l-0.000976562 -596c0 -54 25.333 -81 76 -81s76 27 76 81v596h412v-516c0 -80 -7 -146 -21 -198c-28.667 -104 -86.667 -187.667 -174 -251s-185 -95 -293 -95s-205.667 31.667 -293 95c-89.333 65.333 -147.666 149.333 -174.999 252
c-14 52 -21 117.667 -21 197v516h413zM363.999 1372c0 51.333 20 97.333 60 138c42 43.333 91.667 65 149 65c60.667 0 112 -23 154 -69c38.667 -42.667 58 -91 58 -145c0 -48.667 -17.5 -92.167 -52.5 -130.5s-76.833 -62.5 -125.5 -72.5v-27h-94v157
c39.333 0 70 8.66699 92 26c18.667 14 28 30.333 28 49c0 42 -20.333 63 -61 63c-40 0 -64 -26 -72 -78z" />
    <glyph glyph-name="glyph353" unicode="&#x1ee8;" horiz-adv-x="1419" 
d="M1223 1432v-820.001c0 -184.667 -48 -334.667 -144 -450c-102.667 -123.333 -244.667 -185 -426 -185c-180.667 0 -322 62 -424 186c-95.333 114.667 -143 264.334 -143 449.001v820h449v-869c0 -99.333 39.333 -149 118 -149c79.333 0 119 49.667 119 149v869h451z
M1005 1072l182 457l327 -1l-262 -456h-247zM960 1936l-325 -369h-154l192 369h287z" />
    <glyph glyph-name="glyph354" unicode="&#x1ee9;" horiz-adv-x="1214" 
d="M483 1042l-0.000976562 -596c0 -54 25.333 -81 76 -81s76 27 76 81v596h412v-516c0 -80 -7 -146 -21 -198c-28.667 -104 -86.667 -187.667 -174 -251s-185 -95 -293 -95s-205.667 31.667 -293 95c-89.333 65.333 -147.666 149.333 -174.999 252
c-14 52 -21 117.667 -21 197v516h413zM813.999 711l182 457l327 -1l-262 -456h-247zM863.999 1526l-325 -369h-154l192 369h287z" />
    <glyph glyph-name="glyph355" unicode="&#x1eea;" horiz-adv-x="1419" 
d="M1223 1432v-820.001c0 -184.667 -48 -334.667 -144 -450c-102.667 -123.333 -244.667 -185 -426 -185c-180.667 0 -322 62 -424 186c-95.333 114.667 -143 264.334 -143 449.001v820h449v-869c0 -99.333 39.333 -149 118 -149c79.333 0 119 49.667 119 149v869h451z
M1005 1072l182 457l327 -1l-262 -456h-247zM350 1936h287l192 -369h-154z" />
    <glyph glyph-name="glyph356" unicode="&#x1eeb;" horiz-adv-x="1214" 
d="M483 1042l-0.000976562 -596c0 -54 25.333 -81 76 -81s76 27 76 81v596h412v-516c0 -80 -7 -146 -21 -198c-28.667 -104 -86.667 -187.667 -174 -251s-185 -95 -293 -95s-205.667 31.667 -293 95c-89.333 65.333 -147.666 149.333 -174.999 252
c-14 52 -21 117.667 -21 197v516h413zM813.999 711l182 457l327 -1l-262 -456h-247zM253.999 1526h287l192 -369h-154z" />
    <glyph glyph-name="glyph357" unicode="&#x1eec;" horiz-adv-x="1419" 
d="M1223 1432v-820.001c0 -184.667 -48 -334.667 -144 -450c-102.667 -123.333 -244.667 -185 -426 -185c-180.667 0 -322 62 -424 186c-95.333 114.667 -143 264.334 -143 449.001v820h449v-869c0 -99.333 39.333 -149 118 -149c79.333 0 119 49.667 119 149v869h451z
M1005 1072l182 457l327 -1l-262 -456h-247zM465 1755c0 51.333 20 97.333 60 138c42 43.333 91.667 65 149 65c60.667 0 112 -23 154 -69c38.667 -42.667 58 -91 58 -145c0 -48.667 -17.5 -92.167 -52.5 -130.5s-76.833 -62.5 -125.5 -72.5v-27h-94v157
c39.333 0 70 8.66699 92 26c18.667 14 28 30.333 28 49c0 42 -20.333 63 -61 63c-40 0 -64 -26 -72 -78z" />
    <glyph glyph-name="glyph358" unicode="&#x1eed;" horiz-adv-x="1214" 
d="M483 1042l-0.000976562 -596c0 -54 25.333 -81 76 -81s76 27 76 81v596h412v-516c0 -80 -7 -146 -21 -198c-28.667 -104 -86.667 -187.667 -174 -251s-185 -95 -293 -95s-205.667 31.667 -293 95c-89.333 65.333 -147.666 149.333 -174.999 252
c-14 52 -21 117.667 -21 197v516h413zM813.999 711l182 457l327 -1l-262 -456h-247zM363.999 1372c0 51.333 20 97.333 60 138c42 43.333 91.667 65 149 65c60.667 0 112 -23 154 -69c38.667 -42.667 58 -91 58 -145c0 -48.667 -17.5 -92.167 -52.5 -130.5
s-76.833 -62.5 -125.5 -72.5v-27h-94v157c39.333 0 70 8.66699 92 26c18.667 14 28 30.333 28 49c0 42 -20.333 63 -61 63c-40 0 -64 -26 -72 -78z" />
    <glyph glyph-name="glyph359" unicode="&#x1eee;" horiz-adv-x="1419" 
d="M1223 1432v-820.001c0 -184.667 -48 -334.667 -144 -450c-102.667 -123.333 -244.667 -185 -426 -185c-180.667 0 -322 62 -424 186c-95.333 114.667 -143 264.334 -143 449.001v820h449v-869c0 -99.333 39.333 -149 118 -149c79.333 0 119 49.667 119 149v869h451z
M1005 1072l182 457l327 -1l-262 -456h-247zM987 1893c-38.667 -170.667 -111.667 -256 -219 -256c-27.333 0 -66.833 8.5 -118.5 25.5s-90.834 25.5 -117.501 25.5c-42 0 -72 -26 -90 -78h-119c36.667 164 108.334 246 215.001 246c28 0 68.5 -8.16699 121.5 -24.5
s93.167 -24.5 120.5 -24.5c44 0 73.333 28.667 88 86h119z" />
    <glyph glyph-name="glyph360" unicode="&#x1eef;" horiz-adv-x="1214" 
d="M483 1042l-0.000976562 -596c0 -54 25.333 -81 76 -81s76 27 76 81v596h412v-516c0 -80 -7 -146 -21 -198c-28.667 -104 -86.667 -187.667 -174 -251s-185 -95 -293 -95s-205.667 31.667 -293 95c-89.333 65.333 -147.666 149.333 -174.999 252
c-14 52 -21 117.667 -21 197v516h413zM813.999 711l182 457l327 -1l-262 -456h-247zM904.999 1483c-38.667 -170.667 -111.667 -256 -219 -256c-27.333 0 -66.833 8.5 -118.5 25.5s-90.834 25.5 -117.501 25.5c-42 0 -72 -26 -90 -78h-119
c36.667 164 108.334 246 215.001 246c28 0 68.5 -8.16699 121.5 -24.5s93.167 -24.5 120.5 -24.5c44 0 73.333 28.667 88 86h119z" />
    <glyph glyph-name="glyph361" unicode="&#x1ef0;" horiz-adv-x="1419" 
d="M1223 1432v-820.001c0 -184.667 -48 -334.667 -144 -450c-102.667 -123.333 -244.667 -185 -426 -185c-180.667 0 -322 62 -424 186c-95.333 114.667 -143 264.334 -143 449.001v820h449v-869c0 -99.333 39.333 -149 118 -149c79.333 0 119 49.667 119 149v869h451z
M1005 1072l182 457l327 -1l-262 -456h-247zM420 -366.001c0 67.333 22.167 123.5 66.5 168.5s99.833 67.5 166.5 67.5c67.333 0 123.5 -22.5 168.5 -67.5s67.5 -101.167 67.5 -168.5c0 -64.667 -23.167 -119.667 -69.5 -165s-101.833 -68 -166.5 -68
c-65.333 0 -120.5 22.5 -165.5 67.5s-67.5 100.167 -67.5 165.5z" />
    <glyph glyph-name="glyph362" unicode="&#x1ef1;" horiz-adv-x="1214" 
d="M483 1042l-0.000976562 -596c0 -54 25.333 -81 76 -81s76 27 76 81v596h412v-516c0 -80 -7 -146 -21 -198c-28.667 -104 -86.667 -187.667 -174 -251s-185 -95 -293 -95s-205.667 31.667 -293 95c-89.333 65.333 -147.666 149.333 -174.999 252
c-14 52 -21 117.667 -21 197v516h413zM813.999 711l182 457l327 -1l-262 -456h-247zM324.999 -366c0 67.333 22.167 123.5 66.5 168.5s99.833 67.5 166.5 67.5c67.333 0 123.5 -22.5 168.5 -67.5s67.5 -101.167 67.5 -168.5c0 -64.667 -23.167 -119.667 -69.5 -165
s-101.833 -68 -166.5 -68c-65.333 0 -120.5 22.5 -165.5 67.5s-67.5 100.167 -67.5 165.5z" />
    <glyph glyph-name="glyph363" unicode="&#x1ef2;" horiz-adv-x="1194" 
d="M522 1432v-459.001c0 -62.667 25.333 -94 76 -94c49.333 0 74 31.333 74 94v459h446v-449c0 -233.333 -98.333 -393.666 -295 -480.999v-502h-450v502c-198 90 -297 250.333 -297 481v449h446zM260 1936h287l192 -369h-154z" />
    <glyph glyph-name="glyph364" unicode="&#x1ef3;" horiz-adv-x="1118" 
d="M483 1042v-636c0 -54.667 25.333 -82 76 -82s76 27.333 76 82v636h412v-557c0 -244 -94.333 -410.333 -283 -499v-422h-412v422c-102 51.333 -175.667 119 -221 203c-40.667 77.333 -61 176 -61 296v557h413zM254 1526h287l192 -369h-154z" />
    <glyph glyph-name="glyph365" unicode="&#x1ef4;" horiz-adv-x="1194" 
d="M522 1432v-459.001c0 -62.667 25.333 -94 76 -94c49.333 0 74 31.333 74 94v459h446v-449c0 -233.333 -98.333 -393.666 -295 -480.999v-502h-450v502c-198 90 -297 250.333 -297 481v449h446zM364 -366.001c0 67.333 22.167 123.5 66.5 168.5s99.833 67.5 166.5 67.5
c67.333 0 123.5 -22.5 168.5 -67.5s67.5 -101.167 67.5 -168.5c0 -64.667 -23.167 -119.667 -69.5 -165s-101.833 -68 -166.5 -68c-65.333 0 -120.5 22.5 -165.5 67.5s-67.5 100.167 -67.5 165.5z" />
    <glyph glyph-name="glyph366" unicode="&#x1ef5;" horiz-adv-x="1118" 
d="M483 1042v-636c0 -54.667 25.333 -82 76 -82s76 27.333 76 82v636h412v-557c0 -244 -94.333 -410.333 -283 -499v-422h-412v422c-102 51.333 -175.667 119 -221 203c-40.667 77.333 -61 176 -61 296v557h413zM633 -366c0 67.333 22.167 123.5 66.5 168.5
s99.833 67.5 166.5 67.5c67.333 0 123.5 -22.5 168.5 -67.5s67.5 -101.167 67.5 -168.5c0 -64.667 -23.167 -119.667 -69.5 -165s-101.833 -68 -166.5 -68c-65.333 0 -120.5 22.5 -165.5 67.5s-67.5 100.167 -67.5 165.5z" />
    <glyph glyph-name="glyph367" unicode="&#x1ef6;" horiz-adv-x="1194" 
d="M522 1432v-459.001c0 -62.667 25.333 -94 76 -94c49.333 0 74 31.333 74 94v459h446v-449c0 -233.333 -98.333 -393.666 -295 -480.999v-502h-450v502c-198 90 -297 250.333 -297 481v449h446zM409 1755c0 51.333 20 97.333 60 138c42 43.333 91.667 65 149 65
c60.667 0 112 -23 154 -69c38.667 -42.667 58 -91 58 -145c0 -48.667 -17.5 -92.167 -52.5 -130.5s-76.833 -62.5 -125.5 -72.5v-27h-94v157c39.333 0 70 8.66699 92 26c18.667 14 28 30.333 28 49c0 42 -20.333 63 -61 63c-40 0 -64 -26 -72 -78z" />
    <glyph glyph-name="glyph368" unicode="&#x1ef7;" horiz-adv-x="1118" 
d="M483 1042v-636c0 -54.667 25.333 -82 76 -82s76 27.333 76 82v636h412v-557c0 -244 -94.333 -410.333 -283 -499v-422h-412v422c-102 51.333 -175.667 119 -221 203c-40.667 77.333 -61 176 -61 296v557h413zM364 1372c0 51.333 20 97.333 60 138
c42 43.333 91.667 65 149 65c60.667 0 112 -23 154 -69c38.667 -42.667 58 -91 58 -145c0 -48.667 -17.5 -92.167 -52.5 -130.5s-76.833 -62.5 -125.5 -72.5v-27h-94v157c39.333 0 70 8.66699 92 26c18.667 14 28 30.333 28 49c0 42 -20.333 63 -61 63
c-40 0 -64 -26 -72 -78z" />
    <glyph glyph-name="glyph369" unicode="&#x1ef8;" horiz-adv-x="1194" 
d="M522 1432v-459.001c0 -62.667 25.333 -94 76 -94c49.333 0 74 31.333 74 94v459h446v-449c0 -233.333 -98.333 -393.666 -295 -480.999v-502h-450v502c-198 90 -297 250.333 -297 481v449h446zM937 1893c-38.667 -170.667 -111.667 -256 -219 -256
c-27.333 0 -66.833 8.5 -118.5 25.5s-90.834 25.5 -117.501 25.5c-42 0 -72 -26 -90 -78h-119c36.667 164 108.334 246 215.001 246c28 0 68.5 -8.16699 121.5 -24.5s93.167 -24.5 120.5 -24.5c44 0 73.333 28.667 88 86h119z" />
    <glyph glyph-name="glyph370" unicode="&#x1ef9;" horiz-adv-x="1118" 
d="M483 1042v-636c0 -54.667 25.333 -82 76 -82s76 27.333 76 82v636h412v-557c0 -244 -94.333 -410.333 -283 -499v-422h-412v422c-102 51.333 -175.667 119 -221 203c-40.667 77.333 -61 176 -61 296v557h413zM905 1483c-38.667 -170.667 -111.667 -256 -219 -256
c-27.333 0 -66.833 8.5 -118.5 25.5s-90.834 25.5 -117.501 25.5c-42 0 -72 -26 -90 -78h-119c36.667 164 108.334 246 215.001 246c28 0 68.5 -8.16699 121.5 -24.5s93.167 -24.5 120.5 -24.5c44 0 73.333 28.667 88 86h119z" />
    <glyph glyph-name="endash" unicode="&#x2013;" horiz-adv-x="1024" 
d="M0 377v289h1024v-289h-1024z" />
    <glyph glyph-name="emdash" unicode="&#x2014;" horiz-adv-x="2048" 
d="M0 666h2048v-289h-2048v289z" />
    <glyph glyph-name="quoteleft" unicode="&#x2018;" horiz-adv-x="600" 
d="M532 1432l-92 -543h-364l174 543h282z" />
    <glyph glyph-name="quoteright" unicode="&#x2019;" horiz-adv-x="600" 
d="M102 889l93 543h364l-174 -543h-283z" />
    <glyph glyph-name="quotesinglbase" unicode="&#x201a;" horiz-adv-x="600" 
d="M84 -147l94 542h365l-176 -542h-283z" />
    <glyph glyph-name="quotedblleft" unicode="&#x201c;" horiz-adv-x="1085" 
d="M1018 1432l-92 -543h-365l176 543h281zM532 1432l-92 -543h-364l174 543h282z" />
    <glyph glyph-name="quotedblright" unicode="&#x201d;" horiz-adv-x="1085" 
d="M588 889l92 543h367l-177 -543h-282zM102 889l93 543h364l-174 -543h-283z" />
    <glyph glyph-name="quotedblbase" unicode="&#x201e;" horiz-adv-x="1085" 
d="M571 -147l93 542h364l-176 -542h-281zM84 -147l94 542h365l-176 -542h-283z" />
    <glyph glyph-name="dagger" unicode="&#x2020;" horiz-adv-x="1024" 
d="M705 -100h-386v915h-294v334h294v283h386v-283h292v-334h-292v-915z" />
    <glyph glyph-name="daggerdbl" unicode="&#x2021;" horiz-adv-x="1024" 
d="M692 -211h-364v401h-303v334h303v291h-303v334h303v283h364v-283h305v-334h-305v-291h305v-334h-305v-401z" />
    <glyph glyph-name="bullet" unicode="&#x2022;" horiz-adv-x="1208" 
d="M307 762c0 82.667 28.832 152.499 86.499 209.499s127.834 85.5 210.501 85.5c82 0 151.667 -28.667 209 -86s86 -127 86 -209s-29 -152 -87 -210s-128 -87 -210 -87c-82.667 0 -152.5 28.833 -209.5 86.5s-85.5 127.834 -85.5 210.501z" />
    <glyph glyph-name="ellipsis" unicode="&#x2026;" horiz-adv-x="2048" 
d="M107 215c0 67.333 22.167 123.5 66.5 168.5s99.833 67.5 166.5 67.5c67.333 0 123.5 -22.5 168.5 -67.5s67.5 -101.167 67.5 -168.5c0 -64.667 -23.167 -119.667 -69.5 -165s-101.833 -68 -166.5 -68c-65.333 0 -120.5 22.5 -165.5 67.5s-67.5 100.167 -67.5 165.5z
M789 215c0 67.333 22.167 123.5 66.5 168.5s99.833 67.5 166.5 67.5c67.333 0 123.5 -22.5 168.5 -67.5s67.5 -101.167 67.5 -168.5c0 -64.667 -23.167 -119.667 -69.5 -165s-101.833 -68 -166.5 -68c-65.333 0 -120.5 22.5 -165.5 67.5s-67.5 100.167 -67.5 165.5z
M1473 215c0 67.333 22.167 123.5 66.5 168.5s99.833 67.5 166.5 67.5c67.333 0 123.5 -22.5 168.5 -67.5s67.5 -101.167 67.5 -168.5c0 -64.667 -23.167 -119.667 -69.5 -165s-101.833 -68 -166.5 -68c-65.333 0 -120.5 22.5 -165.5 67.5s-67.5 100.167 -67.5 165.5z" />
    <glyph glyph-name="perthousand" unicode="&#x2030;" horiz-adv-x="2648" 
d="M2111 354c0 -30 10.667 -55.5029 32 -76.5029s47 -31.5 77 -31.5c30.667 0 56.834 10.333 78.5 31c21.667 20.667 32.5 46.334 32.5 77.001s-10.833 56.834 -32.5 78.501s-47.834 32.5 -78.5 32.5c-31.333 0 -57.333 -10.667 -78 -32s-31 -47.666 -31 -78.999z
M1837 353.997c0 107.333 37 198 111 272s164.667 111 272 111c108 0 199.167 -36.833 273.5 -110.5s111.5 -164.5 111.5 -272.5s-37 -198.833 -111 -272.5s-165.333 -110.5 -274 -110.5c-107.333 0 -198 37 -272 111s-111 164.667 -111 272zM1266 353.997
c0 -30 10.833 -55.498 32.5 -76.498s47.5 -31.5 77.5 -31.5s55.667 10.5 77 31.5s32 46.5 32 76.5c0 31.333 -10.333 57.666 -31 78.999s-46.667 32 -78 32c-30.667 0 -56.667 -10.833 -78 -32.5s-32 -47.834 -32 -78.501zM991 353.999c0 107.333 37.333 198 112 272
s165.667 111 273 111c108 0 198.833 -36.833 272.5 -110.5s110.5 -164.5 110.5 -272.5c0 -108.667 -36.833 -199.667 -110.5 -273s-164.5 -110 -272.5 -110c-107.333 0 -198.333 37 -273 111s-112 164.667 -112 272zM295 -0.000976562l997 1432h209l-991 -1432h-215z
M315 1071c0 -30 11.001 -55.8311 33.001 -77.498s48 -32.5 78 -32.5c30.667 0 56.5 10.667 77.5 32s31.5 47.333 31.5 78c0 31.333 -10.333 57.666 -31 78.999s-46.667 32 -78 32c-30.667 0 -56.834 -10.833 -78.501 -32.5s-32.5 -47.834 -32.5 -78.501zM43.001 1071
c0 107.333 37 198 111 272s164.667 111 272 111c108 0 198.833 -36.833 272.5 -110.5s110.5 -164.5 110.5 -272.5s-36.833 -198.833 -110.5 -272.5s-164.5 -110.5 -272.5 -110.5c-107.333 0 -198 37 -272 111s-111 164.667 -111 272z" />
    <glyph glyph-name="guilsinglleft" unicode="&#x2039;" horiz-adv-x="725" 
d="M670 829l-256 -321l256 -324h-303l-256 324l256 321h303z" />
    <glyph glyph-name="guilsinglright" unicode="&#x203a;" horiz-adv-x="725" 
d="M55 829h303l256 -321l-256 -324h-303l256 324z" />
    <glyph glyph-name="fraction" unicode="&#x2044;" horiz-adv-x="342" 
d="M-342 0l784 1432h242l-788 -1432h-238z" />
    <glyph glyph-name="franc" unicode="&#x20a3;" horiz-adv-x="1839" 
d="M86 0v924c0 338.667 176 508 528 508h304v-400h-240c-56 0 -94.333 -15 -115 -45c-17.333 -24.667 -26 -65.667 -26 -123h381v-383h-381v-481h-451zM1063 0l0.000976562 1042h422v-151c36.667 61.333 86 103 148 125c46 17.333 110 26 192 26v-368
c-114.667 0 -197.334 -26 -248.001 -78s-76 -135.333 -76 -250v-346h-438z" />
    <glyph glyph-name="u20AB" unicode="&#x20ab;" horiz-adv-x="899" 
d="M517 814l-0.000976562 413.002h-138v157h138v69h305v-69h67v-157h-67v-356c0 -97.333 -8.66699 -174.333 -26 -231c-24 -76.667 -68.833 -139.167 -134.5 -187.5s-142.167 -72.5 -229.5 -72.5c-109.333 0 -201.5 38.333 -276.5 115s-112.5 170 -112.5 280
c0 119.333 36.333 215.166 109 287.499s168.667 108.5 288 108.5c20 0 33.667 -0.666992 41 -2v-323c-15.333 12.667 -31.666 19 -48.999 19c-24 0 -43.833 -8.83301 -59.5 -26.5s-23.5 -38.834 -23.5 -63.501c0 -24 7.83301 -44.667 23.5 -62s35.5 -26 59.5 -26
c56.667 0 85 42.333 85 127zM765.999 244.002v-156h-657v156h657z" />
    <glyph glyph-name="trademark" unicode="&#x2122;" horiz-adv-x="1706" 
d="M1044 1468l99 -266l98 266h256v-559h-182v367l-137 -367h-70l-137 367v-367h-183v559h256zM690 1468v-151h-162v-408h-202v408h-162v151h526z" />
    <glyph glyph-name="partialdiff" unicode="&#x2202;" horiz-adv-x="1139" 
d="M770 715c30 152.667 45.002 272.667 45.002 360c0 142 -34.667 213 -104 213c-32 0 -62.667 -21.667 -92 -65l-81 -120c-36.667 -43.333 -79.334 -65 -128.001 -65c-40.667 0 -74.334 12 -101.001 36c-28.667 24.667 -43 57 -43 97c0 69.333 43.667 123.666 131 162.999
c68 30.667 141.667 46 221 46c164.667 0 289 -63.667 373 -191c71.333 -108 107 -248.333 107 -421c0 -232 -55.833 -421.833 -167.5 -569.5s-255.834 -221.5 -432.501 -221.5c-140 0 -251 36.667 -333 110c-85.333 76.667 -128 184.334 -128 323.001
c0 130 39.333 241 118 333c82.667 96 188 144 316 144c130.667 0 230.334 -57.333 299.001 -172zM694.002 553c0 154 -44.333 231.001 -133 231.001c-59.333 0 -109.333 -46.333 -150 -139s-61 -211.334 -61 -356.001c0 -153.333 45 -230 135 -230
c76.667 0 133.667 66.667 171 200c25.333 91.333 38 189.333 38 294z" />
    <glyph glyph-name="product" unicode="&#x220f;" horiz-adv-x="1688" 
d="M139 1473h1399v-1866h-473v1474h-453v-1474h-473v1866z" />
    <glyph glyph-name="summation" unicode="&#x2211;" horiz-adv-x="1583" 
d="M80 1473h1368v-353h-778l559 -557l-541 -600h846v-356h-1475v200l664 738l-643 629v299z" />
    <glyph glyph-name="minus" unicode="&#x2212;" horiz-adv-x="1706" 
d="M1452 750v-277h-1198v277h1198z" />
    <glyph glyph-name="radical" unicode="&#x221a;" horiz-adv-x="1395" 
d="M1399 1737v-172h-86l-588 -1606h-143l-301 827l-156 -59l-41 154l395 139l209 -600l483 1317h228z" />
    <glyph glyph-name="infinity" unicode="&#x221e;" horiz-adv-x="1706" 
d="M975 561c54 -76.667 126.999 -115 218.999 -115c50.667 0 93.667 12.333 129 37c40.667 28 61 66.333 61 115c0 44.667 -16.167 81.5 -48.5 110.5s-71.166 43.5 -116.499 43.5c-82 0 -163.333 -63.667 -244 -191zM730.999 653
c-54 76.667 -126.999 115.001 -218.999 115.001c-51.333 0 -94.333 -12.667 -129 -38c-39.333 -28 -59 -66.667 -59 -116c0 -44.667 16.667 -81.334 50 -110.001c31.333 -27.333 69.666 -41 114.999 -41c83.333 0 164 63.333 242 190zM856 791.001
c90.667 168.667 198.668 253 324.001 253c106.667 0 193 -48 259 -144c58 -84.667 87 -182.667 87 -294c0 -114 -25 -211.333 -75 -292c-58.667 -96 -141.667 -144 -249 -144c-70 0 -137.667 28 -203 84c-38.667 33.333 -88.334 90 -149.001 170
c-88 -169.333 -195.333 -254 -322 -254c-106.667 0 -193 48 -259 144c-58 84.667 -87 182.667 -87 294c0 114.667 24.333 212 73 292c58.667 96 141.667 144 249 144c68 0 135.333 -28.333 202 -85c38 -32.667 88 -88.667 150 -168z" />
    <glyph glyph-name="integral" unicode="&#x222b;" horiz-adv-x="1331" 
d="M379 -244c41.333 0 73.332 52.0029 95.999 156.003c12.667 57.333 21.334 185.666 26.001 384.999c1.33301 65.333 4.33301 163 9 293c16.667 345.333 65 593.166 145 743.499s202.333 225.5 367 225.5c70.667 0 130.334 -16.667 179.001 -50c55.333 -38 83 -91 83 -159
c0 -46.667 -15.333 -84.334 -46 -113.001s-69.334 -43 -116.001 -43c-88.667 0 -133.667 53.333 -135 160c0 2.66699 0.333008 7 1 13s1 10.333 1 13c0 33.333 -11.667 50 -35 50c-68.667 0 -110.667 -220.333 -126 -661c-10 -283.333 -23 -473.666 -39 -570.999
c-40 -239.333 -120 -404.333 -240 -495c-68 -50.667 -147.333 -76 -238 -76c-72 0 -131.667 16.333 -179 49c-54 37.333 -81 90.666 -81 159.999c0 49.333 15.667 88 47 116c29.333 26.667 69 40 119 40c87.333 0 131 -47.333 131 -142c0 -6 -0.333008 -14.833 -1 -26.5
s-1 -20.5 -1 -26.5c0 -27.333 11 -41 33 -41z" />
    <glyph glyph-name="approxequal" unicode="&#x2248;" horiz-adv-x="1706" 
d="M1530 309c-136 -88.667 -260.332 -133 -372.999 -133c-56 0 -149.333 21.5 -280 64.5s-236 64.5 -316 64.5c-104.667 0 -232.334 -52.667 -383.001 -158v299c147.333 94.667 284 142 410 142c77.333 0 180.166 -21.5 308.499 -64.5s217.833 -64.5 268.5 -64.5
c106.667 0 228.334 49.667 365.001 149v-299zM1530 774c-134 -88.667 -257.665 -133 -370.998 -133c-56.667 0 -150.334 21.5 -281.001 64.5s-236.334 64.5 -317.001 64.5c-105.333 0 -233 -52 -383 -156v299c148 93.333 284.667 140 410 140
c77.333 0 180.166 -21.167 308.499 -63.5s217.833 -63.5 268.5 -63.5c108.667 0 230.334 49.667 365.001 149v-301z" />
    <glyph glyph-name="approxequal" unicode="&#x22f2;" horiz-adv-x="1706" 
d="M1530 309c-136 -88.667 -260.332 -133 -372.999 -133c-56 0 -149.333 21.5 -280 64.5s-236 64.5 -316 64.5c-104.667 0 -232.334 -52.667 -383.001 -158v299c147.333 94.667 284 142 410 142c77.333 0 180.166 -21.5 308.499 -64.5s217.833 -64.5 268.5 -64.5
c106.667 0 228.334 49.667 365.001 149v-299zM1530 774c-134 -88.667 -257.665 -133 -370.998 -133c-56.667 0 -150.334 21.5 -281.001 64.5s-236.334 64.5 -317.001 64.5c-105.333 0 -233 -52 -383 -156v299c148 93.333 284.667 140 410 140
c77.333 0 180.166 -21.167 308.499 -63.5s217.833 -63.5 268.5 -63.5c108.667 0 230.334 49.667 365.001 149v-301z" />
    <glyph glyph-name="notequal" unicode="&#x2260;" horiz-adv-x="1706" 
d="M1384 1116l-112 -139h180v-260h-358l-172 -211h530v-262h-704l-242 -299l-199 159l113 140h-166v262h340l170 211h-510v260h690l244 301z" />
    <glyph glyph-name="lessequal" unicode="&#x2264;" horiz-adv-x="1706" 
d="M1454 236v-271h-1200v271h1200zM1452 999l-704 -208l704 -209v-281l-1198 371v237l1198 373v-283z" />
    <glyph glyph-name="greaterequal" unicode="&#x2265;" horiz-adv-x="1706" 
d="M1454 236v-271h-1200v271h1200zM1452 909v-237l-1196 -371v281l705 209l-705 208v283z" />
    <glyph glyph-name="SF370000" unicode="&#x255f;" 
d="M86 0v819c0 184.667 47.333 334.667 142 450c102 123.333 243.667 185 425 185c182 0 324 -61.667 426 -185c96 -114.667 144 -264.667 144 -450v-819h-449v451h-186v374h186v43c0 100 -40.333 150 -121 150c-77.333 0 -116 -50 -116 -150v-868h-451z" />
    <glyph glyph-name="SF420000" unicode="&#x2560;" horiz-adv-x="1075" 
d="M999 1034c-129.333 0 -213.667 -3.66602 -253 -10.999c-92.667 -18 -161 -61.333 -205 -130h458v-350h-460c42.667 -71.333 111 -116 205 -134c39.333 -8 124.333 -12 255 -12v-397h-38c-128.667 0 -240 10 -334 30c-96 20 -176 50.333 -240 91
c-106 66.667 -188.5 151.834 -247.5 255.501s-88.5 217.167 -88.5 340.5s29.5 236.666 88.5 339.999s141.5 188 247.5 254c63.333 39.333 143.333 69.666 240 90.999c94.667 20 218.667 30 372 30v-398z" />
    <glyph glyph-name="SF190000" unicode="&#x2561;" horiz-adv-x="645" 
d="M96 0v1432h451v-1432h-451z" />
    <glyph glyph-name="SF200000" unicode="&#x2562;" horiz-adv-x="1583" 
d="M512 719c0 -80.667 26.834 -149.667 80.501 -207s120.5 -86 200.5 -86c79.333 0 145.666 29.333 198.999 88c52.667 56.667 79 125 79 205s-26 148.333 -78 205c-54 57.333 -120.667 86 -200 86s-146 -28.5 -200 -85.5s-81 -125.5 -81 -205.5zM51.001 717
c0 204.667 72.5 379 217.5 523s319.833 216 524.5 216c204 0 378.167 -72.167 522.5 -216.5s216.5 -318.5 216.5 -522.5s-72.167 -378.667 -216.5 -524s-318.5 -218 -522.5 -218s-378.667 72.667 -524 218s-218 320 -218 524z" />
    <glyph glyph-name="SF230000" unicode="&#x2563;" 
d="M1223 1432v-820.001c0 -184.667 -48 -334.667 -144 -450c-102.667 -123.333 -244.667 -185 -426 -185c-180.667 0 -322 62 -424 186c-95.333 114.667 -143 264.334 -143 449.001v820h449v-869c0 -99.333 39.333 -149 118 -149c79.333 0 119 49.667 119 149v869h451z" />
    <glyph glyph-name="SF470000" unicode="&#x2564;" horiz-adv-x="1194" 
d="M522 1432v-459.001c0 -62.667 25.333 -94 76 -94c49.333 0 74 31.333 74 94v459h446v-449c0 -233.333 -98.333 -393.666 -295 -480.999v-502h-450v502c-198 90 -297 250.333 -297 481v449h446z" />
    <glyph glyph-name="SF480000" unicode="&#x2565;" horiz-adv-x="1171" 
d="M578 647c-32.667 0 -59.667 -11.833 -81 -35.5s-32 -52.167 -32 -85.5s10.5 -61.333 31.5 -84s48.167 -34 81.5 -34c26 0 48.333 7.33301 67 22v-432c-28 -2.66699 -51.333 -4 -70 -4c-154.667 0 -280.667 48.667 -378 146s-146 223.333 -146 378
c0 150 50.5 278.333 151.5 385s226.167 160 375.5 160c118 0 221.5 -32.667 310.5 -98s150.5 -154.333 184.5 -267c20.667 -68 31 -166 31 -294v-404h-412v473c0 116 -38 174 -114 174z" />
    <glyph glyph-name="SF410000" unicode="&#x2566;" horiz-adv-x="1149" 
d="M1116 233c-166 -167.333 -340.667 -251.001 -524 -251.001c-154.667 0 -284.167 51.333 -388.5 154s-156.5 231.334 -156.5 386.001c0 152 52.167 280.167 156.5 384.5s232.5 156.5 384.5 156.5c126.667 0 237.334 -37 332.001 -111
c88.667 -69.333 156 -165.333 202 -288l-516 -281l-112 209l190 106c-27.333 30 -62 45 -104 45c-48 0 -86 -22.667 -114 -68c-24 -38 -36 -82.667 -36 -134c0 -61.333 17.333 -111 52 -149c36 -40 84.333 -60 145 -60c93.333 0 176.666 43.667 249.999 131z" />
    <glyph glyph-name="SF450000" unicode="&#x2567;" horiz-adv-x="575" 
d="M45 1360c0 68 23.667 125.333 71 172s105 70 173 70s125.167 -23.333 171.5 -70s69.5 -104 69.5 -172s-23.167 -125.333 -69.5 -172s-103.5 -70 -171.5 -70s-125.667 23.333 -173 70s-71 104 -71 172zM82 0v1042h412v-1042h-412z" />
    <glyph glyph-name="SF460000" unicode="&#x2568;" horiz-adv-x="575" 
d="M82 0v1042h412v-1042h-412z" />
    <glyph glyph-name="SF400000" unicode="&#x2569;" horiz-adv-x="1147" 
d="M47 522c0 147.333 51 274.334 153 381.001s226.333 160 373 160s271.667 -53.667 375 -161c101.333 -106 152 -232.667 152 -380c0 -148.667 -50.333 -275.667 -151 -381c-102.667 -106 -228 -159 -376 -159c-146.667 0 -271 53.167 -373 159.5
s-153 233.166 -153 380.499zM469 524.001c0 -30.667 9.83105 -57.667 29.498 -81s44.5 -35 74.5 -35c30.667 0 55.834 11.5 75.501 34.5s29.5 50.167 29.5 81.5c0 32 -9.66699 59.167 -29 81.5s-44.666 33.5 -75.999 33.5c-30.667 0 -55.667 -11.333 -75 -34
s-29 -49.667 -29 -81z" />
    <glyph glyph-name="SF540000" unicode="&#x256a;" horiz-adv-x="1118" 
d="M483 1042l-0.000976562 -596c0 -54 25.333 -81 76 -81s76 27 76 81v596h412v-516c0 -80 -7 -146 -21 -198c-28.667 -104 -86.667 -187.667 -174 -251s-185 -95 -293 -95s-205.667 31.667 -293 95c-89.333 65.333 -147.666 149.333 -174.999 252
c-14 52 -21 117.667 -21 197v516h413z" />
    <glyph glyph-name="SF530000" unicode="&#x256b;" horiz-adv-x="1118" 
d="M483 1042v-636c0 -54.667 25.333 -82 76 -82s76 27.333 76 82v636h412v-557c0 -244 -94.333 -410.333 -283 -499v-422h-412v422c-102 51.333 -175.667 119 -221 203c-40.667 77.333 -61 176 -61 296v557h413z" />
    <glyph glyph-name="lozenge" unicode="&#x25ca;" horiz-adv-x="1012" 
d="M506 1409l-385 -821l385 -821l385 821zM506 1653l500 -1065l-500 -1065l-500 1065z" />
    <glyph glyph-name="circle" unicode="&#x25cb;" 
d="M336 1517l190 369h258l190 -369h-151l-168 199l-168 -199h-151zM887 2297l-325 -369h-154l192 369h287z" />
    <glyph glyph-name="H18533" unicode="&#x25cf;" 
d="M336 1517l190 369h258l190 -369h-151l-168 199l-168 -199h-151zM423 2298h287l192 -369h-154z" />
    <glyph glyph-name="invbullet" unicode="&#x25d8;" 
d="M336 1517l190 369h258l190 -369h-151l-168 199l-168 -199h-151zM734 2084c0 51.333 20 97.333 60 138c42 43.333 91.667 65 149 65c60.667 0 112 -23 154 -69c38.667 -42.667 58 -91 58 -145c0 -48.667 -17.5 -92.167 -52.5 -130.5s-76.833 -62.5 -125.5 -72.5v-27h-94
v157c39.333 0 70 8.66699 92 26c18.667 14 28 30.333 28 49c0 42 -20.333 63 -61 63c-40 0 -64 -26 -72 -78z" />
    <glyph glyph-name="invcircle" unicode="&#x25d9;" 
d="M336 1517l190 369h258l190 -369h-151l-168 199l-168 -199h-151zM1041 2237c-38.667 -170.667 -111.667 -256 -219 -256c-27.333 0 -66.833 8.5 -118.5 25.5s-90.834 25.5 -117.501 25.5c-42 0 -72 -26 -90 -78h-119c36.667 164 108.334 246 215.001 246
c28 0 68.5 -8.16699 121.5 -24.5s93.167 -24.5 120.5 -24.5c44 0 73.333 28.667 88 86h119z" />
    <glyph glyph-name="apple" unicode="&#xf000;" horiz-adv-x="1618" 
d="M836 1216c-1.33301 8 -2 20.333 -2 37c0 88 33.667 167 101 237c64 66 140.667 107.333 230 124c1.33301 -13.333 2 -34 2 -62c0 -87.333 -34.5 -165.5 -103.5 -234.5s-139.5 -103.5 -211.5 -103.5c-2 0 -4.83301 0.333008 -8.5 1s-6.16699 1 -7.5 1zM1505 403
c-60 -130 -111.001 -223.334 -153.001 -280.001c-78.667 -105.333 -164 -158 -256 -158c-30 0 -72.667 11 -128 33s-97.333 33 -126 33c-30 0 -73.167 -11 -129.5 -33s-99.166 -33 -128.499 -33c-85.333 0 -171.666 58.667 -258.999 176c-66 89.333 -118 188 -156 296
c-37.333 103.333 -56 203.333 -56 300c0 140.667 39 256.667 117 348c82.667 97.333 193 146 331 146c38 0 88 -11.333 150 -34s105 -34 129 -34c23.333 0 65.666 11.333 126.999 34s110.333 34 147 34c146 0 265.667 -54 359 -162
c-134 -85.333 -201 -194.666 -201 -327.999c0 -155.333 77.667 -268 233 -338z" />
    <glyph glyph-name="fi" unicode="&#xf001;" 
d="M82 0v1012c0 148 38.667 256 116 324c72.667 64 184 96 334 96h175v-293h-105c-38.667 0 -65.667 -6.33301 -81 -19c-18 -14 -27 -40 -27 -78h213v-313h-213v-729h-412zM815 0v1042h412v-1042h-412zM778 1360c0 68 23.333 125.333 70 172s104 70 172 70
s125.333 -23.333 172 -70s70 -104 70 -172s-23.333 -125.333 -70 -172s-104 -70 -172 -70s-125.333 23.333 -172 70s-70 104 -70 172z" />
    <glyph glyph-name="fl" unicode="&#xf002;" 
d="M82 0v1012c0 148 38.667 256 116 324c72.667 64 184 96 334 96h175v-293h-105c-38.667 0 -65.667 -6.33301 -81 -19c-18 -14 -27 -40 -27 -78h213v-313h-213v-729h-412zM815 0v1432h412v-1432h-412z" />
    <glyph glyph-name=".null" horiz-adv-x="0" 
 />
    <glyph glyph-name="nonmarkingreturn" horiz-adv-x="600" 
 />
    <glyph glyph-name="periodcentered" horiz-adv-x="600" 
d="M66 735c0 67.333 22.167 123.833 66.5 169.5s99.833 68.5 166.5 68.5s122.667 -23 168 -69s68 -102.333 68 -169c0 -64.667 -23.167 -119.667 -69.5 -165s-101.833 -68 -166.5 -68c-65.333 0 -120.5 22.5 -165.5 67.5s-67.5 100.167 -67.5 165.5z" />
    <glyph glyph-name="glyph275" horiz-adv-x="600" 
 />
    <glyph glyph-name="glyph276" horiz-adv-x="600" 
 />
    <glyph glyph-name="glyph261" horiz-adv-x="600" 
d="M81 983l182 457l327 -1l-262 -456h-247z" />
    <glyph glyph-name="glyph262" horiz-adv-x="1024" 
d="M312 1359c0 51.333 20 97.333 60 138c42 43.333 91.667 65 149 65c60.667 0 112 -23 154 -69c38.667 -42.667 58 -91 58 -145c0 -48.667 -17.5 -92.167 -52.5 -130.5s-76.833 -62.5 -125.5 -72.5v-27h-94v157c39.333 0 70 8.66699 92 26c18.667 14 28 30.333 28 49
c0 42 -20.333 63 -61 63c-40 0 -64 -26 -72 -78z" />
    <glyph glyph-name="glyph263" horiz-adv-x="1171" 
d="M267 1157l190 369h258l190 -369h-151l-168 199l-168 -199h-151zM818 1936l-325 -369h-154l192 369h287z" />
    <glyph glyph-name="glyph264" horiz-adv-x="1171" 
d="M267 1157l190 369h258l190 -369h-151l-168 199l-168 -199h-151zM353 1937h287l192 -369h-154z" />
    <glyph glyph-name="glyph265" horiz-adv-x="1171" 
d="M267 1157l190 369h258l190 -369h-151l-168 199l-168 -199h-151zM665 1724c0 51.333 20 97.333 60 138c42 43.333 91.667 65 149 65c60.667 0 112 -23 154 -69c38.667 -42.667 58 -91 58 -145c0 -48.667 -17.5 -92.167 -52.5 -130.5s-76.833 -62.5 -125.5 -72.5v-27h-94
v157c39.333 0 70 8.66699 92 26c18.667 14 28 30.333 28 49c0 42 -20.333 63 -61 63c-40 0 -64 -26 -72 -78z" />
    <glyph glyph-name="glyph266" horiz-adv-x="1171" 
d="M267 1157l190 369h258l190 -369h-151l-168 199l-168 -199h-151zM972 1877c-38.667 -170.667 -111.667 -256 -219 -256c-27.333 0 -66.833 8.5 -118.5 25.5s-90.834 25.5 -117.501 25.5c-42 0 -72 -26 -90 -78h-119c36.667 164 108.334 246 215.001 246
c28 0 68.5 -8.16699 121.5 -24.5s93.167 -24.5 120.5 -24.5c44 0 73.333 28.667 88 86h119z" />
    <glyph glyph-name="glyph267" horiz-adv-x="1171" 
d="M272 1493h131c7.33301 -91.333 68.666 -137 183.999 -137c116.667 0 177.667 45.667 183 137h130c-15.333 -204.667 -119.666 -307 -312.999 -307c-196.667 0 -301.667 102.333 -315 307zM908 1936l-325 -369h-154l192 369h287z" />
    <glyph glyph-name="glyph268" horiz-adv-x="1171" 
d="M272 1493h131c7.33301 -91.333 68.666 -137 183.999 -137c116.667 0 177.667 45.667 183 137h130c-15.333 -204.667 -119.666 -307 -312.999 -307c-196.667 0 -301.667 102.333 -315 307zM263 1937h287l192 -369h-154z" />
    <glyph glyph-name="glyph269" horiz-adv-x="1171" 
d="M272 1493h131c7.33301 -91.333 68.666 -137 183.999 -137c116.667 0 177.667 45.667 183 137h130c-15.333 -204.667 -119.666 -307 -312.999 -307c-196.667 0 -301.667 102.333 -315 307zM380 1724c0 51.333 20 97.333 60 138c42 43.333 91.667 65 149 65
c60.667 0 112 -23 154 -69c38.667 -42.667 58 -91 58 -145c0 -48.667 -17.5 -92.167 -52.5 -130.5s-76.833 -62.5 -125.5 -72.5v-27h-94v157c39.333 0 70 8.66699 92 26c18.667 14 28 30.333 28 49c0 42 -20.333 63 -61 63c-40 0 -64 -26 -72 -78z" />
    <glyph glyph-name="glyph270" horiz-adv-x="1171" 
d="M272 1493h131c7.33301 -91.333 68.666 -137 183.999 -137c116.667 0 177.667 45.667 183 137h130c-15.333 -204.667 -119.666 -307 -312.999 -307c-196.667 0 -301.667 102.333 -315 307zM940 1877c-38.667 -170.667 -111.667 -256 -219 -256
c-27.333 0 -66.833 8.5 -118.5 25.5s-90.834 25.5 -117.501 25.5c-42 0 -72 -26 -90 -78h-119c36.667 164 108.334 246 215.001 246c28 0 68.5 -8.16699 121.5 -24.5s93.167 -24.5 120.5 -24.5c44 0 73.333 28.667 88 86h119z" />
    </font>
</defs>
</svg>
