<?xml version="1.0" standalone="no"?>
<!DOCTYPE svg PUBLIC "-//W3C//DTD SVG 1.1//EN" "http://www.w3.org/Graphics/SVG/1.1/DTD/svg11.dtd" >
<svg>
<metadata>
Created by FontForge 20090914 at Sat Oct 14 16:56:49 2017
 By www-data
(c) Copyright 2001 by Tom Truong. All Rights Reserved
</metadata>
<defs>
<font id="UVNBaiSauNhe" horiz-adv-x="1024" >
  <font-face 
    font-family="UVN Bai Sau Nhe"
    font-weight="400"
    font-stretch="normal"
    units-per-em="2048"
    panose-1="4 3 4 5 2 8 2 2 12 3"
    ascent="1638"
    descent="-410"
    x-height="966.998"
    cap-height="1432"
    bbox="-338 -483 2316 2260"
    underline-thickness="82"
    underline-position="-176"
    unicode-range="U+0020-U+F002"
  />
<missing-glyph 
d="M128 0v2260h768v-2260h-768zM256 128h512v2004h-512v-2004z" />
    <glyph glyph-name=".notdef" 
d="M128 0v2260h768v-2260h-768zM256 128h512v2004h-512v-2004z" />
    <glyph glyph-name="space" unicode=" " horiz-adv-x="547" 
 />
    <glyph glyph-name="exclam" unicode="!" horiz-adv-x="547" 
d="M231 287v1169h84v-1169h-84zM197 68c0 21.333 7.5 39.167 22.5 53.5s33.167 21.5 54.5 21.5c50.667 0 76 -25 76 -75c0 -22 -7.16699 -40.5 -21.5 -55.5s-32.5 -22.5 -54.5 -22.5s-40.333 7.5 -55 22.5s-22 33.5 -22 55.5z" />
    <glyph glyph-name="quotedbl" unicode="&#x22;" horiz-adv-x="551" 
d="M451 1434v-553h-86v553h86zM186 1434v-553h-86v553h86z" />
    <glyph glyph-name="numbersign" unicode="#" horiz-adv-x="1575" 
d="M979 866h-270l-99 -282h269zM915 1454l-174 -498h271l176 498h110l-174 -498h322l-31 -90h-323l-101 -282h348l-30 -90h-351l-174 -494h-112l176 494h-270l-179 -494h-110l174 494h-334l31 90h336l100 282h-360l28 90h365l176 498h110z" />
    <glyph glyph-name="dollar" unicode="$" horiz-adv-x="1096" 
d="M596 231h18c78.667 0 142.667 16.667 192 50c58 38.667 87 95.334 87 170.001c0 123.333 -99 214.666 -297 273.999v-494zM524 836v462h-12c-75.333 0 -136.333 -16 -183 -48c-54 -36.667 -81 -91 -81 -163c0 -119.333 92 -203 276 -251zM524 -57v213h-354v75h354v519
c-236 62 -354 171.667 -354 329c0 96 36 170.333 108 223c63.333 46 145.333 70 246 72v113h72v-113h307v-76h-307v-483c251.333 -76.667 377 -196.667 377 -360c0 -199.333 -125.667 -299 -377 -299v-213h-72z" />
    <glyph glyph-name="percent" unicode="%" horiz-adv-x="1671" 
d="M1034 307c0 -62.667 22 -116.167 66 -160.5s97.333 -66.5 160 -66.5c63.333 0 116.666 22 159.999 66s65 97.667 65 161s-21.667 117.166 -65 161.499s-96.666 66.5 -159.999 66.5s-116.833 -22.167 -160.5 -66.5s-65.5 -98.166 -65.5 -161.499zM952 307
c0 86 29.833 158.999 89.5 218.999s132.5 90 218.5 90c85.333 0 158.166 -30.167 218.499 -90.5s90.5 -133.166 90.5 -218.499s-30.167 -157.833 -90.5 -217.5s-133.166 -89.5 -218.499 -89.5c-86 0 -158.833 29.667 -218.5 89s-89.5 132 -89.5 218zM182 1147
c0 -62.667 22 -116.167 66 -160.5s97.333 -66.5 160 -66.5c63.333 0 116.333 22 159 66s64 97.667 64 161s-21.333 117 -64 161s-95.667 66 -159 66s-116.833 -22 -160.5 -66s-65.5 -97.667 -65.5 -161zM98 1147c0 85.333 30.333 158.166 91 218.499s133.667 90.5 219 90.5
s157.833 -30.167 217.5 -90.5s89.5 -133.166 89.5 -218.499c0 -86 -29.667 -158.667 -89 -218s-132 -89 -218 -89s-159.167 29.667 -219.5 89s-90.5 132 -90.5 218zM317 -25.001l949 1467h84l-944 -1467h-89z" />
    <glyph glyph-name="ampersand" unicode="&#x26;" horiz-adv-x="1374" 
d="M356 1040c-42 54.667 -65.332 85.6709 -69.999 93.0039c-24 38 -36 74 -36 108c0 61.333 24.667 109.666 74 144.999c43.333 30.667 97 46 161 46h559v-76h-550c-102.667 0 -154 -38.333 -154 -115c0 -37.333 22.667 -83 68 -137l700 -832
c60 89.333 90 187.666 90 294.999c0 160 -62 292.667 -186 398l49 59c148.667 -119.333 223 -272.333 223 -459c0 -126 -39.667 -244.667 -119 -356l178 -209h-106l-125 150c-118.667 -113.333 -257.334 -170 -416.001 -170c-83.333 0 -160.333 14 -231 42
c-108 42 -194.833 113.667 -260.5 215s-98.5 210.666 -98.5 327.999c0 193.333 83.333 351.666 250 474.999zM408.001 983.004c-143.333 -116 -215.001 -252.667 -215.001 -410c0 -141.333 48.333 -262.333 145 -363s215.334 -151 356.001 -151
c131.333 0 252.333 52 363 156z" />
    <glyph glyph-name="quotesingle" unicode="'" horiz-adv-x="285" 
d="M186 1434v-553h-86v553h86z" />
    <glyph glyph-name="parenleft" unicode="(" horiz-adv-x="793" 
d="M672 -379c-299.333 250 -449 554.668 -449 914.001c0 333.333 147.667 643 443 929l45 -47c-270.667 -278.667 -406 -572 -406 -880c0 -334.667 135.333 -622.334 406 -863.001z" />
    <glyph glyph-name="parenright" unicode=")" horiz-adv-x="793" 
d="M121 -379l-41 53.001c271.333 242.667 407 530.334 407 863.001c0 307.333 -135 600.666 -405 879.999l45 47c294.667 -285.333 442 -595 442 -929c0 -358.667 -149.333 -663.334 -448 -914.001z" />
    <glyph glyph-name="asterisk" unicode="*" horiz-adv-x="1010" 
d="M541 719h-72l8 319l-274 -166l-35 62l278 151l-278 156l35 62l276 -168l-10 321h72l-11 -321l277 168l35 -62l-283 -151l283 -156l-35 -64l-275 168z" />
    <glyph glyph-name="plus" unicode="+" horiz-adv-x="1706" 
d="M893 1221v-570h559v-82h-559v-569h-80v569h-559v82h559v570h80z" />
    <glyph glyph-name="comma" unicode="," horiz-adv-x="547" 
d="M135 -168l92 324h115l-115 -324h-92z" />
    <glyph glyph-name="hyphen" unicode="-" horiz-adv-x="676" 
d="M141 455v82h394v-82h-394z" />
    <glyph glyph-name="hyphen" unicode="&#x2010;" horiz-adv-x="676" 
d="M141 455v82h394v-82h-394z" />
    <glyph glyph-name="period" unicode="." horiz-adv-x="547" 
d="M197 68c0 21.333 7.5 39.167 22.5 53.5s33.167 21.5 54.5 21.5c50.667 0 76 -25 76 -75c0 -22 -7.16699 -40.5 -21.5 -55.5s-32.5 -22.5 -54.5 -22.5s-40.333 7.5 -55 22.5s-22 33.5 -22 55.5z" />
    <glyph glyph-name="slash" unicode="/" horiz-adv-x="557" 
d="M522 1456h90l-544 -1646h-91z" />
    <glyph glyph-name="zero" unicode="0" horiz-adv-x="1096" 
d="M928 444v543c0 110.667 -36 203.167 -108 277.5s-163 111.5 -273 111.5s-200.667 -37.167 -272 -111.5s-107 -166.833 -107 -277.5v-543c0 -110 35.667 -202 107 -276s162 -111 272 -111s201 37 273 111s108 166 108 276zM78 981c0 135.333 44.334 248.333 133.001 339
s200.667 136 336 136s247.666 -45.333 336.999 -136s134 -203.667 134 -339v-530c0 -136 -44.5 -249.333 -133.5 -340s-201.5 -136 -337.5 -136c-135.333 0 -247.333 45.333 -336 136s-133 204 -133 340v530z" />
    <glyph glyph-name="one" unicode="1" horiz-adv-x="1096" 
d="M549 0v1360h-244l23 72h303v-1432h-82z" />
    <glyph glyph-name="two" unicode="2" horiz-adv-x="1096" 
d="M1018 0l-759.998 0.00292969c-52.667 0 -89.667 4 -111 12c-36.667 14 -55 42.667 -55 86c0 41.333 33.667 89.333 101 144l524 424c136.667 110.667 205 230.667 205 360c0 104 -34.333 188.667 -103 254s-155.334 98 -260.001 98s-192.334 -33 -263.001 -99
s-106 -151 -106 -255c0 -113.333 38 -201.333 114 -264c68 -56.667 160.667 -88 278 -94l-78 -66c-118.667 18 -213.667 60.333 -285 127c-78 73.333 -117 167.666 -117 282.999c0 131.333 43.667 238.666 131 321.999c85.333 82.667 194 124 326 124
c128 0 234.333 -39 319 -117c88 -80.667 132 -184.334 132 -311.001c0 -92 -26 -177 -78 -255c-39.333 -58 -102.333 -122.333 -189 -193l-521 -426c-16.667 -13.333 -25 -27 -25 -41c0 -22 15 -33 45 -33h776v-80z" />
    <glyph glyph-name="three" unicode="3" horiz-adv-x="1096" 
d="M125 0v80h410c249.333 0 374 114 374 342c0 104 -30.833 186 -92.5 246s-146.167 90 -253.5 90h-278v57l493 479c16.667 16 25 29 25 39c0 15.333 -15.667 23 -47 23h-615v76h637c80.667 0 121 -28.667 121 -86c0 -26.667 -11 -50.667 -33 -72l-454 -438h131
c305.333 0 458 -138 458 -414c0 -138.667 -43.667 -245 -131 -319c-81.333 -68.667 -193 -103 -335 -103h-410z" />
    <glyph glyph-name="four" unicode="4" horiz-adv-x="1096" 
d="M750 0v405.999h-564c-90 0 -135 27.667 -135 83c0 23.333 11.667 54.333 35 93l532 874h99l-553 -911c-8 -13.333 -12 -25.666 -12 -36.999c0 -18 18 -27 54 -27h544v862l90 89v-951h235v-75h-235v-406h-90z" />
    <glyph glyph-name="five" unicode="5" horiz-adv-x="1096" 
d="M135 0l-0.000976562 80h385c116.667 0 207.334 27 272.001 81c70 58.667 105 145 105 259c0 105.333 -32.167 188 -96.5 248s-149.5 90 -255.5 90h-371v674h719v-76h-629v-520h266c139.333 0 249.333 -33.667 330 -101c87.333 -72 131 -176.333 131 -313
c0 -133.333 -43.333 -238 -130 -314c-82 -72 -190.667 -108 -326 -108h-400z" />
    <glyph glyph-name="six" unicode="6" horiz-adv-x="1096" 
d="M440 948c54 11.333 99 17 135 17c139.333 0 252 -44.667 338 -134s129 -204 129 -344c0 -142 -45.667 -261.333 -137 -358c-93.333 -98 -210.666 -147 -351.999 -147c-140 0 -257 49.167 -351 147.5s-141 217.5 -141 357.5c0 117.333 52 252.666 156 405.999l365 539h98
l-406 -607c-81.333 -121.333 -122 -232.333 -122 -333c0 -120.667 36.333 -221.667 109 -303c75.333 -85.333 172.666 -128 291.999 -128c116 0 212 41.333 288 124c74 80.667 111 179.334 111 296.001c0 121.333 -35 219 -105 293c-71.333 76.667 -167.333 115 -288 115
c-47.333 0 -108 -11 -182 -33z" />
    <glyph glyph-name="seven" unicode="7" horiz-adv-x="1096" 
d="M950 700h-171l-308 -700h-94l309 700h-454v71h486l226 511c6.66699 15.333 10 31 10 47c0 18 -15.667 27 -47 27h-848v76h858c86.667 0 130 -31.667 130 -95c0 -19.333 -7 -45 -21 -77l-216 -489h140v-71z" />
    <glyph glyph-name="eight" unicode="8" horiz-adv-x="1096" 
d="M401 823c-151.333 55.333 -226.999 156.333 -226.999 303c0 99.333 38 180 114 242c71.333 58.667 157.666 88 258.999 88s188 -29.333 260 -88c76.667 -62 115 -142.667 115 -242c0 -146.667 -76 -247.667 -228 -303c214.667 -68 322 -205.667 322 -413
c0 -125.333 -47.333 -230 -142 -314c-91.333 -80.667 -200.333 -121 -327 -121c-126 0 -234.667 40.667 -326 122c-95.333 84 -143 188.333 -143 313c0 207.333 107.667 345 323 413zM256.001 1120c0 -78 29.3311 -142.667 87.998 -194
c56.667 -49.333 124.334 -74 203.001 -74s146.334 24.667 203.001 74c60 52 90 116.667 90 194c0 79.333 -29.333 144 -88 194c-56 46.667 -124.333 70 -205 70s-148.667 -23.333 -204 -70c-58 -50 -87 -114.667 -87 -194zM161.999 422
c0 -104.667 38.335 -191.666 115.002 -260.999c74 -66.667 164 -100 270 -100c106.667 0 196.667 33.333 270 100c76.667 68.667 115 155.667 115 261c0 103.333 -38.667 189.666 -116 258.999c-74.667 67.333 -164.334 101 -269.001 101s-194.334 -33.333 -269.001 -100
c-77.333 -70 -116 -156.667 -116 -260z" />
    <glyph glyph-name="nine" unicode="9" horiz-adv-x="1096" 
d="M657 483c-50.667 -10.667 -95.667 -15.998 -135 -15.998c-139.333 0 -252 44.667 -338 134s-129 203.666 -129 342.999c0 142.667 45.333 262 136 358c93.333 98.667 210.666 148 351.999 148s259 -49.333 353 -148c92 -96.667 138 -216 138 -358
c0 -119.333 -51 -254.333 -153 -405l-365 -539h-98l403 606c82 123.333 123 234.666 123 333.999c0 120.667 -36.333 221.667 -109 303c-75.333 84.667 -172.666 127 -291.999 127c-116 0 -212 -41.333 -288 -124c-73.333 -80 -110 -178.667 -110 -296
c0 -121.333 34.667 -219 104 -293c71.333 -76 167.333 -114 288 -114c48 0 109.333 10.667 184 32z" />
    <glyph glyph-name="colon" unicode=":" horiz-adv-x="598" 
d="M221 68c0 50 26 75 78 75c50.667 0 76 -25 76 -75c0 -22 -7.16699 -40.5 -21.5 -55.5s-32.5 -22.5 -54.5 -22.5s-40.5 7.5 -55.5 22.5s-22.5 33.5 -22.5 55.5zM221 713c0 21.333 7.66797 39.666 23.001 54.999s33.666 23 54.999 23s39.333 -7.66699 54 -23
s22 -33.666 22 -54.999c0 -50.667 -25.333 -76 -76 -76c-22 0 -40.5 7.16699 -55.5 21.5s-22.5 32.5 -22.5 54.5z" />
    <glyph glyph-name="semicolon" unicode=";" horiz-adv-x="598" 
d="M221 713c0 21.333 7.66797 39.666 23.001 54.999s33.666 23 54.999 23s39.333 -7.66699 54 -23s22 -33.666 22 -54.999c0 -50.667 -25.333 -76 -76 -76c-22 0 -40.5 7.16699 -55.5 21.5s-22.5 32.5 -22.5 54.5zM168.001 -168l92 324h115l-115 -324h-92z" />
    <glyph glyph-name="less" unicode="&#x3c;" horiz-adv-x="1706" 
d="M1442 1034l-1045 -424l1045 -424v-88l-1178 482v61l1178 483v-90z" />
    <glyph glyph-name="equal" unicode="=" horiz-adv-x="1706" 
d="M1452 469v-82h-1198v82h1198zM1452 831v-79h-1198v79h1198z" />
    <glyph glyph-name="greater" unicode="&#x3e;" horiz-adv-x="1706" 
d="M1442 641v-61l-1178 -482v88l1045 424l-1045 424v90z" />
    <glyph glyph-name="question" unicode="?" horiz-adv-x="963" 
d="M45 1057c11.333 120.667 53 216.668 125 288.001c74.667 74 171.667 111 291 111c120.667 0 219.667 -38.833 297 -116.5s116 -176.834 116 -297.501c0 -122 -38.667 -219.333 -116 -292c-70.667 -66.667 -168.334 -107.667 -293.001 -123v-359h-86v443h29
c108 0 196.333 28 265 84c74 60.667 111 143.667 111 249c0 98 -29.833 177.5 -89.5 238.5s-138.167 91.5 -235.5 91.5c-95.333 0 -172 -29.333 -230 -88c-55.333 -56 -88.666 -132.333 -99.999 -229h-84zM344 68.001c0 50 26 75 78 75c50.667 0 76 -25 76 -75
c0 -22 -7.16699 -40.5 -21.5 -55.5s-32.5 -22.5 -54.5 -22.5s-40.5 7.5 -55.5 22.5s-22.5 33.5 -22.5 55.5z" />
    <glyph glyph-name="at" unicode="@" horiz-adv-x="2048" 
d="M1303 827l61.002 128.999h80l-137 -553c-14 -56.667 -21 -92.667 -21 -108c0 -61.333 39 -92 117 -92c31.333 0 64.666 6.66699 99.999 20c102.667 37.333 184 111 244 221c54.667 99.333 82 207.333 82 324c0 196 -74 348.667 -222 458
c-132.667 98.667 -300.334 148 -503.001 148c-252 0 -461 -80.667 -627 -242c-168 -163.333 -252 -370.666 -252 -621.999c0 -229.333 79.667 -408.666 239 -537.999c147.333 -119.333 338.666 -179 573.999 -179c225.333 0 433 64.333 623 193l29 -45
c-194.667 -146.667 -410.667 -220 -648 -220c-259.333 0 -474 67.333 -644 202c-184.667 146.667 -277 346.334 -277 599.001c0 184 48.5 350.667 145.5 500s229.833 262 398.5 338c134 60 283.667 90 449 90c106.667 0 208.334 -14.667 305.001 -44
c148.667 -45.333 269 -122 361 -230c98 -114.667 147 -247.334 147 -398.001c0 -112.667 -21 -215.334 -63 -308.001c-45.333 -99.333 -110.333 -180.333 -195 -243c-90 -66.667 -187 -100 -291 -100c-128 0 -192 48.333 -192 145c0 15.333 1.33301 28.333 4 39
c-68 -122.667 -165 -184 -291 -184c-208.667 0 -313 108.667 -313 326c0 142 40.667 265.667 122 371c88 115.333 201 173 339 173c128.667 0 214 -56.667 256 -170zM1282 720.999c-30 135.333 -107.667 202.999 -233 202.999c-113.333 0 -204 -53.333 -272 -160
c-58 -92 -87 -198 -87 -318c0 -73.333 17.667 -131.666 53 -174.999c38 -46.667 92.667 -70 164 -70c74 0 139.5 24.333 196.5 73s95.5 113 115.5 193z" />
    <glyph glyph-name="A" unicode="A" horiz-adv-x="1204" 
d="M127 0l0.000976562 926c0 154.667 40 280 120 376c85.333 102.667 203.666 154 354.999 154s269.333 -51.667 354 -155c79.333 -96 119 -221 119 -375v-926h-90v711h-696v80h696v104c0 319.333 -127.667 479 -383 479c-256.667 0 -385 -159.667 -385 -479v-895h-90z" />
    <glyph glyph-name="B" unicode="B" horiz-adv-x="1126" 
d="M127 0l-0.000976562 923.997c0 356 148.667 534 446 534c113.333 0 210.333 -33 291 -99c86 -70.667 129 -161.334 129 -272.001c0 -156 -82.667 -262.333 -248 -319c98 -24 175.333 -67.333 232 -130c60 -66.667 90 -149 90 -247c0 -123.333 -45 -220.666 -135 -291.999
c-82.667 -66 -187.334 -99 -314.001 -99h-329v80h319c106.667 0 192.334 24.667 257.001 74c72 54.667 108 133.667 108 237c0 217.333 -134.667 326 -404 326h-280v74h256c104.667 0 189.834 26.833 255.501 80.5s98.5 122.834 98.5 207.501
c0 90.667 -31 164.334 -93 221.001c-60 54.667 -136 82 -228 82c-124 0 -217 -43 -279 -129c-54.667 -75.333 -82 -177.666 -82 -306.999v-946h-90z" />
    <glyph glyph-name="C" unicode="C" horiz-adv-x="1012" 
d="M944 79l0.000976562 -79h-72c-240.667 -0 -431.334 58.333 -572.001 175c-152 125.333 -228 306 -228 542c0 236.667 75.333 417.667 226 543c140 116 330.667 174 572 174c36 0 60.667 -1 74 -3v-79c-21.333 1.33301 -50 2 -86 2c-210.667 0 -377 -52.667 -499 -158
c-128.667 -112 -193 -271.667 -193 -479c0 -208.667 65.333 -369 196 -481c122.667 -105.333 290 -158 502 -158h40c18 0.666992 31.333 1 40 1z" />
    <glyph glyph-name="D" unicode="D" horiz-adv-x="1266" 
d="M297 80l5 0.000976562c10 0 24.833 -0.666992 44.5 -2s34.5 -2 44.5 -2c215.333 0 385 51.667 509 155c133.333 111.333 200 272.666 200 483.999c0 135.333 -32.667 255.333 -98 360c-68.667 110.667 -164.667 188.667 -288 234c-84 30 -193 45 -327 45h-156v-1354h-90
v1432h236c113.333 0 208.833 -8.33301 286.5 -25s145.167 -42.667 202.5 -78c218.667 -135.333 328 -339.333 328 -612c0 -239.333 -77 -421.333 -231 -546c-142 -115.333 -335.333 -173 -580 -173c-42 0 -70.667 1 -86 3v79z" />
    <glyph glyph-name="E" unicode="E" 
d="M944 0h-59.001c-199.333 0 -350.333 28.667 -453 86c-114.667 64 -203.667 152.333 -267 265c-62 110 -93 232 -93 366c0 172 50 321.833 150 449.5s233.667 208.5 401 242.5c75.333 15.333 182.333 23 321 23v-80c-20 1.33301 -48 2 -84 2
c-197.333 0 -354.666 -46 -471.999 -138c-124 -97.333 -196.667 -242 -218 -434h774v-82h-776c11.333 -207.333 78.666 -364 201.999 -470c118 -101.333 282 -152 492 -152h41c18.667 0.666992 32.334 1 41.001 1v-79z" />
    <glyph glyph-name="F" unicode="F" horiz-adv-x="901" 
d="M133 0v977c0 303.333 153.667 455 461 455h217v-82h-240c-232 0 -348 -114.667 -348 -344v-248h588v-80h-588v-678h-90z" />
    <glyph glyph-name="G" unicode="G" horiz-adv-x="1583" 
d="M803 684v81.999h710v-16c0 -76 -7 -145.333 -21 -208c-36.667 -164 -120.5 -299.5 -251.5 -406.5s-280.167 -160.5 -447.5 -160.5c-202 0 -373 73.667 -513 221c-138.667 144.667 -208 318.334 -208 521.001c0 209.333 71.5 384.833 214.5 526.5
s319.167 212.5 528.5 212.5c202.667 0 383 -77 541 -231l-64 -58c-138 140.667 -295.667 211 -473 211c-184.667 0 -339.667 -63.5 -465 -190.5s-188 -283.167 -188 -468.5c0 -178 59.667 -331.333 179 -460c122 -132 271.333 -198 448 -198
c168.667 0 314.167 61.5 436.5 184.5s184.833 269.167 187.5 438.5h-614z" />
    <glyph glyph-name="H" unicode="H" horiz-adv-x="1233" 
d="M141 0v1432h90v-641h768v641h91v-1432h-91v711h-768v-711h-90z" />
    <glyph glyph-name="I" unicode="I" horiz-adv-x="389" 
d="M150 0v1432h90v-1432h-90z" />
    <glyph glyph-name="J" unicode="J" horiz-adv-x="807" 
d="M-4 82h246c228 0 342 117.333 342 352v998h90v-977c0 -303.333 -154.333 -455 -463 -455h-215v82z" />
    <glyph glyph-name="K" unicode="K" horiz-adv-x="1128" 
d="M141 0v1432h90v-646h220c96 0 173 24.333 231 73c49.333 41.333 94.333 110 135 206l156 367h96l-201 -461c-41.333 -94.667 -107.333 -160.334 -198 -197.001c248 -34.667 372 -191.667 372 -471v-303h-90v281c0 288 -129 432 -387 432h-334v-713h-90z" />
    <glyph glyph-name="L" unicode="L" horiz-adv-x="834" 
d="M133 1432h90v-998c0 -234.667 114 -352 342 -352h279v-82h-250c-307.333 0 -461 151.667 -461 455v977z" />
    <glyph glyph-name="M" unicode="M" horiz-adv-x="1698" 
d="M145 0h-90l174 1331c10 75.333 47 113 111 113c58 0 96.333 -32 115 -96l364 -1237c6.66699 -22 15 -33 25 -33s18 10.667 24 32l365 1238c18.667 64 57.667 96 117 96c62 0 98 -37.333 108 -112l174 -1332h-90l-174 1336c-2.66699 21.333 -10 32 -22 32
c-11.333 0 -20.333 -11.667 -27 -35l-358 -1216c-25.333 -86 -64.333 -129 -117 -129s-91.667 43 -117 129l-358 1216c-6.66699 23.333 -15.667 35 -27 35c-12 0 -19.333 -10.667 -22 -32z" />
    <glyph glyph-name="N" unicode="N" horiz-adv-x="1255" 
d="M141 0l-0.000976562 1319c0 36.667 10.167 66.667 30.5 90s48.5 35 84.5 35c52.667 0 94.334 -32.667 125.001 -98l590 -1266c6.66699 -14 15.334 -21 26.001 -21c18 0 27 11.667 27 35v1338h90v-1332c0 -36.667 -10.167 -66.667 -30.5 -90s-48.5 -35 -84.5 -35
c-52.667 0 -94.334 33 -125.001 99l-589 1267c-6.66699 14 -15.667 21 -27 21c-18 0 -27 -12.333 -27 -37v-1325h-90z" />
    <glyph glyph-name="O" unicode="O" horiz-adv-x="1583" 
d="M166 719c0 -178 59.667 -331.333 179 -460c122 -132 271.333 -198 448 -198c175.333 0 324 66.333 446 199c118.667 128.667 178 281.667 178 459c0 178 -59 331 -177 459c-121.333 130.667 -270.333 196 -447 196c-177.333 0 -327 -65.333 -449 -196
c-118.667 -127.333 -178 -280.333 -178 -459zM72 717c0 202 69.833 375.667 209.5 521s310.167 218 511.5 218c200 0 370.333 -73.333 511 -220c138 -144.667 207 -317.667 207 -519c0 -202 -69 -375.333 -207 -520c-140 -148 -310.333 -222 -511 -222
c-202 0 -373.333 73.333 -514 220c-138 144.667 -207 318.667 -207 522z" />
    <glyph glyph-name="P" unicode="P" horiz-adv-x="1057" 
d="M127 0l-0.00195312 963.004c0 147.333 38.333 265.333 115 354c81.333 92.667 194.666 139 339.999 139c120.667 0 222.834 -42.833 306.501 -128.5s125.5 -188.834 125.5 -309.501c0 -92.667 -27.167 -177.334 -81.5 -254.001s-125.166 -129.334 -212.499 -158.001
c-53.333 -17.333 -122.666 -26 -207.999 -26h-225v82h256c112.667 0 203 30.667 271 92c70.667 63.333 106 150.666 106 261.999c0 103.333 -32.5 188.5 -97.5 255.5s-148.833 100.5 -251.5 100.5c-122 0 -213.333 -42 -274 -126c-53.333 -73.333 -80 -173.333 -80 -300
v-946h-90z" />
    <glyph glyph-name="Q" unicode="Q" horiz-adv-x="1583" 
d="M786 -311v713.999h88v-335c162.667 24 294.334 97.667 395.001 221c98.667 120 148 263.333 148 430c0 178 -59 331 -177 459c-121.333 130.667 -270.333 196 -447 196c-174 0 -322 -63.667 -444 -191s-183 -278.666 -183 -453.999c0 -172 49.667 -318.667 149 -440
c102 -124.667 237.333 -199 406 -223v-84c-192 25.333 -348.5 105.5 -469.5 240.5s-181.5 299.167 -181.5 492.5c0 202 70.167 376 210.5 522s311.166 219 512.499 219c200 0 370.333 -73.333 511 -220c138 -144.667 207 -317.667 207 -519
c0 -192 -58.667 -355.333 -176 -490s-271 -217 -461 -247v-291h-88z" />
    <glyph glyph-name="R" unicode="R" horiz-adv-x="1114" 
d="M131 0l-0.00195312 923.999c0 356 148 534 444 534c116 0 214.333 -35.333 295 -106c84.667 -74 127 -168.333 127 -283c0 -164.667 -83 -277.334 -249 -338.001c185.333 -51.333 278 -177.666 278 -378.999v-352h-90v319c0 132 -32 226 -96 282
c-59.333 51.333 -156.333 77 -291 77h-254v80h233c114.667 0 205.834 28 273.501 84s101.5 129.667 101.5 221c0 94.667 -30 171.167 -90 229.5s-137.667 87.5 -233 87.5c-123.333 0 -215.666 -41 -276.999 -123c-54.667 -73.333 -82 -173.666 -82 -300.999v-956h-90z" />
    <glyph glyph-name="S" unicode="S" horiz-adv-x="1071" 
d="M86 0l0.000976562 86.001h338c136.667 0 238.667 13.667 306 41c104.667 42 157 120.333 157 235c0 68.667 -20.667 126 -62 172c-39.333 44 -149 101.5 -329 172.5s-292.667 132.833 -338 185.5c-48 55.333 -72 128 -72 218c0 214.667 151 322 453 322h360v-78h-385
c-225.333 0 -338 -79.333 -338 -238c0 -66.667 18.667 -121.334 56 -164.001c34.667 -40.667 113 -85 235 -133l142 -56c123.333 -48.667 209.666 -93.667 258.999 -135c78 -66 117 -152.333 117 -259c0 -128.667 -46 -224.667 -138 -288c-78.667 -54 -185 -81 -319 -81
h-442z" />
    <glyph glyph-name="T" unicode="T" horiz-adv-x="977" 
d="M39 1350v82h899v-82h-406v-1350h-90v1350h-403z" />
    <glyph glyph-name="U" unicode="U" horiz-adv-x="1204" 
d="M1075 1432l-0.000976562 -926c0 -154.667 -39.333 -280 -118 -376c-85.333 -103.333 -203.666 -155 -354.999 -155s-270 51.667 -356 155c-79.333 96 -119 221.333 -119 376v926h90v-891c0 -320 128.333 -480 385 -480c255.333 0 383 160 383 480v891h90z" />
    <glyph glyph-name="V" unicode="V" horiz-adv-x="1034" 
d="M-29 1432h90l420 -1329c8 -24.667 19.667 -37 35 -37c16 0 27.667 12 35 36l422 1330h90l-420 -1323c-28 -88 -70.333 -132 -127 -132c-55.333 0 -97 44 -125 132z" />
    <glyph glyph-name="W" unicode="W" horiz-adv-x="1835" 
d="M223 1432v-961c0 -272 108 -408 324 -408c216.667 0 325 136 325 408v961h91v-961c0 -272 108.333 -408 325 -408c216 0 324 136 324 408v961h90v-988c0 -134 -35 -243.333 -105 -328c-74.667 -90.667 -177.667 -136 -309 -136c-166.667 0 -290 77 -370 231
c-82 -154 -205.667 -231 -371 -231c-131.333 0 -234.333 45.333 -309 136c-70 84.667 -105 194 -105 328v988h90z" />
    <glyph glyph-name="X" unicode="X" horiz-adv-x="1233" 
d="M1208 0c-296.667 26.667 -493.997 171.333 -591.997 434c-96.667 -262.667 -293.667 -407.334 -591 -434.001v78c175.333 19.333 311.666 87 408.999 203c94 112 141 257.333 141 436s-47 324 -141 436c-96.667 115.333 -233 182.333 -409 201v78
c298 -26.667 495 -172.334 591 -437.001c100 264.667 297.333 410.334 592 437.001v-78c-176.667 -19.333 -313.334 -86.333 -410.001 -201c-94 -111.333 -141 -256.666 -141 -435.999c0 -178.667 47.333 -324 142 -436c97.333 -116 233.666 -183.667 408.999 -203v-78z" />
    <glyph glyph-name="Y" unicode="Y" horiz-adv-x="1081" 
d="M205 1432l-0.000976562 -336.001c0 -280 112 -420 336 -420s336 140 336 420v336h90v-361c0 -132 -30.667 -238.333 -92 -319c-65.333 -87.333 -161.666 -138.666 -288.999 -153.999v-598h-90v598c-254 34 -381 191.667 -381 473v361h90z" />
    <glyph glyph-name="Z" unicode="Z" horiz-adv-x="995" 
d="M952 82v-82h-770c-92.667 0 -139 34 -139 102c0 33.333 15.667 72.333 47 117l750 1069c8 11.333 12 22.333 12 33c0 20.667 -17 31 -51 31h-666v80h674c87.333 0 131 -35 131 -105c0 -32.667 -11 -64.667 -33 -96l-755 -1075c-11.333 -16 -17 -29.667 -17 -41
c0 -22 17.667 -33 53 -33h764z" />
    <glyph glyph-name="bracketleft" unicode="[" horiz-adv-x="561" 
d="M467 -317v-58h-295v1807h295v-58h-209v-1691h209z" />
    <glyph glyph-name="backslash" unicode="\" horiz-adv-x="557" 
d="M-23 1456h91l544 -1646h-90z" />
    <glyph glyph-name="bracketright" unicode="]" horiz-adv-x="561" 
d="M94 -317h209v1691h-209v58h295v-1807h-295v58z" />
    <glyph glyph-name="asciicircum" unicode="^" horiz-adv-x="2048" 
d="M1081 1458l541 -557h-125l-473 469l-475 -469h-125l539 557h118z" />
    <glyph glyph-name="underscore" unicode="_" 
d="M1024 -403v-80h-1024v80h1024z" />
    <glyph glyph-name="grave" unicode="`" 
d="M633 1081h-80l-268 351h133z" />
    <glyph glyph-name="a" unicode="a" horiz-adv-x="1157" 
d="M954 0l0.000976562 434.003c0 135.333 -32 245.666 -96 330.999c-71.333 96 -172.333 144 -303 144c-118 0 -215 -41.667 -291 -125c-73.333 -80.667 -110 -180.334 -110 -299.001c0 -120.667 36.333 -220.667 109 -300c75.333 -82.667 172.666 -124 291.999 -124
c126.667 0 238 54 334 162v-110c-95.333 -87.333 -206.666 -131 -333.999 -131c-140.667 0 -257.334 48.167 -350.001 144.5s-139 215.166 -139 356.499c0 144 44.667 263 134 357c91.333 96.667 208.333 145 351 145c113.333 0 214.333 -34.833 303 -104.5
s144.667 -159.5 168 -269.5c10.667 -50.667 16 -111.667 16 -183v-428h-84z" />
    <glyph glyph-name="b" unicode="b" horiz-adv-x="1157" 
d="M119 1432l81.999 -0.000976562v-900c0 -134.667 32.333 -245 97 -331c72 -96 173.333 -144 304 -144c118 0 215 41.667 291 125c74 80.667 111 180.334 111 299.001c0 120.667 -36.667 220.667 -110 300c-75.333 82.667 -172.666 124 -291.999 124
c-128 0 -239.333 -54 -334 -162v111c96.667 87.333 208 131 334 131c141.333 0 258 -48.167 350 -144.5s138 -215.5 138 -357.5c0 -143.333 -44.667 -262 -134 -356c-91.333 -96.667 -208 -145 -350 -145c-184 0 -324 79.667 -420 239c-44.667 74 -67 180 -67 318v893z" />
    <glyph glyph-name="c" unicode="c" horiz-adv-x="782" 
d="M737 891l-89.999 -0.000976562c-130.667 0 -238.667 -34.667 -324 -104c-92.667 -75.333 -139 -176.666 -139 -303.999c0 -126.667 46.333 -227.667 139 -303c86 -69.333 194 -104 324 -104h90v-76h-73c-162.667 0 -295.334 38.667 -398.001 116
c-113.333 86.667 -170 209 -170 367c0 110 33.333 207.667 100 293s153.667 142 261 170c54 14 123 21 207 21h73v-76z" />
    <glyph glyph-name="d" unicode="d" horiz-adv-x="1157" 
d="M954 1432l83.998 0.00292969v-893c0 -72 -5.33301 -133 -16 -183c-23.333 -110 -79.333 -199.833 -168 -269.5s-189.667 -104.5 -303 -104.5c-142.667 0 -259.167 47.667 -349.5 143s-135.5 214.666 -135.5 357.999c0 141.333 46.333 260.333 139 357
s209.334 145 350.001 145c124.667 0 236 -43.667 334 -131v-111c-94.667 108 -206 162 -334 162c-119.333 0 -216.666 -41.333 -291.999 -124c-72.667 -79.333 -109 -179.333 -109 -300c0 -118.667 36.667 -218.334 110 -299.001c76 -83.333 173 -125 291 -125
c130.667 0 231.667 48 303 144c64 85.333 96 195.666 96 330.999v900z" />
    <glyph glyph-name="e" unicode="e" horiz-adv-x="1104" 
d="M1042 471c-8 -140 -55.6611 -255.666 -142.994 -346.999c-90.667 -94.667 -205.334 -142 -344.001 -142c-136.667 0 -252.334 49.167 -347.001 147.5s-142 216.166 -142 353.499c0 139.333 47.667 257.833 143 355.5s212.666 146.5 351.999 146.5
c178 0 315.333 -80.667 412 -242l-674 -450l-39 65l598 400c-74.667 102 -174.334 153 -299.001 153c-116.667 0 -213.667 -42.333 -291 -127c-76 -82 -114 -181.667 -114 -299c0 -116.667 37.333 -216 112 -298c77.333 -84 173.666 -126 288.999 -126
s209.666 40 282.999 120c69.333 76 108 172.667 116 290h88z" />
    <glyph glyph-name="f" unicode="f" horiz-adv-x="604" 
d="M131 0v1094c0 225.333 127.667 338 383 338h90v-78h-104c-191.333 0 -287 -89.667 -287 -269v-118h391v-80h-391v-887h-82z" />
    <glyph glyph-name="g" unicode="g" horiz-adv-x="1157" 
d="M1038 39c0 -150 -40.9961 -269.331 -122.996 -357.998c-84.667 -92 -201.334 -138 -350.001 -138c-80.667 0 -178.334 18.667 -293.001 56l29 84c113.333 -37.333 202.666 -56 267.999 -56c123.333 0 219 38.333 287 115c65.333 73.333 98 172.333 98 297v395
c0 134.667 -32 245 -96 331c-71.333 96 -172.333 144 -303 144c-117.333 0 -214 -41.667 -290 -125c-74 -80.667 -111 -180.334 -111 -299.001c0 -120.667 36.333 -220.667 109 -300c75.333 -82.667 172.666 -124 291.999 -124c126.667 0 238 54 334 162v-110
c-95.333 -87.333 -206.666 -131 -333.999 -131c-140.667 0 -257.334 48.167 -350.001 144.5s-139 215.166 -139 356.499c0 144 44.667 263 134 357c91.333 96.667 208.333 145 351 145c113.333 0 214.333 -34.833 303 -104.5s144.667 -159.5 168 -269.5
c10.667 -50.667 16 -111.667 16 -183v-389z" />
    <glyph glyph-name="h" unicode="h" horiz-adv-x="1038" 
d="M133 0l0.000976562 1432h82v-637c78 128 188 192 330 192c122 0 216.333 -42.333 283 -127c61.333 -76.667 92 -177.667 92 -303v-557h-82v573c0 93.333 -25 171 -75 233c-54.667 67.333 -127.334 101 -218.001 101c-102 0 -183.667 -38.667 -245 -116
c-56.667 -71.333 -85 -159.666 -85 -264.999v-526h-82z" />
    <glyph glyph-name="i" unicode="i" horiz-adv-x="350" 
d="M133 0v967h84v-967h-84zM115 1239c0 39.333 19.667 59 59 59c41.333 0 62 -19.667 62 -59c0 -40.667 -20.667 -61 -62 -61c-39.333 0 -59 20.333 -59 61z" />
    <glyph glyph-name="j" unicode="j" horiz-adv-x="352" 
d="M117 1239c0 39.333 20.333 59 61 59c40 0 60 -19.667 60 -59c0 -40.667 -20 -61 -60 -61c-16.667 0 -31 6 -43 18s-18 26.333 -18 43zM219 967v-1065c0 -225.333 -123 -338 -369 -338h-57v78c118.667 0 201.667 14.333 249 43c63.333 38.667 95 113.667 95 225v1057h82z
" />
    <glyph glyph-name="k" unicode="k" horiz-adv-x="903" 
d="M133 0v1432h84v-865h94c66 0 120.667 15 164 45c34 24 72.333 67 115 129l155 226h95l-158 -244c-51.333 -79.333 -101.333 -133.333 -150 -162c186 -24 279 -125.667 279 -305v-256h-82v227c0 176.667 -82 265 -246 265h-266v-492h-84z" />
    <glyph glyph-name="l" unicode="l" horiz-adv-x="350" 
d="M133 0v1432h84v-1432h-84z" />
    <glyph glyph-name="m" unicode="m" horiz-adv-x="1569" 
d="M121 0v592.001c0 117.333 29.667 211 89 281c62.667 74.667 151.667 112 267 112c132.667 0 235 -62.667 307 -188c75.333 125.333 178 188 308 188c115.333 0 204.666 -37.333 267.999 -112c60 -70.667 90 -164.334 90 -281.001v-592h-84v618
c0 84 -23.667 152.667 -71 206c-50 56.667 -116.333 85 -199 85c-83.333 0 -150 -28 -200 -84c-47.333 -53.333 -71 -122.333 -71 -207v-618h-82v618c0 84 -23.667 153 -71 207c-49.333 56 -115.666 84 -198.999 84c-82.667 0 -149 -28.333 -199 -85
c-47.333 -53.333 -71 -122 -71 -206v-618h-82z" />
    <glyph glyph-name="n" unicode="n" 
d="M201 0h-82.002v547c0 128 33 231.667 99 311c70.667 84.667 168.667 127 294 127s223.333 -42.333 294 -127c66 -79.333 99 -183 99 -311v-547h-82v573c0 96.667 -27.333 176 -82 238c-57.333 65.333 -133.666 98 -228.999 98s-171.666 -32.667 -228.999 -98
c-54.667 -62 -82 -141.333 -82 -238v-573z" />
    <glyph glyph-name="o" unicode="o" horiz-adv-x="1110" 
d="M66 483c0 137.333 47.332 255.334 141.999 354.001s210.334 148 347.001 148c137.333 0 253.333 -49.667 348 -149c92.667 -97.333 139 -215 139 -353s-46.833 -256 -140.5 -354s-209.167 -147 -346.5 -147c-136.667 0 -252.667 49.667 -348 149
c-94 97.333 -141 214.666 -141 351.999zM153.999 485.001c0 -116.667 37.332 -216 111.999 -298c77.333 -84 173.666 -126 288.999 -126c114.667 0 210.334 42.333 287.001 127c74.667 82 112 181 112 297c0 116.667 -37 215.667 -111 297
c-76.667 84.667 -172.667 127 -288 127s-211.666 -42 -288.999 -126c-74.667 -82 -112 -181.333 -112 -298z" />
    <glyph glyph-name="p" unicode="p" horiz-adv-x="1157" 
d="M201 -436l-82 -0.000976562v864c0 137.333 22.333 243 67 317c96 160 236 240 420 240c142.667 0 259 -47.833 349 -143.5s135 -215.167 135 -358.5c0 -141.333 -45.667 -260 -137 -356c-93.333 -96.667 -210.333 -145 -351 -145
c-127.333 0 -238.666 43.667 -333.999 131v110c96 -108 207.333 -162 334 -162c119.333 0 216.666 41.333 291.999 124c73.333 79.333 110 179.333 110 300c0 118.667 -37 218.334 -111 299.001c-76 83.333 -173 125 -291 125c-130.667 0 -232 -48 -304 -144
c-64.667 -86 -97 -196.333 -97 -331v-870z" />
    <glyph glyph-name="q" unicode="q" horiz-adv-x="1157" 
d="M954 -436l0.000976562 870.003c0 135.333 -32 245.666 -96 330.999c-71.333 96 -172.333 144 -303 144c-118 0 -215 -41.667 -291 -125c-73.333 -80.667 -110 -180.334 -110 -299.001c0 -120.667 36.333 -220.667 109 -300c75.333 -82.667 172.666 -124 291.999 -124
c126.667 0 238 54 334 162v-110c-95.333 -87.333 -206.666 -131 -333.999 -131c-140.667 0 -257.334 48.167 -350.001 144.5s-139 215.166 -139 356.499c0 144 44.667 263 134 357c91.333 96.667 208.333 145 351 145c113.333 0 214.333 -34.833 303 -104.5
s144.667 -159.5 168 -269.5c10.667 -50.667 16 -111.667 16 -183v-864h-84z" />
    <glyph glyph-name="r" unicode="r" horiz-adv-x="602" 
d="M133 0l0.00195312 967h82v-189c78 128.667 190.667 193 338 193c14.667 0 33.667 -1.66699 57 -5v-81h-3c-8 0 -19.333 0.666992 -34 2s-25.334 2 -32.001 2c-100.667 0 -181.334 -38.333 -242.001 -115c-56 -70.667 -84 -158 -84 -262v-512h-82z" />
    <glyph glyph-name="s" unicode="s" horiz-adv-x="877" 
d="M70 80h419c154.667 0 232 54 232 162c0 82.667 -56 144 -168 184l-313 93c-112 47.333 -168 121.333 -168 222c0 150.667 101.667 226 305 226h356v-78h-387c-126.667 0 -190 -50.667 -190 -152c0 -70 56 -124 168 -162l313 -96c112 -51.333 168 -128.333 168 -231
c0 -165.333 -125.667 -248 -377 -248h-358v80z" />
    <glyph glyph-name="t" unicode="t" horiz-adv-x="602" 
d="M121 1241h84v-274h342v-80h-342v-541c0 -178.667 94.667 -268 284 -268h58v-78h-43c-255.333 0 -383 112.667 -383 338v903z" />
    <glyph glyph-name="u" unicode="u" 
d="M821 967h84.001v-547c0 -128 -33 -231.667 -99 -311c-70 -84.667 -168 -127 -294 -127s-224 42.333 -294 127c-66 79.333 -99 183 -99 311v547h82v-574c0 -96.667 27.333 -176 82 -238c57.333 -65.333 133.666 -98 228.999 -98s171.333 32.667 228 98
c54 62 81 141.333 81 238v574z" />
    <glyph glyph-name="v" unicode="v" horiz-adv-x="891" 
d="M6 967h90.002l314 -848c11.333 -30 22.666 -45 33.999 -45c14 0 26.333 14.667 37 44l314 849h90l-332 -889c-24.667 -65.333 -60.334 -98 -107.001 -98c-47.333 0 -83.333 32.667 -108 98z" />
    <glyph glyph-name="w" unicode="w" horiz-adv-x="1569" 
d="M1450 967l-0.000976562 -591.999c0 -116.667 -30 -210.334 -90 -281.001c-63.333 -74.667 -152.666 -112 -267.999 -112c-130 0 -232.667 62.667 -308 188c-74 -125.333 -176.333 -188 -307 -188c-115.333 0 -204.666 37.333 -267.999 112
c-58.667 70 -88 163.667 -88 281v592h82v-617c0 -84 23.667 -153 71 -207c50 -57.333 116.333 -86 199 -86s149 28.333 199 85c47.333 54.667 71 124 71 208v617h82v-617c0 -84 24 -153.333 72 -208c49.333 -56.667 115.666 -85 198.999 -85c82.667 0 149 28.667 199 86
c47.333 54 71 123 71 207v617h84z" />
    <glyph glyph-name="x" unicode="x" horiz-adv-x="872" 
d="M851 0c-191.333 6.66699 -329.667 100.333 -415 281c-80 -179.333 -219.333 -273 -418 -281v76c114.667 12 206.167 54.167 274.5 126.5s102.5 165.833 102.5 280.5c0 115.333 -34 209.666 -102 282.999s-159.667 115.666 -275 126.999l1 74
c194 -6.66699 333 -101 417 -283c80 180.667 218.667 275 416 283v-74c-114.667 -11.333 -206.167 -53.666 -274.5 -126.999s-102.5 -167.666 -102.5 -282.999c0 -114.667 34.167 -208.167 102.5 -280.5s159.833 -114.5 274.5 -126.5z" />
    <glyph glyph-name="y" unicode="y" 
d="M821 967l84.001 -0.000976562v-547c0 -259.333 -117.333 -404.666 -352 -435.999v-420h-84v420c-233.333 34.667 -350 180 -350 436v547h82v-574c0 -96.667 27.333 -176 82 -238c57.333 -65.333 133.666 -98 228.999 -98s171.333 32.667 228 98c54 62 81 141.333 81 238
v574z" />
    <glyph glyph-name="z" unicode="z" horiz-adv-x="807" 
d="M150 109c0 -16.667 14.333 -24.999 43 -24.999h567v-84h-584c-82 0 -123 32 -123 96c0 27.333 17 61.666 51 102.999l527 639c8 10 12 18.667 12 26c0 16.667 -12.333 25 -37 25h-504v78h497c89.333 0 134 -30 134 -90c0 -31.333 -14.333 -64.333 -43 -99l-524 -635
c-10.667 -12.667 -16 -24 -16 -34z" />
    <glyph glyph-name="braceleft" unicode="{" 
d="M848 1389c-114.667 0 -187.835 -17.334 -219.502 -52.001s-47.5 -114 -47.5 -238c0 -21.333 0.5 -54 1.5 -98s1.5 -77.333 1.5 -100c0 -127.333 -14.833 -215.666 -44.5 -264.999s-80.5 -84.666 -152.5 -105.999c72 -21.333 122.833 -56.333 152.5 -105
s44.5 -137.334 44.5 -266.001c0 -22 -0.5 -55.167 -1.5 -99.5s-1.5 -76.833 -1.5 -97.5c0 -124 15.833 -203 47.5 -237s104.834 -51 219.501 -51v-88h-43c-134 0 -223.667 30 -269 90c-38 50.667 -57 145.667 -57 285v240c0 105.333 -19.333 179.333 -58 222
c-27.333 30 -65.333 49 -114 57c-22 3.33301 -65.667 5 -131 5v90c13.333 -1.33301 29.666 -2 48.999 -2c96.667 0 164.334 24.333 203.001 73c34 42.667 51 114 51 214v240c0 151.333 22.833 252 68.5 302s145.834 75 300.501 75v-88z" />
    <glyph glyph-name="bar" unicode="|" 
d="M557 1565v-2048h-90v2048h90z" />
    <glyph glyph-name="braceright" unicode="}" 
d="M848 575v-89.9961c-4.66699 0 -12 0.333008 -22 1s-17.667 1 -23 1c-98 0 -166.667 -23.667 -206 -71c-34.667 -42.667 -52 -114.334 -52 -215.001v-240c0 -150.667 -22.833 -250.834 -68.5 -300.501s-145.834 -74.5 -300.501 -74.5v88c114.667 0 187.834 17 219.501 51
s47.5 112.667 47.5 236c0 20.667 -0.5 52.834 -1.5 96.501s-1.5 76.5 -1.5 98.5c0 129.333 15 218.666 45 267.999s81.333 84.666 154 105.999c-72.667 21.333 -124 56.666 -154 105.999s-45 138.333 -45 267c0 22 0.5 55 1.5 99s1.5 76.333 1.5 97
c0 124 -16 203.333 -48 238s-105 52 -219 52v88h43c134 0 223.667 -30.333 269 -91c38 -50.667 57 -146 57 -286v-240c0 -105.333 19.333 -179.333 58 -222c27.333 -30.667 65.333 -50 114 -58c22 -3.33301 65.667 -5 131 -5z" />
    <glyph glyph-name="asciitilde" unicode="~" horiz-adv-x="1706" 
d="M1530 647c-140.667 -98 -269.664 -147 -386.997 -147c-66.667 0 -163.334 23.5 -290.001 70.5s-222.667 70.5 -288 70.5c-107.333 0 -236.333 -53.333 -387 -160v92c138 97.333 267 146 387 146c67.333 0 164.166 -23.167 290.499 -69.5s222.166 -69.5 287.499 -69.5
c106.667 0 235.667 53 387 159v-92z" />
    <glyph glyph-name="euro" horiz-adv-x="1096" 
d="M1049 0l-71.998 0.00195312c-212.667 0 -385.334 48 -518.001 144c-144.667 105.333 -229.334 260 -254.001 464h-182l16 58h162c0 5.33301 -0.333008 13.666 -1 24.999s-1 20 -1 26c0 20.667 1 48 3 82h-179l16 57h170c30 198 116.667 345.667 260 443
c128.667 88.667 297.334 133 506.001 133h74v-80h-86c-387.333 0 -608 -165.333 -662 -496h653l-16 -57l-643 -1c-2.66699 -28.667 -4 -55.667 -4 -81c0 -23.333 0.666992 -40.333 2 -51h608l-16 -58h-586c25.333 -172.667 100.333 -305.334 225 -398.001
c117.333 -86.667 265.666 -130 444.999 -130h80v-80z" />
    <glyph glyph-name="nonbreakingspace" unicode="&#xa0;" horiz-adv-x="1096" 
 />
    <glyph glyph-name="exclamdown" unicode="&#xa1;" horiz-adv-x="547" 
d="M317 1159v-1169h-86v1169h86zM350 1378c0 -50 -25.333 -74.999 -76 -74.999c-21.333 0 -39.5 7.16699 -54.5 21.5s-22.5 32.166 -22.5 53.499c0 22 7.33301 40.5 22 55.5s33 22.5 55 22.5s40.167 -7.5 54.5 -22.5s21.5 -33.5 21.5 -55.5z" />
    <glyph glyph-name="cent" unicode="&#xa2;" horiz-adv-x="1096" 
d="M465 80l-0.000976562 329c-110.667 1.33301 -201.667 34.333 -273 99c-73.333 67.333 -110 156 -110 266c0 109.333 37 198 111 266c71.333 66 162 99 272 99v293h80v-293h168v-76c-180.667 0 -298 -7.66699 -352 -23c-126 -36 -189 -121.333 -189 -256
c0 -120.667 42.667 -203 128 -247c58.667 -30.667 152.334 -46 281.001 -46h67c29.333 0.666992 51 1 65 1v-82h-168v-330h-80z" />
    <glyph glyph-name="sterling" unicode="&#xa3;" horiz-adv-x="1096" 
d="M621 86c211.333 0 317.002 131.666 317.002 394.999v70h78v-88c0 -141.333 -31 -251.666 -93 -330.999c-68.667 -88 -171.667 -132 -309 -132h-639v86h60c76.667 0 135.667 29.333 177 88c36 51.333 54 117 54 197v348h-127v84h127v170c0 141.333 32.667 255 98 341
c73.333 96 178.666 144 315.999 144c72 0 141.667 -13 209 -39l-25 -69c-66.667 20 -127.334 30 -182.001 30c-104.667 0 -185.667 -35.333 -243 -106c-52.667 -64.667 -79 -150.667 -79 -258v-213h252v-84h-252v-336c0 -144 -45.667 -243 -137 -297h398z" />
    <glyph glyph-name="currency" unicode="&#xa4;" horiz-adv-x="1096" 
d="M1049 0l-71.998 0.00195312c-212.667 0 -385.334 48 -518.001 144c-144.667 105.333 -229.334 260 -254.001 464h-182l16 58h162c0 5.33301 -0.333008 13.666 -1 24.999s-1 20 -1 26c0 20.667 1 48 3 82h-179l16 57h170c30 198 116.667 345.667 260 443
c128.667 88.667 297.334 133 506.001 133h74v-80h-86c-387.333 0 -608 -165.333 -662 -496h653l-16 -57l-643 -1c-2.66699 -28.667 -4 -55.667 -4 -81c0 -23.333 0.666992 -40.333 2 -51h608l-16 -58h-586c25.333 -172.667 100.333 -305.334 225 -398.001
c117.333 -86.667 265.666 -130 444.999 -130h80v-80z" />
    <glyph glyph-name="yen" unicode="&#xa5;" horiz-adv-x="895" 
d="M410 0l0.00195312 598c-28.667 12.667 -49.334 36 -62.001 70h-348v57h322l-58 133h-264v57h240l-222 517h84l304 -706c13.333 -29.333 27.666 -44 42.999 -44c14 0 27.667 15.333 41 46l305 704h82l-222 -517h240v-57h-264l-60 -133h324v-57h-348
c-16.667 -34 -36.667 -57.333 -60 -70v-598h-77z" />
    <glyph glyph-name="brokenbar" unicode="&#xa6;" 
d="M557 408v-758h-90v758h90zM557 1432v-758h-90v758h90z" />
    <glyph glyph-name="section" unicode="&#xa7;" horiz-adv-x="1071" 
d="M154 -139l-0.000976562 86.002c48.667 0 122 -0.333008 220 -1s171.333 -1 220 -1c66 0 116 5.33301 150 16c49.333 16 88 46.667 116 92c19.333 32.667 29 68.334 29 107.001c0 59.333 -22 108.666 -66 147.999c-30.667 27.333 -79.667 54.333 -147 81l-273 107
c-166 65.333 -249 159.333 -249 282c0 70.667 25.667 139 77 205c-46 51.333 -69 112.666 -69 183.999c0 57.333 15.333 109 46 155s72.667 77.667 126 95c34.667 11.333 91.334 17 170.001 17h325v-80c-36.667 0 -91.334 0.333008 -164.001 1s-127 1 -163 1
c-43.333 0 -76.666 -2 -99.999 -6c-47.333 -9.33301 -86 -30 -116 -62c-32 -34 -48 -74.333 -48 -121c0 -54.667 20.667 -98.667 62 -132c22.667 -18.667 68 -42 136 -70l266 -111c78 -32.667 135.333 -67 172 -103c48 -48 72 -108.667 72 -182c0 -68 -24.667 -134 -74 -198
c70 -56.667 105 -130.334 105 -221.001c0 -70 -22 -130.667 -66 -182s-100.667 -84 -170 -98c-30 -6 -70.667 -9 -122 -9h-465zM292.999 944.002c-42.667 -50.667 -64 -104.667 -64 -162c0 -92 61.667 -161.667 185 -209l266 -102c34 -12.667 77 -33 129 -61
c36.667 48.667 55 99 55 151c0 58.667 -20 107 -60 145c-29.333 28 -76 54.667 -140 80l-228 91c-33.333 12 -81 34.333 -143 67z" />
    <glyph glyph-name="dieresis" unicode="&#xa8;" 
d="M608 1237c0 20.667 7.50098 38.832 22.501 54.499s32.833 23.5 53.5 23.5c21.333 0 39.666 -7.66699 54.999 -23s23 -33.666 23 -54.999c0 -52 -26 -78 -78 -78c-50.667 0 -76 26 -76 78zM262.001 1237c0 20.667 7.50098 38.832 22.501 54.499s32.833 23.5 53.5 23.5
c21.333 0 39.666 -7.66699 54.999 -23s23 -33.666 23 -54.999c0 -52 -26 -78 -78 -78c-50.667 0 -76 26 -76 78z" />
    <glyph glyph-name="copyright" unicode="&#xa9;" horiz-adv-x="1706" 
d="M1081 918c-28 114.667 -103.669 171.999 -227.002 171.999c-94.667 0 -165 -40.333 -211 -121c-36.667 -64 -55 -147.333 -55 -250c0 -98.667 19 -180.667 57 -246c46.667 -79.333 116.334 -119 209.001 -119c60.667 0 112.667 17.333 156 52s71.333 81.667 84 141h102
c-8 -87.333 -46.667 -156.666 -116 -207.999c-64.667 -47.333 -142 -71 -232 -71c-124.667 0 -220.667 46.667 -288 140c-59.333 82 -89 187.667 -89 317c0 128 32 233.333 96 316c70.667 90 168.334 135 293.001 135c83.333 0 155 -22 215 -66
c64.667 -47.333 101.667 -111.333 111 -192h-105zM1511 720.999c0 183.333 -64 339 -192 467s-283.667 192 -467 192c-181.333 0 -336.166 -64.5 -464.499 -193.5s-192.5 -284.167 -192.5 -465.5c0 -179.333 64.667 -333.833 194 -463.5s283.666 -194.5 462.999 -194.5
c181.333 0 336.5 64.333 465.5 193s193.5 283.667 193.5 465zM851.998 1452c204 0 376.833 -70.833 518.5 -212.5s212.5 -314.5 212.5 -518.5c0 -100 -17.667 -193.333 -53 -280c-55.333 -133.333 -146 -241.833 -272 -325.5s-261.333 -125.5 -406 -125.5
c-199.333 0 -370.666 72 -513.999 216s-215 315.667 -215 515c0 202 71.167 374.333 213.5 517s314.166 214 515.499 214z" />
    <glyph glyph-name="ordfeminine" unicode="&#xaa;" horiz-adv-x="868" 
d="M717 756v303c0 102 -27.333 183.167 -82 243.5s-127.667 90.5 -219 90.5c-85.333 0 -156.833 -28.167 -214.5 -84.5s-86.5 -127.166 -86.5 -212.499c0 -86.667 28.5 -157.834 85.5 -213.501s128.833 -83.5 215.5 -83.5c94.667 0 178.667 37.333 252 112v-75
c-71.333 -62 -155.333 -93 -252 -93c-102.667 0 -189 32.667 -259 98c-72 66.667 -108 151 -108 253c0 103.333 35.333 188 106 254c68.667 65.333 155 98 259 98c136.667 0 241.667 -56 315 -168c32.667 -50 49 -124.333 49 -223v-299h-61z" />
    <glyph glyph-name="guillemotleft" unicode="&#xab;" horiz-adv-x="874" 
d="M793 172h-97l-237 317l237 318h97l-240 -318zM475 172h-94l-240 317l240 318h94l-237 -318z" />
    <glyph glyph-name="logicalnot" unicode="&#xac;" horiz-adv-x="1706" 
d="M1452 856v-502h-78v420h-1120v82h1198z" />
    <glyph glyph-name="sfthyphen" unicode="&#xad;" horiz-adv-x="676" 
d="M141 455v82h394v-82h-394z" />
    <glyph glyph-name="registered" unicode="&#xae;" horiz-adv-x="1706" 
d="M852 1077h-168v-313h168c81.333 0 139 7.33301 173 22c54 24 81 70.667 81 140c0 100.667 -84.667 151 -254 151zM874 1155c232.667 0 349 -77.668 349 -233.001c0 -60.667 -18.667 -110.667 -56 -150s-86.333 -62.666 -147 -69.999l190 -393h-131l-182 377h-213v-377
h-115v846h305zM1511 720.999c0 183.333 -64 339 -192 467s-283.667 192 -467 192c-181.333 0 -336.166 -64.5 -464.499 -193.5s-192.5 -284.167 -192.5 -465.5c0 -179.333 64.667 -333.833 194 -463.5s283.666 -194.5 462.999 -194.5c181.333 0 336.5 64.333 465.5 193
s193.5 283.667 193.5 465zM852 1452c204 0 376.833 -70.833 518.5 -212.5s212.5 -314.5 212.5 -518.5c0 -100 -17.667 -193.333 -53 -280c-55.333 -133.333 -146 -241.833 -272 -325.5s-261.333 -125.5 -406 -125.5c-199.333 0 -370.666 72 -513.999 216
s-215 315.667 -215 515c0 202 71.167 374.333 213.5 517s314.166 214 515.499 214z" />
    <glyph glyph-name="macron" unicode="&#xaf;" 
d="M266 1188v100h492v-100h-492z" />
    <glyph glyph-name="macron" unicode="&#x2c9;" 
d="M266 1188v100h492v-100h-492z" />
    <glyph glyph-name="degree" unicode="&#xb0;" horiz-adv-x="674" 
d="M551 1176c0 58.667 -20.8301 108.833 -62.4971 150.5s-91.834 62.5 -150.501 62.5c-60 0 -110.5 -20.5 -151.5 -61.5s-61.5 -91.5 -61.5 -151.5c0 -59.333 20.667 -109.666 62 -150.999s91.666 -62 150.999 -62s109.666 20.667 150.999 62s62 91.666 62 150.999z
M338.003 1450c75.333 0 139.499 -26.8311 192.499 -80.498s79.5 -118.167 79.5 -193.5c0 -76.667 -26.5 -141.334 -79.5 -194.001s-117.833 -79 -194.5 -79c-77.333 0 -142.166 26.167 -194.499 78.5s-78.5 117.166 -78.5 194.499c0 76.667 26.667 141.5 80 194.5
s118.333 79.5 195 79.5z" />
    <glyph glyph-name="plusminus" unicode="&#xb1;" horiz-adv-x="1706" 
d="M1452 141v-82h-1198v82h1198zM893 1161v-354h559v-80h-559v-352h-80v352h-559v80h559v354h80z" />
    <glyph glyph-name="twosuperior" unicode="&#xb2;" horiz-adv-x="723" 
d="M672 573h-502c-72.667 0 -109 20 -109 60c0 25.333 22 54 66 86l346 254c90 66 135 138.333 135 217c0 64.667 -24 116.667 -72 156c-45.333 36.667 -101 55 -167 55s-122.333 -18.667 -169 -56c-50 -40 -75 -92.333 -75 -157c0 -134.667 86 -206.334 258 -215.001
l-51 -39c-76 10.667 -137 34.667 -183 72c-54 44 -81 102 -81 174c0 81.333 30.333 147.333 91 198c56.667 46.667 126.667 70 210 70c81.333 0 150 -22.333 206 -67c60.667 -48 91 -111.667 91 -191c0 -93.333 -58 -182.666 -174 -267.999l-347 -256
c-10.667 -8 -16 -16.333 -16 -25c0 -13.333 10.333 -20 31 -20h512v-48z" />
    <glyph glyph-name="threesuperior" unicode="&#xb3;" horiz-adv-x="723" 
d="M82 573v47.999h270c165.333 0 248 68.667 248 206c0 62 -20.333 111 -61 147s-96 54 -166 54h-185v35l326 287c10.667 9.33301 16 17.333 16 24c0 8 -10 12 -30 12h-406v46h420c53.333 0 80 -17.333 80 -52c0 -15.333 -7.66699 -29.666 -23 -42.999l-299 -262h86
c202.667 0 304 -82.667 304 -248c0 -86.667 -31 -152 -93 -196c-54.667 -38.667 -127 -58 -217 -58h-270z" />
    <glyph glyph-name="acute" unicode="&#xb4;" 
d="M391 1081l215 351h133l-268 -351h-80z" />
    <glyph glyph-name="mu" unicode="&#xb5;" horiz-adv-x="1094" 
d="M326 1063l-123.001 -590.001c-11.333 -54.667 -17 -101.667 -17 -141c0 -172 78 -258 234 -258c175.333 0 294 140.667 356 422l125 567h121l-166 -786c-16.667 -78.667 -25 -124 -25 -136c0 -47.333 35.667 -67.666 107 -60.999l-18 -96
c-32 -8.66699 -57.333 -13 -76 -13c-88.667 0 -133 42.333 -133 127c0 12.667 1.33301 27.667 4 45c-59.333 -114.667 -163.333 -172 -312 -172c-137.333 0 -228.666 57.333 -273.999 172l-119 -567h-121l316 1487h121z" />
    <glyph glyph-name="mu" unicode="&#x3bc;" horiz-adv-x="1094" 
d="M326 1063l-123.001 -590.001c-11.333 -54.667 -17 -101.667 -17 -141c0 -172 78 -258 234 -258c175.333 0 294 140.667 356 422l125 567h121l-166 -786c-16.667 -78.667 -25 -124 -25 -136c0 -47.333 35.667 -67.666 107 -60.999l-18 -96
c-32 -8.66699 -57.333 -13 -76 -13c-88.667 0 -133 42.333 -133 127c0 12.667 1.33301 27.667 4 45c-59.333 -114.667 -163.333 -172 -312 -172c-137.333 0 -228.666 57.333 -273.999 172l-119 -567h-121l316 1487h121z" />
    <glyph glyph-name="paragraph" unicode="&#xb6;" 
d="M932 1415l-129.001 -0.000976562v-1415h-70v1415h-192v-1415h-70v782c-110 4.66699 -199.333 36 -268 94c-75.333 62.667 -113 147.334 -113 254.001c0 110.667 39 197.667 117 261c72.667 58.667 165.334 88 278.001 88h447v-64z" />
    <glyph glyph-name="ch270" unicode="&#xb7;" horiz-adv-x="547" 
d="M197 735c0 21.333 7.5 39.333 22.5 54s33.167 22 54.5 22c50.667 0 76 -25.333 76 -76c0 -21.333 -7.33301 -39.666 -22 -54.999s-32.667 -23 -54 -23s-39.5 7.66699 -54.5 23s-22.5 33.666 -22.5 54.999z" />
    <glyph glyph-name="ch270" unicode="&#x2219;" horiz-adv-x="547" 
d="M197 735c0 21.333 7.5 39.333 22.5 54s33.167 22 54.5 22c50.667 0 76 -25.333 76 -76c0 -21.333 -7.33301 -39.666 -22 -54.999s-32.667 -23 -54 -23s-39.5 7.66699 -54.5 23s-22.5 33.666 -22.5 54.999z" />
    <glyph glyph-name="cedilla" unicode="&#xb8;" 
d="M319 -418l-0.00195312 68c94.667 -20.667 171.334 -31 230.001 -31c92.667 0 139 33.333 139 100c0 69.333 -50.667 104 -152 104c-17.333 0 -36.666 -1 -57.999 -3l48 235h62l-35 -170c143.333 0 215 -53.667 215 -161c0 -118 -73.667 -177 -221 -177
c-62.667 0 -138.667 11.667 -228 35z" />
    <glyph glyph-name="onesuperior" unicode="&#xb9;" horiz-adv-x="723" 
d="M362 573v816h-161l16 43h199v-859h-54z" />
    <glyph glyph-name="ordmasculine" unicode="&#xba;" horiz-adv-x="834" 
d="M49 1094c0 98 37.002 181.667 111.002 251c72 67.333 157.333 101 256 101c99.333 0 185.166 -34 257.499 -102s108.5 -151.333 108.5 -250c0 -100 -35.833 -183.5 -107.5 -250.5s-157.834 -100.5 -258.501 -100.5c-100 0 -185.667 33.333 -257 100
c-73.333 68 -110 151.667 -110 251zM115.002 1096c0 -84 29.167 -154.498 87.5 -211.498s129.5 -85.5 213.5 -85.5c83.333 0 154.333 28.667 213 86s88 127.666 88 210.999s-29.333 153.666 -88 210.999s-129.667 86 -213 86c-84 0 -155.167 -28.5 -213.5 -85.5
s-87.5 -127.5 -87.5 -211.5z" />
    <glyph glyph-name="guillemotright" unicode="&#xbb;" horiz-adv-x="874" 
d="M397 172l240 317l-240 318h97l237 -318l-237 -317h-97zM82 172l237 317l-237 318h96l238 -318l-238 -317h-96z" />
    <glyph glyph-name="onequarter" unicode="&#xbc;" horiz-adv-x="1722" 
d="M1505 0v227.001h-356c-56 0 -84 15.667 -84 47c0 15.333 6.66699 32.666 20 51.999l336 489h64l-350 -509c-4.66699 -6.66699 -7 -13.667 -7 -21c0 -10 11.333 -15 34 -15h343v482l56 49v-531h149v-43h-149v-227h-56zM352 -24.999l948 1457h84l-950 -1457h-82z
M346 629.001v762h-153l14 39h190v-801h-51z" />
    <glyph glyph-name="onehalf" unicode="&#xbd;" horiz-adv-x="1722" 
d="M1673 0l-478.999 0.00292969c-69.333 0 -104 18.333 -104 55c0 23.333 21 50 63 80l332 238c86 61.333 129 128.666 129 201.999c0 61.333 -23.667 110.333 -71 147c-43.333 33.333 -96.333 50 -159 50s-116 -17 -160 -51c-47.333 -37.333 -71 -86.666 -71 -147.999
c0 -125.333 82 -192 246 -200l-49 -37c-71.333 9.33301 -129.333 31.666 -174 66.999c-52 40.667 -78 94.667 -78 162c0 77.333 29 139 87 185c54 43.333 120.333 65 199 65c77.333 0 142.666 -20.333 195.999 -61c59.333 -44.667 89 -104.334 89 -179.001
c0 -86.667 -56 -170.334 -168 -251.001l-330 -238c-10.667 -8 -16 -15.667 -16 -23c0 -12 9.66699 -18 29 -18h489v-45zM352.001 -24.9971l948 1457h84l-950 -1457h-82zM346.001 629.003v762h-153l14 39h190v-801h-51z" />
    <glyph glyph-name="threequarters" unicode="&#xbe;" horiz-adv-x="1722" 
d="M1505 0v227.001h-356c-56 0 -84 15.667 -84 47c0 15.333 6.66699 32.666 20 51.999l336 489h64l-350 -509c-4.66699 -6.66699 -7 -13.667 -7 -21c0 -10 11.333 -15 34 -15h343v482l56 49v-531h149v-43h-149v-227h-56zM352 -24.999l948 1457h84l-950 -1457h-82z
M78 629.001v45h258c158 0 237 63.333 237 190c0 58 -19.5 104 -58.5 138s-92.5 51 -160.5 51h-174v32l309 269c11.333 10 17 17.333 17 22c0 8.66699 -10.333 13 -31 13h-387v41h401c52 0 78 -16 78 -48c0 -14 -7.66699 -27.667 -23 -41l-284 -245h82
c192.667 0 289 -77.333 289 -232c0 -80.667 -30 -141.667 -90 -183c-52 -34.667 -120.333 -52 -205 -52h-258z" />
    <glyph glyph-name="questiondown" unicode="&#xbf;" horiz-adv-x="963" 
d="M918 387c-11.333 -120.667 -52.999 -216.665 -124.999 -287.998c-74.667 -74 -171.667 -111 -291 -111c-120.667 0 -219.834 38.667 -297.501 116s-116.5 176.333 -116.5 297c0 122 38.667 219.333 116 292c71.333 67.333 169.333 108.666 294 123.999v359h86v-443h-29
c-108 0 -196.667 -28 -266 -84c-74 -60.667 -111 -144 -111 -250c0 -97.333 30 -176.5 90 -237.5s138.667 -91.5 236 -91.5c95.333 0 172 29.333 230 88c54.667 55.333 88 131.666 100 228.999h84zM618.001 1376c0 -21.333 -7.5 -39.333 -22.5 -54s-33.167 -22 -54.5 -22
c-50.667 0 -76 25.333 -76 76c0 22 7.16699 40.5 21.5 55.5s32.5 22.5 54.5 22.5s40.333 -7.5 55 -22.5s22 -33.5 22 -55.5z" />
    <glyph glyph-name="Agrave" unicode="&#xc0;" horiz-adv-x="1204" 
d="M127 0l0.000976562 926c0 154.667 40 280 120 376c85.333 102.667 203.666 154 354.999 154s269.333 -51.667 354 -155c79.333 -96 119 -221 119 -375v-926h-90v711h-696v80h696v104c0 319.333 -127.667 479 -383 479c-256.667 0 -385 -159.667 -385 -479v-895h-90z
M723.001 1564h-80l-268 351h133z" />
    <glyph glyph-name="Aacute" unicode="&#xc1;" horiz-adv-x="1204" 
d="M127 0l0.000976562 926c0 154.667 40 280 120 376c85.333 102.667 203.666 154 354.999 154s269.333 -51.667 354 -155c79.333 -96 119 -221 119 -375v-926h-90v711h-696v80h696v104c0 319.333 -127.667 479 -383 479c-256.667 0 -385 -159.667 -385 -479v-895h-90z
M481.001 1564l215 351h133l-268 -351h-80z" />
    <glyph glyph-name="Acircumflex" unicode="&#xc2;" horiz-adv-x="1204" 
d="M127 0l0.000976562 926c0 154.667 40 280 120 376c85.333 102.667 203.666 154 354.999 154s269.333 -51.667 354 -155c79.333 -96 119 -221 119 -375v-926h-90v711h-696v80h696v104c0 319.333 -127.667 479 -383 479c-256.667 0 -385 -159.667 -385 -479v-895h-90z
M328.001 1514l208 351h132l206 -351h-79l-193 277l-193 -277h-81z" />
    <glyph glyph-name="Atilde" unicode="&#xc3;" horiz-adv-x="1204" 
d="M127 0l0.000976562 926c0 154.667 40 280 120 376c85.333 102.667 203.666 154 354.999 154s269.333 -51.667 354 -155c79.333 -96 119 -221 119 -375v-926h-90v711h-696v80h696v104c0 319.333 -127.667 479 -383 479c-256.667 0 -385 -159.667 -385 -479v-895h-90z
M885.001 1822c-36 -114.667 -96.332 -172 -180.999 -172c-25.333 0 -61.833 7.83301 -109.5 23.5s-84.167 23.5 -109.5 23.5c-40 0 -72 -22.333 -96 -67h-72c31.333 113.333 92.333 170 183 170c25.333 0 60.666 -7.83301 105.999 -23.5s80.333 -23.5 105 -23.5
c42 0 76 23 102 69h72z" />
    <glyph glyph-name="Adieresis" unicode="&#xc4;" horiz-adv-x="1204" 
d="M127 0l0.000976562 926c0 154.667 40 280 120 376c85.333 102.667 203.666 154 354.999 154s269.333 -51.667 354 -155c79.333 -96 119 -221 119 -375v-926h-90v711h-696v80h696v104c0 319.333 -127.667 479 -383 479c-256.667 0 -385 -159.667 -385 -479v-895h-90z
M698.001 1720c0 20.667 7.50098 38.832 22.501 54.499s32.833 23.5 53.5 23.5c21.333 0 39.666 -7.66699 54.999 -23s23 -33.666 23 -54.999c0 -52 -26 -78 -78 -78c-50.667 0 -76 26 -76 78zM352.002 1720c0 20.667 7.50098 38.832 22.501 54.499s32.833 23.5 53.5 23.5
c21.333 0 39.666 -7.66699 54.999 -23s23 -33.666 23 -54.999c0 -52 -26 -78 -78 -78c-50.667 0 -76 26 -76 78z" />
    <glyph glyph-name="Aring" unicode="&#xc5;" horiz-adv-x="1204" 
d="M449 1739c0 -42.667 14.833 -78.665 44.5 -107.998s65.834 -44 108.501 -44c43.333 0 79.833 14.5 109.5 43.5s44.5 65.167 44.5 108.5s-14.833 79.666 -44.5 108.999s-66.167 44 -109.5 44c-42.667 0 -78.834 -14.833 -108.501 -44.5s-44.5 -65.834 -44.5 -108.501z
M369 1739c0 66 22.333 121.333 67 166s100 67 166 67s121.5 -22.333 166.5 -67s67.5 -100 67.5 -166s-22.5 -121.5 -67.5 -166.5s-100.5 -67.5 -166.5 -67.5s-121.333 22.5 -166 67.5s-67 100.5 -67 166.5zM127 0.00195312l0.000976562 926c0 154.667 40 280 120 376
c85.333 102.667 203.666 154 354.999 154s269.333 -51.667 354 -155c79.333 -96 119 -221 119 -375v-926h-90v711h-696v80h696v104c0 319.333 -127.667 479 -383 479s-383 -159.667 -383 -479v-895h-92z" />
    <glyph glyph-name="AE" unicode="&#xc6;" horiz-adv-x="1927" 
d="M127 0v925.999c0 154.667 39.667 280 119 376c86 102.667 204.667 154 356 154c122.667 0 225.667 -36.167 309 -108.5s134 -169.166 152 -290.499c132.667 251.333 366 377 700 377c41.333 0 70 -1 86 -3v-79c-20 1.33301 -48.667 2 -86 2
c-404.667 0 -634 -187.667 -688 -563h774v-80h-778c11.333 -206.667 77.666 -364.667 198.999 -474c118.667 -107.333 282.334 -161 491.001 -161c48.667 0 78 1.33301 88 4v-80c-18.667 -1.33301 -46.667 -2 -84 -2c-325.333 0 -555.333 118.667 -690 356v-354h-90v711
h-696v80h696v104c0 319.333 -127.667 479 -383 479s-383 -159.667 -383 -479v-895h-92z" />
    <glyph glyph-name="Ccedilla" unicode="&#xc7;" horiz-adv-x="1012" 
d="M944 79l0.000976562 -79h-72c-240.667 -0 -431.334 58.333 -572.001 175c-152 125.333 -228 306 -228 542c0 236.667 75.333 417.667 226 543c140 116 330.667 174 572 174c36 0 60.667 -1 74 -3v-79c-21.333 1.33301 -50 2 -86 2c-210.667 0 -377 -52.667 -499 -158
c-128.667 -112 -193 -271.667 -193 -479c0 -208.667 65.333 -369 196 -481c122.667 -105.333 290 -158 502 -158h40c18 0.666992 31.333 1 40 1zM471.001 -418l-0.00195312 68c94.667 -20.667 171.334 -31 230.001 -31c92.667 0 139 33.333 139 100
c0 69.333 -50.667 104 -152 104c-17.333 0 -36.666 -1 -57.999 -3l48 235h62l-35 -170c143.333 0 215 -53.667 215 -161c0 -118 -73.667 -177 -221 -177c-62.667 0 -138.667 11.667 -228 35z" />
    <glyph glyph-name="Egrave" unicode="&#xc8;" 
d="M944 0h-59.001c-199.333 0 -350.333 28.667 -453 86c-114.667 64 -203.667 152.333 -267 265c-62 110 -93 232 -93 366c0 172 50 321.833 150 449.5s233.667 208.5 401 242.5c75.333 15.333 182.333 23 321 23v-80c-20 1.33301 -48 2 -84 2
c-197.333 0 -354.666 -46 -471.999 -138c-124 -97.333 -196.667 -242 -218 -434h774v-82h-776c11.333 -207.333 78.666 -364 201.999 -470c118 -101.333 282 -152 492 -152h41c18.667 0.666992 32.334 1 41.001 1v-79zM792.999 1564h-80l-268 351h133z" />
    <glyph glyph-name="Eacute" unicode="&#xc9;" 
d="M944 0h-59.001c-199.333 0 -350.333 28.667 -453 86c-114.667 64 -203.667 152.333 -267 265c-62 110 -93 232 -93 366c0 172 50 321.833 150 449.5s233.667 208.5 401 242.5c75.333 15.333 182.333 23 321 23v-80c-20 1.33301 -48 2 -84 2
c-197.333 0 -354.666 -46 -471.999 -138c-124 -97.333 -196.667 -242 -218 -434h774v-82h-776c11.333 -207.333 78.666 -364 201.999 -470c118 -101.333 282 -152 492 -152h41c18.667 0.666992 32.334 1 41.001 1v-79zM550.999 1564l215 351h133l-268 -351h-80z" />
    <glyph glyph-name="Ecircumflex" unicode="&#xca;" 
d="M944 0h-59.001c-199.333 0 -350.333 28.667 -453 86c-114.667 64 -203.667 152.333 -267 265c-62 110 -93 232 -93 366c0 172 50 321.833 150 449.5s233.667 208.5 401 242.5c75.333 15.333 182.333 23 321 23v-80c-20 1.33301 -48 2 -84 2
c-197.333 0 -354.666 -46 -471.999 -138c-124 -97.333 -196.667 -242 -218 -434h774v-82h-776c11.333 -207.333 78.666 -364 201.999 -470c118 -101.333 282 -152 492 -152h41c18.667 0.666992 32.334 1 41.001 1v-79zM397.999 1514l208 351h132l206 -351h-79l-193 277
l-193 -277h-81z" />
    <glyph glyph-name="Edieresis" unicode="&#xcb;" 
d="M944 0h-59.001c-199.333 0 -350.333 28.667 -453 86c-114.667 64 -203.667 152.333 -267 265c-62 110 -93 232 -93 366c0 172 50 321.833 150 449.5s233.667 208.5 401 242.5c75.333 15.333 182.333 23 321 23v-80c-20 1.33301 -48 2 -84 2
c-197.333 0 -354.666 -46 -471.999 -138c-124 -97.333 -196.667 -242 -218 -434h774v-82h-776c11.333 -207.333 78.666 -364 201.999 -470c118 -101.333 282 -152 492 -152h41c18.667 0.666992 32.334 1 41.001 1v-79zM767.999 1720c0 20.667 7.50098 38.832 22.501 54.499
s32.833 23.5 53.5 23.5c21.333 0 39.666 -7.66699 54.999 -23s23 -33.666 23 -54.999c0 -52 -26 -78 -78 -78c-50.667 0 -76 26 -76 78zM422 1720c0 20.667 7.50098 38.832 22.501 54.499s32.833 23.5 53.5 23.5c21.333 0 39.666 -7.66699 54.999 -23s23 -33.666 23 -54.999
c0 -52 -26 -78 -78 -78c-50.667 0 -76 26 -76 78z" />
    <glyph glyph-name="Igrave" unicode="&#xcc;" horiz-adv-x="389" 
d="M150 0v1432h90v-1432h-90zM316 1564h-80l-268 351h133z" />
    <glyph glyph-name="Iacute" unicode="&#xcd;" horiz-adv-x="389" 
d="M150 0v1432h90v-1432h-90zM74 1564l215 351h133l-268 -351h-80z" />
    <glyph glyph-name="Icircumflex" unicode="&#xce;" horiz-adv-x="389" 
d="M150 0v1432h90v-1432h-90zM-79 1564l208 351h132l206 -351h-79l-193 277l-193 -277h-81z" />
    <glyph glyph-name="Idieresis" unicode="&#xcf;" horiz-adv-x="389" 
d="M150 0v1432h90v-1432h-90zM291 1720c0 20.667 7.50098 38.832 22.501 54.499s32.833 23.5 53.5 23.5c21.333 0 39.666 -7.66699 54.999 -23s23 -33.666 23 -54.999c0 -52 -26 -78 -78 -78c-50.667 0 -76 26 -76 78zM-54.999 1720c0 20.667 7.50098 38.832 22.501 54.499
s32.833 23.5 53.5 23.5c21.333 0 39.666 -7.66699 54.999 -23s23 -33.666 23 -54.999c0 -52 -26 -78 -78 -78c-50.667 0 -76 26 -76 78z" />
    <glyph glyph-name="Eth" unicode="&#xd0;" horiz-adv-x="1276" 
d="M307 80c12 -2.66699 43.333 -4.00195 94 -4.00195c215.333 0 385 52 509 156c133.333 112 200 273.667 200 485c0 134 -33 253.667 -99 359c-69.333 110.667 -165.333 188.334 -288 233.001c-83.333 30 -192 45 -326 45h-155v-568h362v-71h-362v-715h-90v715h-142v71h142
v646h235c113.333 0 209.166 -8.33301 287.499 -25s145.833 -42.667 202.5 -78c218 -135.333 327 -339.333 327 -612c0 -239.333 -77 -421.666 -231 -546.999c-141.333 -114.667 -334.666 -172 -579.999 -172c-42 0 -70.667 1 -86 3v79z" />
    <glyph glyph-name="Ntilde" unicode="&#xd1;" horiz-adv-x="1255" 
d="M141 0l-0.000976562 1319c0 36.667 10.167 66.667 30.5 90s48.5 35 84.5 35c52.667 0 94.334 -32.667 125.001 -98l590 -1266c6.66699 -14 15.334 -21 26.001 -21c18 0 27 11.667 27 35v1338h90v-1332c0 -36.667 -10.167 -66.667 -30.5 -90s-48.5 -35 -84.5 -35
c-52.667 0 -94.334 33 -125.001 99l-589 1267c-6.66699 14 -15.667 21 -27 21c-18 0 -27 -12.333 -27 -37v-1325h-90zM921.999 1822c-36 -114.667 -96.332 -172 -180.999 -172c-25.333 0 -61.833 7.83301 -109.5 23.5s-84.167 23.5 -109.5 23.5c-40 0 -72 -22.333 -96 -67
h-72c31.333 113.333 92.333 170 183 170c25.333 0 60.666 -7.83301 105.999 -23.5s80.333 -23.5 105 -23.5c42 0 76 23 102 69h72z" />
    <glyph glyph-name="Ograve" unicode="&#xd2;" horiz-adv-x="1583" 
d="M166 719c0 -178 59.667 -331.333 179 -460c122 -132 271.333 -198 448 -198c175.333 0 324 66.333 446 199c118.667 128.667 178 281.667 178 459c0 178 -59 331 -177 459c-121.333 130.667 -270.333 196 -447 196c-177.333 0 -327 -65.333 -449 -196
c-118.667 -127.333 -178 -280.333 -178 -459zM72 717c0 202 69.833 375.667 209.5 521s310.167 218 511.5 218c200 0 370.333 -73.333 511 -220c138 -144.667 207 -317.667 207 -519c0 -202 -69 -375.333 -207 -520c-140 -148 -310.333 -222 -511 -222
c-202 0 -373.333 73.333 -514 220c-138 144.667 -207 318.667 -207 522zM914 1564h-80l-268 351h133z" />
    <glyph glyph-name="Oacute" unicode="&#xd3;" horiz-adv-x="1583" 
d="M166 719c0 -178 59.667 -331.333 179 -460c122 -132 271.333 -198 448 -198c175.333 0 324 66.333 446 199c118.667 128.667 178 281.667 178 459c0 178 -59 331 -177 459c-121.333 130.667 -270.333 196 -447 196c-177.333 0 -327 -65.333 -449 -196
c-118.667 -127.333 -178 -280.333 -178 -459zM72 717c0 202 69.833 375.667 209.5 521s310.167 218 511.5 218c200 0 370.333 -73.333 511 -220c138 -144.667 207 -317.667 207 -519c0 -202 -69 -375.333 -207 -520c-140 -148 -310.333 -222 -511 -222
c-202 0 -373.333 73.333 -514 220c-138 144.667 -207 318.667 -207 522zM672 1564l215 351h133l-268 -351h-80z" />
    <glyph glyph-name="Ocircumflex" unicode="&#xd4;" horiz-adv-x="1583" 
d="M166 719c0 -178 59.667 -331.333 179 -460c122 -132 271.333 -198 448 -198c175.333 0 324 66.333 446 199c118.667 128.667 178 281.667 178 459c0 178 -59 331 -177 459c-121.333 130.667 -270.333 196 -447 196c-177.333 0 -327 -65.333 -449 -196
c-118.667 -127.333 -178 -280.333 -178 -459zM72 717c0 202 69.833 375.667 209.5 521s310.167 218 511.5 218c200 0 370.333 -73.333 511 -220c138 -144.667 207 -317.667 207 -519c0 -202 -69 -375.333 -207 -520c-140 -148 -310.333 -222 -511 -222
c-202 0 -373.333 73.333 -514 220c-138 144.667 -207 318.667 -207 522zM518 1514l208 351h132l206 -351h-79l-193 277l-193 -277h-81z" />
    <glyph glyph-name="Otilde" unicode="&#xd5;" horiz-adv-x="1583" 
d="M166 719c0 -178 59.667 -331.333 179 -460c122 -132 271.333 -198 448 -198c175.333 0 324 66.333 446 199c118.667 128.667 178 281.667 178 459c0 178 -59 331 -177 459c-121.333 130.667 -270.333 196 -447 196c-177.333 0 -327 -65.333 -449 -196
c-118.667 -127.333 -178 -280.333 -178 -459zM72 717c0 202 69.833 375.667 209.5 521s310.167 218 511.5 218c200 0 370.333 -73.333 511 -220c138 -144.667 207 -317.667 207 -519c0 -202 -69 -375.333 -207 -520c-140 -148 -310.333 -222 -511 -222
c-202 0 -373.333 73.333 -514 220c-138 144.667 -207 318.667 -207 522zM1076 1822c-36 -114.667 -96.332 -172 -180.999 -172c-25.333 0 -61.833 7.83301 -109.5 23.5s-84.167 23.5 -109.5 23.5c-40 0 -72 -22.333 -96 -67h-72c31.333 113.333 92.333 170 183 170
c25.333 0 60.666 -7.83301 105.999 -23.5s80.333 -23.5 105 -23.5c42 0 76 23 102 69h72z" />
    <glyph glyph-name="Odieresis" unicode="&#xd6;" horiz-adv-x="1583" 
d="M166 719c0 -178 59.667 -331.333 179 -460c122 -132 271.333 -198 448 -198c175.333 0 324 66.333 446 199c118.667 128.667 178 281.667 178 459c0 178 -59 331 -177 459c-121.333 130.667 -270.333 196 -447 196c-177.333 0 -327 -65.333 -449 -196
c-118.667 -127.333 -178 -280.333 -178 -459zM72 717c0 202 69.833 375.667 209.5 521s310.167 218 511.5 218c200 0 370.333 -73.333 511 -220c138 -144.667 207 -317.667 207 -519c0 -202 -69 -375.333 -207 -520c-140 -148 -310.333 -222 -511 -222
c-202 0 -373.333 73.333 -514 220c-138 144.667 -207 318.667 -207 522zM889 1720c0 20.667 7.50098 38.832 22.501 54.499s32.833 23.5 53.5 23.5c21.333 0 39.666 -7.66699 54.999 -23s23 -33.666 23 -54.999c0 -52 -26 -78 -78 -78c-50.667 0 -76 26 -76 78z
M543.001 1720c0 20.667 7.50098 38.832 22.501 54.499s32.833 23.5 53.5 23.5c21.333 0 39.666 -7.66699 54.999 -23s23 -33.666 23 -54.999c0 -52 -26 -78 -78 -78c-50.667 0 -76 26 -76 78z" />
    <glyph glyph-name="multiply" unicode="&#xd7;" horiz-adv-x="1706" 
d="M854 668l487 487l58 -57l-488 -488l488 -487l-58 -57l-487 487l-487 -487l-58 57l488 487l-488 488l58 57z" />
    <glyph glyph-name="Oslash" unicode="&#xd8;" horiz-adv-x="1583" 
d="M16 -12l234 238.999c-118.667 140 -178 305.333 -178 496c0 200.667 71.167 373 213.5 517s313.5 216 513.5 216c180.667 0 339 -64.667 475 -194l225 225l53 -53l-221 -226c120 -146.667 180 -309 180 -487c0 -101.333 -17 -195.666 -51 -282.999
c-52 -134.667 -139.667 -245.167 -263 -331.5s-256.666 -129.5 -399.999 -129.5c-192.667 0 -357.334 65 -494.001 195l-233 -235zM315 292.999l902 909.001c-124 114.667 -265.333 172 -424 172c-176 0 -325 -64.667 -447 -194c-120 -126.667 -180 -278.334 -180 -455.001
c0 -164.667 49.667 -308.667 149 -432zM1268 1145l-901 -907c116.667 -118 260 -177 430 -177c171.333 0 318.333 66.333 441 199c119.333 129.333 179 280.333 179 453c0 174 -49.667 318 -149 432z" />
    <glyph glyph-name="Ugrave" unicode="&#xd9;" horiz-adv-x="1204" 
d="M1075 1432l-0.000976562 -926c0 -154.667 -39.333 -280 -118 -376c-85.333 -103.333 -203.666 -155 -354.999 -155s-270 51.667 -356 155c-79.333 96 -119 221.333 -119 376v926h90v-891c0 -320 128.333 -480 385 -480c255.333 0 383 160 383 480v891h90zM722.999 1564
h-80l-268 351h133z" />
    <glyph glyph-name="Uacute" unicode="&#xda;" horiz-adv-x="1204" 
d="M1075 1432l-0.000976562 -926c0 -154.667 -39.333 -280 -118 -376c-85.333 -103.333 -203.666 -155 -354.999 -155s-270 51.667 -356 155c-79.333 96 -119 221.333 -119 376v926h90v-891c0 -320 128.333 -480 385 -480c255.333 0 383 160 383 480v891h90zM480.999 1564
l215 351h133l-268 -351h-80z" />
    <glyph glyph-name="Ucircumflex" unicode="&#xdb;" horiz-adv-x="1204" 
d="M1075 1432l-0.000976562 -926c0 -154.667 -39.333 -280 -118 -376c-85.333 -103.333 -203.666 -155 -354.999 -155s-270 51.667 -356 155c-79.333 96 -119 221.333 -119 376v926h90v-891c0 -320 128.333 -480 385 -480c255.333 0 383 160 383 480v891h90zM327.999 1564
l208 351h132l206 -351h-79l-193 277l-193 -277h-81z" />
    <glyph glyph-name="Udieresis" unicode="&#xdc;" horiz-adv-x="1204" 
d="M1075 1432l-0.000976562 -926c0 -154.667 -39.333 -280 -118 -376c-85.333 -103.333 -203.666 -155 -354.999 -155s-270 51.667 -356 155c-79.333 96 -119 221.333 -119 376v926h90v-891c0 -320 128.333 -480 385 -480c255.333 0 383 160 383 480v891h90zM697.999 1720
c0 20.667 7.50098 38.832 22.501 54.499s32.833 23.5 53.5 23.5c21.333 0 39.666 -7.66699 54.999 -23s23 -33.666 23 -54.999c0 -52 -26 -78 -78 -78c-50.667 0 -76 26 -76 78zM352 1720c0 20.667 7.50098 38.832 22.501 54.499s32.833 23.5 53.5 23.5
c21.333 0 39.666 -7.66699 54.999 -23s23 -33.666 23 -54.999c0 -52 -26 -78 -78 -78c-50.667 0 -76 26 -76 78z" />
    <glyph glyph-name="Yacute" unicode="&#xdd;" horiz-adv-x="1081" 
d="M205 1432l-0.000976562 -336.001c0 -280 112 -420 336 -420s336 140 336 420v336h90v-361c0 -132 -30.667 -238.333 -92 -319c-65.333 -87.333 -161.666 -138.666 -288.999 -153.999v-598h-90v598c-254 34 -381 191.667 -381 473v361h90zM419.999 1564l215 351h133
l-268 -351h-80z" />
    <glyph glyph-name="Thorn" unicode="&#xde;" horiz-adv-x="1057" 
d="M217 0l-90 0.00195312v1456h90v-409c86 118.667 203.333 178 352 178c124.667 0 230 -42 316 -126s129 -188.333 129 -313c0 -92 -27.167 -176.5 -81.5 -253.5s-124.833 -129.833 -211.5 -158.5c-53.333 -17.333 -123 -26 -209 -26h-225v82h256c112 0 202 30.667 270 92
c71.333 64 107 151.333 107 262c0 107.333 -33 193.666 -99 258.999s-152.667 98 -260 98c-118 0 -207 -43.333 -267 -130c-51.333 -74.667 -77 -173.334 -77 -296.001v-715z" />
    <glyph glyph-name="germandbls" unicode="&#xdf;" horiz-adv-x="1110" 
d="M137 0v807.002h-123v84h123v110c0 134.667 30 241.334 90 320.001c67.333 87.333 166.333 131 297 131c85.333 0 158.333 -23.333 219 -70c66 -50.667 99 -117.334 99 -200.001c0 -45.333 -11.667 -86.333 -35 -123c-33.333 -51.333 -101 -105 -203 -161
c-32.667 -18 -49 -29.333 -49 -34c0 -4 26.333 -17 79 -39c60 -26 109.333 -49.667 148 -71c170.667 -94 256 -217 256 -369c0 -132.667 -49.667 -232.334 -149 -299.001c-85.333 -57.333 -197.333 -86 -336 -86h-254v82h289c114 0 203.5 27 268.5 81s97.5 127.333 97.5 220
c0 88.667 -35 163.667 -105 225c-40 35.333 -114 79.666 -222 132.999s-162 95 -162 125c0 23.333 25 50 75 80c76.667 46.667 123 77 139 91c50 42.667 75 91 75 145c0 58 -23.667 105.333 -71 142c-43.333 33.333 -95 50 -155 50c-204.667 0 -307 -125 -307 -375v-999h-84
z" />
    <glyph glyph-name="agrave" unicode="&#xe0;" horiz-adv-x="1157" 
d="M954 0l0.000976562 434.003c0 135.333 -32 245.666 -96 330.999c-71.333 96 -172.333 144 -303 144c-118 0 -215 -41.667 -291 -125c-73.333 -80.667 -110 -180.334 -110 -299.001c0 -120.667 36.333 -220.667 109 -300c75.333 -82.667 172.666 -124 291.999 -124
c126.667 0 238 54 334 162v-110c-95.333 -87.333 -206.666 -131 -333.999 -131c-140.667 0 -257.334 48.167 -350.001 144.5s-139 215.166 -139 356.499c0 144 44.667 263 134 357c91.333 96.667 208.333 145 351 145c113.333 0 214.333 -34.833 303 -104.5
s144.667 -159.5 168 -269.5c10.667 -50.667 16 -111.667 16 -183v-428h-84zM672.001 1081h-80l-268 351h133z" />
    <glyph glyph-name="aacute" unicode="&#xe1;" horiz-adv-x="1157" 
d="M954 0l0.000976562 434.003c0 135.333 -32 245.666 -96 330.999c-71.333 96 -172.333 144 -303 144c-118 0 -215 -41.667 -291 -125c-73.333 -80.667 -110 -180.334 -110 -299.001c0 -120.667 36.333 -220.667 109 -300c75.333 -82.667 172.666 -124 291.999 -124
c126.667 0 238 54 334 162v-110c-95.333 -87.333 -206.666 -131 -333.999 -131c-140.667 0 -257.334 48.167 -350.001 144.5s-139 215.166 -139 356.499c0 144 44.667 263 134 357c91.333 96.667 208.333 145 351 145c113.333 0 214.333 -34.833 303 -104.5
s144.667 -159.5 168 -269.5c10.667 -50.667 16 -111.667 16 -183v-428h-84zM430.001 1081l215 351h133l-268 -351h-80z" />
    <glyph glyph-name="acircumflex" unicode="&#xe2;" horiz-adv-x="1157" 
d="M954 0l0.000976562 434.003c0 135.333 -32 245.666 -96 330.999c-71.333 96 -172.333 144 -303 144c-118 0 -215 -41.667 -291 -125c-73.333 -80.667 -110 -180.334 -110 -299.001c0 -120.667 36.333 -220.667 109 -300c75.333 -82.667 172.666 -124 291.999 -124
c126.667 0 238 54 334 162v-110c-95.333 -87.333 -206.666 -131 -333.999 -131c-140.667 0 -257.334 48.167 -350.001 144.5s-139 215.166 -139 356.499c0 144 44.667 263 134 357c91.333 96.667 208.333 145 351 145c113.333 0 214.333 -34.833 303 -104.5
s144.667 -159.5 168 -269.5c10.667 -50.667 16 -111.667 16 -183v-428h-84zM277.001 1081l208 351h132l206 -351h-79l-193 277l-193 -277h-81z" />
    <glyph glyph-name="atilde" unicode="&#xe3;" horiz-adv-x="1157" 
d="M954 0l0.000976562 434.003c0 135.333 -32 245.666 -96 330.999c-71.333 96 -172.333 144 -303 144c-118 0 -215 -41.667 -291 -125c-73.333 -80.667 -110 -180.334 -110 -299.001c0 -120.667 36.333 -220.667 109 -300c75.333 -82.667 172.666 -124 291.999 -124
c126.667 0 238 54 334 162v-110c-95.333 -87.333 -206.666 -131 -333.999 -131c-140.667 0 -257.334 48.167 -350.001 144.5s-139 215.166 -139 356.499c0 144 44.667 263 134 357c91.333 96.667 208.333 145 351 145c113.333 0 214.333 -34.833 303 -104.5
s144.667 -159.5 168 -269.5c10.667 -50.667 16 -111.667 16 -183v-428h-84zM834.001 1339c-36 -114.667 -96.332 -172 -180.999 -172c-25.333 0 -61.833 7.83301 -109.5 23.5s-84.167 23.5 -109.5 23.5c-40 0 -72 -22.333 -96 -67h-72c31.333 113.333 92.333 170 183 170
c25.333 0 60.666 -7.83301 105.999 -23.5s80.333 -23.5 105 -23.5c42 0 76 23 102 69h72z" />
    <glyph glyph-name="adieresis" unicode="&#xe4;" horiz-adv-x="1157" 
d="M954 0l0.000976562 434.003c0 135.333 -32 245.666 -96 330.999c-71.333 96 -172.333 144 -303 144c-118 0 -215 -41.667 -291 -125c-73.333 -80.667 -110 -180.334 -110 -299.001c0 -120.667 36.333 -220.667 109 -300c75.333 -82.667 172.666 -124 291.999 -124
c126.667 0 238 54 334 162v-110c-95.333 -87.333 -206.666 -131 -333.999 -131c-140.667 0 -257.334 48.167 -350.001 144.5s-139 215.166 -139 356.499c0 144 44.667 263 134 357c91.333 96.667 208.333 145 351 145c113.333 0 214.333 -34.833 303 -104.5
s144.667 -159.5 168 -269.5c10.667 -50.667 16 -111.667 16 -183v-428h-84zM647.001 1237c0 20.667 7.50098 38.832 22.501 54.499s32.833 23.5 53.5 23.5c21.333 0 39.666 -7.66699 54.999 -23s23 -33.666 23 -54.999c0 -52 -26 -78 -78 -78c-50.667 0 -76 26 -76 78z
M301.002 1237c0 20.667 7.50098 38.832 22.501 54.499s32.833 23.5 53.5 23.5c21.333 0 39.666 -7.66699 54.999 -23s23 -33.666 23 -54.999c0 -52 -26 -78 -78 -78c-50.667 0 -76 26 -76 78z" />
    <glyph glyph-name="aring" unicode="&#xe5;" horiz-adv-x="1157" 
d="M348 1286c0 66 22.5 121.5 67.5 166.5s100.5 67.5 166.5 67.5s121.667 -22.5 167 -67.5s68 -100.5 68 -166.5s-22.667 -121.333 -68 -166s-101 -67 -167 -67s-121.5 22.333 -166.5 67s-67.5 100 -67.5 166zM430 1286c0 -42.667 15 -78.832 45 -108.499
s66.333 -44.5 109 -44.5c43.333 0 79.333 14.667 108 44s43 65.666 43 108.999s-14.333 79.833 -43 109.5s-64.667 44.5 -108 44.5c-42.667 0 -79 -15 -109 -45s-45 -66.333 -45 -109zM954 0.00195312l0.000976562 434.003c0 135.333 -32 245.666 -96 330.999
c-71.333 96 -172.333 144 -303 144c-118 0 -215 -41.667 -291 -125c-73.333 -80.667 -110 -180.334 -110 -299.001c0 -120.667 36.333 -220.667 109 -300c75.333 -82.667 172.666 -124 291.999 -124c126.667 0 238 54 334 162v-110
c-95.333 -87.333 -206.666 -131 -333.999 -131c-140.667 0 -257.334 48.167 -350.001 144.5s-139 215.166 -139 356.499c0 144 44.667 263 134 357c91.333 96.667 208.333 145 351 145c113.333 0 214.333 -34.833 303 -104.5s144.667 -159.5 168 -269.5
c10.667 -50.667 16 -111.667 16 -183v-428h-84z" />
    <glyph glyph-name="ae" unicode="&#xe6;" horiz-adv-x="1896" 
d="M837 647c-450 -108 -675 -238.333 -675 -391c0 -66 33 -117.333 99 -154c53.333 -30 116 -45 188 -45c124.667 0 224 39.333 298 118c72.667 76.667 109 178 109 304c0 41.333 -6.33301 97.333 -19 168zM907 264c-78 -188 -226.666 -281.999 -445.999 -281.999
c-103.333 0 -190.666 20 -261.999 60c-87.333 49.333 -131 122 -131 218c0 122.667 96.667 229 290 319c104 48.667 253.667 96.667 449 144c-70 128 -179.333 192 -328 192c-106 0 -209 -28.667 -309 -86l-45 72c112 61.333 230.667 92 356 92
c208 0 351.333 -94.667 430 -284c38.667 88.667 97.667 157 177 205c76 47.333 163.333 71 262 71c189.333 0 330 -86.667 422 -260l-725 -319l-29 67l631 285c-76 102 -176.333 153 -301 153c-116.667 0 -213.167 -41.5 -289.5 -124.5s-114.5 -183.5 -114.5 -301.5
c0 -116 37 -215.667 111 -299c77.333 -86 173.333 -129 288 -129c99.333 0 184.666 31.667 255.999 95c68.667 60 114 139.667 136 239l88 -18c-30.667 -118.667 -87.334 -213 -170.001 -283c-86 -72 -189.333 -108 -310 -108c-96 0 -182.167 25.167 -258.5 75.5
s-135.5 119.166 -177.5 206.499z" />
    <glyph glyph-name="ccedilla" unicode="&#xe7;" horiz-adv-x="782" 
d="M737 891l-89.999 -0.000976562c-130.667 0 -238.667 -34.667 -324 -104c-92.667 -75.333 -139 -176.666 -139 -303.999c0 -126.667 46.333 -227.667 139 -303c86 -69.333 194 -104 324 -104h90v-76h-73c-162.667 0 -295.334 38.667 -398.001 116
c-113.333 86.667 -170 209 -170 367c0 110 33.333 207.667 100 293s153.667 142 261 170c54 14 123 21 207 21h73v-76zM288.001 -418.001l-0.00195312 68c94.667 -20.667 171.334 -31 230.001 -31c92.667 0 139 33.333 139 100c0 69.333 -50.667 104 -152 104
c-17.333 0 -36.666 -1 -57.999 -3l48 235h62l-35 -170c143.333 0 215 -53.667 215 -161c0 -118 -73.667 -177 -221 -177c-62.667 0 -138.667 11.667 -228 35z" />
    <glyph glyph-name="egrave" unicode="&#xe8;" horiz-adv-x="1104" 
d="M1042 471c-8 -140 -55.6611 -255.666 -142.994 -346.999c-90.667 -94.667 -205.334 -142 -344.001 -142c-136.667 0 -252.334 49.167 -347.001 147.5s-142 216.166 -142 353.499c0 139.333 47.667 257.833 143 355.5s212.666 146.5 351.999 146.5
c178 0 315.333 -80.667 412 -242l-674 -450l-39 65l598 400c-74.667 102 -174.334 153 -299.001 153c-116.667 0 -213.667 -42.333 -291 -127c-76 -82 -114 -181.667 -114 -299c0 -116.667 37.333 -216 112 -298c77.333 -84 173.666 -126 288.999 -126
s209.666 40 282.999 120c69.333 76 108 172.667 116 290h88zM674.006 1081h-80l-268 351h133z" />
    <glyph glyph-name="eacute" unicode="&#xe9;" horiz-adv-x="1104" 
d="M1042 471c-8 -140 -55.6611 -255.666 -142.994 -346.999c-90.667 -94.667 -205.334 -142 -344.001 -142c-136.667 0 -252.334 49.167 -347.001 147.5s-142 216.166 -142 353.499c0 139.333 47.667 257.833 143 355.5s212.666 146.5 351.999 146.5
c178 0 315.333 -80.667 412 -242l-674 -450l-39 65l598 400c-74.667 102 -174.334 153 -299.001 153c-116.667 0 -213.667 -42.333 -291 -127c-76 -82 -114 -181.667 -114 -299c0 -116.667 37.333 -216 112 -298c77.333 -84 173.666 -126 288.999 -126
s209.666 40 282.999 120c69.333 76 108 172.667 116 290h88zM432.006 1081l215 351h133l-268 -351h-80z" />
    <glyph glyph-name="ecircumflex" unicode="&#xea;" horiz-adv-x="1104" 
d="M1042 471c-8 -140 -55.6611 -255.666 -142.994 -346.999c-90.667 -94.667 -205.334 -142 -344.001 -142c-136.667 0 -252.334 49.167 -347.001 147.5s-142 216.166 -142 353.499c0 139.333 47.667 257.833 143 355.5s212.666 146.5 351.999 146.5
c178 0 315.333 -80.667 412 -242l-674 -450l-39 65l598 400c-74.667 102 -174.334 153 -299.001 153c-116.667 0 -213.667 -42.333 -291 -127c-76 -82 -114 -181.667 -114 -299c0 -116.667 37.333 -216 112 -298c77.333 -84 173.666 -126 288.999 -126
s209.666 40 282.999 120c69.333 76 108 172.667 116 290h88zM279.006 1081l208 351h132l206 -351h-79l-193 277l-193 -277h-81z" />
    <glyph glyph-name="edieresis" unicode="&#xeb;" horiz-adv-x="1104" 
d="M1042 471c-8 -140 -55.6611 -255.666 -142.994 -346.999c-90.667 -94.667 -205.334 -142 -344.001 -142c-136.667 0 -252.334 49.167 -347.001 147.5s-142 216.166 -142 353.499c0 139.333 47.667 257.833 143 355.5s212.666 146.5 351.999 146.5
c178 0 315.333 -80.667 412 -242l-674 -450l-39 65l598 400c-74.667 102 -174.334 153 -299.001 153c-116.667 0 -213.667 -42.333 -291 -127c-76 -82 -114 -181.667 -114 -299c0 -116.667 37.333 -216 112 -298c77.333 -84 173.666 -126 288.999 -126
s209.666 40 282.999 120c69.333 76 108 172.667 116 290h88zM649.006 1237c0 20.667 7.50098 38.832 22.501 54.499s32.833 23.5 53.5 23.5c21.333 0 39.666 -7.66699 54.999 -23s23 -33.666 23 -54.999c0 -52 -26 -78 -78 -78c-50.667 0 -76 26 -76 78zM303.007 1237
c0 20.667 7.50098 38.832 22.501 54.499s32.833 23.5 53.5 23.5c21.333 0 39.666 -7.66699 54.999 -23s23 -33.666 23 -54.999c0 -52 -26 -78 -78 -78c-50.667 0 -76 26 -76 78z" />
    <glyph glyph-name="igrave" unicode="&#xec;" horiz-adv-x="350" 
d="M133 0v967h84v-967h-84zM297 1081h-80l-268 351h133z" />
    <glyph glyph-name="iacute" unicode="&#xed;" horiz-adv-x="350" 
d="M133 0v967h84v-967h-84zM55 1081l215 351h133l-268 -351h-80z" />
    <glyph glyph-name="icircumflex" unicode="&#xee;" horiz-adv-x="350" 
d="M133 0v967h84v-967h-84zM-98 1081l208 351h132l206 -351h-79l-193 277l-193 -277h-81z" />
    <glyph glyph-name="idieresis" unicode="&#xef;" horiz-adv-x="350" 
d="M133 0v967h84v-967h-84zM272 1237c0 20.667 7.50098 38.832 22.501 54.499s32.833 23.5 53.5 23.5c21.333 0 39.666 -7.66699 54.999 -23s23 -33.666 23 -54.999c0 -52 -26 -78 -78 -78c-50.667 0 -76 26 -76 78zM-73.999 1237c0 20.667 7.50098 38.832 22.501 54.499
s32.833 23.5 53.5 23.5c21.333 0 39.666 -7.66699 54.999 -23s23 -33.666 23 -54.999c0 -52 -26 -78 -78 -78c-50.667 0 -76 26 -76 78z" />
    <glyph glyph-name="eth" unicode="&#xf0;" horiz-adv-x="1110" 
d="M750 944l71.0029 -139c-81.333 69.333 -170 104 -266 104c-114.667 0 -210.167 -41.5 -286.5 -124.5s-114.5 -182.167 -114.5 -297.5c0 -116.667 37.333 -216 112 -298c77.333 -84 173.666 -126 288.999 -126c112 0 208 42.167 288 126.5s120 182.833 120 295.5
c0 100 -28.667 205.333 -86 316l-207 399l-238 -80l-18 51l229 80l-92 176h90l78 -151l258 88l18 -53l-247 -86l141 -273c102 -197.333 153 -353 153 -467c0 -137.333 -46.667 -255 -140 -353c-94.667 -100 -210.334 -150 -347.001 -150s-252.334 49.5 -347.001 148.5
s-142 217.167 -142 354.5c0 136.667 47.5 254.167 142.5 352.5s210.5 147.5 346.5 147.5c74 0 139 -13.667 195 -41z" />
    <glyph glyph-name="ntilde" unicode="&#xf1;" 
d="M201 0h-82.002v547c0 128 33 231.667 99 311c70.667 84.667 168.667 127 294 127s223.333 -42.333 294 -127c66 -79.333 99 -183 99 -311v-547h-82v573c0 96.667 -27.333 176 -82 238c-57.333 65.333 -133.666 98 -228.999 98s-171.666 -32.667 -228.999 -98
c-54.667 -62 -82 -141.333 -82 -238v-573zM794.998 1339c-36 -114.667 -96.332 -172 -180.999 -172c-25.333 0 -61.833 7.83301 -109.5 23.5s-84.167 23.5 -109.5 23.5c-40 0 -72 -22.333 -96 -67h-72c31.333 113.333 92.333 170 183 170
c25.333 0 60.666 -7.83301 105.999 -23.5s80.333 -23.5 105 -23.5c42 0 76 23 102 69h72z" />
    <glyph glyph-name="ograve" unicode="&#xf2;" horiz-adv-x="1110" 
d="M66 483c0 137.333 47.332 255.334 141.999 354.001s210.334 148 347.001 148c137.333 0 253.333 -49.667 348 -149c92.667 -97.333 139 -215 139 -353s-46.833 -256 -140.5 -354s-209.167 -147 -346.5 -147c-136.667 0 -252.667 49.667 -348 149
c-94 97.333 -141 214.666 -141 351.999zM153.999 485.001c0 -116.667 37.332 -216 111.999 -298c77.333 -84 173.666 -126 288.999 -126c114.667 0 210.334 42.333 287.001 127c74.667 82 112 181 112 297c0 116.667 -37 215.667 -111 297
c-76.667 84.667 -172.667 127 -288 127s-211.666 -42 -288.999 -126c-74.667 -82 -112 -181.333 -112 -298zM675.998 1081h-80l-268 351h133z" />
    <glyph glyph-name="oacute" unicode="&#xf3;" horiz-adv-x="1110" 
d="M66 483c0 137.333 47.332 255.334 141.999 354.001s210.334 148 347.001 148c137.333 0 253.333 -49.667 348 -149c92.667 -97.333 139 -215 139 -353s-46.833 -256 -140.5 -354s-209.167 -147 -346.5 -147c-136.667 0 -252.667 49.667 -348 149
c-94 97.333 -141 214.666 -141 351.999zM153.999 485.001c0 -116.667 37.332 -216 111.999 -298c77.333 -84 173.666 -126 288.999 -126c114.667 0 210.334 42.333 287.001 127c74.667 82 112 181 112 297c0 116.667 -37 215.667 -111 297
c-76.667 84.667 -172.667 127 -288 127s-211.666 -42 -288.999 -126c-74.667 -82 -112 -181.333 -112 -298zM433.998 1081l215 351h133l-268 -351h-80z" />
    <glyph glyph-name="ocircumflex" unicode="&#xf4;" horiz-adv-x="1110" 
d="M66 483c0 137.333 47.332 255.334 141.999 354.001s210.334 148 347.001 148c137.333 0 253.333 -49.667 348 -149c92.667 -97.333 139 -215 139 -353s-46.833 -256 -140.5 -354s-209.167 -147 -346.5 -147c-136.667 0 -252.667 49.667 -348 149
c-94 97.333 -141 214.666 -141 351.999zM153.999 485.001c0 -116.667 37.332 -216 111.999 -298c77.333 -84 173.666 -126 288.999 -126c114.667 0 210.334 42.333 287.001 127c74.667 82 112 181 112 297c0 116.667 -37 215.667 -111 297
c-76.667 84.667 -172.667 127 -288 127s-211.666 -42 -288.999 -126c-74.667 -82 -112 -181.333 -112 -298zM280.998 1081l208 351h132l206 -351h-79l-193 277l-193 -277h-81z" />
    <glyph glyph-name="otilde" unicode="&#xf5;" horiz-adv-x="1110" 
d="M66 483c0 137.333 47.332 255.334 141.999 354.001s210.334 148 347.001 148c137.333 0 253.333 -49.667 348 -149c92.667 -97.333 139 -215 139 -353s-46.833 -256 -140.5 -354s-209.167 -147 -346.5 -147c-136.667 0 -252.667 49.667 -348 149
c-94 97.333 -141 214.666 -141 351.999zM153.999 485.001c0 -116.667 37.332 -216 111.999 -298c77.333 -84 173.666 -126 288.999 -126c114.667 0 210.334 42.333 287.001 127c74.667 82 112 181 112 297c0 116.667 -37 215.667 -111 297
c-76.667 84.667 -172.667 127 -288 127s-211.666 -42 -288.999 -126c-74.667 -82 -112 -181.333 -112 -298zM837.998 1339c-36 -114.667 -96.332 -172 -180.999 -172c-25.333 0 -61.833 7.83301 -109.5 23.5s-84.167 23.5 -109.5 23.5c-40 0 -72 -22.333 -96 -67h-72
c31.333 113.333 92.333 170 183 170c25.333 0 60.666 -7.83301 105.999 -23.5s80.333 -23.5 105 -23.5c42 0 76 23 102 69h72z" />
    <glyph glyph-name="odieresis" unicode="&#xf6;" horiz-adv-x="1110" 
d="M66 483c0 137.333 47.332 255.334 141.999 354.001s210.334 148 347.001 148c137.333 0 253.333 -49.667 348 -149c92.667 -97.333 139 -215 139 -353s-46.833 -256 -140.5 -354s-209.167 -147 -346.5 -147c-136.667 0 -252.667 49.667 -348 149
c-94 97.333 -141 214.666 -141 351.999zM153.999 485.001c0 -116.667 37.332 -216 111.999 -298c77.333 -84 173.666 -126 288.999 -126c114.667 0 210.334 42.333 287.001 127c74.667 82 112 181 112 297c0 116.667 -37 215.667 -111 297
c-76.667 84.667 -172.667 127 -288 127s-211.666 -42 -288.999 -126c-74.667 -82 -112 -181.333 -112 -298zM650.998 1237c0 20.667 7.50098 38.832 22.501 54.499s32.833 23.5 53.5 23.5c21.333 0 39.666 -7.66699 54.999 -23s23 -33.666 23 -54.999c0 -52 -26 -78 -78 -78
c-50.667 0 -76 26 -76 78zM304.999 1237c0 20.667 7.50098 38.832 22.501 54.499s32.833 23.5 53.5 23.5c21.333 0 39.666 -7.66699 54.999 -23s23 -33.666 23 -54.999c0 -52 -26 -78 -78 -78c-50.667 0 -76 26 -76 78z" />
    <glyph glyph-name="divide" unicode="&#xf7;" horiz-adv-x="1706" 
d="M854 365c28 0 51.333 -9.83301 70 -29.5s28 -43.5 28 -71.5c0 -27.333 -9.5 -50.5 -28.5 -69.5s-42.167 -28.5 -69.5 -28.5s-50.5 9.5 -69.5 28.5s-28.5 42.167 -28.5 69.5s9.5 51 28.5 71s42.167 30 69.5 30zM1452 651v-82h-1198v82h1198zM854 1055
c28 0 51.333 -9.49902 70 -28.499s28 -42.5 28 -70.5c0 -27.333 -9.5 -50.833 -28.5 -70.5s-42.167 -29.5 -69.5 -29.5s-50.5 9.83301 -69.5 29.5s-28.5 43.167 -28.5 70.5s9.5 50.666 28.5 69.999s42.167 29 69.5 29z" />
    <glyph glyph-name="oslash" unicode="&#xf8;" horiz-adv-x="1110" 
d="M61 -76l-55 56l174 180c-76 100 -114 208.333 -114 325c0 136.667 47.833 254.5 143.5 353.5s211.5 148.5 347.5 148.5c112 0 215.667 -39 311 -117l170 177l56 -56l-170 -178c78.667 -93.333 118 -204 118 -332c0 -136.667 -47.167 -254 -141.5 -352
s-209.5 -147 -345.5 -147c-124 0 -231.333 40.667 -322 122zM242 221l571 590c-78.667 66.667 -164 100 -256 100c-114.667 0 -211 -42 -289 -126c-76 -81.333 -114 -180 -114 -296c0 -100 29.333 -189.333 88 -268zM866 754l-573.001 -590
c75.333 -68.667 162 -103 260 -103c116.667 0 213.334 42.667 290.001 128c74 82 111 182 111 300c0 98.667 -29.333 187 -88 265z" />
    <glyph glyph-name="ugrave" unicode="&#xf9;" 
d="M821 967h84.001v-547c0 -128 -33 -231.667 -99 -311c-70 -84.667 -168 -127 -294 -127s-224 42.333 -294 127c-66 79.333 -99 183 -99 311v547h82v-574c0 -96.667 27.333 -176 82 -238c57.333 -65.333 133.666 -98 228.999 -98s171.333 32.667 228 98
c54 62 81 141.333 81 238v574zM633.001 1081h-80l-268 351h133z" />
    <glyph glyph-name="uacute" unicode="&#xfa;" 
d="M821 967h84.001v-547c0 -128 -33 -231.667 -99 -311c-70 -84.667 -168 -127 -294 -127s-224 42.333 -294 127c-66 79.333 -99 183 -99 311v547h82v-574c0 -96.667 27.333 -176 82 -238c57.333 -65.333 133.666 -98 228.999 -98s171.333 32.667 228 98
c54 62 81 141.333 81 238v574zM391.001 1081l215 351h133l-268 -351h-80z" />
    <glyph glyph-name="ucircumflex" unicode="&#xfb;" 
d="M821 967h84.001v-547c0 -128 -33 -231.667 -99 -311c-70 -84.667 -168 -127 -294 -127s-224 42.333 -294 127c-66 79.333 -99 183 -99 311v547h82v-574c0 -96.667 27.333 -176 82 -238c57.333 -65.333 133.666 -98 228.999 -98s171.333 32.667 228 98
c54 62 81 141.333 81 238v574zM238.001 1081l208 351h132l206 -351h-79l-193 277l-193 -277h-81z" />
    <glyph glyph-name="udieresis" unicode="&#xfc;" 
d="M821 967h84.001v-547c0 -128 -33 -231.667 -99 -311c-70 -84.667 -168 -127 -294 -127s-224 42.333 -294 127c-66 79.333 -99 183 -99 311v547h82v-574c0 -96.667 27.333 -176 82 -238c57.333 -65.333 133.666 -98 228.999 -98s171.333 32.667 228 98
c54 62 81 141.333 81 238v574zM608.001 1237c0 20.667 7.50098 38.832 22.501 54.499s32.833 23.5 53.5 23.5c21.333 0 39.666 -7.66699 54.999 -23s23 -33.666 23 -54.999c0 -52 -26 -78 -78 -78c-50.667 0 -76 26 -76 78zM262.002 1237
c0 20.667 7.50098 38.832 22.501 54.499s32.833 23.5 53.5 23.5c21.333 0 39.666 -7.66699 54.999 -23s23 -33.666 23 -54.999c0 -52 -26 -78 -78 -78c-50.667 0 -76 26 -76 78z" />
    <glyph glyph-name="yacute" unicode="&#xfd;" 
d="M821 967l84.001 -0.000976562v-547c0 -259.333 -117.333 -404.666 -352 -435.999v-420h-84v420c-233.333 34.667 -350 180 -350 436v547h82v-574c0 -96.667 27.333 -176 82 -238c57.333 -65.333 133.666 -98 228.999 -98s171.333 32.667 228 98c54 62 81 141.333 81 238
v574zM391.001 1081l215 351h133l-268 -351h-80z" />
    <glyph glyph-name="thorn" unicode="&#xfe;" horiz-adv-x="1157" 
d="M119 1432l83.998 -0.000976562v-666c41.333 69.333 99 123.333 173 162c70.667 38 147.334 57 230.001 57c142 0 258.667 -48.333 350 -145c89.333 -94.667 134 -213.667 134 -357c0 -141.333 -45.667 -260 -137 -356c-93.333 -96.667 -210.333 -145 -351 -145
c-127.333 0 -238.666 43.667 -333.999 131v110c96 -108 207.333 -162 334 -162c119.333 0 216.666 41 291.999 123c73.333 80 110 180.333 110 301c0 118.667 -37 218.334 -111 299.001c-76 83.333 -173 125 -291 125c-131.333 0 -232.666 -47.667 -303.999 -143
c-63.333 -85.333 -95 -196 -95 -332v-870h-84v1868z" />
    <glyph glyph-name="ydieresis" unicode="&#xff;" 
d="M821 967l84.001 -0.000976562v-547c0 -259.333 -117.333 -404.666 -352 -435.999v-420h-84v420c-233.333 34.667 -350 180 -350 436v547h82v-574c0 -96.667 27.333 -176 82 -238c57.333 -65.333 133.666 -98 228.999 -98s171.333 32.667 228 98c54 62 81 141.333 81 238
v574zM608.001 1237c0 20.667 7.50098 38.832 22.501 54.499s32.833 23.5 53.5 23.5c21.333 0 39.666 -7.66699 54.999 -23s23 -33.666 23 -54.999c0 -52 -26 -78 -78 -78c-50.667 0 -76 26 -76 78zM262.002 1237c0 20.667 7.50098 38.832 22.501 54.499
s32.833 23.5 53.5 23.5c21.333 0 39.666 -7.66699 54.999 -23s23 -33.666 23 -54.999c0 -52 -26 -78 -78 -78c-50.667 0 -76 26 -76 78z" />
    <glyph glyph-name="glyph271" unicode="&#x102;" horiz-adv-x="1204" 
d="M127 0l0.000976562 926c0 154.667 40 280 120 376c85.333 102.667 203.666 154 354.999 154s269.333 -51.667 354 -155c79.333 -96 119 -221 119 -375v-926h-90v711h-696v80h696v104c0 319.333 -127.667 479 -383 479c-256.667 0 -385 -159.667 -385 -479v-895h-90z
M336.001 1803l60.999 2c6.66699 -103.333 75 -155 205 -155c128.667 0 196.334 51.667 203.001 155l63 -2c-11.333 -169.333 -100 -254 -266 -254s-254.667 84.667 -266 254z" />
    <glyph glyph-name="glyph272" unicode="&#x103;" horiz-adv-x="1157" 
d="M954 0l0.000976562 434.003c0 135.333 -32 245.666 -96 330.999c-71.333 96 -172.333 144 -303 144c-118 0 -215 -41.667 -291 -125c-73.333 -80.667 -110 -180.334 -110 -299.001c0 -120.667 36.333 -220.667 109 -300c75.333 -82.667 172.666 -124 291.999 -124
c126.667 0 238 54 334 162v-110c-95.333 -87.333 -206.666 -131 -333.999 -131c-140.667 0 -257.334 48.167 -350.001 144.5s-139 215.166 -139 356.499c0 144 44.667 263 134 357c91.333 96.667 208.333 145 351 145c113.333 0 214.333 -34.833 303 -104.5
s144.667 -159.5 168 -269.5c10.667 -50.667 16 -111.667 16 -183v-428h-84zM284.001 1382l60.999 2c6.66699 -103.333 75 -155 205 -155c128.667 0 196.334 51.667 203.001 155l63 -2c-11.333 -169.333 -100 -254 -266 -254s-254.667 84.667 -266 254z" />
    <glyph glyph-name="Cacute" unicode="&#x106;" horiz-adv-x="1012" 
d="M944 79l0.000976562 -79h-72c-240.667 -0 -431.334 58.333 -572.001 175c-152 125.333 -228 306 -228 542c0 236.667 75.333 417.667 226 543c140 116 330.667 174 572 174c36 0 60.667 -1 74 -3v-79c-21.333 1.33301 -50 2 -86 2c-210.667 0 -377 -52.667 -499 -158
c-128.667 -112 -193 -271.667 -193 -479c0 -208.667 65.333 -369 196 -481c122.667 -105.333 290 -158 502 -158h40c18 0.666992 31.333 1 40 1zM567.001 1564l215 351h133l-268 -351h-80z" />
    <glyph glyph-name="cacute" unicode="&#x107;" horiz-adv-x="782" 
d="M737 891l-89.999 -0.000976562c-130.667 0 -238.667 -34.667 -324 -104c-92.667 -75.333 -139 -176.666 -139 -303.999c0 -126.667 46.333 -227.667 139 -303c86 -69.333 194 -104 324 -104h90v-76h-73c-162.667 0 -295.334 38.667 -398.001 116
c-113.333 86.667 -170 209 -170 367c0 110 33.333 207.667 100 293s153.667 142 261 170c54 14 123 21 207 21h73v-76zM411.001 1081l215 351h133l-268 -351h-80z" />
    <glyph glyph-name="Ccaron" unicode="&#x10c;" horiz-adv-x="1012" 
d="M944 79l0.000976562 -79h-72c-240.667 -0 -431.334 58.333 -572.001 175c-152 125.333 -228 306 -228 542c0 236.667 75.333 417.667 226 543c140 116 330.667 174 572 174c36 0 60.667 -1 74 -3v-79c-21.333 1.33301 -50 2 -86 2c-210.667 0 -377 -52.667 -499 -158
c-128.667 -112 -193 -271.667 -193 -479c0 -208.667 65.333 -369 196 -481c122.667 -105.333 290 -158 502 -158h40c18 0.666992 31.333 1 40 1zM414.001 1915h81l193 -277l193 277h79l-206 -351h-132z" />
    <glyph glyph-name="ccaron" unicode="&#x10d;" horiz-adv-x="782" 
d="M737 891l-89.999 -0.000976562c-130.667 0 -238.667 -34.667 -324 -104c-92.667 -75.333 -139 -176.666 -139 -303.999c0 -126.667 46.333 -227.667 139 -303c86 -69.333 194 -104 324 -104h90v-76h-73c-162.667 0 -295.334 38.667 -398.001 116
c-113.333 86.667 -170 209 -170 367c0 110 33.333 207.667 100 293s153.667 142 261 170c54 14 123 21 207 21h73v-76zM258.001 1432h81l193 -277l193 277h79l-206 -351h-132z" />
    <glyph glyph-name="Dslash" unicode="&#x110;" horiz-adv-x="1276" 
d="M307 80c12 -2.66699 43.333 -4.00195 94 -4.00195c215.333 0 385 52 509 156c133.333 112 200 273.667 200 485c0 134 -33 253.667 -99 359c-69.333 110.667 -165.333 188.334 -288 233.001c-83.333 30 -192 45 -326 45h-155v-568h362v-71h-362v-715h-90v715h-142v71h142
v646h235c113.333 0 209.166 -8.33301 287.499 -25s145.833 -42.667 202.5 -78c218 -135.333 327 -339.333 327 -612c0 -239.333 -77 -421.666 -231 -546.999c-141.333 -114.667 -334.666 -172 -579.999 -172c-42 0 -70.667 1 -86 3v79z" />
    <glyph glyph-name="dcroat" unicode="&#x111;" horiz-adv-x="1157" 
d="M954 1432l83.998 -0.000976562v-201h119v-62h-119v-630c0 -162 -40 -293 -120 -393c-86.667 -109.333 -209 -164 -367 -164c-141.333 0 -258 48.333 -350 145c-90 94.667 -135 213.334 -135 356.001c0 143.333 45.833 262.833 137.5 358.5s208.834 143.5 351.501 143.5
c126 0 237.333 -43.667 334 -131v-111c-96 108 -207.333 162 -334 162c-119.333 0 -216.666 -41.333 -291.999 -124c-72.667 -79.333 -109 -179.333 -109 -300c0 -118 37 -217.667 111 -299c76 -83.333 172.667 -125 290 -125c130.667 0 231.667 48 303 144
c64 86 96 196.333 96 331v637h-395v62h395v201z" />
    <glyph glyph-name="Gbreve" unicode="&#x11e;" horiz-adv-x="1583" 
d="M803 684v81.999h710v-16c0 -76 -7 -145.333 -21 -208c-36.667 -164 -120.5 -299.5 -251.5 -406.5s-280.167 -160.5 -447.5 -160.5c-202 0 -373 73.667 -513 221c-138.667 144.667 -208 318.334 -208 521.001c0 209.333 71.5 384.833 214.5 526.5
s319.167 212.5 528.5 212.5c202.667 0 383 -77 541 -231l-64 -58c-138 140.667 -295.667 211 -473 211c-184.667 0 -339.667 -63.5 -465 -190.5s-188 -283.167 -188 -468.5c0 -178 59.667 -331.333 179 -460c122 -132 271.333 -198 448 -198
c168.667 0 314.167 61.5 436.5 184.5s184.833 269.167 187.5 438.5h-614zM527 1865l60.999 2c6.66699 -103.333 75 -155 205 -155c128.667 0 196.334 51.667 203.001 155l63 -2c-11.333 -169.333 -100 -254 -266 -254s-254.667 84.667 -266 254z" />
    <glyph glyph-name="gbreve" unicode="&#x11f;" horiz-adv-x="1157" 
d="M1038 39c0 -150 -40.9961 -269.331 -122.996 -357.998c-84.667 -92 -201.334 -138 -350.001 -138c-80.667 0 -178.334 18.667 -293.001 56l29 84c113.333 -37.333 202.666 -56 267.999 -56c123.333 0 219 38.333 287 115c65.333 73.333 98 172.333 98 297v395
c0 134.667 -32 245 -96 331c-71.333 96 -172.333 144 -303 144c-117.333 0 -214 -41.667 -290 -125c-74 -80.667 -111 -180.334 -111 -299.001c0 -120.667 36.333 -220.667 109 -300c75.333 -82.667 172.666 -124 291.999 -124c126.667 0 238 54 334 162v-110
c-95.333 -87.333 -206.666 -131 -333.999 -131c-140.667 0 -257.334 48.167 -350.001 144.5s-139 215.166 -139 356.499c0 144 44.667 263 134 357c91.333 96.667 208.333 145 351 145c113.333 0 214.333 -34.833 303 -104.5s144.667 -159.5 168 -269.5
c10.667 -50.667 16 -111.667 16 -183v-389zM314.004 1382l60.999 2c6.66699 -103.333 75 -155 205 -155c128.667 0 196.334 51.667 203.001 155l63 -2c-11.333 -169.333 -100 -254 -266 -254s-254.667 84.667 -266 254z" />
    <glyph glyph-name="glyph273" unicode="&#x128;" horiz-adv-x="389" 
d="M150 0v1432h90v-1432h-90zM483 1822c-36 -114.667 -96.332 -172 -180.999 -172c-25.333 0 -61.833 7.83301 -109.5 23.5s-84.167 23.5 -109.5 23.5c-40 0 -72 -22.333 -96 -67h-72c31.333 113.333 92.333 170 183 170c25.333 0 60.666 -7.83301 105.999 -23.5
s80.333 -23.5 105 -23.5c42 0 76 23 102 69h72z" />
    <glyph glyph-name="glyph274" unicode="&#x129;" horiz-adv-x="350" 
d="M133 0v967h84v-967h-84zM470 1339c-36 -114.667 -96.332 -172 -180.999 -172c-25.333 0 -61.833 7.83301 -109.5 23.5s-84.167 23.5 -109.5 23.5c-40 0 -72 -22.333 -96 -67h-72c31.333 113.333 92.333 170 183 170c25.333 0 60.666 -7.83301 105.999 -23.5
s80.333 -23.5 105 -23.5c42 0 76 23 102 69h72z" />
    <glyph glyph-name="Idotaccent" unicode="&#x130;" horiz-adv-x="389" 
d="M150 0v1432h90v-1432h-90zM117 1736c0 20.667 7.83301 38.832 23.5 54.499s33.834 23.5 54.501 23.5c21.333 0 39.666 -7.66699 54.999 -23s23 -33.666 23 -54.999c0 -51.333 -26 -77 -78 -77s-78 25.667 -78 77z" />
    <glyph glyph-name="dotlessi" unicode="&#x131;" horiz-adv-x="350" 
d="M133 0v967h84v-967h-84z" />
    <glyph glyph-name="Lslash" unicode="&#x141;" horiz-adv-x="844" 
d="M141 662l-131 -93v86l131 95v682h90v-637l256 180v-92l-256 -178v-271c0 -234.667 114.667 -352 344 -352h279v-82h-250c-308.667 0 -463 151.667 -463 455v207z" />
    <glyph glyph-name="lslash" unicode="&#x142;" horiz-adv-x="371" 
d="M143 0v666l-133 -95v76l133 92v693h84v-650l133 95v-76l-133 -92v-709h-84z" />
    <glyph glyph-name="OE" unicode="&#x152;" horiz-adv-x="2464" 
d="M166 719c0 -178 59.667 -331.333 179 -460c122 -132 271.333 -198 448 -198c175.333 0 324 66.333 446 199c118.667 128.667 178 281.667 178 459c0 178 -59 331 -177 459c-121.333 130.667 -270.333 196 -447 196c-177.333 0 -327 -65.333 -449 -196
c-118.667 -127.333 -178 -280.333 -178 -459zM2290 80l0.00292969 -80.001c-17.333 -1.33301 -42 -2 -74 -2c-384 0 -634 151 -750 453c-60.667 -146.667 -148.334 -261.667 -263.001 -345c-119.333 -87.333 -256 -131 -410 -131c-202 0 -373 73.667 -513 221
c-138.667 144.667 -208 318.334 -208 521.001c0 202 69.833 375.667 209.5 521s310.167 218 511.5 218c155.333 0 292.333 -43.667 411 -131c113.333 -83.333 200.666 -198.666 261.999 -345.999c121.333 303.333 371.333 455 750 455c35.333 0 60 -1 74 -3l-1 -79
c-20 1.33301 -48.333 2 -85 2c-404 0 -634.333 -187.667 -691 -563h777v-80h-779c11.333 -207.333 77.666 -365 198.999 -473c117.333 -104.667 281.333 -158.667 492 -162h30c19.333 -0.666992 38.666 0.666016 58 3.99902z" />
    <glyph glyph-name="oe" unicode="&#x153;" horiz-adv-x="1993" 
d="M156 485c0 -116.667 37.332 -216 111.999 -298c77.333 -84 173.666 -126 288.999 -126c114.667 0 210.667 42.333 288 127c75.333 82 113 181 113 297s-37.333 215.333 -112 298c-77.333 85.333 -173.666 128 -288.999 128s-211.666 -42.667 -288.999 -128
c-74.667 -82.667 -112 -182 -112 -298zM1929 471c-8 -141.333 -55.6621 -257.334 -142.995 -348.001c-90.667 -94 -206 -141 -346 -141c-98.667 0 -187.334 26.333 -266.001 79s-136.334 124.334 -173.001 215.001c-94.667 -196 -242.667 -294 -444 -294
c-136.667 0 -252.334 49.667 -347.001 149c-93.333 97.333 -140 214.666 -140 351.999c0 138 46.833 256.167 140.5 354.5s209.167 147.5 346.5 147.5c202.667 0 350.667 -97.667 444 -293c38 92.667 96.5 164.667 175.5 216s168.833 77 269.5 77
c175.333 0 313.333 -80.667 414 -242l-674 -450l-41 65l600 400c-76 102 -175.667 153 -299 153c-116.667 0 -213.5 -41.667 -290.5 -125s-115.5 -183.666 -115.5 -300.999c0 -116.667 37.667 -216 113 -298c77.333 -84 173.666 -126 288.999 -126s209.666 40 282.999 120
c69.333 76 108 172.667 116 290h88z" />
    <glyph glyph-name="Scedilla" unicode="&#x15e;" horiz-adv-x="1071" 
d="M86 0l0.000976562 86.001h338c136.667 0 238.667 13.667 306 41c104.667 42 157 120.333 157 235c0 68.667 -20.667 126 -62 172c-39.333 44 -149 101.5 -329 172.5s-292.667 132.833 -338 185.5c-48 55.333 -72 128 -72 218c0 214.667 151 322 453 322h360v-78h-385
c-225.333 0 -338 -79.333 -338 -238c0 -66.667 18.667 -121.334 56 -164.001c34.667 -40.667 113 -85 235 -133l142 -56c123.333 -48.667 209.666 -93.667 258.999 -135c78 -66 117 -152.333 117 -259c0 -128.667 -46 -224.667 -138 -288c-78.667 -54 -185 -81 -319 -81
h-442zM344.001 -417.999l-0.00195312 68c94.667 -20.667 171.334 -31 230.001 -31c92.667 0 139 33.333 139 100c0 69.333 -50.667 104 -152 104c-17.333 0 -36.666 -1 -57.999 -3l48 235h62l-35 -170c143.333 0 215 -53.667 215 -161c0 -118 -73.667 -177 -221 -177
c-62.667 0 -138.667 11.667 -228 35z" />
    <glyph glyph-name="scedilla" unicode="&#x15f;" horiz-adv-x="877" 
d="M70 80h419c154.667 0 232 54 232 162c0 82.667 -56 144 -168 184l-313 93c-112 47.333 -168 121.333 -168 222c0 150.667 101.667 226 305 226h356v-78h-387c-126.667 0 -190 -50.667 -190 -152c0 -70 56 -124 168 -162l313 -96c112 -51.333 168 -128.333 168 -231
c0 -165.333 -125.667 -248 -377 -248h-358v80zM245 -418l-0.00195312 68c94.667 -20.667 171.334 -31 230.001 -31c92.667 0 139 33.333 139 100c0 69.333 -50.667 104 -152 104c-17.333 0 -36.666 -1 -57.999 -3l48 235h62l-35 -170c143.333 0 215 -53.667 215 -161
c0 -118 -73.667 -177 -221 -177c-62.667 0 -138.667 11.667 -228 35z" />
    <glyph glyph-name="Scaron" unicode="&#x160;" horiz-adv-x="1071" 
d="M86 0l0.000976562 86.001h338c136.667 0 238.667 13.667 306 41c104.667 42 157 120.333 157 235c0 68.667 -20.667 126 -62 172c-39.333 44 -149 101.5 -329 172.5s-292.667 132.833 -338 185.5c-48 55.333 -72 128 -72 218c0 214.667 151 322 453 322h360v-78h-385
c-225.333 0 -338 -79.333 -338 -238c0 -66.667 18.667 -121.334 56 -164.001c34.667 -40.667 113 -85 235 -133l142 -56c123.333 -48.667 209.666 -93.667 258.999 -135c78 -66 117 -152.333 117 -259c0 -128.667 -46 -224.667 -138 -288c-78.667 -54 -185 -81 -319 -81
h-442zM263.001 1915h81l193 -277l193 277h79l-206 -351h-132z" />
    <glyph glyph-name="scaron" unicode="&#x161;" horiz-adv-x="877" 
d="M70 80h419c154.667 0 232 54 232 162c0 82.667 -56 144 -168 184l-313 93c-112 47.333 -168 121.333 -168 222c0 150.667 101.667 226 305 226h356v-78h-387c-126.667 0 -190 -50.667 -190 -152c0 -70 56 -124 168 -162l313 -96c112 -51.333 168 -128.333 168 -231
c0 -165.333 -125.667 -248 -377 -248h-358v80zM164 1432h81l193 -277l193 277h79l-206 -351h-132z" />
    <glyph glyph-name="glyph275" unicode="&#x168;" horiz-adv-x="1204" 
d="M1075 1432l-0.000976562 -926c0 -154.667 -39.333 -280 -118 -376c-85.333 -103.333 -203.666 -155 -354.999 -155s-270 51.667 -356 155c-79.333 96 -119 221.333 -119 376v926h90v-891c0 -320 128.333 -480 385 -480c255.333 0 383 160 383 480v891h90zM891.999 1822
c-36 -114.667 -96.332 -172 -180.999 -172c-25.333 0 -61.833 7.83301 -109.5 23.5s-84.167 23.5 -109.5 23.5c-40 0 -72 -22.333 -96 -67h-72c31.333 113.333 92.333 170 183 170c25.333 0 60.666 -7.83301 105.999 -23.5s80.333 -23.5 105 -23.5c42 0 76 23 102 69h72z
" />
    <glyph glyph-name="glyph276" unicode="&#x169;" 
d="M821 967h84.001v-547c0 -128 -33 -231.667 -99 -311c-70 -84.667 -168 -127 -294 -127s-224 42.333 -294 127c-66 79.333 -99 183 -99 311v547h82v-574c0 -96.667 27.333 -176 82 -238c57.333 -65.333 133.666 -98 228.999 -98s171.333 32.667 228 98
c54 62 81 141.333 81 238v574zM810.001 1339c-36 -114.667 -96.332 -172 -180.999 -172c-25.333 0 -61.833 7.83301 -109.5 23.5s-84.167 23.5 -109.5 23.5c-40 0 -72 -22.333 -96 -67h-72c31.333 113.333 92.333 170 183 170c25.333 0 60.666 -7.83301 105.999 -23.5
s80.333 -23.5 105 -23.5c42 0 76 23 102 69h72z" />
    <glyph glyph-name="Ydieresis" unicode="&#x178;" horiz-adv-x="1081" 
d="M205 1432l-0.000976562 -336.001c0 -280 112 -420 336 -420s336 140 336 420v336h90v-361c0 -132 -30.667 -238.333 -92 -319c-65.333 -87.333 -161.666 -138.666 -288.999 -153.999v-598h-90v598c-254 34 -381 191.667 -381 473v361h90zM636.999 1720
c0 20.667 7.50098 38.832 22.501 54.499s32.833 23.5 53.5 23.5c21.333 0 39.666 -7.66699 54.999 -23s23 -33.666 23 -54.999c0 -52 -26 -78 -78 -78c-50.667 0 -76 26 -76 78zM291 1720c0 20.667 7.50098 38.832 22.501 54.499s32.833 23.5 53.5 23.5
c21.333 0 39.666 -7.66699 54.999 -23s23 -33.666 23 -54.999c0 -52 -26 -78 -78 -78c-50.667 0 -76 26 -76 78z" />
    <glyph glyph-name="Zcaron" unicode="&#x17d;" horiz-adv-x="995" 
d="M952 82v-82h-770c-92.667 0 -139 34 -139 102c0 33.333 15.667 72.333 47 117l750 1069c8 11.333 12 22.333 12 33c0 20.667 -17 31 -51 31h-666v80h674c87.333 0 131 -35 131 -105c0 -32.667 -11 -64.667 -33 -96l-755 -1075c-11.333 -16 -17 -29.667 -17 -41
c0 -22 17.667 -33 53 -33h764zM224 1915h81l193 -277l193 277h79l-206 -351h-132z" />
    <glyph glyph-name="zcaron" unicode="&#x17e;" horiz-adv-x="807" 
d="M150 109c0 -16.667 14.333 -24.999 43 -24.999h567v-84h-584c-82 0 -123 32 -123 96c0 27.333 17 61.666 51 102.999l527 639c8 10 12 18.667 12 26c0 16.667 -12.333 25 -37 25h-504v78h497c89.333 0 134 -30 134 -90c0 -31.333 -14.333 -64.333 -43 -99l-524 -635
c-10.667 -12.667 -16 -24 -16 -34zM129 1432h81l193 -277l193 277h79l-206 -351h-132z" />
    <glyph glyph-name="florin" unicode="&#x192;" horiz-adv-x="1096" 
d="M903 1450h143.996v-76h-168c-114 0 -183.667 -65.333 -209 -196l-72 -369h289v-80h-303l-166 -852c-35.333 -180 -133.666 -270 -294.999 -270h-162v76c14.667 0 35.334 -0.333008 62.001 -1s46 -1 58 -1c76 0 131.333 10.667 166 32c46.667 28.667 77.667 84 93 166
l160 850h-283v80h299l74 371c18.667 94 51.834 162.5 99.501 205.5s118.834 64.5 213.501 64.5z" />
    <glyph glyph-name="glyph277" unicode="&#x1a0;" horiz-adv-x="1583" 
d="M166 719c0 -178 59.667 -331.333 179 -460c122 -132 271.333 -198 448 -198c175.333 0 324 66.333 446 199c118.667 128.667 178 281.667 178 459c0 178 -59 331 -177 459c-121.333 130.667 -270.333 196 -447 196c-177.333 0 -327 -65.333 -449 -196
c-118.667 -127.333 -178 -280.333 -178 -459zM72 717c0 202 69.833 375.667 209.5 521s310.167 218 511.5 218c200 0 370.333 -73.333 511 -220c138 -144.667 207 -317.667 207 -519c0 -202 -69 -375.333 -207 -520c-140 -148 -310.333 -222 -511 -222
c-202 0 -373.333 73.333 -514 220c-138 144.667 -207 318.667 -207 522zM1212 1223l157 298h112l-189 -298h-80z" />
    <glyph glyph-name="glyph278" unicode="&#x1a1;" horiz-adv-x="1110" 
d="M66 483c0 137.333 47.332 255.334 141.999 354.001s210.334 148 347.001 148c137.333 0 253.333 -49.667 348 -149c92.667 -97.333 139 -215 139 -353s-46.833 -256 -140.5 -354s-209.167 -147 -346.5 -147c-136.667 0 -252.667 49.667 -348 149
c-94 97.333 -141 214.666 -141 351.999zM153.999 485.001c0 -116.667 37.332 -216 111.999 -298c77.333 -84 173.666 -126 288.999 -126c114.667 0 210.334 42.333 287.001 127c74.667 82 112 181 112 297c0 116.667 -37 215.667 -111 297
c-76.667 84.667 -172.667 127 -288 127s-211.666 -42 -288.999 -126c-74.667 -82 -112 -181.333 -112 -298zM821.998 807.001l157 298h112l-189 -298h-80z" />
    <glyph glyph-name="glyph279" unicode="&#x1af;" horiz-adv-x="1237" 
d="M1075 1432l-0.000976562 -926c0 -154.667 -39.333 -280 -118 -376c-85.333 -103.333 -203.666 -155 -354.999 -155s-270 51.667 -356 155c-79.333 96 -119 221.333 -119 376v926h90v-891c0 -320 128.333 -480 385 -480c255.333 0 383 160 383 480v891h90zM992.999 1223
l157 298h112l-189 -298h-80z" />
    <glyph glyph-name="glyph280" unicode="&#x1b0;" horiz-adv-x="1048" 
d="M821 967h84.001v-547c0 -128 -33 -231.667 -99 -311c-70 -84.667 -168 -127 -294 -127s-224 42.333 -294 127c-66 79.333 -99 183 -99 311v547h82v-574c0 -96.667 27.333 -176 82 -238c57.333 -65.333 133.666 -98 228.999 -98s171.333 32.667 228 98
c54 62 81 141.333 81 238v574zM822.001 807l157 298h112l-189 -298h-80z" />
    <glyph glyph-name="circumflex" unicode="&#x2c6;" 
d="M238 1081l208 351h132l206 -351h-79l-193 277l-193 -277h-81z" />
    <glyph glyph-name="caron" unicode="&#x2c7;" 
d="M238 1432h81l193 -277l193 277h79l-206 -351h-132z" />
    <glyph glyph-name="breve" unicode="&#x2d8;" 
d="M246 1382l60.999 2c6.66699 -103.333 75 -155 205 -155c128.667 0 196.334 51.667 203.001 155l63 -2c-11.333 -169.333 -100 -254 -266 -254s-254.667 84.667 -266 254z" />
    <glyph glyph-name="dotaccent" unicode="&#x2d9;" 
d="M434 1253c0 20.667 7.83301 38.832 23.5 54.499s33.834 23.5 54.501 23.5c21.333 0 39.666 -7.66699 54.999 -23s23 -33.666 23 -54.999c0 -51.333 -26 -77 -78 -77s-78 25.667 -78 77z" />
    <glyph glyph-name="ring" unicode="&#x2da;" 
d="M358 1313c0 -42.667 15 -79 45 -109s66.333 -45 109 -45c43.333 0 79.833 14.833 109.5 44.5s44.5 66.167 44.5 109.5s-14.833 79.333 -44.5 108s-66.167 43 -109.5 43c-42.667 0 -79 -14.5 -109 -43.5s-45 -64.833 -45 -107.5zM279 1313c0 66 22.333 121 67 165
s100 66 166 66s121.333 -22 166 -66s67 -99 67 -165s-22.333 -121.833 -67 -167.5s-100 -68.5 -166 -68.5s-121.333 22.833 -166 68.5s-67 101.5 -67 167.5z" />
    <glyph glyph-name="ogonek" unicode="&#x2db;" 
d="M549 0c-105.333 -90 -158 -171.332 -158 -243.999c0 -48.667 22.333 -78.334 67 -89.001c12.667 -3.33301 54.667 -5 126 -5v-78h-68c-134 0 -201 52 -201 156c0 80 59 166.667 177 260h57z" />
    <glyph glyph-name="tilde" unicode="&#x2dc;" 
d="M795 1339c-36 -114.667 -96.332 -172 -180.999 -172c-25.333 0 -61.833 7.83301 -109.5 23.5s-84.167 23.5 -109.5 23.5c-40 0 -72 -22.333 -96 -67h-72c31.333 113.333 92.333 170 183 170c25.333 0 60.666 -7.83301 105.999 -23.5s80.333 -23.5 105 -23.5
c42 0 76 23 102 69h72z" />
    <glyph glyph-name="hungarumlaut" unicode="&#x2dd;" 
d="M571 1098l172 348h119l-225 -348h-66zM342 1098l152 348h118l-206 -348h-64z" />
    <glyph glyph-name="Delta" unicode="&#x394;" horiz-adv-x="1335" 
d="M1155 121l-487 1233l-490 -1233h977zM754 1473l592 -1473h-1358l594 1473h172z" />
    <glyph glyph-name="Delta" unicode="&#x2206;" horiz-adv-x="1335" 
d="M1155 121l-487 1233l-490 -1233h977zM754 1473l592 -1473h-1358l594 1473h172z" />
    <glyph glyph-name="Omega" unicode="&#x3a9;" horiz-adv-x="1585" 
d="M1452 121l0.000976562 -121h-573v102c292 182 438 410 438 684c0 168.667 -44.333 309.334 -133 422.001c-96.667 123.333 -227 185 -391 185c-164.667 0 -295.334 -61.333 -392.001 -184c-88.667 -113.333 -133 -254.333 -133 -423
c0 -274.667 146.333 -502.667 439 -684v-102h-572v121h354c-240 173.333 -360 395 -360 665c0 203.333 59 373.666 177 510.999c124 144 286.333 216 487 216c200 0 362 -72.333 486 -217c118 -136.667 177 -306.667 177 -510c0 -270 -120 -491.667 -360 -665h356z" />
    <glyph glyph-name="Omega" unicode="&#x2126;" horiz-adv-x="1585" 
d="M1452 121l0.000976562 -121h-573v102c292 182 438 410 438 684c0 168.667 -44.333 309.334 -133 422.001c-96.667 123.333 -227 185 -391 185c-164.667 0 -295.334 -61.333 -392.001 -184c-88.667 -113.333 -133 -254.333 -133 -423
c0 -274.667 146.333 -502.667 439 -684v-102h-572v121h354c-240 173.333 -360 395 -360 665c0 203.333 59 373.666 177 510.999c124 144 286.333 216 487 216c200 0 362 -72.333 486 -217c118 -136.667 177 -306.667 177 -510c0 -270 -120 -491.667 -360 -665h356z" />
    <glyph glyph-name="pi" unicode="&#x3c0;" horiz-adv-x="1155" 
d="M1102 958h-182.002l-119 -565c-19.333 -92 -29 -154.667 -29 -188c0 -71.333 36.333 -107 109 -107c34.667 0 65.334 3.33301 92.001 10l-25 -108c-34.667 -10.667 -66.667 -16 -96 -16c-62 0 -110.667 18.167 -146 54.5s-53 85.5 -53 147.5
c0 55.333 18.667 172.333 56 351l88 421h-381l-203 -958h-121l201 958h-39c-70.667 0 -113 -44.333 -127 -133h-121c16.667 92 45.834 154.667 87.501 188s109.5 50 203.5 50h829z" />
    <glyph glyph-name="glyph281" unicode="&#x1ea0;" horiz-adv-x="1204" 
d="M127 0l0.000976562 926c0 154.667 40 280 120 376c85.333 102.667 203.666 154 354.999 154s269.333 -51.667 354 -155c79.333 -96 119 -221 119 -375v-926h-90v711h-696v80h696v104c0 319.333 -127.667 479 -383 479c-256.667 0 -385 -159.667 -385 -479v-895h-90z
M526.001 -228c0 21.333 7.5 39.167 22.5 53.5s33.167 21.5 54.5 21.5c50.667 0 76 -25 76 -75c0 -22 -7.16699 -40.5 -21.5 -55.5s-32.5 -22.5 -54.5 -22.5s-40.333 7.5 -55 22.5s-22 33.5 -22 55.5z" />
    <glyph glyph-name="glyph282" unicode="&#x1ea1;" horiz-adv-x="1157" 
d="M954 0l0.000976562 434.003c0 135.333 -32 245.666 -96 330.999c-71.333 96 -172.333 144 -303 144c-118 0 -215 -41.667 -291 -125c-73.333 -80.667 -110 -180.334 -110 -299.001c0 -120.667 36.333 -220.667 109 -300c75.333 -82.667 172.666 -124 291.999 -124
c126.667 0 238 54 334 162v-110c-95.333 -87.333 -206.666 -131 -333.999 -131c-140.667 0 -257.334 48.167 -350.001 144.5s-139 215.166 -139 356.499c0 144 44.667 263 134 357c91.333 96.667 208.333 145 351 145c113.333 0 214.333 -34.833 303 -104.5
s144.667 -159.5 168 -269.5c10.667 -50.667 16 -111.667 16 -183v-428h-84zM478.001 -227.997c0 21.333 7.5 39.167 22.5 53.5s33.167 21.5 54.5 21.5c50.667 0 76 -25 76 -75c0 -22 -7.16699 -40.5 -21.5 -55.5s-32.5 -22.5 -54.5 -22.5s-40.333 7.5 -55 22.5
s-22 33.5 -22 55.5z" />
    <glyph glyph-name="glyph283" unicode="&#x1ea2;" horiz-adv-x="1204" 
d="M127 0l0.000976562 926c0 154.667 40 280 120 376c85.333 102.667 203.666 154 354.999 154s269.333 -51.667 354 -155c79.333 -96 119 -221 119 -375v-926h-90v711h-696v80h696v104c0 319.333 -127.667 479 -383 479c-256.667 0 -385 -159.667 -385 -479v-895h-90z
M425.001 1781c0 50.667 18.667 93.502 56 128.502s81.333 52.5 132 52.5c53.333 0 98.333 -17.833 135 -53.5s55 -79.834 55 -132.501c0 -46.667 -15.667 -87.834 -47 -123.501s-70 -56.5 -116 -62.5v-67h-69v145c39.333 0 72.333 8 99 24c32.667 19.333 49 47.333 49 84
c0 72 -35.333 108 -106 108c-64 0 -100 -34.333 -108 -103h-80z" />
    <glyph glyph-name="glyph284" unicode="&#x1ea3;" horiz-adv-x="1157" 
d="M954 0l0.000976562 434.003c0 135.333 -32 245.666 -96 330.999c-71.333 96 -172.333 144 -303 144c-118 0 -215 -41.667 -291 -125c-73.333 -80.667 -110 -180.334 -110 -299.001c0 -120.667 36.333 -220.667 109 -300c75.333 -82.667 172.666 -124 291.999 -124
c126.667 0 238 54 334 162v-110c-95.333 -87.333 -206.666 -131 -333.999 -131c-140.667 0 -257.334 48.167 -350.001 144.5s-139 215.166 -139 356.499c0 144 44.667 263 134 357c91.333 96.667 208.333 145 351 145c113.333 0 214.333 -34.833 303 -104.5
s144.667 -159.5 168 -269.5c10.667 -50.667 16 -111.667 16 -183v-428h-84zM388.001 1319c0 50.667 18.667 93.502 56 128.502s81.333 52.5 132 52.5c53.333 0 98.333 -17.833 135 -53.5s55 -79.834 55 -132.501c0 -46.667 -15.667 -87.834 -47 -123.501
s-70 -56.5 -116 -62.5v-67h-69v145c39.333 0 72.333 8 99 24c32.667 19.333 49 47.333 49 84c0 72 -35.333 108 -106 108c-64 0 -100 -34.333 -108 -103h-80z" />
    <glyph glyph-name="glyph285" unicode="&#x1ea4;" horiz-adv-x="1204" 
d="M127 0l0.000976562 926c0 154.667 40 280 120 376c85.333 102.667 203.666 154 354.999 154s269.333 -51.667 354 -155c79.333 -96 119 -221 119 -375v-926h-90v711h-696v80h696v104c0 319.333 -127.667 479 -383 479c-256.667 0 -385 -159.667 -385 -479v-895h-90z
M328.001 1514l208 351h132l206 -351h-79l-193 277l-193 -277h-81zM408.001 1909l215 351h133l-268 -351h-80z" />
    <glyph glyph-name="glyph286" unicode="&#x1ea5;" horiz-adv-x="1157" 
d="M954 0l0.000976562 434.003c0 135.333 -32 245.666 -96 330.999c-71.333 96 -172.333 144 -303 144c-118 0 -215 -41.667 -291 -125c-73.333 -80.667 -110 -180.334 -110 -299.001c0 -120.667 36.333 -220.667 109 -300c75.333 -82.667 172.666 -124 291.999 -124
c126.667 0 238 54 334 162v-110c-95.333 -87.333 -206.666 -131 -333.999 -131c-140.667 0 -257.334 48.167 -350.001 144.5s-139 215.166 -139 356.499c0 144 44.667 263 134 357c91.333 96.667 208.333 145 351 145c113.333 0 214.333 -34.833 303 -104.5
s144.667 -159.5 168 -269.5c10.667 -50.667 16 -111.667 16 -183v-428h-84zM277.001 1081l208 351h132l206 -351h-79l-193 277l-193 -277h-81zM357.001 1476l215 351h133l-268 -351h-80z" />
    <glyph glyph-name="glyph287" unicode="&#x1ea6;" horiz-adv-x="1204" 
d="M127 0l0.000976562 926c0 154.667 40 280 120 376c85.333 102.667 203.666 154 354.999 154s269.333 -51.667 354 -155c79.333 -96 119 -221 119 -375v-926h-90v711h-696v80h696v104c0 319.333 -127.667 479 -383 479c-256.667 0 -385 -159.667 -385 -479v-895h-90z
M328.001 1514l208 351h132l206 -351h-79l-193 277l-193 -277h-81zM627.001 2073c0 50.667 18.667 93.502 56 128.502s81.333 52.5 132 52.5c53.333 0 98.333 -17.833 135 -53.5s55 -79.834 55 -132.501c0 -46.667 -15.667 -87.834 -47 -123.501s-70 -56.5 -116 -62.5v-67
h-69v145c39.333 0 72.333 8 99 24c32.667 19.333 49 47.333 49 84c0 72 -35.333 108 -106 108c-64 0 -100 -34.333 -108 -103h-80z" />
    <glyph glyph-name="glyph288" unicode="&#x1ea7;" horiz-adv-x="1157" 
d="M954 0l0.000976562 434.003c0 135.333 -32 245.666 -96 330.999c-71.333 96 -172.333 144 -303 144c-118 0 -215 -41.667 -291 -125c-73.333 -80.667 -110 -180.334 -110 -299.001c0 -120.667 36.333 -220.667 109 -300c75.333 -82.667 172.666 -124 291.999 -124
c126.667 0 238 54 334 162v-110c-95.333 -87.333 -206.666 -131 -333.999 -131c-140.667 0 -257.334 48.167 -350.001 144.5s-139 215.166 -139 356.499c0 144 44.667 263 134 357c91.333 96.667 208.333 145 351 145c113.333 0 214.333 -34.833 303 -104.5
s144.667 -159.5 168 -269.5c10.667 -50.667 16 -111.667 16 -183v-428h-84zM277.001 1081l208 351h132l206 -351h-79l-193 277l-193 -277h-81zM745.001 1476h-80l-268 351h133z" />
    <glyph glyph-name="glyph289" unicode="&#x1ea8;" horiz-adv-x="1204" 
d="M127 0l0.000976562 926c0 154.667 40 280 120 376c85.333 102.667 203.666 154 354.999 154s269.333 -51.667 354 -155c79.333 -96 119 -221 119 -375v-926h-90v711h-696v80h696v104c0 319.333 -127.667 479 -383 479c-256.667 0 -385 -159.667 -385 -479v-895h-90z
M328.001 1514l208 351h132l206 -351h-79l-193 277l-193 -277h-81zM627.001 2073c0 50.667 18.667 93.502 56 128.502s81.333 52.5 132 52.5c53.333 0 98.333 -17.833 135 -53.5s55 -79.834 55 -132.501c0 -46.667 -15.667 -87.834 -47 -123.501s-70 -56.5 -116 -62.5v-67
h-69v145c39.333 0 72.333 8 99 24c32.667 19.333 49 47.333 49 84c0 72 -35.333 108 -106 108c-64 0 -100 -34.333 -108 -103h-80z" />
    <glyph glyph-name="glyph290" unicode="&#x1ea9;" horiz-adv-x="1157" 
d="M954 0l0.000976562 434.003c0 135.333 -32 245.666 -96 330.999c-71.333 96 -172.333 144 -303 144c-118 0 -215 -41.667 -291 -125c-73.333 -80.667 -110 -180.334 -110 -299.001c0 -120.667 36.333 -220.667 109 -300c75.333 -82.667 172.666 -124 291.999 -124
c126.667 0 238 54 334 162v-110c-95.333 -87.333 -206.666 -131 -333.999 -131c-140.667 0 -257.334 48.167 -350.001 144.5s-139 215.166 -139 356.499c0 144 44.667 263 134 357c91.333 96.667 208.333 145 351 145c113.333 0 214.333 -34.833 303 -104.5
s144.667 -159.5 168 -269.5c10.667 -50.667 16 -111.667 16 -183v-428h-84zM277.001 1081l208 351h132l206 -351h-79l-193 277l-193 -277h-81zM576.001 1640c0 50.667 18.667 93.502 56 128.502s81.333 52.5 132 52.5c53.333 0 98.333 -17.833 135 -53.5
s55 -79.834 55 -132.501c0 -46.667 -15.667 -87.834 -47 -123.501s-70 -56.5 -116 -62.5v-67h-69v145c39.333 0 72.333 8 99 24c32.667 19.333 49 47.333 49 84c0 72 -35.333 108 -106 108c-64 0 -100 -34.333 -108 -103h-80z" />
    <glyph glyph-name="glyph291" unicode="&#x1eaa;" horiz-adv-x="1204" 
d="M127 0l0.000976562 926c0 154.667 40 280 120 376c85.333 102.667 203.666 154 354.999 154s269.333 -51.667 354 -155c79.333 -96 119 -221 119 -375v-926h-90v711h-696v80h696v104c0 319.333 -127.667 479 -383 479c-256.667 0 -385 -159.667 -385 -479v-895h-90z
M328.001 1514l208 351h132l206 -351h-79l-193 277l-193 -277h-81zM959.001 2139c-36 -114.667 -96.332 -172 -180.999 -172c-25.333 0 -61.833 7.83301 -109.5 23.5s-84.167 23.5 -109.5 23.5c-40 0 -72 -22.333 -96 -67h-72c31.333 113.333 92.333 170 183 170
c25.333 0 60.666 -7.83301 105.999 -23.5s80.333 -23.5 105 -23.5c42 0 76 23 102 69h72z" />
    <glyph glyph-name="glyph292" unicode="&#x1eab;" horiz-adv-x="1157" 
d="M954 0l0.000976562 434.003c0 135.333 -32 245.666 -96 330.999c-71.333 96 -172.333 144 -303 144c-118 0 -215 -41.667 -291 -125c-73.333 -80.667 -110 -180.334 -110 -299.001c0 -120.667 36.333 -220.667 109 -300c75.333 -82.667 172.666 -124 291.999 -124
c126.667 0 238 54 334 162v-110c-95.333 -87.333 -206.666 -131 -333.999 -131c-140.667 0 -257.334 48.167 -350.001 144.5s-139 215.166 -139 356.499c0 144 44.667 263 134 357c91.333 96.667 208.333 145 351 145c113.333 0 214.333 -34.833 303 -104.5
s144.667 -159.5 168 -269.5c10.667 -50.667 16 -111.667 16 -183v-428h-84zM277.001 1081l208 351h132l206 -351h-79l-193 277l-193 -277h-81zM907.001 1706c-36 -114.667 -96.332 -172 -180.999 -172c-25.333 0 -61.833 7.83301 -109.5 23.5s-84.167 23.5 -109.5 23.5
c-40 0 -72 -22.333 -96 -67h-72c31.333 113.333 92.333 170 183 170c25.333 0 60.666 -7.83301 105.999 -23.5s80.333 -23.5 105 -23.5c42 0 76 23 102 69h72z" />
    <glyph glyph-name="glyph293" unicode="&#x1eac;" horiz-adv-x="1204" 
d="M127 0l0.000976562 926c0 154.667 40 280 120 376c85.333 102.667 203.666 154 354.999 154s269.333 -51.667 354 -155c79.333 -96 119 -221 119 -375v-926h-90v711h-696v80h696v104c0 319.333 -127.667 479 -383 479c-256.667 0 -385 -159.667 -385 -479v-895h-90z
M328.001 1514l208 351h132l206 -351h-79l-193 277l-193 -277h-81zM526.001 -228c0 21.333 7.5 39.167 22.5 53.5s33.167 21.5 54.5 21.5c50.667 0 76 -25 76 -75c0 -22 -7.16699 -40.5 -21.5 -55.5s-32.5 -22.5 -54.5 -22.5s-40.333 7.5 -55 22.5s-22 33.5 -22 55.5z" />
    <glyph glyph-name="glyph294" unicode="&#x1ead;" horiz-adv-x="1157" 
d="M954 0l0.000976562 434.003c0 135.333 -32 245.666 -96 330.999c-71.333 96 -172.333 144 -303 144c-118 0 -215 -41.667 -291 -125c-73.333 -80.667 -110 -180.334 -110 -299.001c0 -120.667 36.333 -220.667 109 -300c75.333 -82.667 172.666 -124 291.999 -124
c126.667 0 238 54 334 162v-110c-95.333 -87.333 -206.666 -131 -333.999 -131c-140.667 0 -257.334 48.167 -350.001 144.5s-139 215.166 -139 356.499c0 144 44.667 263 134 357c91.333 96.667 208.333 145 351 145c113.333 0 214.333 -34.833 303 -104.5
s144.667 -159.5 168 -269.5c10.667 -50.667 16 -111.667 16 -183v-428h-84zM277.001 1081l208 351h132l206 -351h-79l-193 277l-193 -277h-81zM478.001 -227.997c0 21.333 7.5 39.167 22.5 53.5s33.167 21.5 54.5 21.5c50.667 0 76 -25 76 -75
c0 -22 -7.16699 -40.5 -21.5 -55.5s-32.5 -22.5 -54.5 -22.5s-40.333 7.5 -55 22.5s-22 33.5 -22 55.5z" />
    <glyph glyph-name="glyph295" unicode="&#x1eae;" horiz-adv-x="1204" 
d="M127 0l0.000976562 926c0 154.667 40 280 120 376c85.333 102.667 203.666 154 354.999 154s269.333 -51.667 354 -155c79.333 -96 119 -221 119 -375v-926h-90v711h-696v80h696v104c0 319.333 -127.667 479 -383 479c-256.667 0 -385 -159.667 -385 -479v-895h-90z
M336.001 1803l60.999 2c6.66699 -103.333 75 -155 205 -155c128.667 0 196.334 51.667 203.001 155l63 -2c-11.333 -169.333 -100 -254 -266 -254s-254.667 84.667 -266 254z" />
    <glyph glyph-name="glyph296" unicode="&#x1eaf;" horiz-adv-x="1157" 
d="M954 0l0.000976562 434.003c0 135.333 -32 245.666 -96 330.999c-71.333 96 -172.333 144 -303 144c-118 0 -215 -41.667 -291 -125c-73.333 -80.667 -110 -180.334 -110 -299.001c0 -120.667 36.333 -220.667 109 -300c75.333 -82.667 172.666 -124 291.999 -124
c126.667 0 238 54 334 162v-110c-95.333 -87.333 -206.666 -131 -333.999 -131c-140.667 0 -257.334 48.167 -350.001 144.5s-139 215.166 -139 356.499c0 144 44.667 263 134 357c91.333 96.667 208.333 145 351 145c113.333 0 214.333 -34.833 303 -104.5
s144.667 -159.5 168 -269.5c10.667 -50.667 16 -111.667 16 -183v-428h-84zM284.001 1382l60.999 2c6.66699 -103.333 75 -155 205 -155c128.667 0 196.334 51.667 203.001 155l63 -2c-11.333 -169.333 -100 -254 -266 -254s-254.667 84.667 -266 254z" />
    <glyph glyph-name="glyph297" unicode="&#x1eb0;" horiz-adv-x="1204" 
d="M127 0l0.000976562 926c0 154.667 40 280 120 376c85.333 102.667 203.666 154 354.999 154s269.333 -51.667 354 -155c79.333 -96 119 -221 119 -375v-926h-90v711h-696v80h696v104c0 319.333 -127.667 479 -383 479c-256.667 0 -385 -159.667 -385 -479v-895h-90z
M336.001 1803l60.999 2c6.66699 -103.333 75 -155 205 -155c128.667 0 196.334 51.667 203.001 155l63 -2c-11.333 -169.333 -100 -254 -266 -254s-254.667 84.667 -266 254z" />
    <glyph glyph-name="glyph298" unicode="&#x1eb1;" horiz-adv-x="1157" 
d="M954 0l0.000976562 434.003c0 135.333 -32 245.666 -96 330.999c-71.333 96 -172.333 144 -303 144c-118 0 -215 -41.667 -291 -125c-73.333 -80.667 -110 -180.334 -110 -299.001c0 -120.667 36.333 -220.667 109 -300c75.333 -82.667 172.666 -124 291.999 -124
c126.667 0 238 54 334 162v-110c-95.333 -87.333 -206.666 -131 -333.999 -131c-140.667 0 -257.334 48.167 -350.001 144.5s-139 215.166 -139 356.499c0 144 44.667 263 134 357c91.333 96.667 208.333 145 351 145c113.333 0 214.333 -34.833 303 -104.5
s144.667 -159.5 168 -269.5c10.667 -50.667 16 -111.667 16 -183v-428h-84zM284.001 1382l60.999 2c6.66699 -103.333 75 -155 205 -155c128.667 0 196.334 51.667 203.001 155l63 -2c-11.333 -169.333 -100 -254 -266 -254s-254.667 84.667 -266 254z" />
    <glyph glyph-name="glyph299" unicode="&#x1eb2;" horiz-adv-x="1204" 
d="M127 0l0.000976562 926c0 154.667 40 280 120 376c85.333 102.667 203.666 154 354.999 154s269.333 -51.667 354 -155c79.333 -96 119 -221 119 -375v-926h-90v711h-696v80h696v104c0 319.333 -127.667 479 -383 479c-256.667 0 -385 -159.667 -385 -479v-895h-90z
M336.001 1803l60.999 2c6.66699 -103.333 75 -155 205 -155c128.667 0 196.334 51.667 203.001 155l63 -2c-11.333 -169.333 -100 -254 -266 -254s-254.667 84.667 -266 254z" />
    <glyph glyph-name="glyph300" unicode="&#x1eb3;" horiz-adv-x="1157" 
d="M954 0l0.000976562 434.003c0 135.333 -32 245.666 -96 330.999c-71.333 96 -172.333 144 -303 144c-118 0 -215 -41.667 -291 -125c-73.333 -80.667 -110 -180.334 -110 -299.001c0 -120.667 36.333 -220.667 109 -300c75.333 -82.667 172.666 -124 291.999 -124
c126.667 0 238 54 334 162v-110c-95.333 -87.333 -206.666 -131 -333.999 -131c-140.667 0 -257.334 48.167 -350.001 144.5s-139 215.166 -139 356.499c0 144 44.667 263 134 357c91.333 96.667 208.333 145 351 145c113.333 0 214.333 -34.833 303 -104.5
s144.667 -159.5 168 -269.5c10.667 -50.667 16 -111.667 16 -183v-428h-84zM284.001 1382l60.999 2c6.66699 -103.333 75 -155 205 -155c128.667 0 196.334 51.667 203.001 155l63 -2c-11.333 -169.333 -100 -254 -266 -254s-254.667 84.667 -266 254z" />
    <glyph glyph-name="glyph301" unicode="&#x1eb4;" horiz-adv-x="1204" 
d="M127 0l0.000976562 926c0 154.667 40 280 120 376c85.333 102.667 203.666 154 354.999 154s269.333 -51.667 354 -155c79.333 -96 119 -221 119 -375v-926h-90v711h-696v80h696v104c0 319.333 -127.667 479 -383 479c-256.667 0 -385 -159.667 -385 -479v-895h-90z
M336.001 1803l60.999 2c6.66699 -103.333 75 -155 205 -155c128.667 0 196.334 51.667 203.001 155l63 -2c-11.333 -169.333 -100 -254 -266 -254s-254.667 84.667 -266 254z" />
    <glyph glyph-name="glyph302" unicode="&#x1eb5;" horiz-adv-x="1157" 
d="M954 0l0.000976562 434.003c0 135.333 -32 245.666 -96 330.999c-71.333 96 -172.333 144 -303 144c-118 0 -215 -41.667 -291 -125c-73.333 -80.667 -110 -180.334 -110 -299.001c0 -120.667 36.333 -220.667 109 -300c75.333 -82.667 172.666 -124 291.999 -124
c126.667 0 238 54 334 162v-110c-95.333 -87.333 -206.666 -131 -333.999 -131c-140.667 0 -257.334 48.167 -350.001 144.5s-139 215.166 -139 356.499c0 144 44.667 263 134 357c91.333 96.667 208.333 145 351 145c113.333 0 214.333 -34.833 303 -104.5
s144.667 -159.5 168 -269.5c10.667 -50.667 16 -111.667 16 -183v-428h-84zM284.001 1382l60.999 2c6.66699 -103.333 75 -155 205 -155c128.667 0 196.334 51.667 203.001 155l63 -2c-11.333 -169.333 -100 -254 -266 -254s-254.667 84.667 -266 254z" />
    <glyph glyph-name="glyph303" unicode="&#x1eb6;" horiz-adv-x="1204" 
d="M127 0l0.000976562 926c0 154.667 40 280 120 376c85.333 102.667 203.666 154 354.999 154s269.333 -51.667 354 -155c79.333 -96 119 -221 119 -375v-926h-90v711h-696v80h696v104c0 319.333 -127.667 479 -383 479c-256.667 0 -385 -159.667 -385 -479v-895h-90z
M336.001 1803l60.999 2c6.66699 -103.333 75 -155 205 -155c128.667 0 196.334 51.667 203.001 155l63 -2c-11.333 -169.333 -100 -254 -266 -254s-254.667 84.667 -266 254zM526 -228c0 21.333 7.5 39.167 22.5 53.5s33.167 21.5 54.5 21.5c50.667 0 76 -25 76 -75
c0 -22 -7.16699 -40.5 -21.5 -55.5s-32.5 -22.5 -54.5 -22.5s-40.333 7.5 -55 22.5s-22 33.5 -22 55.5z" />
    <glyph glyph-name="glyph304" unicode="&#x1eb7;" horiz-adv-x="1157" 
d="M954 0l0.000976562 434.003c0 135.333 -32 245.666 -96 330.999c-71.333 96 -172.333 144 -303 144c-118 0 -215 -41.667 -291 -125c-73.333 -80.667 -110 -180.334 -110 -299.001c0 -120.667 36.333 -220.667 109 -300c75.333 -82.667 172.666 -124 291.999 -124
c126.667 0 238 54 334 162v-110c-95.333 -87.333 -206.666 -131 -333.999 -131c-140.667 0 -257.334 48.167 -350.001 144.5s-139 215.166 -139 356.499c0 144 44.667 263 134 357c91.333 96.667 208.333 145 351 145c113.333 0 214.333 -34.833 303 -104.5
s144.667 -159.5 168 -269.5c10.667 -50.667 16 -111.667 16 -183v-428h-84zM284.001 1382l60.999 2c6.66699 -103.333 75 -155 205 -155c128.667 0 196.334 51.667 203.001 155l63 -2c-11.333 -169.333 -100 -254 -266 -254s-254.667 84.667 -266 254zM478 -227.997
c0 21.333 7.5 39.167 22.5 53.5s33.167 21.5 54.5 21.5c50.667 0 76 -25 76 -75c0 -22 -7.16699 -40.5 -21.5 -55.5s-32.5 -22.5 -54.5 -22.5s-40.333 7.5 -55 22.5s-22 33.5 -22 55.5z" />
    <glyph glyph-name="glyph305" unicode="&#x1eb8;" 
d="M944 0h-59.001c-199.333 0 -350.333 28.667 -453 86c-114.667 64 -203.667 152.333 -267 265c-62 110 -93 232 -93 366c0 172 50 321.833 150 449.5s233.667 208.5 401 242.5c75.333 15.333 182.333 23 321 23v-80c-20 1.33301 -48 2 -84 2
c-197.333 0 -354.666 -46 -471.999 -138c-124 -97.333 -196.667 -242 -218 -434h774v-82h-776c11.333 -207.333 78.666 -364 201.999 -470c118 -101.333 282 -152 492 -152h41c18.667 0.666992 32.334 1 41.001 1v-79zM595.999 -228c0 21.333 7.5 39.167 22.5 53.5
s33.167 21.5 54.5 21.5c50.667 0 76 -25 76 -75c0 -22 -7.16699 -40.5 -21.5 -55.5s-32.5 -22.5 -54.5 -22.5s-40.333 7.5 -55 22.5s-22 33.5 -22 55.5z" />
    <glyph glyph-name="glyph306" unicode="&#x1eb9;" horiz-adv-x="1104" 
d="M1042 471c-8 -140 -55.6611 -255.666 -142.994 -346.999c-90.667 -94.667 -205.334 -142 -344.001 -142c-136.667 0 -252.334 49.167 -347.001 147.5s-142 216.166 -142 353.499c0 139.333 47.667 257.833 143 355.5s212.666 146.5 351.999 146.5
c178 0 315.333 -80.667 412 -242l-674 -450l-39 65l598 400c-74.667 102 -174.334 153 -299.001 153c-116.667 0 -213.667 -42.333 -291 -127c-76 -82 -114 -181.667 -114 -299c0 -116.667 37.333 -216 112 -298c77.333 -84 173.666 -126 288.999 -126
s209.666 40 282.999 120c69.333 76 108 172.667 116 290h88zM478.006 -227.999c0 21.333 7.5 39.167 22.5 53.5s33.167 21.5 54.5 21.5c50.667 0 76 -25 76 -75c0 -22 -7.16699 -40.5 -21.5 -55.5s-32.5 -22.5 -54.5 -22.5s-40.333 7.5 -55 22.5s-22 33.5 -22 55.5z" />
    <glyph glyph-name="glyph307" unicode="&#x1eba;" 
d="M944 0h-59.001c-199.333 0 -350.333 28.667 -453 86c-114.667 64 -203.667 152.333 -267 265c-62 110 -93 232 -93 366c0 172 50 321.833 150 449.5s233.667 208.5 401 242.5c75.333 15.333 182.333 23 321 23v-80c-20 1.33301 -48 2 -84 2
c-197.333 0 -354.666 -46 -471.999 -138c-124 -97.333 -196.667 -242 -218 -434h774v-82h-776c11.333 -207.333 78.666 -364 201.999 -470c118 -101.333 282 -152 492 -152h41c18.667 0.666992 32.334 1 41.001 1v-79zM564.999 1781c0 50.667 18.667 93.502 56 128.502
s81.333 52.5 132 52.5c53.333 0 98.333 -17.833 135 -53.5s55 -79.834 55 -132.501c0 -46.667 -15.667 -87.834 -47 -123.501s-70 -56.5 -116 -62.5v-67h-69v145c39.333 0 72.333 8 99 24c32.667 19.333 49 47.333 49 84c0 72 -35.333 108 -106 108
c-64 0 -100 -34.333 -108 -103h-80z" />
    <glyph glyph-name="glyph308" unicode="&#x1ebb;" horiz-adv-x="1104" 
d="M1042 471c-8 -140 -55.6611 -255.666 -142.994 -346.999c-90.667 -94.667 -205.334 -142 -344.001 -142c-136.667 0 -252.334 49.167 -347.001 147.5s-142 216.166 -142 353.499c0 139.333 47.667 257.833 143 355.5s212.666 146.5 351.999 146.5
c178 0 315.333 -80.667 412 -242l-674 -450l-39 65l598 400c-74.667 102 -174.334 153 -299.001 153c-116.667 0 -213.667 -42.333 -291 -127c-76 -82 -114 -181.667 -114 -299c0 -116.667 37.333 -216 112 -298c77.333 -84 173.666 -126 288.999 -126
s209.666 40 282.999 120c69.333 76 108 172.667 116 290h88zM378.006 1319c0 50.667 18.667 93.502 56 128.502s81.333 52.5 132 52.5c53.333 0 98.333 -17.833 135 -53.5s55 -79.834 55 -132.501c0 -46.667 -15.667 -87.834 -47 -123.501s-70 -56.5 -116 -62.5v-67h-69v145
c39.333 0 72.333 8 99 24c32.667 19.333 49 47.333 49 84c0 72 -35.333 108 -106 108c-64 0 -100 -34.333 -108 -103h-80z" />
    <glyph glyph-name="glyph309" unicode="&#x1ebc;" 
d="M944 0h-59.001c-199.333 0 -350.333 28.667 -453 86c-114.667 64 -203.667 152.333 -267 265c-62 110 -93 232 -93 366c0 172 50 321.833 150 449.5s233.667 208.5 401 242.5c75.333 15.333 182.333 23 321 23v-80c-20 1.33301 -48 2 -84 2
c-197.333 0 -354.666 -46 -471.999 -138c-124 -97.333 -196.667 -242 -218 -434h774v-82h-776c11.333 -207.333 78.666 -364 201.999 -470c118 -101.333 282 -152 492 -152h41c18.667 0.666992 32.334 1 41.001 1v-79zM951.999 1822
c-36 -114.667 -96.332 -172 -180.999 -172c-25.333 0 -61.833 7.83301 -109.5 23.5s-84.167 23.5 -109.5 23.5c-40 0 -72 -22.333 -96 -67h-72c31.333 113.333 92.333 170 183 170c25.333 0 60.666 -7.83301 105.999 -23.5s80.333 -23.5 105 -23.5c42 0 76 23 102 69h72z
" />
    <glyph glyph-name="glyph310" unicode="&#x1ebd;" horiz-adv-x="1104" 
d="M1042 471c-8 -140 -55.6611 -255.666 -142.994 -346.999c-90.667 -94.667 -205.334 -142 -344.001 -142c-136.667 0 -252.334 49.167 -347.001 147.5s-142 216.166 -142 353.499c0 139.333 47.667 257.833 143 355.5s212.666 146.5 351.999 146.5
c178 0 315.333 -80.667 412 -242l-674 -450l-39 65l598 400c-74.667 102 -174.334 153 -299.001 153c-116.667 0 -213.667 -42.333 -291 -127c-76 -82 -114 -181.667 -114 -299c0 -116.667 37.333 -216 112 -298c77.333 -84 173.666 -126 288.999 -126
s209.666 40 282.999 120c69.333 76 108 172.667 116 290h88zM849.006 1339c-36 -114.667 -96.332 -172 -180.999 -172c-25.333 0 -61.833 7.83301 -109.5 23.5s-84.167 23.5 -109.5 23.5c-40 0 -72 -22.333 -96 -67h-72c31.333 113.333 92.333 170 183 170
c25.333 0 60.666 -7.83301 105.999 -23.5s80.333 -23.5 105 -23.5c42 0 76 23 102 69h72z" />
    <glyph glyph-name="glyph311" unicode="&#x1ebe;" 
d="M944 0h-59.001c-199.333 0 -350.333 28.667 -453 86c-114.667 64 -203.667 152.333 -267 265c-62 110 -93 232 -93 366c0 172 50 321.833 150 449.5s233.667 208.5 401 242.5c75.333 15.333 182.333 23 321 23v-80c-20 1.33301 -48 2 -84 2
c-197.333 0 -354.666 -46 -471.999 -138c-124 -97.333 -196.667 -242 -218 -434h774v-82h-776c11.333 -207.333 78.666 -364 201.999 -470c118 -101.333 282 -152 492 -152h41c18.667 0.666992 32.334 1 41.001 1v-79zM397.999 1514l208 351h132l206 -351h-79l-193 277
l-193 -277h-81zM477.999 1909l215 351h133l-268 -351h-80z" />
    <glyph glyph-name="glyph312" unicode="&#x1ebf;" horiz-adv-x="1104" 
d="M1042 471c-8 -140 -55.6611 -255.666 -142.994 -346.999c-90.667 -94.667 -205.334 -142 -344.001 -142c-136.667 0 -252.334 49.167 -347.001 147.5s-142 216.166 -142 353.499c0 139.333 47.667 257.833 143 355.5s212.666 146.5 351.999 146.5
c178 0 315.333 -80.667 412 -242l-674 -450l-39 65l598 400c-74.667 102 -174.334 153 -299.001 153c-116.667 0 -213.667 -42.333 -291 -127c-76 -82 -114 -181.667 -114 -299c0 -116.667 37.333 -216 112 -298c77.333 -84 173.666 -126 288.999 -126
s209.666 40 282.999 120c69.333 76 108 172.667 116 290h88zM279.006 1081l208 351h132l206 -351h-79l-193 277l-193 -277h-81zM359.006 1476l215 351h133l-268 -351h-80z" />
    <glyph glyph-name="glyph313" unicode="&#x1ec0;" 
d="M944 0h-59.001c-199.333 0 -350.333 28.667 -453 86c-114.667 64 -203.667 152.333 -267 265c-62 110 -93 232 -93 366c0 172 50 321.833 150 449.5s233.667 208.5 401 242.5c75.333 15.333 182.333 23 321 23v-80c-20 1.33301 -48 2 -84 2
c-197.333 0 -354.666 -46 -471.999 -138c-124 -97.333 -196.667 -242 -218 -434h774v-82h-776c11.333 -207.333 78.666 -364 201.999 -470c118 -101.333 282 -152 492 -152h41c18.667 0.666992 32.334 1 41.001 1v-79zM397.999 1514l208 351h132l206 -351h-79l-193 277
l-193 -277h-81zM865.999 1909h-80l-268 351h133z" />
    <glyph glyph-name="glyph314" unicode="&#x1ec1;" horiz-adv-x="1104" 
d="M1042 471c-8 -140 -55.6611 -255.666 -142.994 -346.999c-90.667 -94.667 -205.334 -142 -344.001 -142c-136.667 0 -252.334 49.167 -347.001 147.5s-142 216.166 -142 353.499c0 139.333 47.667 257.833 143 355.5s212.666 146.5 351.999 146.5
c178 0 315.333 -80.667 412 -242l-674 -450l-39 65l598 400c-74.667 102 -174.334 153 -299.001 153c-116.667 0 -213.667 -42.333 -291 -127c-76 -82 -114 -181.667 -114 -299c0 -116.667 37.333 -216 112 -298c77.333 -84 173.666 -126 288.999 -126
s209.666 40 282.999 120c69.333 76 108 172.667 116 290h88zM279.006 1081l208 351h132l206 -351h-79l-193 277l-193 -277h-81zM747.006 1476h-80l-268 351h133z" />
    <glyph glyph-name="glyph315" unicode="&#x1ec2;" 
d="M944 0h-59.001c-199.333 0 -350.333 28.667 -453 86c-114.667 64 -203.667 152.333 -267 265c-62 110 -93 232 -93 366c0 172 50 321.833 150 449.5s233.667 208.5 401 242.5c75.333 15.333 182.333 23 321 23v-80c-20 1.33301 -48 2 -84 2
c-197.333 0 -354.666 -46 -471.999 -138c-124 -97.333 -196.667 -242 -218 -434h774v-82h-776c11.333 -207.333 78.666 -364 201.999 -470c118 -101.333 282 -152 492 -152h41c18.667 0.666992 32.334 1 41.001 1v-79zM397.999 1514l208 351h132l206 -351h-79l-193 277
l-193 -277h-81zM696.999 2073c0 50.667 18.667 93.502 56 128.502s81.333 52.5 132 52.5c53.333 0 98.333 -17.833 135 -53.5s55 -79.834 55 -132.501c0 -46.667 -15.667 -87.834 -47 -123.501s-70 -56.5 -116 -62.5v-67h-69v145c39.333 0 72.333 8 99 24
c32.667 19.333 49 47.333 49 84c0 72 -35.333 108 -106 108c-64 0 -100 -34.333 -108 -103h-80z" />
    <glyph glyph-name="glyph316" unicode="&#x1ec3;" horiz-adv-x="1104" 
d="M1042 471c-8 -140 -55.6611 -255.666 -142.994 -346.999c-90.667 -94.667 -205.334 -142 -344.001 -142c-136.667 0 -252.334 49.167 -347.001 147.5s-142 216.166 -142 353.499c0 139.333 47.667 257.833 143 355.5s212.666 146.5 351.999 146.5
c178 0 315.333 -80.667 412 -242l-674 -450l-39 65l598 400c-74.667 102 -174.334 153 -299.001 153c-116.667 0 -213.667 -42.333 -291 -127c-76 -82 -114 -181.667 -114 -299c0 -116.667 37.333 -216 112 -298c77.333 -84 173.666 -126 288.999 -126
s209.666 40 282.999 120c69.333 76 108 172.667 116 290h88zM279.006 1081l208 351h132l206 -351h-79l-193 277l-193 -277h-81zM578.006 1640c0 50.667 18.667 93.502 56 128.502s81.333 52.5 132 52.5c53.333 0 98.333 -17.833 135 -53.5s55 -79.834 55 -132.501
c0 -46.667 -15.667 -87.834 -47 -123.501s-70 -56.5 -116 -62.5v-67h-69v145c39.333 0 72.333 8 99 24c32.667 19.333 49 47.333 49 84c0 72 -35.333 108 -106 108c-64 0 -100 -34.333 -108 -103h-80z" />
    <glyph glyph-name="glyph317" unicode="&#x1ec4;" 
d="M944 0h-59.001c-199.333 0 -350.333 28.667 -453 86c-114.667 64 -203.667 152.333 -267 265c-62 110 -93 232 -93 366c0 172 50 321.833 150 449.5s233.667 208.5 401 242.5c75.333 15.333 182.333 23 321 23v-80c-20 1.33301 -48 2 -84 2
c-197.333 0 -354.666 -46 -471.999 -138c-124 -97.333 -196.667 -242 -218 -434h774v-82h-776c11.333 -207.333 78.666 -364 201.999 -470c118 -101.333 282 -152 492 -152h41c18.667 0.666992 32.334 1 41.001 1v-79zM397.999 1514l208 351h132l206 -351h-79l-193 277
l-193 -277h-81zM1029 2139c-36 -114.667 -96.332 -172 -180.999 -172c-25.333 0 -61.833 7.83301 -109.5 23.5s-84.167 23.5 -109.5 23.5c-40 0 -72 -22.333 -96 -67h-72c31.333 113.333 92.333 170 183 170c25.333 0 60.666 -7.83301 105.999 -23.5s80.333 -23.5 105 -23.5
c42 0 76 23 102 69h72z" />
    <glyph glyph-name="glyph318" unicode="&#x1ec5;" horiz-adv-x="1104" 
d="M1042 471c-8 -140 -55.6611 -255.666 -142.994 -346.999c-90.667 -94.667 -205.334 -142 -344.001 -142c-136.667 0 -252.334 49.167 -347.001 147.5s-142 216.166 -142 353.499c0 139.333 47.667 257.833 143 355.5s212.666 146.5 351.999 146.5
c178 0 315.333 -80.667 412 -242l-674 -450l-39 65l598 400c-74.667 102 -174.334 153 -299.001 153c-116.667 0 -213.667 -42.333 -291 -127c-76 -82 -114 -181.667 -114 -299c0 -116.667 37.333 -216 112 -298c77.333 -84 173.666 -126 288.999 -126
s209.666 40 282.999 120c69.333 76 108 172.667 116 290h88zM279.006 1081l208 351h132l206 -351h-79l-193 277l-193 -277h-81zM909.006 1706c-36 -114.667 -96.332 -172 -180.999 -172c-25.333 0 -61.833 7.83301 -109.5 23.5s-84.167 23.5 -109.5 23.5
c-40 0 -72 -22.333 -96 -67h-72c31.333 113.333 92.333 170 183 170c25.333 0 60.666 -7.83301 105.999 -23.5s80.333 -23.5 105 -23.5c42 0 76 23 102 69h72z" />
    <glyph glyph-name="glyph319" unicode="&#x1ec6;" 
d="M944 0h-59.001c-199.333 0 -350.333 28.667 -453 86c-114.667 64 -203.667 152.333 -267 265c-62 110 -93 232 -93 366c0 172 50 321.833 150 449.5s233.667 208.5 401 242.5c75.333 15.333 182.333 23 321 23v-80c-20 1.33301 -48 2 -84 2
c-197.333 0 -354.666 -46 -471.999 -138c-124 -97.333 -196.667 -242 -218 -434h774v-82h-776c11.333 -207.333 78.666 -364 201.999 -470c118 -101.333 282 -152 492 -152h41c18.667 0.666992 32.334 1 41.001 1v-79zM397.999 1514l208 351h132l206 -351h-79l-193 277
l-193 -277h-81zM595.999 -228c0 21.333 7.5 39.167 22.5 53.5s33.167 21.5 54.5 21.5c50.667 0 76 -25 76 -75c0 -22 -7.16699 -40.5 -21.5 -55.5s-32.5 -22.5 -54.5 -22.5s-40.333 7.5 -55 22.5s-22 33.5 -22 55.5z" />
    <glyph glyph-name="glyph320" unicode="&#x1ec7;" horiz-adv-x="1104" 
d="M1042 471c-8 -140 -55.6611 -255.666 -142.994 -346.999c-90.667 -94.667 -205.334 -142 -344.001 -142c-136.667 0 -252.334 49.167 -347.001 147.5s-142 216.166 -142 353.499c0 139.333 47.667 257.833 143 355.5s212.666 146.5 351.999 146.5
c178 0 315.333 -80.667 412 -242l-674 -450l-39 65l598 400c-74.667 102 -174.334 153 -299.001 153c-116.667 0 -213.667 -42.333 -291 -127c-76 -82 -114 -181.667 -114 -299c0 -116.667 37.333 -216 112 -298c77.333 -84 173.666 -126 288.999 -126
s209.666 40 282.999 120c69.333 76 108 172.667 116 290h88zM279.006 1081l208 351h132l206 -351h-79l-193 277l-193 -277h-81zM478.006 -227.999c0 21.333 7.5 39.167 22.5 53.5s33.167 21.5 54.5 21.5c50.667 0 76 -25 76 -75c0 -22 -7.16699 -40.5 -21.5 -55.5
s-32.5 -22.5 -54.5 -22.5s-40.333 7.5 -55 22.5s-22 33.5 -22 55.5z" />
    <glyph glyph-name="glyph321" unicode="&#x1ec8;" horiz-adv-x="389" 
d="M150 0v1432h90v-1432h-90zM14 1781c0 50.667 18.667 93.502 56 128.502s81.333 52.5 132 52.5c53.333 0 98.333 -17.833 135 -53.5s55 -79.834 55 -132.501c0 -46.667 -15.667 -87.834 -47 -123.501s-70 -56.5 -116 -62.5v-67h-69v145c39.333 0 72.333 8 99 24
c32.667 19.333 49 47.333 49 84c0 72 -35.333 108 -106 108c-64 0 -100 -34.333 -108 -103h-80z" />
    <glyph glyph-name="glyph322" unicode="&#x1ec9;" horiz-adv-x="350" 
d="M133 0v967h84v-967h-84zM-8 1319c0 50.667 18.667 93.502 56 128.502s81.333 52.5 132 52.5c53.333 0 98.333 -17.833 135 -53.5s55 -79.834 55 -132.501c0 -46.667 -15.667 -87.834 -47 -123.501s-70 -56.5 -116 -62.5v-67h-69v145c39.333 0 72.333 8 99 24
c32.667 19.333 49 47.333 49 84c0 72 -35.333 108 -106 108c-64 0 -100 -34.333 -108 -103h-80z" />
    <glyph glyph-name="glyph323" unicode="&#x1eca;" horiz-adv-x="389" 
d="M150 0v1432h90v-1432h-90zM118 -228c0 21.333 7.5 39.167 22.5 53.5s33.167 21.5 54.5 21.5c50.667 0 76 -25 76 -75c0 -22 -7.16699 -40.5 -21.5 -55.5s-32.5 -22.5 -54.5 -22.5s-40.333 7.5 -55 22.5s-22 33.5 -22 55.5z" />
    <glyph glyph-name="glyph324" unicode="&#x1ecb;" horiz-adv-x="350" 
d="M133 0v967h84v-967h-84zM115 1239c0 39.333 19.667 59 59 59c41.333 0 62 -19.667 62 -59c0 -40.667 -20.667 -61 -62 -61c-39.333 0 -59 20.333 -59 61zM99 -228c0 21.333 7.5 39.167 22.5 53.5s33.167 21.5 54.5 21.5c50.667 0 76 -25 76 -75
c0 -22 -7.16699 -40.5 -21.5 -55.5s-32.5 -22.5 -54.5 -22.5s-40.333 7.5 -55 22.5s-22 33.5 -22 55.5z" />
    <glyph glyph-name="glyph325" unicode="&#x1ecc;" horiz-adv-x="1583" 
d="M166 719c0 -178 59.667 -331.333 179 -460c122 -132 271.333 -198 448 -198c175.333 0 324 66.333 446 199c118.667 128.667 178 281.667 178 459c0 178 -59 331 -177 459c-121.333 130.667 -270.333 196 -447 196c-177.333 0 -327 -65.333 -449 -196
c-118.667 -127.333 -178 -280.333 -178 -459zM72 717c0 202 69.833 375.667 209.5 521s310.167 218 511.5 218c200 0 370.333 -73.333 511 -220c138 -144.667 207 -317.667 207 -519c0 -202 -69 -375.333 -207 -520c-140 -148 -310.333 -222 -511 -222
c-202 0 -373.333 73.333 -514 220c-138 144.667 -207 318.667 -207 522zM716 -228c0 21.333 7.5 39.167 22.5 53.5s33.167 21.5 54.5 21.5c50.667 0 76 -25 76 -75c0 -22 -7.16699 -40.5 -21.5 -55.5s-32.5 -22.5 -54.5 -22.5s-40.333 7.5 -55 22.5s-22 33.5 -22 55.5z" />
    <glyph glyph-name="glyph326" unicode="&#x1ecd;" horiz-adv-x="1110" 
d="M66 483c0 137.333 47.332 255.334 141.999 354.001s210.334 148 347.001 148c137.333 0 253.333 -49.667 348 -149c92.667 -97.333 139 -215 139 -353s-46.833 -256 -140.5 -354s-209.167 -147 -346.5 -147c-136.667 0 -252.667 49.667 -348 149
c-94 97.333 -141 214.666 -141 351.999zM153.999 485.001c0 -116.667 37.332 -216 111.999 -298c77.333 -84 173.666 -126 288.999 -126c114.667 0 210.334 42.333 287.001 127c74.667 82 112 181 112 297c0 116.667 -37 215.667 -111 297
c-76.667 84.667 -172.667 127 -288 127s-211.666 -42 -288.999 -126c-74.667 -82 -112 -181.333 -112 -298zM477.998 -227.999c0 21.333 7.5 39.167 22.5 53.5s33.167 21.5 54.5 21.5c50.667 0 76 -25 76 -75c0 -22 -7.16699 -40.5 -21.5 -55.5s-32.5 -22.5 -54.5 -22.5
s-40.333 7.5 -55 22.5s-22 33.5 -22 55.5z" />
    <glyph glyph-name="glyph327" unicode="&#x1ece;" horiz-adv-x="1583" 
d="M166 719c0 -178 59.667 -331.333 179 -460c122 -132 271.333 -198 448 -198c175.333 0 324 66.333 446 199c118.667 128.667 178 281.667 178 459c0 178 -59 331 -177 459c-121.333 130.667 -270.333 196 -447 196c-177.333 0 -327 -65.333 -449 -196
c-118.667 -127.333 -178 -280.333 -178 -459zM72 717c0 202 69.833 375.667 209.5 521s310.167 218 511.5 218c200 0 370.333 -73.333 511 -220c138 -144.667 207 -317.667 207 -519c0 -202 -69 -375.333 -207 -520c-140 -148 -310.333 -222 -511 -222
c-202 0 -373.333 73.333 -514 220c-138 144.667 -207 318.667 -207 522zM615 1781c0 50.667 18.667 93.502 56 128.502s81.333 52.5 132 52.5c53.333 0 98.333 -17.833 135 -53.5s55 -79.834 55 -132.501c0 -46.667 -15.667 -87.834 -47 -123.501s-70 -56.5 -116 -62.5v-67
h-69v145c39.333 0 72.333 8 99 24c32.667 19.333 49 47.333 49 84c0 72 -35.333 108 -106 108c-64 0 -100 -34.333 -108 -103h-80z" />
    <glyph glyph-name="glyph328" unicode="&#x1ecf;" horiz-adv-x="1110" 
d="M66 483c0 137.333 47.332 255.334 141.999 354.001s210.334 148 347.001 148c137.333 0 253.333 -49.667 348 -149c92.667 -97.333 139 -215 139 -353s-46.833 -256 -140.5 -354s-209.167 -147 -346.5 -147c-136.667 0 -252.667 49.667 -348 149
c-94 97.333 -141 214.666 -141 351.999zM153.999 485.001c0 -116.667 37.332 -216 111.999 -298c77.333 -84 173.666 -126 288.999 -126c114.667 0 210.334 42.333 287.001 127c74.667 82 112 181 112 297c0 116.667 -37 215.667 -111 297
c-76.667 84.667 -172.667 127 -288 127s-211.666 -42 -288.999 -126c-74.667 -82 -112 -181.333 -112 -298zM377.998 1319c0 50.667 18.667 93.502 56 128.502s81.333 52.5 132 52.5c53.333 0 98.333 -17.833 135 -53.5s55 -79.834 55 -132.501
c0 -46.667 -15.667 -87.834 -47 -123.501s-70 -56.5 -116 -62.5v-67h-69v145c39.333 0 72.333 8 99 24c32.667 19.333 49 47.333 49 84c0 72 -35.333 108 -106 108c-64 0 -100 -34.333 -108 -103h-80z" />
    <glyph glyph-name="glyph329" unicode="&#x1ed0;" horiz-adv-x="1583" 
d="M166 719c0 -178 59.667 -331.333 179 -460c122 -132 271.333 -198 448 -198c175.333 0 324 66.333 446 199c118.667 128.667 178 281.667 178 459c0 178 -59 331 -177 459c-121.333 130.667 -270.333 196 -447 196c-177.333 0 -327 -65.333 -449 -196
c-118.667 -127.333 -178 -280.333 -178 -459zM72 717c0 202 69.833 375.667 209.5 521s310.167 218 511.5 218c200 0 370.333 -73.333 511 -220c138 -144.667 207 -317.667 207 -519c0 -202 -69 -375.333 -207 -520c-140 -148 -310.333 -222 -511 -222
c-202 0 -373.333 73.333 -514 220c-138 144.667 -207 318.667 -207 522zM518 1514l208 351h132l206 -351h-79l-193 277l-193 -277h-81zM598 1909l215 351h133l-268 -351h-80z" />
    <glyph glyph-name="glyph330" unicode="&#x1ed1;" horiz-adv-x="1110" 
d="M66 483c0 137.333 47.332 255.334 141.999 354.001s210.334 148 347.001 148c137.333 0 253.333 -49.667 348 -149c92.667 -97.333 139 -215 139 -353s-46.833 -256 -140.5 -354s-209.167 -147 -346.5 -147c-136.667 0 -252.667 49.667 -348 149
c-94 97.333 -141 214.666 -141 351.999zM153.999 485.001c0 -116.667 37.332 -216 111.999 -298c77.333 -84 173.666 -126 288.999 -126c114.667 0 210.334 42.333 287.001 127c74.667 82 112 181 112 297c0 116.667 -37 215.667 -111 297
c-76.667 84.667 -172.667 127 -288 127s-211.666 -42 -288.999 -126c-74.667 -82 -112 -181.333 -112 -298zM280.998 1081l208 351h132l206 -351h-79l-193 277l-193 -277h-81zM360.998 1476l215 351h133l-268 -351h-80z" />
    <glyph glyph-name="glyph331" unicode="&#x1ed2;" horiz-adv-x="1583" 
d="M166 719c0 -178 59.667 -331.333 179 -460c122 -132 271.333 -198 448 -198c175.333 0 324 66.333 446 199c118.667 128.667 178 281.667 178 459c0 178 -59 331 -177 459c-121.333 130.667 -270.333 196 -447 196c-177.333 0 -327 -65.333 -449 -196
c-118.667 -127.333 -178 -280.333 -178 -459zM72 717c0 202 69.833 375.667 209.5 521s310.167 218 511.5 218c200 0 370.333 -73.333 511 -220c138 -144.667 207 -317.667 207 -519c0 -202 -69 -375.333 -207 -520c-140 -148 -310.333 -222 -511 -222
c-202 0 -373.333 73.333 -514 220c-138 144.667 -207 318.667 -207 522zM518 1514l208 351h132l206 -351h-79l-193 277l-193 -277h-81zM986 1909h-80l-268 351h133z" />
    <glyph glyph-name="glyph332" unicode="&#x1ed3;" horiz-adv-x="1110" 
d="M66 483c0 137.333 47.332 255.334 141.999 354.001s210.334 148 347.001 148c137.333 0 253.333 -49.667 348 -149c92.667 -97.333 139 -215 139 -353s-46.833 -256 -140.5 -354s-209.167 -147 -346.5 -147c-136.667 0 -252.667 49.667 -348 149
c-94 97.333 -141 214.666 -141 351.999zM153.999 485.001c0 -116.667 37.332 -216 111.999 -298c77.333 -84 173.666 -126 288.999 -126c114.667 0 210.334 42.333 287.001 127c74.667 82 112 181 112 297c0 116.667 -37 215.667 -111 297
c-76.667 84.667 -172.667 127 -288 127s-211.666 -42 -288.999 -126c-74.667 -82 -112 -181.333 -112 -298zM280.998 1081l208 351h132l206 -351h-79l-193 277l-193 -277h-81zM748.998 1476h-80l-268 351h133z" />
    <glyph glyph-name="glyph333" unicode="&#x1ed4;" horiz-adv-x="1583" 
d="M166 719c0 -178 59.667 -331.333 179 -460c122 -132 271.333 -198 448 -198c175.333 0 324 66.333 446 199c118.667 128.667 178 281.667 178 459c0 178 -59 331 -177 459c-121.333 130.667 -270.333 196 -447 196c-177.333 0 -327 -65.333 -449 -196
c-118.667 -127.333 -178 -280.333 -178 -459zM72 717c0 202 69.833 375.667 209.5 521s310.167 218 511.5 218c200 0 370.333 -73.333 511 -220c138 -144.667 207 -317.667 207 -519c0 -202 -69 -375.333 -207 -520c-140 -148 -310.333 -222 -511 -222
c-202 0 -373.333 73.333 -514 220c-138 144.667 -207 318.667 -207 522zM518 1514l208 351h132l206 -351h-79l-193 277l-193 -277h-81zM817 2073c0 50.667 18.667 93.502 56 128.502s81.333 52.5 132 52.5c53.333 0 98.333 -17.833 135 -53.5s55 -79.834 55 -132.501
c0 -46.667 -15.667 -87.834 -47 -123.501s-70 -56.5 -116 -62.5v-67h-69v145c39.333 0 72.333 8 99 24c32.667 19.333 49 47.333 49 84c0 72 -35.333 108 -106 108c-64 0 -100 -34.333 -108 -103h-80z" />
    <glyph glyph-name="glyph334" unicode="&#x1ed5;" horiz-adv-x="1110" 
d="M66 483c0 137.333 47.332 255.334 141.999 354.001s210.334 148 347.001 148c137.333 0 253.333 -49.667 348 -149c92.667 -97.333 139 -215 139 -353s-46.833 -256 -140.5 -354s-209.167 -147 -346.5 -147c-136.667 0 -252.667 49.667 -348 149
c-94 97.333 -141 214.666 -141 351.999zM153.999 485.001c0 -116.667 37.332 -216 111.999 -298c77.333 -84 173.666 -126 288.999 -126c114.667 0 210.334 42.333 287.001 127c74.667 82 112 181 112 297c0 116.667 -37 215.667 -111 297
c-76.667 84.667 -172.667 127 -288 127s-211.666 -42 -288.999 -126c-74.667 -82 -112 -181.333 -112 -298zM280.998 1081l208 351h132l206 -351h-79l-193 277l-193 -277h-81zM579.998 1640c0 50.667 18.667 93.502 56 128.502s81.333 52.5 132 52.5
c53.333 0 98.333 -17.833 135 -53.5s55 -79.834 55 -132.501c0 -46.667 -15.667 -87.834 -47 -123.501s-70 -56.5 -116 -62.5v-67h-69v145c39.333 0 72.333 8 99 24c32.667 19.333 49 47.333 49 84c0 72 -35.333 108 -106 108c-64 0 -100 -34.333 -108 -103h-80z" />
    <glyph glyph-name="glyph335" unicode="&#x1ed6;" horiz-adv-x="1583" 
d="M166 719c0 -178 59.667 -331.333 179 -460c122 -132 271.333 -198 448 -198c175.333 0 324 66.333 446 199c118.667 128.667 178 281.667 178 459c0 178 -59 331 -177 459c-121.333 130.667 -270.333 196 -447 196c-177.333 0 -327 -65.333 -449 -196
c-118.667 -127.333 -178 -280.333 -178 -459zM72 717c0 202 69.833 375.667 209.5 521s310.167 218 511.5 218c200 0 370.333 -73.333 511 -220c138 -144.667 207 -317.667 207 -519c0 -202 -69 -375.333 -207 -520c-140 -148 -310.333 -222 -511 -222
c-202 0 -373.333 73.333 -514 220c-138 144.667 -207 318.667 -207 522zM518 1514l208 351h132l206 -351h-79l-193 277l-193 -277h-81zM1149 2139c-36 -114.667 -96.332 -172 -180.999 -172c-25.333 0 -61.833 7.83301 -109.5 23.5s-84.167 23.5 -109.5 23.5
c-40 0 -72 -22.333 -96 -67h-72c31.333 113.333 92.333 170 183 170c25.333 0 60.666 -7.83301 105.999 -23.5s80.333 -23.5 105 -23.5c42 0 76 23 102 69h72z" />
    <glyph glyph-name="glyph336" unicode="&#x1ed7;" horiz-adv-x="1110" 
d="M66 483c0 137.333 47.332 255.334 141.999 354.001s210.334 148 347.001 148c137.333 0 253.333 -49.667 348 -149c92.667 -97.333 139 -215 139 -353s-46.833 -256 -140.5 -354s-209.167 -147 -346.5 -147c-136.667 0 -252.667 49.667 -348 149
c-94 97.333 -141 214.666 -141 351.999zM153.999 485.001c0 -116.667 37.332 -216 111.999 -298c77.333 -84 173.666 -126 288.999 -126c114.667 0 210.334 42.333 287.001 127c74.667 82 112 181 112 297c0 116.667 -37 215.667 -111 297
c-76.667 84.667 -172.667 127 -288 127s-211.666 -42 -288.999 -126c-74.667 -82 -112 -181.333 -112 -298zM280.998 1081l208 351h132l206 -351h-79l-193 277l-193 -277h-81zM910.998 1706c-36 -114.667 -96.332 -172 -180.999 -172c-25.333 0 -61.833 7.83301 -109.5 23.5
s-84.167 23.5 -109.5 23.5c-40 0 -72 -22.333 -96 -67h-72c31.333 113.333 92.333 170 183 170c25.333 0 60.666 -7.83301 105.999 -23.5s80.333 -23.5 105 -23.5c42 0 76 23 102 69h72z" />
    <glyph glyph-name="glyph337" unicode="&#x1ed8;" horiz-adv-x="1583" 
d="M166 719c0 -178 59.667 -331.333 179 -460c122 -132 271.333 -198 448 -198c175.333 0 324 66.333 446 199c118.667 128.667 178 281.667 178 459c0 178 -59 331 -177 459c-121.333 130.667 -270.333 196 -447 196c-177.333 0 -327 -65.333 -449 -196
c-118.667 -127.333 -178 -280.333 -178 -459zM72 717c0 202 69.833 375.667 209.5 521s310.167 218 511.5 218c200 0 370.333 -73.333 511 -220c138 -144.667 207 -317.667 207 -519c0 -202 -69 -375.333 -207 -520c-140 -148 -310.333 -222 -511 -222
c-202 0 -373.333 73.333 -514 220c-138 144.667 -207 318.667 -207 522zM518 1514l208 351h132l206 -351h-79l-193 277l-193 -277h-81zM716 -228c0 21.333 7.5 39.167 22.5 53.5s33.167 21.5 54.5 21.5c50.667 0 76 -25 76 -75c0 -22 -7.16699 -40.5 -21.5 -55.5
s-32.5 -22.5 -54.5 -22.5s-40.333 7.5 -55 22.5s-22 33.5 -22 55.5z" />
    <glyph glyph-name="glyph338" unicode="&#x1ed9;" horiz-adv-x="1110" 
d="M66 483c0 137.333 47.332 255.334 141.999 354.001s210.334 148 347.001 148c137.333 0 253.333 -49.667 348 -149c92.667 -97.333 139 -215 139 -353s-46.833 -256 -140.5 -354s-209.167 -147 -346.5 -147c-136.667 0 -252.667 49.667 -348 149
c-94 97.333 -141 214.666 -141 351.999zM153.999 485.001c0 -116.667 37.332 -216 111.999 -298c77.333 -84 173.666 -126 288.999 -126c114.667 0 210.334 42.333 287.001 127c74.667 82 112 181 112 297c0 116.667 -37 215.667 -111 297
c-76.667 84.667 -172.667 127 -288 127s-211.666 -42 -288.999 -126c-74.667 -82 -112 -181.333 -112 -298zM280.998 1081l208 351h132l206 -351h-79l-193 277l-193 -277h-81zM477.998 -227.999c0 21.333 7.5 39.167 22.5 53.5s33.167 21.5 54.5 21.5
c50.667 0 76 -25 76 -75c0 -22 -7.16699 -40.5 -21.5 -55.5s-32.5 -22.5 -54.5 -22.5s-40.333 7.5 -55 22.5s-22 33.5 -22 55.5z" />
    <glyph glyph-name="glyph339" unicode="&#x1eda;" horiz-adv-x="1583" 
d="M166 719c0 -178 59.667 -331.333 179 -460c122 -132 271.333 -198 448 -198c175.333 0 324 66.333 446 199c118.667 128.667 178 281.667 178 459c0 178 -59 331 -177 459c-121.333 130.667 -270.333 196 -447 196c-177.333 0 -327 -65.333 -449 -196
c-118.667 -127.333 -178 -280.333 -178 -459zM72 717c0 202 69.833 375.667 209.5 521s310.167 218 511.5 218c200 0 370.333 -73.333 511 -220c138 -144.667 207 -317.667 207 -519c0 -202 -69 -375.333 -207 -520c-140 -148 -310.333 -222 -511 -222
c-202 0 -373.333 73.333 -514 220c-138 144.667 -207 318.667 -207 522zM1212 1223l157 298h112l-189 -298h-80zM672 1564l215 351h133l-268 -351h-80z" />
    <glyph glyph-name="glyph340" unicode="&#x1edb;" horiz-adv-x="1110" 
d="M66 483c0 137.333 47.332 255.334 141.999 354.001s210.334 148 347.001 148c137.333 0 253.333 -49.667 348 -149c92.667 -97.333 139 -215 139 -353s-46.833 -256 -140.5 -354s-209.167 -147 -346.5 -147c-136.667 0 -252.667 49.667 -348 149
c-94 97.333 -141 214.666 -141 351.999zM153.999 485.001c0 -116.667 37.332 -216 111.999 -298c77.333 -84 173.666 -126 288.999 -126c114.667 0 210.334 42.333 287.001 127c74.667 82 112 181 112 297c0 116.667 -37 215.667 -111 297
c-76.667 84.667 -172.667 127 -288 127s-211.666 -42 -288.999 -126c-74.667 -82 -112 -181.333 -112 -298zM821.998 807.001l157 298h112l-189 -298h-80zM433.998 1081l215 351h133l-268 -351h-80z" />
    <glyph glyph-name="glyph341" unicode="&#x1edc;" horiz-adv-x="1583" 
d="M166 719c0 -178 59.667 -331.333 179 -460c122 -132 271.333 -198 448 -198c175.333 0 324 66.333 446 199c118.667 128.667 178 281.667 178 459c0 178 -59 331 -177 459c-121.333 130.667 -270.333 196 -447 196c-177.333 0 -327 -65.333 -449 -196
c-118.667 -127.333 -178 -280.333 -178 -459zM72 717c0 202 69.833 375.667 209.5 521s310.167 218 511.5 218c200 0 370.333 -73.333 511 -220c138 -144.667 207 -317.667 207 -519c0 -202 -69 -375.333 -207 -520c-140 -148 -310.333 -222 -511 -222
c-202 0 -373.333 73.333 -514 220c-138 144.667 -207 318.667 -207 522zM1212 1223l157 298h112l-189 -298h-80zM914 1564h-80l-268 351h133z" />
    <glyph glyph-name="glyph342" unicode="&#x1edd;" horiz-adv-x="1110" 
d="M66 483c0 137.333 47.332 255.334 141.999 354.001s210.334 148 347.001 148c137.333 0 253.333 -49.667 348 -149c92.667 -97.333 139 -215 139 -353s-46.833 -256 -140.5 -354s-209.167 -147 -346.5 -147c-136.667 0 -252.667 49.667 -348 149
c-94 97.333 -141 214.666 -141 351.999zM153.999 485.001c0 -116.667 37.332 -216 111.999 -298c77.333 -84 173.666 -126 288.999 -126c114.667 0 210.334 42.333 287.001 127c74.667 82 112 181 112 297c0 116.667 -37 215.667 -111 297
c-76.667 84.667 -172.667 127 -288 127s-211.666 -42 -288.999 -126c-74.667 -82 -112 -181.333 -112 -298zM821.998 807.001l157 298h112l-189 -298h-80zM675.998 1081h-80l-268 351h133z" />
    <glyph glyph-name="glyph343" unicode="&#x1ede;" horiz-adv-x="1583" 
d="M166 719c0 -178 59.667 -331.333 179 -460c122 -132 271.333 -198 448 -198c175.333 0 324 66.333 446 199c118.667 128.667 178 281.667 178 459c0 178 -59 331 -177 459c-121.333 130.667 -270.333 196 -447 196c-177.333 0 -327 -65.333 -449 -196
c-118.667 -127.333 -178 -280.333 -178 -459zM72 717c0 202 69.833 375.667 209.5 521s310.167 218 511.5 218c200 0 370.333 -73.333 511 -220c138 -144.667 207 -317.667 207 -519c0 -202 -69 -375.333 -207 -520c-140 -148 -310.333 -222 -511 -222
c-202 0 -373.333 73.333 -514 220c-138 144.667 -207 318.667 -207 522zM1212 1223l157 298h112l-189 -298h-80zM615 1781c0 50.667 18.667 93.502 56 128.502s81.333 52.5 132 52.5c53.333 0 98.333 -17.833 135 -53.5s55 -79.834 55 -132.501
c0 -46.667 -15.667 -87.834 -47 -123.501s-70 -56.5 -116 -62.5v-67h-69v145c39.333 0 72.333 8 99 24c32.667 19.333 49 47.333 49 84c0 72 -35.333 108 -106 108c-64 0 -100 -34.333 -108 -103h-80z" />
    <glyph glyph-name="glyph344" unicode="&#x1edf;" horiz-adv-x="1110" 
d="M66 483c0 137.333 47.332 255.334 141.999 354.001s210.334 148 347.001 148c137.333 0 253.333 -49.667 348 -149c92.667 -97.333 139 -215 139 -353s-46.833 -256 -140.5 -354s-209.167 -147 -346.5 -147c-136.667 0 -252.667 49.667 -348 149
c-94 97.333 -141 214.666 -141 351.999zM153.999 485.001c0 -116.667 37.332 -216 111.999 -298c77.333 -84 173.666 -126 288.999 -126c114.667 0 210.334 42.333 287.001 127c74.667 82 112 181 112 297c0 116.667 -37 215.667 -111 297
c-76.667 84.667 -172.667 127 -288 127s-211.666 -42 -288.999 -126c-74.667 -82 -112 -181.333 -112 -298zM821.998 807.001l157 298h112l-189 -298h-80zM377.998 1319c0 50.667 18.667 93.502 56 128.502s81.333 52.5 132 52.5c53.333 0 98.333 -17.833 135 -53.5
s55 -79.834 55 -132.501c0 -46.667 -15.667 -87.834 -47 -123.501s-70 -56.5 -116 -62.5v-67h-69v145c39.333 0 72.333 8 99 24c32.667 19.333 49 47.333 49 84c0 72 -35.333 108 -106 108c-64 0 -100 -34.333 -108 -103h-80z" />
    <glyph glyph-name="glyph345" unicode="&#x1ee0;" horiz-adv-x="1583" 
d="M166 719c0 -178 59.667 -331.333 179 -460c122 -132 271.333 -198 448 -198c175.333 0 324 66.333 446 199c118.667 128.667 178 281.667 178 459c0 178 -59 331 -177 459c-121.333 130.667 -270.333 196 -447 196c-177.333 0 -327 -65.333 -449 -196
c-118.667 -127.333 -178 -280.333 -178 -459zM72 717c0 202 69.833 375.667 209.5 521s310.167 218 511.5 218c200 0 370.333 -73.333 511 -220c138 -144.667 207 -317.667 207 -519c0 -202 -69 -375.333 -207 -520c-140 -148 -310.333 -222 -511 -222
c-202 0 -373.333 73.333 -514 220c-138 144.667 -207 318.667 -207 522zM1212 1223l157 298h112l-189 -298h-80zM1076 1822c-36 -114.667 -96.332 -172 -180.999 -172c-25.333 0 -61.833 7.83301 -109.5 23.5s-84.167 23.5 -109.5 23.5c-40 0 -72 -22.333 -96 -67h-72
c31.333 113.333 92.333 170 183 170c25.333 0 60.666 -7.83301 105.999 -23.5s80.333 -23.5 105 -23.5c42 0 76 23 102 69h72z" />
    <glyph glyph-name="glyph346" unicode="&#x1ee1;" horiz-adv-x="1110" 
d="M66 483c0 137.333 47.332 255.334 141.999 354.001s210.334 148 347.001 148c137.333 0 253.333 -49.667 348 -149c92.667 -97.333 139 -215 139 -353s-46.833 -256 -140.5 -354s-209.167 -147 -346.5 -147c-136.667 0 -252.667 49.667 -348 149
c-94 97.333 -141 214.666 -141 351.999zM153.999 485.001c0 -116.667 37.332 -216 111.999 -298c77.333 -84 173.666 -126 288.999 -126c114.667 0 210.334 42.333 287.001 127c74.667 82 112 181 112 297c0 116.667 -37 215.667 -111 297
c-76.667 84.667 -172.667 127 -288 127s-211.666 -42 -288.999 -126c-74.667 -82 -112 -181.333 -112 -298zM821.998 807.001l157 298h112l-189 -298h-80zM837.998 1339c-36 -114.667 -96.332 -172 -180.999 -172c-25.333 0 -61.833 7.83301 -109.5 23.5
s-84.167 23.5 -109.5 23.5c-40 0 -72 -22.333 -96 -67h-72c31.333 113.333 92.333 170 183 170c25.333 0 60.666 -7.83301 105.999 -23.5s80.333 -23.5 105 -23.5c42 0 76 23 102 69h72z" />
    <glyph glyph-name="glyph347" unicode="&#x1ee2;" horiz-adv-x="1583" 
d="M166 719c0 -178 59.667 -331.333 179 -460c122 -132 271.333 -198 448 -198c175.333 0 324 66.333 446 199c118.667 128.667 178 281.667 178 459c0 178 -59 331 -177 459c-121.333 130.667 -270.333 196 -447 196c-177.333 0 -327 -65.333 -449 -196
c-118.667 -127.333 -178 -280.333 -178 -459zM72 717c0 202 69.833 375.667 209.5 521s310.167 218 511.5 218c200 0 370.333 -73.333 511 -220c138 -144.667 207 -317.667 207 -519c0 -202 -69 -375.333 -207 -520c-140 -148 -310.333 -222 -511 -222
c-202 0 -373.333 73.333 -514 220c-138 144.667 -207 318.667 -207 522zM1212 1223l157 298h112l-189 -298h-80zM716 -228c0 21.333 7.5 39.167 22.5 53.5s33.167 21.5 54.5 21.5c50.667 0 76 -25 76 -75c0 -22 -7.16699 -40.5 -21.5 -55.5s-32.5 -22.5 -54.5 -22.5
s-40.333 7.5 -55 22.5s-22 33.5 -22 55.5z" />
    <glyph glyph-name="glyph348" unicode="&#x1ee3;" horiz-adv-x="1110" 
d="M66 483c0 137.333 47.332 255.334 141.999 354.001s210.334 148 347.001 148c137.333 0 253.333 -49.667 348 -149c92.667 -97.333 139 -215 139 -353s-46.833 -256 -140.5 -354s-209.167 -147 -346.5 -147c-136.667 0 -252.667 49.667 -348 149
c-94 97.333 -141 214.666 -141 351.999zM153.999 485.001c0 -116.667 37.332 -216 111.999 -298c77.333 -84 173.666 -126 288.999 -126c114.667 0 210.334 42.333 287.001 127c74.667 82 112 181 112 297c0 116.667 -37 215.667 -111 297
c-76.667 84.667 -172.667 127 -288 127s-211.666 -42 -288.999 -126c-74.667 -82 -112 -181.333 -112 -298zM821.998 807.001l157 298h112l-189 -298h-80zM477.998 -227.999c0 21.333 7.5 39.167 22.5 53.5s33.167 21.5 54.5 21.5c50.667 0 76 -25 76 -75
c0 -22 -7.16699 -40.5 -21.5 -55.5s-32.5 -22.5 -54.5 -22.5s-40.333 7.5 -55 22.5s-22 33.5 -22 55.5z" />
    <glyph glyph-name="glyph349" unicode="&#x1ee4;" horiz-adv-x="1204" 
d="M1075 1432l-0.000976562 -926c0 -154.667 -39.333 -280 -118 -376c-85.333 -103.333 -203.666 -155 -354.999 -155s-270 51.667 -356 155c-79.333 96 -119 221.333 -119 376v926h90v-891c0 -320 128.333 -480 385 -480c255.333 0 383 160 383 480v891h90zM524.999 -228
c0 21.333 7.5 39.167 22.5 53.5s33.167 21.5 54.5 21.5c50.667 0 76 -25 76 -75c0 -22 -7.16699 -40.5 -21.5 -55.5s-32.5 -22.5 -54.5 -22.5s-40.333 7.5 -55 22.5s-22 33.5 -22 55.5z" />
    <glyph glyph-name="glyph350" unicode="&#x1ee5;" 
d="M821 967h84.001v-547c0 -128 -33 -231.667 -99 -311c-70 -84.667 -168 -127 -294 -127s-224 42.333 -294 127c-66 79.333 -99 183 -99 311v547h82v-574c0 -96.667 27.333 -176 82 -238c57.333 -65.333 133.666 -98 228.999 -98s171.333 32.667 228 98
c54 62 81 141.333 81 238v574zM436.001 -228c0 21.333 7.5 39.167 22.5 53.5s33.167 21.5 54.5 21.5c50.667 0 76 -25 76 -75c0 -22 -7.16699 -40.5 -21.5 -55.5s-32.5 -22.5 -54.5 -22.5s-40.333 7.5 -55 22.5s-22 33.5 -22 55.5z" />
    <glyph glyph-name="glyph351" unicode="&#x1ee6;" horiz-adv-x="1204" 
d="M1075 1432l-0.000976562 -926c0 -154.667 -39.333 -280 -118 -376c-85.333 -103.333 -203.666 -155 -354.999 -155s-270 51.667 -356 155c-79.333 96 -119 221.333 -119 376v926h90v-891c0 -320 128.333 -480 385 -480c255.333 0 383 160 383 480v891h90zM424.999 1781
c0 50.667 18.667 93.502 56 128.502s81.333 52.5 132 52.5c53.333 0 98.333 -17.833 135 -53.5s55 -79.834 55 -132.501c0 -46.667 -15.667 -87.834 -47 -123.501s-70 -56.5 -116 -62.5v-67h-69v145c39.333 0 72.333 8 99 24c32.667 19.333 49 47.333 49 84
c0 72 -35.333 108 -106 108c-64 0 -100 -34.333 -108 -103h-80z" />
    <glyph glyph-name="glyph352" unicode="&#x1ee7;" 
d="M821 967h84.001v-547c0 -128 -33 -231.667 -99 -311c-70 -84.667 -168 -127 -294 -127s-224 42.333 -294 127c-66 79.333 -99 183 -99 311v547h82v-574c0 -96.667 27.333 -176 82 -238c57.333 -65.333 133.666 -98 228.999 -98s171.333 32.667 228 98
c54 62 81 141.333 81 238v574zM328.001 1319c0 50.667 18.667 93.502 56 128.502s81.333 52.5 132 52.5c53.333 0 98.333 -17.833 135 -53.5s55 -79.834 55 -132.501c0 -46.667 -15.667 -87.834 -47 -123.501s-70 -56.5 -116 -62.5v-67h-69v145c39.333 0 72.333 8 99 24
c32.667 19.333 49 47.333 49 84c0 72 -35.333 108 -106 108c-64 0 -100 -34.333 -108 -103h-80z" />
    <glyph glyph-name="glyph353" unicode="&#x1ee8;" horiz-adv-x="1237" 
d="M1075 1432l-0.000976562 -926c0 -154.667 -39.333 -280 -118 -376c-85.333 -103.333 -203.666 -155 -354.999 -155s-270 51.667 -356 155c-79.333 96 -119 221.333 -119 376v926h90v-891c0 -320 128.333 -480 385 -480c255.333 0 383 160 383 480v891h90zM992.999 1223
l157 298h112l-189 -298h-80zM480.999 1564l215 351h133l-268 -351h-80z" />
    <glyph glyph-name="glyph354" unicode="&#x1ee9;" horiz-adv-x="1048" 
d="M821 967h84.001v-547c0 -128 -33 -231.667 -99 -311c-70 -84.667 -168 -127 -294 -127s-224 42.333 -294 127c-66 79.333 -99 183 -99 311v547h82v-574c0 -96.667 27.333 -176 82 -238c57.333 -65.333 133.666 -98 228.999 -98s171.333 32.667 228 98
c54 62 81 141.333 81 238v574zM822.001 807l157 298h112l-189 -298h-80zM391.001 1081l215 351h133l-268 -351h-80z" />
    <glyph glyph-name="glyph355" unicode="&#x1eea;" horiz-adv-x="1237" 
d="M1075 1432l-0.000976562 -926c0 -154.667 -39.333 -280 -118 -376c-85.333 -103.333 -203.666 -155 -354.999 -155s-270 51.667 -356 155c-79.333 96 -119 221.333 -119 376v926h90v-891c0 -320 128.333 -480 385 -480c255.333 0 383 160 383 480v891h90zM992.999 1223
l157 298h112l-189 -298h-80zM722.999 1564h-80l-268 351h133z" />
    <glyph glyph-name="glyph356" unicode="&#x1eeb;" horiz-adv-x="1048" 
d="M821 967h84.001v-547c0 -128 -33 -231.667 -99 -311c-70 -84.667 -168 -127 -294 -127s-224 42.333 -294 127c-66 79.333 -99 183 -99 311v547h82v-574c0 -96.667 27.333 -176 82 -238c57.333 -65.333 133.666 -98 228.999 -98s171.333 32.667 228 98
c54 62 81 141.333 81 238v574zM822.001 807l157 298h112l-189 -298h-80zM633.001 1081h-80l-268 351h133z" />
    <glyph glyph-name="glyph357" unicode="&#x1eec;" horiz-adv-x="1237" 
d="M1075 1432l-0.000976562 -926c0 -154.667 -39.333 -280 -118 -376c-85.333 -103.333 -203.666 -155 -354.999 -155s-270 51.667 -356 155c-79.333 96 -119 221.333 -119 376v926h90v-891c0 -320 128.333 -480 385 -480c255.333 0 383 160 383 480v891h90zM992.999 1223
l157 298h112l-189 -298h-80zM424.999 1781c0 50.667 18.667 93.502 56 128.502s81.333 52.5 132 52.5c53.333 0 98.333 -17.833 135 -53.5s55 -79.834 55 -132.501c0 -46.667 -15.667 -87.834 -47 -123.501s-70 -56.5 -116 -62.5v-67h-69v145c39.333 0 72.333 8 99 24
c32.667 19.333 49 47.333 49 84c0 72 -35.333 108 -106 108c-64 0 -100 -34.333 -108 -103h-80z" />
    <glyph glyph-name="glyph358" unicode="&#x1eed;" horiz-adv-x="1048" 
d="M821 967h84.001v-547c0 -128 -33 -231.667 -99 -311c-70 -84.667 -168 -127 -294 -127s-224 42.333 -294 127c-66 79.333 -99 183 -99 311v547h82v-574c0 -96.667 27.333 -176 82 -238c57.333 -65.333 133.666 -98 228.999 -98s171.333 32.667 228 98
c54 62 81 141.333 81 238v574zM822.001 807l157 298h112l-189 -298h-80zM328.001 1319c0 50.667 18.667 93.502 56 128.502s81.333 52.5 132 52.5c53.333 0 98.333 -17.833 135 -53.5s55 -79.834 55 -132.501c0 -46.667 -15.667 -87.834 -47 -123.501s-70 -56.5 -116 -62.5
v-67h-69v145c39.333 0 72.333 8 99 24c32.667 19.333 49 47.333 49 84c0 72 -35.333 108 -106 108c-64 0 -100 -34.333 -108 -103h-80z" />
    <glyph glyph-name="glyph359" unicode="&#x1eee;" horiz-adv-x="1237" 
d="M1075 1432l-0.000976562 -926c0 -154.667 -39.333 -280 -118 -376c-85.333 -103.333 -203.666 -155 -354.999 -155s-270 51.667 -356 155c-79.333 96 -119 221.333 -119 376v926h90v-891c0 -320 128.333 -480 385 -480c255.333 0 383 160 383 480v891h90zM992.999 1223
l157 298h112l-189 -298h-80zM891.999 1822c-36 -114.667 -96.332 -172 -180.999 -172c-25.333 0 -61.833 7.83301 -109.5 23.5s-84.167 23.5 -109.5 23.5c-40 0 -72 -22.333 -96 -67h-72c31.333 113.333 92.333 170 183 170c25.333 0 60.666 -7.83301 105.999 -23.5
s80.333 -23.5 105 -23.5c42 0 76 23 102 69h72z" />
    <glyph glyph-name="glyph360" unicode="&#x1eef;" horiz-adv-x="1048" 
d="M821 967h84.001v-547c0 -128 -33 -231.667 -99 -311c-70 -84.667 -168 -127 -294 -127s-224 42.333 -294 127c-66 79.333 -99 183 -99 311v547h82v-574c0 -96.667 27.333 -176 82 -238c57.333 -65.333 133.666 -98 228.999 -98s171.333 32.667 228 98
c54 62 81 141.333 81 238v574zM822.001 807l157 298h112l-189 -298h-80zM810.001 1339c-36 -114.667 -96.332 -172 -180.999 -172c-25.333 0 -61.833 7.83301 -109.5 23.5s-84.167 23.5 -109.5 23.5c-40 0 -72 -22.333 -96 -67h-72c31.333 113.333 92.333 170 183 170
c25.333 0 60.666 -7.83301 105.999 -23.5s80.333 -23.5 105 -23.5c42 0 76 23 102 69h72z" />
    <glyph glyph-name="glyph361" unicode="&#x1ef0;" horiz-adv-x="1237" 
d="M1075 1432l-0.000976562 -926c0 -154.667 -39.333 -280 -118 -376c-85.333 -103.333 -203.666 -155 -354.999 -155s-270 51.667 -356 155c-79.333 96 -119 221.333 -119 376v926h90v-891c0 -320 128.333 -480 385 -480c255.333 0 383 160 383 480v891h90zM992.999 1223
l157 298h112l-189 -298h-80zM524.999 -228c0 21.333 7.5 39.167 22.5 53.5s33.167 21.5 54.5 21.5c50.667 0 76 -25 76 -75c0 -22 -7.16699 -40.5 -21.5 -55.5s-32.5 -22.5 -54.5 -22.5s-40.333 7.5 -55 22.5s-22 33.5 -22 55.5z" />
    <glyph glyph-name="glyph362" unicode="&#x1ef1;" horiz-adv-x="1048" 
d="M821 967h84.001v-547c0 -128 -33 -231.667 -99 -311c-70 -84.667 -168 -127 -294 -127s-224 42.333 -294 127c-66 79.333 -99 183 -99 311v547h82v-574c0 -96.667 27.333 -176 82 -238c57.333 -65.333 133.666 -98 228.999 -98s171.333 32.667 228 98
c54 62 81 141.333 81 238v574zM822.001 807l157 298h112l-189 -298h-80zM436.001 -228c0 21.333 7.5 39.167 22.5 53.5s33.167 21.5 54.5 21.5c50.667 0 76 -25 76 -75c0 -22 -7.16699 -40.5 -21.5 -55.5s-32.5 -22.5 -54.5 -22.5s-40.333 7.5 -55 22.5s-22 33.5 -22 55.5z
" />
    <glyph glyph-name="glyph363" unicode="&#x1ef2;" horiz-adv-x="1081" 
d="M205 1432l-0.000976562 -336.001c0 -280 112 -420 336 -420s336 140 336 420v336h90v-361c0 -132 -30.667 -238.333 -92 -319c-65.333 -87.333 -161.666 -138.666 -288.999 -153.999v-598h-90v598c-254 34 -381 191.667 -381 473v361h90zM662.999 1564h-80l-268 351h133z
" />
    <glyph glyph-name="glyph364" unicode="&#x1ef3;" 
d="M821 967l84.001 -0.000976562v-547c0 -259.333 -117.333 -404.666 -352 -435.999v-420h-84v420c-233.333 34.667 -350 180 -350 436v547h82v-574c0 -96.667 27.333 -176 82 -238c57.333 -65.333 133.666 -98 228.999 -98s171.333 32.667 228 98c54 62 81 141.333 81 238
v574zM633.001 1081h-80l-268 351h133z" />
    <glyph glyph-name="glyph365" unicode="&#x1ef4;" horiz-adv-x="1081" 
d="M205 1432l-0.000976562 -336.001c0 -280 112 -420 336 -420s336 140 336 420v336h90v-361c0 -132 -30.667 -238.333 -92 -319c-65.333 -87.333 -161.666 -138.666 -288.999 -153.999v-598h-90v598c-254 34 -381 191.667 -381 473v361h90zM464.999 -228.001
c0 21.333 7.5 39.167 22.5 53.5s33.167 21.5 54.5 21.5c50.667 0 76 -25 76 -75c0 -22 -7.16699 -40.5 -21.5 -55.5s-32.5 -22.5 -54.5 -22.5s-40.333 7.5 -55 22.5s-22 33.5 -22 55.5z" />
    <glyph glyph-name="glyph366" unicode="&#x1ef5;" 
d="M821 967l84.001 -0.000976562v-547c0 -259.333 -117.333 -404.666 -352 -435.999v-420h-84v420c-233.333 34.667 -350 180 -350 436v547h82v-574c0 -96.667 27.333 -176 82 -238c57.333 -65.333 133.666 -98 228.999 -98s171.333 32.667 228 98c54 62 81 141.333 81 238
v574zM625.001 -228.001c0 21.333 7.5 39.167 22.5 53.5s33.167 21.5 54.5 21.5c50.667 0 76 -25 76 -75c0 -22 -7.16699 -40.5 -21.5 -55.5s-32.5 -22.5 -54.5 -22.5s-40.333 7.5 -55 22.5s-22 33.5 -22 55.5z" />
    <glyph glyph-name="glyph367" unicode="&#x1ef6;" horiz-adv-x="1081" 
d="M205 1432l-0.000976562 -336.001c0 -280 112 -420 336 -420s336 140 336 420v336h90v-361c0 -132 -30.667 -238.333 -92 -319c-65.333 -87.333 -161.666 -138.666 -288.999 -153.999v-598h-90v598c-254 34 -381 191.667 -381 473v361h90zM354.999 1781
c0 50.667 18.667 93.502 56 128.502s81.333 52.5 132 52.5c53.333 0 98.333 -17.833 135 -53.5s55 -79.834 55 -132.501c0 -46.667 -15.667 -87.834 -47 -123.501s-70 -56.5 -116 -62.5v-67h-69v145c39.333 0 72.333 8 99 24c32.667 19.333 49 47.333 49 84
c0 72 -35.333 108 -106 108c-64 0 -100 -34.333 -108 -103h-80z" />
    <glyph glyph-name="glyph368" unicode="&#x1ef7;" 
d="M821 967l84.001 -0.000976562v-547c0 -259.333 -117.333 -404.666 -352 -435.999v-420h-84v420c-233.333 34.667 -350 180 -350 436v547h82v-574c0 -96.667 27.333 -176 82 -238c57.333 -65.333 133.666 -98 228.999 -98s171.333 32.667 228 98c54 62 81 141.333 81 238
v574zM328.001 1319c0 50.667 18.667 93.502 56 128.502s81.333 52.5 132 52.5c53.333 0 98.333 -17.833 135 -53.5s55 -79.834 55 -132.501c0 -46.667 -15.667 -87.834 -47 -123.501s-70 -56.5 -116 -62.5v-67h-69v145c39.333 0 72.333 8 99 24
c32.667 19.333 49 47.333 49 84c0 72 -35.333 108 -106 108c-64 0 -100 -34.333 -108 -103h-80z" />
    <glyph glyph-name="glyph369" unicode="&#x1ef8;" horiz-adv-x="1081" 
d="M205 1432l-0.000976562 -336.001c0 -280 112 -420 336 -420s336 140 336 420v336h90v-361c0 -132 -30.667 -238.333 -92 -319c-65.333 -87.333 -161.666 -138.666 -288.999 -153.999v-598h-90v598c-254 34 -381 191.667 -381 473v361h90zM841.999 1822
c-36 -114.667 -96.332 -172 -180.999 -172c-25.333 0 -61.833 7.83301 -109.5 23.5s-84.167 23.5 -109.5 23.5c-40 0 -72 -22.333 -96 -67h-72c31.333 113.333 92.333 170 183 170c25.333 0 60.666 -7.83301 105.999 -23.5s80.333 -23.5 105 -23.5c42 0 76 23 102 69h72z
" />
    <glyph glyph-name="glyph370" unicode="&#x1ef9;" 
d="M821 967l84.001 -0.000976562v-547c0 -259.333 -117.333 -404.666 -352 -435.999v-420h-84v420c-233.333 34.667 -350 180 -350 436v547h82v-574c0 -96.667 27.333 -176 82 -238c57.333 -65.333 133.666 -98 228.999 -98s171.333 32.667 228 98c54 62 81 141.333 81 238
v574zM810.001 1339c-36 -114.667 -96.332 -172 -180.999 -172c-25.333 0 -61.833 7.83301 -109.5 23.5s-84.167 23.5 -109.5 23.5c-40 0 -72 -22.333 -96 -67h-72c31.333 113.333 92.333 170 183 170c25.333 0 60.666 -7.83301 105.999 -23.5s80.333 -23.5 105 -23.5
c42 0 76 23 102 69h72z" />
    <glyph glyph-name="endash" unicode="&#x2013;" 
d="M0 455v82h1024v-82h-1024z" />
    <glyph glyph-name="emdash" unicode="&#x2014;" horiz-adv-x="2048" 
d="M0 537h2048v-82h-2048v82z" />
    <glyph glyph-name="quoteleft" unicode="&#x2018;" horiz-adv-x="547" 
d="M393 1432l-92 -324h-113l115 324h90z" />
    <glyph glyph-name="quoteright" unicode="&#x2019;" horiz-adv-x="547" 
d="M201 1108l92 324h115l-115 -324h-92z" />
    <glyph glyph-name="quotesinglbase" unicode="&#x201a;" horiz-adv-x="547" 
d="M135 -168l92 324h115l-115 -324h-92z" />
    <glyph glyph-name="quotedblleft" unicode="&#x201c;" horiz-adv-x="807" 
d="M653 1432l-92 -324h-115l115 324h92zM393 1432l-92 -324h-113l115 324h90z" />
    <glyph glyph-name="quotedblright" unicode="&#x201d;" horiz-adv-x="807" 
d="M461 1108l90 324h115l-115 -324h-90zM201 1108l92 324h115l-115 -324h-92z" />
    <glyph glyph-name="quotedblbase" unicode="&#x201e;" horiz-adv-x="807" 
d="M393 -168l92 324h115l-115 -324h-92zM135 -168l92 324h115l-115 -324h-92z" />
    <glyph glyph-name="dagger" unicode="&#x2020;" 
d="M467 -100v1095h-324v76h324v361h90v-361h336v-76h-336v-1095h-90z" />
    <glyph glyph-name="daggerdbl" unicode="&#x2021;" 
d="M557 -100h-90v491h-324v76h324v528h-324v76h324v361h90v-361h336v-76h-336v-528h336v-76h-336v-491z" />
    <glyph glyph-name="bullet" unicode="&#x2022;" horiz-adv-x="1208" 
d="M307 762c0 82.667 28.832 152.499 86.499 209.499s127.834 85.5 210.501 85.5c82 0 151.667 -28.667 209 -86s86 -127 86 -209s-29 -152 -87 -210s-128 -87 -210 -87c-82.667 0 -152.5 28.833 -209.5 86.5s-85.5 127.834 -85.5 210.501z" />
    <glyph glyph-name="ellipsis" unicode="&#x2026;" horiz-adv-x="2048" 
d="M265 68c0 21.333 7.5 39.167 22.5 53.5s33.167 21.5 54.5 21.5c50.667 0 76 -25 76 -75c0 -22 -7.16699 -40.5 -21.5 -55.5s-32.5 -22.5 -54.5 -22.5s-40.333 7.5 -55 22.5s-22 33.5 -22 55.5zM947 68.001c0 21.333 7.5 39.167 22.5 53.5s33.167 21.5 54.5 21.5
c50.667 0 76 -25 76 -75c0 -22 -7.16699 -40.5 -21.5 -55.5s-32.5 -22.5 -54.5 -22.5s-40.333 7.5 -55 22.5s-22 33.5 -22 55.5zM1631 68.002c0 21.333 7.5 39.167 22.5 53.5s33.167 21.5 54.5 21.5c50.667 0 76 -25 76 -75c0 -22 -7.16699 -40.5 -21.5 -55.5
s-32.5 -22.5 -54.5 -22.5s-40.333 7.5 -55 22.5s-22 33.5 -22 55.5z" />
    <glyph glyph-name="perthousand" unicode="&#x2030;" horiz-adv-x="2421" 
d="M1034 307c0 -62.667 22 -116.167 66 -160.5s97.333 -66.5 160 -66.5c63.333 0 116.666 22 159.999 66s65 97.667 65 161s-21.667 117.166 -65 161.499s-96.666 66.5 -159.999 66.5s-116.833 -22.167 -160.5 -66.5s-65.5 -98.166 -65.5 -161.499zM952 307
c0 86 29.833 158.999 89.5 218.999s132.5 90 218.5 90c85.333 0 158.166 -30.167 218.499 -90.5s90.5 -133.166 90.5 -218.499s-30.167 -157.833 -90.5 -217.5s-133.166 -89.5 -218.499 -89.5c-86 0 -158.833 29.667 -218.5 89s-89.5 132 -89.5 218zM1784 306.999
c0 -62 22 -115.331 66 -159.998s97 -67 159 -67c63.333 0 116.666 22 160 66c43.333 44 65 97.667 65 161s-21.667 117.166 -65 161.499s-96.666 66.5 -159.999 66.5c-62.667 0 -115.834 -22.333 -159.501 -67s-65.5 -98.334 -65.5 -161.001zM1702 307.001
c0 85.333 29.833 158.166 89.5 218.499s132.167 90.5 217.5 90.5s157.833 -30.167 217.5 -90.5s89.5 -133.166 89.5 -218.499c0 -86 -29.667 -158.667 -89 -218s-132 -89 -218 -89s-158.667 29.667 -218 89s-89 132 -89 218zM182 1147c0 -62.667 22 -116.167 66 -160.5
s97.333 -66.5 160 -66.5c63.333 0 116.333 22 159 66s64 97.667 64 161s-21.333 117 -64 161s-95.667 66 -159 66s-116.833 -22 -160.5 -66s-65.5 -97.667 -65.5 -161zM98 1147c0 85.333 30.333 158.166 91 218.499s133.667 90.5 219 90.5s157.833 -30.167 217.5 -90.5
s89.5 -133.166 89.5 -218.499c0 -86 -29.667 -158.667 -89 -218s-132 -89 -218 -89s-159.167 29.667 -219.5 89s-90.5 132 -90.5 218zM317 -24.999l949 1467h84l-944 -1467h-89z" />
    <glyph glyph-name="guilsinglleft" unicode="&#x2039;" horiz-adv-x="559" 
d="M475 172h-94l-240 317l240 318h94l-237 -318z" />
    <glyph glyph-name="guilsinglright" unicode="&#x203a;" horiz-adv-x="559" 
d="M84 172l238 317l-238 318h94l240 -318l-240 -317h-94z" />
    <glyph glyph-name="fraction" unicode="&#x2044;" horiz-adv-x="342" 
d="M-338 -25l948 1457h84l-950 -1457h-82z" />
    <glyph glyph-name="franc" unicode="&#x20a3;" horiz-adv-x="1503" 
d="M133 0v977c0 303.333 153.667 455 461 455h217v-82h-240c-232 0 -348 -114.667 -348 -344v-248h588v-80h-588v-678h-90zM1034 0l0.00195312 967h82v-189c78 128.667 190.667 193 338 193c14.667 0 33.667 -1.66699 57 -5v-81h-3c-8 0 -19.333 0.666992 -34 2
s-25.334 2 -32.001 2c-100.667 0 -181.334 -38.333 -242.001 -115c-56 -70.667 -84 -158 -84 -262v-512h-82z" />
    <glyph glyph-name="u20AB" unicode="&#x20ab;" horiz-adv-x="826" 
d="M674 1456l59 -0.000976562v-142h83v-43h-83v-443c0 -114 -28.333 -206.333 -85 -277c-60.667 -76.667 -146.667 -115 -258 -115c-99.333 0 -181 33.667 -245 101s-96 151 -96 251c0 100.667 32.333 184.667 97 252s147 101 247 101c88.667 0 167 -30.667 235 -92v-78
c-68 76 -146.333 114 -235 114c-84 0 -152 -28.5 -204 -85.5s-78 -127.833 -78 -212.5c0 -83.333 26 -153.333 78 -210c53.333 -58.667 121.333 -88 204 -88c91.333 0 162.333 33.667 213 101c45.333 60.667 68 138.334 68 233.001v448h-278v43h278v142zM677 306.999v-57
h-559v57h559z" />
    <glyph glyph-name="trademark" unicode="&#x2122;" horiz-adv-x="1706" 
d="M926 1454l174 -440l162 440h102v-530h-59v479l-181 -479h-49l-190 479v-479h-60v530h101zM694 1454v-51h-174v-479h-67v479h-179v51h420z" />
    <glyph glyph-name="partialdiff" unicode="&#x2202;" 
d="M750 578c14.667 92 22.001 193.668 22.001 305.001c0 236 -51.333 354 -154 354c-26 0 -59 -24.5 -99 -73.5s-76.333 -73.5 -109 -73.5c-45.333 0 -68 21.667 -68 65c0 46 24.333 82.667 73 110c41.333 23.333 86.666 35 135.999 35c125.333 0 218.333 -64 279 -192
c46 -96.667 69 -215.334 69 -356.001c0 -223.333 -43.833 -409 -131.5 -557s-195.5 -222 -323.5 -222c-102 0 -180.667 40.333 -236 121c-48.667 70 -73 158 -73 264c0 109.333 33 205.333 99 288c70.667 88 159.334 132 266.001 132
c127.333 0 210.666 -66.667 249.999 -200zM713.001 459.001c0 170.667 -61.667 256.001 -185 256.001c-94 0 -164.667 -55.667 -212 -167c-34.667 -82.667 -52 -178.667 -52 -288c0 -161.333 61.667 -242 185 -242c90.667 0 160 53.667 208 161
c37.333 83.333 56 176.666 56 279.999z" />
    <glyph glyph-name="product" unicode="&#x220f;" horiz-adv-x="1491" 
d="M164 1473h1163v-1866h-135v1743h-893v-1743h-135v1866z" />
    <glyph glyph-name="summation" unicode="&#x2211;" horiz-adv-x="1290" 
d="M45 1473h1208v-123h-1038l721 -787l-760 -835h1077v-121h-1243v127l752 829l-717 787v123z" />
    <glyph glyph-name="minus" unicode="&#x2212;" horiz-adv-x="1706" 
d="M1452 651v-82h-1198v82h1198z" />
    <glyph glyph-name="radical" unicode="&#x221a;" horiz-adv-x="1264" 
d="M1264 1626v-61h-129l-596 -1606h-31l-330 907l-110 -39l-15 50l230 79l278 -759l531 1429h172z" />
    <glyph glyph-name="infinity" unicode="&#x221e;" horiz-adv-x="1706" 
d="M889 557c71.333 -136.667 167.002 -205 287.002 -205c75.333 0 135.666 28 180.999 84c42.667 52 64 116.333 64 193c0 72.667 -18.667 135 -56 187c-41.333 58 -97 87 -167 87c-70.667 0 -136 -42 -196 -126c-32.667 -46.667 -70.334 -120 -113.001 -220zM819.002 670
c-69.333 136 -165.001 203.999 -287.001 203.999c-75.333 0 -136 -27.667 -182 -83c-42 -51.333 -63 -115.666 -63 -192.999c0 -72.667 18.667 -134.667 56 -186c41.333 -57.333 97 -86 167 -86c72 0 137.333 41.333 196 124c32.667 46 70.334 119.333 113.001 220z
M836.001 712.999c86.667 182.667 194.332 273.999 322.999 273.999c94.667 0 171 -39.333 229 -118c53.333 -71.333 80 -155.666 80 -252.999c0 -100 -22.667 -183.667 -68 -251c-52.667 -78 -126.667 -117 -222 -117c-117.333 0 -220 87.333 -308 262
c-91.333 -178.667 -198.333 -268 -321 -268c-94 0 -170.667 39 -230 117c-54 72 -81 156.333 -81 253c0 100 22.667 184 68 252c52.667 78 126.667 117 222 117c126.667 0 229.334 -89.333 308.001 -268z" />
    <glyph glyph-name="integral" unicode="&#x222b;" horiz-adv-x="948" 
d="M756 1546c40.667 0 74.667 -10.335 102 -31.002c30 -23.333 45 -54.666 45 -93.999c0 -65.333 -34 -98 -102 -98c-50 0 -83.833 21.5 -101.5 64.5s-28.834 64.5 -33.501 64.5c-44 0 -75 -53 -93 -159c-8.66699 -51.333 -15.334 -138.666 -20.001 -261.999
c-4 -113.333 -6 -255 -6 -425c0 -340 -28.667 -587.833 -86 -743.5s-146.666 -233.5 -267.999 -233.5c-38.667 0 -72 10 -100 30c-32 22 -48 51.667 -48 89c0 71.333 35 107 105 107c36.667 0 63.667 -11.333 81 -34c9.33301 -11.333 18.333 -32.333 27 -63
c6.66699 -22.667 15 -34 25 -34c43.333 0 74 55 92 165c8.66699 53.333 15.334 142 20.001 266c4 112.667 6 253.667 6 423c0 332.667 29 577.167 87 733.5s147.333 234.5 268 234.5z" />
    <glyph glyph-name="approxequal" unicode="&#x2248;" horiz-adv-x="1706" 
d="M1530 485c-140.667 -98 -269.667 -147 -387 -147c-66.667 0 -164.334 23.5 -293.001 70.5s-223.667 70.5 -285 70.5c-104.667 0 -233.667 -53.333 -387 -160v93c139.333 96.667 268.333 145 387 145c66.667 0 164.334 -23.167 293.001 -69.5s223.667 -69.5 285 -69.5
c104.667 0 233.667 53.333 387 160v-93zM1530 809c-139.333 -96.667 -268.333 -145 -387 -145c-66.667 0 -164.334 23.167 -293.001 69.5s-223.667 69.5 -285 69.5c-104.667 0 -233.667 -53.333 -387 -160v92c139.333 98.667 268.333 148 387 148
c66.667 0 164.334 -23.667 293.001 -71s223.667 -71 285 -71c100.667 0 229.667 54 387 162v-94z" />
    <glyph glyph-name="approxequal" unicode="&#x22f2;" horiz-adv-x="1706" 
d="M1530 485c-140.667 -98 -269.667 -147 -387 -147c-66.667 0 -164.334 23.5 -293.001 70.5s-223.667 70.5 -285 70.5c-104.667 0 -233.667 -53.333 -387 -160v93c139.333 96.667 268.333 145 387 145c66.667 0 164.334 -23.167 293.001 -69.5s223.667 -69.5 285 -69.5
c104.667 0 233.667 53.333 387 160v-93zM1530 809c-139.333 -96.667 -268.333 -145 -387 -145c-66.667 0 -164.334 23.167 -293.001 69.5s-223.667 69.5 -285 69.5c-104.667 0 -233.667 -53.333 -387 -160v92c139.333 98.667 268.333 148 387 148
c66.667 0 164.334 -23.667 293.001 -71s223.667 -71 285 -71c100.667 0 229.667 54 387 162v-94z" />
    <glyph glyph-name="notequal" unicode="&#x2260;" horiz-adv-x="1706" 
d="M1280 1108l-217 -277h389v-79h-440l-219 -283h659v-82h-711l-254 -324l-61 48l215 276h-387v82h436l221 283h-657v79h709l254 326z" />
    <glyph glyph-name="lessequal" unicode="&#x2264;" horiz-adv-x="1706" 
d="M1442 129v-80h-1178v80h1178zM1442 1083l-1043 -350l1043 -352v-88l-1178 405v70l1178 403v-88z" />
    <glyph glyph-name="greaterequal" unicode="&#x2265;" horiz-adv-x="1706" 
d="M1442 129v-80h-1178v80h1178zM1442 768v-70l-1178 -405v88l1043 352l-1043 350v88z" />
    <glyph glyph-name="SF370000" unicode="&#x255f;" horiz-adv-x="1204" 
d="M127 0l0.000976562 926c0 154.667 40 280 120 376c85.333 102.667 203.666 154 354.999 154s269.333 -51.667 354 -155c79.333 -96 119 -221 119 -375v-926h-90v711h-696v80h696v104c0 319.333 -127.667 479 -383 479c-256.667 0 -385 -159.667 -385 -479v-895h-90z" />
    <glyph glyph-name="SF420000" unicode="&#x2560;" 
d="M944 0h-59.001c-199.333 0 -350.333 28.667 -453 86c-114.667 64 -203.667 152.333 -267 265c-62 110 -93 232 -93 366c0 172 50 321.833 150 449.5s233.667 208.5 401 242.5c75.333 15.333 182.333 23 321 23v-80c-20 1.33301 -48 2 -84 2
c-197.333 0 -354.666 -46 -471.999 -138c-124 -97.333 -196.667 -242 -218 -434h774v-82h-776c11.333 -207.333 78.666 -364 201.999 -470c118 -101.333 282 -152 492 -152h41c18.667 0.666992 32.334 1 41.001 1v-79z" />
    <glyph glyph-name="SF190000" unicode="&#x2561;" horiz-adv-x="389" 
d="M150 0v1432h90v-1432h-90z" />
    <glyph glyph-name="SF200000" unicode="&#x2562;" horiz-adv-x="1583" 
d="M166 719c0 -178 59.667 -331.333 179 -460c122 -132 271.333 -198 448 -198c175.333 0 324 66.333 446 199c118.667 128.667 178 281.667 178 459c0 178 -59 331 -177 459c-121.333 130.667 -270.333 196 -447 196c-177.333 0 -327 -65.333 -449 -196
c-118.667 -127.333 -178 -280.333 -178 -459zM72 717c0 202 69.833 375.667 209.5 521s310.167 218 511.5 218c200 0 370.333 -73.333 511 -220c138 -144.667 207 -317.667 207 -519c0 -202 -69 -375.333 -207 -520c-140 -148 -310.333 -222 -511 -222
c-202 0 -373.333 73.333 -514 220c-138 144.667 -207 318.667 -207 522z" />
    <glyph glyph-name="SF230000" unicode="&#x2563;" horiz-adv-x="1204" 
d="M1075 1432l-0.000976562 -926c0 -154.667 -39.333 -280 -118 -376c-85.333 -103.333 -203.666 -155 -354.999 -155s-270 51.667 -356 155c-79.333 96 -119 221.333 -119 376v926h90v-891c0 -320 128.333 -480 385 -480c255.333 0 383 160 383 480v891h90z" />
    <glyph glyph-name="SF470000" unicode="&#x2564;" horiz-adv-x="1081" 
d="M205 1432l-0.000976562 -336.001c0 -280 112 -420 336 -420s336 140 336 420v336h90v-361c0 -132 -30.667 -238.333 -92 -319c-65.333 -87.333 -161.666 -138.666 -288.999 -153.999v-598h-90v598c-254 34 -381 191.667 -381 473v361h90z" />
    <glyph glyph-name="SF480000" unicode="&#x2565;" horiz-adv-x="1157" 
d="M954 0l0.000976562 434.003c0 135.333 -32 245.666 -96 330.999c-71.333 96 -172.333 144 -303 144c-118 0 -215 -41.667 -291 -125c-73.333 -80.667 -110 -180.334 -110 -299.001c0 -120.667 36.333 -220.667 109 -300c75.333 -82.667 172.666 -124 291.999 -124
c126.667 0 238 54 334 162v-110c-95.333 -87.333 -206.666 -131 -333.999 -131c-140.667 0 -257.334 48.167 -350.001 144.5s-139 215.166 -139 356.499c0 144 44.667 263 134 357c91.333 96.667 208.333 145 351 145c113.333 0 214.333 -34.833 303 -104.5
s144.667 -159.5 168 -269.5c10.667 -50.667 16 -111.667 16 -183v-428h-84z" />
    <glyph glyph-name="SF410000" unicode="&#x2566;" horiz-adv-x="1104" 
d="M1042 471c-8 -140 -55.6611 -255.666 -142.994 -346.999c-90.667 -94.667 -205.334 -142 -344.001 -142c-136.667 0 -252.334 49.167 -347.001 147.5s-142 216.166 -142 353.499c0 139.333 47.667 257.833 143 355.5s212.666 146.5 351.999 146.5
c178 0 315.333 -80.667 412 -242l-674 -450l-39 65l598 400c-74.667 102 -174.334 153 -299.001 153c-116.667 0 -213.667 -42.333 -291 -127c-76 -82 -114 -181.667 -114 -299c0 -116.667 37.333 -216 112 -298c77.333 -84 173.666 -126 288.999 -126
s209.666 40 282.999 120c69.333 76 108 172.667 116 290h88z" />
    <glyph glyph-name="SF450000" unicode="&#x2567;" horiz-adv-x="350" 
d="M133 0v967h84v-967h-84zM115 1239c0 39.333 19.667 59 59 59c41.333 0 62 -19.667 62 -59c0 -40.667 -20.667 -61 -62 -61c-39.333 0 -59 20.333 -59 61z" />
    <glyph glyph-name="SF460000" unicode="&#x2568;" horiz-adv-x="350" 
d="M133 0v967h84v-967h-84z" />
    <glyph glyph-name="SF400000" unicode="&#x2569;" horiz-adv-x="1110" 
d="M66 483c0 137.333 47.332 255.334 141.999 354.001s210.334 148 347.001 148c137.333 0 253.333 -49.667 348 -149c92.667 -97.333 139 -215 139 -353s-46.833 -256 -140.5 -354s-209.167 -147 -346.5 -147c-136.667 0 -252.667 49.667 -348 149
c-94 97.333 -141 214.666 -141 351.999zM153.999 485.001c0 -116.667 37.332 -216 111.999 -298c77.333 -84 173.666 -126 288.999 -126c114.667 0 210.334 42.333 287.001 127c74.667 82 112 181 112 297c0 116.667 -37 215.667 -111 297
c-76.667 84.667 -172.667 127 -288 127s-211.666 -42 -288.999 -126c-74.667 -82 -112 -181.333 -112 -298z" />
    <glyph glyph-name="SF540000" unicode="&#x256a;" 
d="M821 967h84.001v-547c0 -128 -33 -231.667 -99 -311c-70 -84.667 -168 -127 -294 -127s-224 42.333 -294 127c-66 79.333 -99 183 -99 311v547h82v-574c0 -96.667 27.333 -176 82 -238c57.333 -65.333 133.666 -98 228.999 -98s171.333 32.667 228 98
c54 62 81 141.333 81 238v574z" />
    <glyph glyph-name="SF530000" unicode="&#x256b;" 
d="M821 967l84.001 -0.000976562v-547c0 -259.333 -117.333 -404.666 -352 -435.999v-420h-84v420c-233.333 34.667 -350 180 -350 436v547h82v-574c0 -96.667 27.333 -176 82 -238c57.333 -65.333 133.666 -98 228.999 -98s171.333 32.667 228 98c54 62 81 141.333 81 238
v574z" />
    <glyph glyph-name="lozenge" unicode="&#x25ca;" horiz-adv-x="1012" 
d="M506 1409l-385 -817l385 -825l385 825zM506 1653l500 -1061l-500 -1069l-500 1069z" />
    <glyph glyph-name="circle" unicode="&#x25cb;" horiz-adv-x="1204" 
d="M328 1514l208 351h132l206 -351h-79l-193 277l-193 -277h-81zM408 1909l215 351h133l-268 -351h-80z" />
    <glyph glyph-name="H18533" unicode="&#x25cf;" horiz-adv-x="1204" 
d="M328 1514l208 351h132l206 -351h-79l-193 277l-193 -277h-81zM796 1909h-80l-268 351h133z" />
    <glyph glyph-name="invbullet" unicode="&#x25d8;" horiz-adv-x="1204" 
d="M328 1514l208 351h132l206 -351h-79l-193 277l-193 -277h-81zM627 2073c0 50.667 18.667 93.502 56 128.502s81.333 52.5 132 52.5c53.333 0 98.333 -17.833 135 -53.5s55 -79.834 55 -132.501c0 -46.667 -15.667 -87.834 -47 -123.501s-70 -56.5 -116 -62.5v-67h-69v145
c39.333 0 72.333 8 99 24c32.667 19.333 49 47.333 49 84c0 72 -35.333 108 -106 108c-64 0 -100 -34.333 -108 -103h-80z" />
    <glyph glyph-name="invcircle" unicode="&#x25d9;" horiz-adv-x="1204" 
d="M328 1514l208 351h132l206 -351h-79l-193 277l-193 -277h-81zM959 2139c-36 -114.667 -96.332 -172 -180.999 -172c-25.333 0 -61.833 7.83301 -109.5 23.5s-84.167 23.5 -109.5 23.5c-40 0 -72 -22.333 -96 -67h-72c31.333 113.333 92.333 170 183 170
c25.333 0 60.666 -7.83301 105.999 -23.5s80.333 -23.5 105 -23.5c42 0 76 23 102 69h72z" />
    <glyph glyph-name="apple" unicode="&#xf000;" horiz-adv-x="1618" 
d="M836 1216c-1.33301 8 -2 20.333 -2 37c0 88 33.667 167 101 237c64 66 140.667 107.333 230 124c1.33301 -13.333 2 -34 2 -62c0 -87.333 -34.5 -165.5 -103.5 -234.5s-139.5 -103.5 -211.5 -103.5c-2 0 -4.83301 0.333008 -8.5 1s-6.16699 1 -7.5 1zM1505 403
c-60 -130 -111.002 -223.334 -153.002 -280.001c-78.667 -105.333 -164 -158 -256 -158c-30 0 -72.667 11 -128 33s-97.333 33 -126 33c-30 0 -73.167 -11 -129.5 -33s-99.166 -33 -128.499 -33c-85.333 0 -171.666 58.667 -258.999 176c-66 89.333 -118 188 -156 296
c-37.333 103.333 -56 203.333 -56 300c0 140.667 39 256.667 117 348c82.667 97.333 193 146 331 146c38 0 88 -11.333 150 -34s105 -34 129 -34c22.667 0 64.667 11.667 126 35s110.666 35 147.999 35c144.667 0 264.334 -54.667 359.001 -164
c-134 -85.333 -201 -194.666 -201 -327.999c0 -155.333 77.667 -268 233 -338z" />
    <glyph glyph-name="fi" unicode="&#xf001;" horiz-adv-x="930" 
d="M692 1239c0 39.333 20.667 59 62 59c39.333 0 59 -19.667 59 -59c0 -40.667 -19.667 -61 -59 -61c-41.333 0 -62 20.333 -62 61zM131 0v1094c0 225.333 127.667 338 383 338h90v-78h-104c-191.333 0 -287 -89.667 -287 -269v-118h391v-80h-391v-887h-82zM711 0v967h84
v-967h-84z" />
    <glyph glyph-name="fl" unicode="&#xf002;" horiz-adv-x="930" 
d="M711 0v1432h84v-1432h-84zM131 0v1094c0 225.333 127.667 338 383 338h90v-78h-104c-191.333 0 -287 -89.667 -287 -269v-118h391v-80h-391v-887h-82z" />
    <glyph glyph-name=".null" horiz-adv-x="0" 
 />
    <glyph glyph-name="nonmarkingreturn" horiz-adv-x="547" 
 />
    <glyph glyph-name="periodcentered" horiz-adv-x="547" 
d="M197 735c0 21.333 7.5 39.333 22.5 54s33.167 22 54.5 22c50.667 0 76 -25.333 76 -76c0 -21.333 -7.33301 -39.666 -22 -54.999s-32.667 -23 -54 -23s-39.5 7.66699 -54.5 23s-22.5 33.666 -22.5 54.999z" />
    <glyph glyph-name="glyph275" horiz-adv-x="547" 
 />
    <glyph glyph-name="glyph276" horiz-adv-x="547" 
 />
    <glyph glyph-name="glyph261" horiz-adv-x="547" 
d="M167 1114l157 298h112l-189 -298h-80z" />
    <glyph glyph-name="glyph262" horiz-adv-x="823" 
d="M338 1309c0 50.667 18.667 93.502 56 128.502s81.333 52.5 132 52.5c53.333 0 98.333 -17.833 135 -53.5s55 -79.834 55 -132.501c0 -46.667 -15.667 -87.834 -47 -123.501s-70 -56.5 -116 -62.5v-67h-69v145c39.333 0 72.333 8 99 24c32.667 19.333 49 47.333 49 84
c0 72 -35.333 108 -106 108c-64 0 -100 -34.333 -108 -103h-80z" />
    <glyph glyph-name="glyph263" horiz-adv-x="1157" 
d="M277 1081l208 351h132l206 -351h-79l-193 277l-193 -277h-81zM357 1476l215 351h133l-268 -351h-80z" />
    <glyph glyph-name="glyph264" horiz-adv-x="1157" 
d="M277 1081l208 351h132l206 -351h-79l-193 277l-193 -277h-81zM745 1476h-80l-268 351h133z" />
    <glyph glyph-name="glyph265" horiz-adv-x="1157" 
d="M277 1081l208 351h132l206 -351h-79l-193 277l-193 -277h-81zM576 1640c0 50.667 18.667 93.502 56 128.502s81.333 52.5 132 52.5c53.333 0 98.333 -17.833 135 -53.5s55 -79.834 55 -132.501c0 -46.667 -15.667 -87.834 -47 -123.501s-70 -56.5 -116 -62.5v-67h-69v145
c39.333 0 72.333 8 99 24c32.667 19.333 49 47.333 49 84c0 72 -35.333 108 -106 108c-64 0 -100 -34.333 -108 -103h-80z" />
    <glyph glyph-name="glyph266" horiz-adv-x="1157" 
d="M277 1081l208 351h132l206 -351h-79l-193 277l-193 -277h-81zM907 1706c-36 -114.667 -96.332 -172 -180.999 -172c-25.333 0 -61.833 7.83301 -109.5 23.5s-84.167 23.5 -109.5 23.5c-40 0 -72 -22.333 -96 -67h-72c31.333 113.333 92.333 170 183 170
c25.333 0 60.666 -7.83301 105.999 -23.5s80.333 -23.5 105 -23.5c42 0 76 23 102 69h72z" />
    <glyph glyph-name="glyph267" horiz-adv-x="1157" 
d="M284 1382l60.999 2c6.66699 -103.333 75 -155 205 -155c128.667 0 196.334 51.667 203.001 155l63 -2c-11.333 -169.333 -100 -254 -266 -254s-254.667 84.667 -266 254zM406.999 1476l215 351h133l-268 -351h-80z" />
    <glyph glyph-name="glyph268" horiz-adv-x="1157" 
d="M284 1382l60.999 2c6.66699 -103.333 75 -155 205 -155c128.667 0 196.334 51.667 203.001 155l63 -2c-11.333 -169.333 -100 -254 -266 -254s-254.667 84.667 -266 254zM704.999 1476h-80l-268 351h133z" />
    <glyph glyph-name="glyph269" horiz-adv-x="1157" 
d="M284 1382l60.999 2c6.66699 -103.333 75 -155 205 -155c128.667 0 196.334 51.667 203.001 155l63 -2c-11.333 -169.333 -100 -254 -266 -254s-254.667 84.667 -266 254zM365.999 1640c0 50.667 18.667 93.502 56 128.502s81.333 52.5 132 52.5
c53.333 0 98.333 -17.833 135 -53.5s55 -79.834 55 -132.501c0 -46.667 -15.667 -87.834 -47 -123.501s-70 -56.5 -116 -62.5v-67h-69v145c39.333 0 72.333 8 99 24c32.667 19.333 49 47.333 49 84c0 72 -35.333 108 -106 108c-64 0 -100 -34.333 -108 -103h-80z" />
    <glyph glyph-name="glyph270" horiz-adv-x="1157" 
d="M284 1382l60.999 2c6.66699 -103.333 75 -155 205 -155c128.667 0 196.334 51.667 203.001 155l63 -2c-11.333 -169.333 -100 -254 -266 -254s-254.667 84.667 -266 254zM854.999 1706c-36 -114.667 -96.332 -172 -180.999 -172c-25.333 0 -61.833 7.83301 -109.5 23.5
s-84.167 23.5 -109.5 23.5c-40 0 -72 -22.333 -96 -67h-72c31.333 113.333 92.333 170 183 170c25.333 0 60.666 -7.83301 105.999 -23.5s80.333 -23.5 105 -23.5c42 0 76 23 102 69h72z" />
    </font>
</defs>
</svg>
